<svg id="Camada_1" data-name="Camada 1" xmlns="http://www.w3.org/2000/svg" viewBox="0 0 114.14 115.04"><defs><style>.cls-1{fill:#00797b;}</style></defs><path class="cls-1" d="M101.16,2.48c-5-.07-9.93-.16-14.89-.3-2.89-.08-5.77-.22-8.65-.4C74,1.55,70.45,1.19,66.87,1Q60.42.63,54,.46C46.62.27,39.27.15,31.92,0V.08c-2.13.07-4.25.13-6.38.23-2,.09-3.94.22-5.92.37-2.42.18-2.54.4-2.29,2.77.19,1.91.29,3.84.34,5.76a2.24,2.24,0,0,0,2.53,2.47c.46,0,.91,0,1.37,0,3.18.13,6.37.31,9.56.39,4.92.14,9.83.17,14.75.31,4.76.13,9.52.38,14.28.52,5.37.15,10.74.3,16.11.35,6.28.06,12.57,0,18.85,0,2,0,4.06,0,6.07.15,1.23.08,1.37.2,1.51-1,.31-2.56.56-5.13.7-7.71C103.5,2.72,103.16,2.51,101.16,2.48Z"/><path class="cls-1" d="M66.94,61.65c0-3.75,0-7.51,0-11.26h-.31c0-6.59-.12-13.19-.14-19.78,0-3.25.12-6.49.05-9.74-.05-2.09-.64-2.79-2.49-2.84-3.39-.11-6.77-.43-10.16-.64a4.09,4.09,0,0,0-1.21.08c-1,.24-1.25.74-1.09,1.78a15.94,15.94,0,0,1,.19,2.85c-.09,4.86-.25,9.73-.33,14.59-.11,6.28-.16,12.57-.22,18.85-.06,5.63,0,11.25-.17,16.88-.09,4.61-.38,9.22-.45,13.83-.09,6,0,12-.06,18,0,3.19-.06,6.38-.09,9.57,0,1.06.55,1.59,1.75,1.59,1.56,0,3.13-.09,4.69,0,2.17.09,4.34.32,6.52.42s2.45-.31,2.22-2.44a4,4,0,0,1,0-.6c.1-5.33.17-10.65.31-16,.08-3.14.26-6.28.4-9.43.25-5.92.56-11.85.74-17.77C67.17,66.92,67,64.28,66.94,61.65Z"/><path class="cls-1" d="M88.21,76.09c-.27-1.26-1.14-1.6-2.42-1.46-1,.1-1.92.11-2.88.16-3.13.16-6.26.29-9.39.52-1.44.1-2,.73-2,2.16,0,1.21.08,2.43.21,3.63.26,2.24,1.1,2.87,3.32,2.69,1.82-.14,3.63-.23,5.45-.34v.23L87,83.23c1.17-.08,1.7-.51,1.75-1.89A20.77,20.77,0,0,0,88.21,76.09Z"/><path class="cls-1" d="M46.76,56.49c-.27-1.26-1.14-1.6-2.42-1.46-1,.1-1.92.11-2.88.16-3.13.17-6.26.29-9.39.52-1.44.1-2,.73-2,2.17q0,1.82.21,3.63c.26,2.23,1.1,2.86,3.32,2.68,1.82-.14,3.63-.23,5.45-.34v.23c2.17-.15,4.33-.29,6.49-.45,1.17-.08,1.7-.51,1.75-1.89A20.77,20.77,0,0,0,46.76,56.49Z"/></svg>