<svg id="Camada_1" data-name="Camada 1" xmlns="http://www.w3.org/2000/svg" viewBox="0 0 131.01 119.56"><defs><style>.cls-1{fill:#00797b;}</style></defs><path class="cls-1" d="M92,22.91A26.73,26.73,0,0,0,52.55,3.39C44.18,8,39.55,15.26,38.78,24.88c-.58,7.21,2.18,13.43,6.27,19.3,6.67,9.58,12.84,19.5,18.61,29.66.43.76.81,1.37,1.23,2a1.25,1.25,0,0,0,2.11,0v0l21.5-35.67A25.4,25.4,0,0,0,92,22.91Zm-9.62,5.94c-.55,3.83-2.86-.28-4.47,3.24s3,2.59.47,5.51-2.26-1.78-5.52.3,1.14,3.81-2.58,4.89-.93-2.72-4.8-2.72-1.1,3.81-4.81,2.71.68-2.8-2.57-4.89-3,2.61-5.52-.32,2.09-2,.49-5.5-3.92.58-4.47-3.25,2.83-.54,3.38-4.37-3.61-1.64-2-5.16,2.67,1.08,5.21-1.84S53,14.12,56.29,12s1.67,2.35,5.38,1.26,0-4,3.86-4,.13,2.88,3.84,4S71.5,10,74.75,12.05s-1.45,2.49,1.08,5.42,3.6-1.67,5.21,1.86-2.56,1.31-2,5.14S83,25,82.39,28.85Z"/><path class="cls-1" d="M70.72,19.06a4.55,4.55,0,0,0-4.11,1c-1.17.91-1.24.92-1.88.28a6.51,6.51,0,0,0-2.79-1.45,5.48,5.48,0,0,0-4.26,1.63,6.31,6.31,0,0,0-1.08,5.1c.35,1.65,1,2.51,4.4,5.86,1.28,1.27,2.8,2.86,3.37,3.53a12,12,0,0,0,1.08,1.2s.53-.59,1.1-1.29,2-2.18,3.15-3.28,2.38-2.3,2.71-2.66a7.79,7.79,0,0,0,2.12-4.92A5.14,5.14,0,0,0,70.72,19.06Z"/><path class="cls-1" d="M67,75.84v0L68.69,73q-1.11-.87-2.07-1.77c0,1.64,0,3.28,0,4.91A1.19,1.19,0,0,0,67,75.84Z"/><path class="cls-1" d="M64.35,75l.07-6.07C60.3,64.2,58.54,57.67,58.2,51.54c-3,.54-4.87.88-7.32,1.3q6.72,10.29,12.78,21C63.9,74.26,64.12,74.64,64.35,75Z"/><path class="cls-1" d="M39.83,62.66a13.71,13.71,0,0,1,3.37,1.71l2.72-11q-7.72-1.53-15.43-3.22-3,6.57-6.07,13.14l.28-.08C29.44,62.06,34.86,60.91,39.83,62.66Z"/><path class="cls-1" d="M88.35,76a37.77,37.77,0,0,1-6,.53h-.87a51.77,51.77,0,0,0,7.38,1.73Z"/><path class="cls-1" d="M87.75,73.34,83.64,55.07q-5.2,8.66-10.42,17.29A26,26,0,0,0,87.75,73.34Z"/><path class="cls-1" d="M90.58,75.57l.75,3a94.37,94.37,0,0,0,22.09-.51l-5.27-11.42a36.53,36.53,0,0,1-3.49,2.74A41,41,0,0,1,90.58,75.57Z"/><path class="cls-1" d="M92,81.28q2.43,9.77,4.84,19.53a73.27,73.27,0,0,0,24.62-5.31q-3.4-7.38-6.8-14.74a92.77,92.77,0,0,1-13,1A86.58,86.58,0,0,1,92,81.28Z"/><path class="cls-1" d="M64.63,50.35l-3.89.73c.26,4.66,1.83,8.6,3.73,12.79Z"/><path class="cls-1" d="M89.91,72.86c6.31-2.14,11.92-4.7,16.73-9.45l-6.12-13.26q-7.71,1.7-15.44,3.22Z"/><path class="cls-1" d="M70.16,70.6,80.79,53c-4.81-.84-9.62-1.69-14.41-2.6q.09,8.3.19,16.6A25.15,25.15,0,0,0,70.16,70.6Z"/><path class="cls-1" d="M50.63,84.94a25.57,25.57,0,0,1-2.69-6.65,24.14,24.14,0,0,0-3.84-8.71Q42.57,76.42,41,83.26A28.38,28.38,0,0,1,50.63,84.94Z"/><path class="cls-1" d="M80.45,102.13A62.55,62.55,0,0,1,66.93,98.2l.21,18.38q15.48,1.55,31,3-1.81-8-3.62-16.1A99.67,99.67,0,0,1,80.45,102.13Z"/><path class="cls-1" d="M93.92,100.82Q91.69,90.89,89.46,81c-6.29-1.17-12.33-2.6-17.85-5.91L70,77.64h0v0a4.75,4.75,0,0,1-3.31,2.23q.07,7.55.17,15.09A74,74,0,0,0,81.33,99.6,64.29,64.29,0,0,0,93.92,100.82Z"/><path class="cls-1" d="M42.38,67.67a11.41,11.41,0,0,0-4.23-2.52c-4.82-1.56-10.23-.53-15,1q-5.84,12.66-11.68,25.3C20,87.56,29.12,84,38.5,83.34Q40.45,75.5,42.38,67.67Z"/><path class="cls-1" d="M61.91,77.77c-.39-.6-.82-1.28-1.33-2.19C56.36,68.14,52,61,47.55,54.22Q46.26,60,45,65.79c3.39,3.15,5.11,7.61,6.33,11.69,1.31,4.41,4,8.17,7.07,11.69l0,0h0a32.56,32.56,0,0,0,5.74,4.3l.16-13.82A4.83,4.83,0,0,1,61.91,77.77Z"/><path class="cls-1" d="M122.84,98.51a83.87,83.87,0,0,1-25.36,4.94l4,16.09q14.77-1.61,29.54-3.35Q126.92,107.35,122.84,98.51Z"/><path class="cls-1" d="M33.51,103.51Q35.67,94.75,37.85,86c-9.77.79-19.24,4.85-28,8.93L4.72,106l.76-.2C14.56,103.63,24.06,102.05,33.51,103.51Z"/><path class="cls-1" d="M3.34,109c-1.33,2.9-2,4.35-3.34,7.24q14.76,1.74,29.54,3.35,1.65-6.65,3.29-13.31l-.58-.11C22.72,104.84,12.88,106.28,3.34,109Z"/><path class="cls-1" d="M35.73,106.88l-2.85,12.68q9.93-.9,19.85-1.88A35.51,35.51,0,0,0,35.73,106.88Z"/><path class="cls-1" d="M40.44,85.9l-4.08,18.16c8.28,1.75,15.72,6.85,21.24,13.14l6.27-.62q.1-9.84.22-19.68a36.38,36.38,0,0,1-8.72-6A25.19,25.19,0,0,0,40.44,85.9Z"/></svg>