<svg id="Camada_1" data-name="Camada 1" xmlns="http://www.w3.org/2000/svg" viewBox="0 0 120.33 121.21"><defs><style>.cls-1{fill:#00797b;}.cls-2{fill:none;stroke:#00797b;stroke-miterlimit:10;stroke-width:3.35px;}</style></defs><path class="cls-1" d="M91.2,95.74c10-9,11.72,7.27,18.75-4.19s-8.28-5.63-4.76-18.62S119,72.72,118.7,59.27s-10-.26-14.07-13.08,11.49-7.64,4-18.8S100,32.59,89.7,24s5.53-12.63-6.82-18-4.39,9-17.74,7.36a10.64,10.64,0,0,1-5-1.7V28.18h0a32.46,32.46,0,0,1,10.14,63.3l7.33,22.32c1.19,1.65,3,2.39,7.59.17C97.26,108.13,81.23,104.76,91.2,95.74Z"/><path class="cls-2" d="M118.7,59.27c-.28-13.44-10-.26-14.07-13.08s11.49-7.64,4-18.8S100,32.59,89.7,24s5.53-12.63-6.82-18-4.39,9-17.74,7.36S63-.23,49.69,2s1.17,10-10.94,15.79-9.2-10.28-19.18-1.26,6.36,7.74-.67,19.2S5.6,32,2.08,45s9.54,3.07,9.82,16.52S-1.27,65.6,2.79,78.42,12.47,75.86,20,87s-8.87,10.57,1.47,19.16,6.76-7.39,19.1-2.06-1.75,13.68,11.6,15.31,1.69-9.87,15-12.06,5.92,12.45,18,6.61-3.92-9.21,6-18.23S102.92,103,110,91.55s-8.28-5.63-4.76-18.62S119,72.72,118.7,59.27ZM60.09,93.1A32.46,32.46,0,1,1,92.55,60.64,32.46,32.46,0,0,1,60.09,93.1Z"/><path class="cls-1" d="M57.41,54.17a7.71,7.71,0,0,1-1.84,5.53,6.55,6.55,0,0,1-5,1.92,6.55,6.55,0,0,1-4.95-1.92,7.66,7.66,0,0,1-1.84-5.53,7.65,7.65,0,0,1,1.84-5.52,6.55,6.55,0,0,1,4.95-1.92,6.55,6.55,0,0,1,5,1.92A7.7,7.7,0,0,1,57.41,54.17Zm-4.34,0a4.65,4.65,0,0,0-.69-2.84,2.16,2.16,0,0,0-1.76-.88,2.14,2.14,0,0,0-1.78.88,4.73,4.73,0,0,0-.68,2.84A4.8,4.8,0,0,0,48.84,57a2.1,2.1,0,0,0,1.78.9,2.13,2.13,0,0,0,1.76-.9A4.72,4.72,0,0,0,53.07,54.17Zm11.82-6.83h5.33l-15,26.59H49.89ZM76.36,67.1a7.62,7.62,0,0,1-1.84,5.52,7.34,7.34,0,0,1-9.9,0,7.62,7.62,0,0,1-1.84-5.52,7.65,7.65,0,0,1,1.84-5.52,7.34,7.34,0,0,1,9.9,0A7.65,7.65,0,0,1,76.36,67.1ZM72,67.1a4.72,4.72,0,0,0-.69-2.84,2.16,2.16,0,0,0-1.77-.88,2.11,2.11,0,0,0-1.78.88,4.73,4.73,0,0,0-.68,2.84A4.8,4.8,0,0,0,67.79,70a2.1,2.1,0,0,0,1.78.9,2.15,2.15,0,0,0,1.77-.9A4.79,4.79,0,0,0,72,67.1Z"/></svg>