<svg id="Camada_1" data-name="Camada 1" xmlns="http://www.w3.org/2000/svg" viewBox="0 0 143.77 120.79"><defs><style>.cls-1{fill:none;stroke:#00797b;stroke-miterlimit:10;stroke-width:4.63px;}.cls-2{fill:#00797b;}</style></defs><circle class="cls-1" cx="71.34" cy="37.61" r="35.13"/><path class="cls-2" d="M73,120.79H69.71A6.75,6.75,0,0,1,63,114.06V73.36c0-1.67,4.66-.62,8.36-.62h0c3.7,0,8.6-1.2,8.35.62v40.7A6.75,6.75,0,0,1,73,120.79Z"/><circle class="cls-2" cx="71.34" cy="25.66" r="12.71"/><path class="cls-2" d="M85.35,34.07a16.34,16.34,0,0,1-27.55.72A31.34,31.34,0,0,0,45.08,50.22a29.13,29.13,0,0,0,53.39-2A31,31,0,0,0,85.35,34.07Z"/><circle class="cls-2" cx="23.1" cy="58.67" r="10.27"/><path class="cls-2" d="M47.28,92.74a28.38,28.38,0,0,0,.31-4.16c0-10.12-5.36-18.87-13.17-23.11a13.21,13.21,0,0,1-22.27.59A26.23,26.23,0,0,0,0,88.58a28.38,28.38,0,0,0,.31,4.16Z"/><circle class="cls-2" cx="119.28" cy="57.05" r="10.27"/><path class="cls-2" d="M143.46,91.12a28.62,28.62,0,0,0,.31-4.17c0-10.11-5.36-18.87-13.17-23.11a13.21,13.21,0,0,1-22.27.59A26.23,26.23,0,0,0,96.18,87a28.62,28.62,0,0,0,.31,4.17Z"/></svg>