<svg id="Camada_1" data-name="Camada 1" xmlns="http://www.w3.org/2000/svg" viewBox="0 0 145.06 120.36"><defs><style>.cls-1,.cls-3{fill:none;stroke:#007a7b;stroke-miterlimit:10;}.cls-1{stroke-width:6.02px;}.cls-2{fill:#007a7b;}.cls-3{stroke-linecap:round;stroke-width:5.77px;}</style></defs><rect class="cls-1" x="2.83" y="3" width="78.83" height="114.33" rx="14.67"/><path class="cls-2" d="M145.05,58.79c-.28-13.72-10.21-.26-14.35-13.36s11.72-7.79,4.06-19.19-8.74,5.3-19.3-3.47,5.65-12.9-6.95-18.34S104,13.61,90.4,11.94,88.18-2,74.64.27c-3.34.55-5,1.45-5.69,2.58h1.57A10.44,10.44,0,0,1,80.94,13.26V37.8c.31.26.6.51.85.76,2.29,2.29,2.52,2.26,6.69-1,4.84-3.78,9.27-4.9,14.58-3.68,7.81,1.79,13.8,9.74,13.5,17.88a27.6,27.6,0,0,1-7.5,17.45c-1.2,1.29-5.53,5.54-9.63,9.44S90.31,87.8,88.26,90.29s-3.81,4.55-3.91,4.6a38.17,38.17,0,0,1-3.41-3.75v16a10.44,10.44,0,0,1-9.82,10.38c.65,1.29,2.27,2.27,6,2.73,13.62,1.68,1.72-10.07,15.26-12.31s6,12.72,18.41,6.75-4-9.41,6.18-18.62,11.95,7.43,19.13-4.28-8.45-5.75-4.86-19S145.34,72.53,145.05,58.79Z"/><rect class="cls-2" x="69.97" width="10.09" height="5.31"/><rect class="cls-2" x="68.83" y="116.83" width="13.42" height="3.53"/><line class="cls-3" x1="16.86" y1="22.77" x2="67.62" y2="22.77"/><line class="cls-3" x1="16.86" y1="38.43" x2="67.62" y2="38.43"/><line class="cls-3" x1="16.86" y1="54.09" x2="67.62" y2="54.09"/><line class="cls-3" x1="16.86" y1="69.75" x2="67.62" y2="69.75"/><line class="cls-3" x1="16.86" y1="85.41" x2="33.99" y2="85.41"/><line class="cls-3" x1="16.86" y1="101.07" x2="33.99" y2="101.07"/><path class="cls-2" d="M55.49,91.18l-9.14-8.51a12.82,12.82,0,0,0,4.21,20Z"/><path class="cls-2" d="M55.91,90.2l.32.3.18,0,12-3A12.85,12.85,0,0,0,47,81.93Z"/><path class="cls-2" d="M56.76,91.4l4.34,11.5A12.86,12.86,0,0,0,69,91.05a13.1,13.1,0,0,0-.26-2.6Z"/><path class="cls-2" d="M56.06,92.39,51.48,103a12.81,12.81,0,0,0,4.61.87,12.66,12.66,0,0,0,4.06-.67Z"/></svg>