<svg width="116" height="112" viewBox="0 0 116 112" fill="none" xmlns="http://www.w3.org/2000/svg">
<g id="Group">
<path id="Vector" d="M109.928 56.3237C109.729 62.9917 108.572 68.3906 106.131 73.5135C105.409 75.0351 104.945 76.68 104.376 78.2721C103.654 80.293 102.468 81.9615 100.86 83.4067C99.7919 84.3702 99.0231 85.6626 98.0136 86.7025C93.3416 91.5316 88.4877 96.1727 82.6419 99.586C77.9289 102.341 72.9401 104.362 67.423 104.873C64.4414 105.149 61.4832 105.608 58.5016 105.866C57.1458 105.984 55.749 105.907 54.3932 105.743C47.9017 104.967 41.8094 102.946 36.0282 99.8738C33.7568 98.6636 31.3563 97.6649 28.9382 96.7602C23.4856 94.7157 19.1776 91.1732 15.5034 86.7612C14.5702 85.6391 13.7544 84.4289 12.8681 83.2716C10.1096 79.6821 8.24312 75.5932 7.28643 71.2517C5.75455 64.3135 5.34371 57.2285 7.43316 50.3138C9.00026 45.1381 10.8374 40.0211 12.8916 35.0158C14.3648 31.4321 16.6656 28.2832 19.43 25.4868C22.4409 22.4436 25.0586 19.0245 28.5097 16.3984C33.076 12.9206 38.2586 10.7586 43.5409 8.6848C47.9252 6.96348 52.4857 6.67562 57.0696 6.22913C63.2558 5.6299 69.3656 6.28788 75.4403 7.25722C77.6413 7.60971 79.7249 8.6613 81.8906 9.27228C84.0094 9.87152 86.0989 10.4296 87.531 12.3096C87.7423 12.5857 88.2354 12.6973 88.6227 12.7737C91.4224 13.3201 93.054 15.3997 94.985 17.2503C98.2835 20.4051 100.373 24.306 102.386 28.2362C103.625 30.6449 104.247 33.3767 105.115 35.9734C105.444 36.9662 105.52 38.0766 105.978 38.9989C108.836 44.8032 109.488 51.0482 109.928 56.3237Z" fill="#E4E8EA" stroke="white" stroke-width="11.3386" stroke-miterlimit="10"/>
<g id="Group_2">
<g id="Group_3">
<g id="Clip path group">
<mask id="mask0_68_466" style="mask-type:luminance" maskUnits="userSpaceOnUse" x="6" y="6" width="104" height="100">
<g id="SVGID_12_">
<path id="Vector_2" d="M109.745 56.5176C109.552 63.1444 108.395 68.5081 105.971 73.5957C105.255 75.1056 104.792 76.7388 104.228 78.325C103.512 80.3342 102.332 81.9908 100.736 83.4243C99.6736 84.3819 98.9107 85.6626 97.907 86.6966C93.2644 91.4963 88.4458 96.1081 82.6352 99.4978C77.9515 102.235 72.9978 104.245 67.516 104.75C64.5578 105.026 61.6115 105.484 58.6534 105.737C57.3034 105.854 55.9183 105.778 54.5743 105.614C48.1239 104.844 42.0727 102.835 36.3267 99.7798C34.067 98.5813 31.6841 97.5826 29.2836 96.6838C23.8662 94.6511 19.5817 91.1321 15.9369 86.7495C15.0095 85.6391 14.1996 84.4348 13.3192 83.2833C10.5782 79.7173 8.72358 75.6519 7.77276 71.3398C6.25262 64.4428 5.84177 57.4106 7.91949 50.5429C9.47484 45.3966 11.3002 40.3148 13.3427 35.3447C14.8041 31.7846 17.0931 28.6592 19.8399 25.8804C22.8274 22.8549 25.4333 19.4592 28.861 16.8508C33.3921 13.3964 38.5453 11.2462 43.7924 9.19002C48.1533 7.48045 52.6784 7.19258 57.233 6.75197C63.384 6.15862 69.447 6.81071 75.4865 7.76831C77.6757 8.11492 79.7416 9.16652 81.8957 9.77162C84.0027 10.365 86.0746 10.9231 87.495 12.7913C87.7004 13.0615 88.1934 13.1732 88.5808 13.2495C91.3628 13.7959 92.9827 15.8579 94.902 17.6968C98.1829 20.828 100.255 24.7054 102.256 28.6122C103.483 31.0091 104.105 33.7174 104.968 36.2965C105.296 37.2834 105.373 38.382 105.825 39.3044C108.66 45.0734 109.305 51.2773 109.745 56.5176Z" fill="white"/>
</g>
</mask>
<g mask="url(#mask0_68_466)">
<path id="Vector_3" d="M42.9002 54.6963C46.2633 54.5024 49.6264 54.238 52.9953 54.1381C55.5367 54.0618 56.5463 55.0429 56.9043 57.5514C57.098 58.9203 56.646 59.6546 55.2844 59.9425C54.6857 60.0717 54.0401 59.9777 53.4179 60.0071C51.3872 60.0894 49.3564 60.2597 47.3315 60.248C44.9192 60.2304 42.4952 60.1422 40.0947 59.8955C39.3141 59.8132 38.4102 59.2904 37.8879 58.6853C36.3384 56.8817 36.6905 55.3425 38.915 54.8666C40.2004 54.5905 41.562 54.6904 42.8944 54.6199C42.9002 54.6375 42.9002 54.6669 42.9002 54.6963Z" fill="white"/>
</g>
</g>
<g id="Clip path group_2">
<mask id="mask1_68_466" style="mask-type:luminance" maskUnits="userSpaceOnUse" x="6" y="6" width="104" height="100">
<g id="SVGID_12__2">
<path id="Vector_4" d="M109.745 56.5176C109.552 63.1444 108.395 68.5081 105.971 73.5957C105.255 75.1056 104.792 76.7388 104.228 78.325C103.512 80.3342 102.332 81.9908 100.736 83.4243C99.6736 84.3819 98.9107 85.6626 97.907 86.6966C93.2644 91.4963 88.4458 96.1081 82.6352 99.4978C77.9515 102.235 72.9978 104.245 67.516 104.75C64.5578 105.026 61.6115 105.484 58.6534 105.737C57.3034 105.854 55.9183 105.778 54.5743 105.614C48.1239 104.844 42.0727 102.835 36.3267 99.7798C34.067 98.5813 31.6841 97.5826 29.2836 96.6838C23.8662 94.6511 19.5817 91.1321 15.9369 86.7495C15.0095 85.6391 14.1996 84.4348 13.3192 83.2833C10.5782 79.7173 8.72358 75.6519 7.77276 71.3398C6.25262 64.4428 5.84177 57.4106 7.91949 50.5429C9.47484 45.3966 11.3002 40.3148 13.3427 35.3447C14.8041 31.7846 17.0931 28.6592 19.8399 25.8804C22.8274 22.8549 25.4333 19.4592 28.861 16.8508C33.3921 13.3964 38.5453 11.2462 43.7924 9.19002C48.1533 7.48045 52.6784 7.19258 57.233 6.75197C63.384 6.15862 69.447 6.81071 75.4865 7.76831C77.6757 8.11492 79.7416 9.16652 81.8957 9.77162C84.0027 10.365 86.0746 10.9231 87.495 12.7913C87.7004 13.0615 88.1934 13.1732 88.5808 13.2495C91.3628 13.7959 92.9827 15.8579 94.902 17.6968C98.1829 20.828 100.255 24.7054 102.256 28.6122C103.483 31.0091 104.105 33.7174 104.968 36.2965C105.296 37.2834 105.373 38.382 105.825 39.3044C108.66 45.0734 109.305 51.2773 109.745 56.5176Z" fill="white"/>
</g>
</mask>
<g mask="url(#mask1_68_466)">
<path id="Vector_5" d="M25.0822 60.3714C23.2216 60.6357 21.361 60.906 19.5005 61.1527C18.2562 61.3172 17.0119 61.5052 15.7676 61.5698C13.9951 61.658 12.8213 60.6064 11.9468 59.2258C11.2014 58.0567 11.5593 57.152 12.8564 56.5997C13.0677 56.5116 13.3084 56.4705 13.5432 56.4352C17.5695 55.836 21.5254 54.7139 25.6515 54.8608C27.647 54.9371 29.6308 57.2166 29.3198 59.167C29.1554 60.1951 28.3924 60.6005 27.4651 60.6534C26.6844 60.6945 25.898 60.5946 25.1115 60.5594C25.0997 60.5006 25.0939 60.436 25.0822 60.3714Z" fill="white"/>
</g>
</g>
<g id="Clip path group_3">
<mask id="mask2_68_466" style="mask-type:luminance" maskUnits="userSpaceOnUse" x="6" y="6" width="104" height="100">
<g id="SVGID_12__3">
<path id="Vector_6" d="M109.745 56.5176C109.552 63.1444 108.395 68.5081 105.971 73.5957C105.255 75.1056 104.792 76.7388 104.228 78.325C103.512 80.3342 102.332 81.9908 100.736 83.4243C99.6736 84.3819 98.9107 85.6626 97.907 86.6966C93.2644 91.4963 88.4458 96.1081 82.6352 99.4978C77.9515 102.235 72.9978 104.245 67.516 104.75C64.5578 105.026 61.6115 105.484 58.6534 105.737C57.3034 105.854 55.9183 105.778 54.5743 105.614C48.1239 104.844 42.0727 102.835 36.3267 99.7798C34.067 98.5813 31.6841 97.5826 29.2836 96.6838C23.8662 94.6511 19.5817 91.1321 15.9369 86.7495C15.0095 85.6391 14.1996 84.4348 13.3192 83.2833C10.5782 79.7173 8.72358 75.6519 7.77276 71.3398C6.25262 64.4428 5.84177 57.4106 7.91949 50.5429C9.47484 45.3966 11.3002 40.3148 13.3427 35.3447C14.8041 31.7846 17.0931 28.6592 19.8399 25.8804C22.8274 22.8549 25.4333 19.4592 28.861 16.8508C33.3921 13.3964 38.5453 11.2462 43.7924 9.19002C48.1533 7.48045 52.6784 7.19258 57.233 6.75197C63.384 6.15862 69.447 6.81071 75.4865 7.76831C77.6757 8.11492 79.7416 9.16652 81.8957 9.77162C84.0027 10.365 86.0746 10.9231 87.495 12.7913C87.7004 13.0615 88.1934 13.1732 88.5808 13.2495C91.3628 13.7959 92.9827 15.8579 94.902 17.6968C98.1829 20.828 100.255 24.7054 102.256 28.6122C103.483 31.0091 104.105 33.7174 104.968 36.2965C105.296 37.2834 105.373 38.382 105.825 39.3044C108.66 45.0734 109.305 51.2773 109.745 56.5176Z" fill="white"/>
</g>
</mask>
<g mask="url(#mask2_68_466)">
<path id="Vector_7" d="M75.4636 55.1016C76.7255 55.1016 77.9874 55.1486 79.2434 55.0899C81.5441 54.9841 82.9293 57.9392 82.2661 59.9719C81.9609 60.9118 81.1803 61.0998 80.3879 61.0881C77.7174 61.0352 75.0352 61.0293 72.3881 60.7532C71.3904 60.6475 70.2869 60.0306 69.5532 59.3198C68.9663 58.7558 68.4029 57.4809 68.667 56.8934C69.0075 56.118 70.1109 55.3836 70.9971 55.2191C72.441 54.9489 73.9728 55.1428 75.4695 55.1428C75.4636 55.131 75.4636 55.1193 75.4636 55.1016Z" fill="white"/>
</g>
</g>
<g id="Clip path group_4">
<mask id="mask3_68_466" style="mask-type:luminance" maskUnits="userSpaceOnUse" x="6" y="6" width="104" height="100">
<g id="SVGID_12__4">
<path id="Vector_8" d="M109.745 56.5176C109.552 63.1444 108.395 68.5081 105.971 73.5957C105.255 75.1056 104.792 76.7388 104.228 78.325C103.512 80.3342 102.332 81.9908 100.736 83.4243C99.6736 84.3819 98.9107 85.6626 97.907 86.6966C93.2644 91.4963 88.4458 96.1081 82.6352 99.4978C77.9515 102.235 72.9978 104.245 67.516 104.75C64.5578 105.026 61.6115 105.484 58.6534 105.737C57.3034 105.854 55.9183 105.778 54.5743 105.614C48.1239 104.844 42.0727 102.835 36.3267 99.7798C34.067 98.5813 31.6841 97.5826 29.2836 96.6838C23.8662 94.6511 19.5817 91.1321 15.9369 86.7495C15.0095 85.6391 14.1996 84.4348 13.3192 83.2833C10.5782 79.7173 8.72358 75.6519 7.77276 71.3398C6.25262 64.4428 5.84177 57.4106 7.91949 50.5429C9.47484 45.3966 11.3002 40.3148 13.3427 35.3447C14.8041 31.7846 17.0931 28.6592 19.8399 25.8804C22.8274 22.8549 25.4333 19.4592 28.861 16.8508C33.3921 13.3964 38.5453 11.2462 43.7924 9.19002C48.1533 7.48045 52.6784 7.19258 57.233 6.75197C63.384 6.15862 69.447 6.81071 75.4865 7.76831C77.6757 8.11492 79.7416 9.16652 81.8957 9.77162C84.0027 10.365 86.0746 10.9231 87.495 12.7913C87.7004 13.0615 88.1934 13.1732 88.5808 13.2495C91.3628 13.7959 92.9827 15.8579 94.902 17.6968C98.1829 20.828 100.255 24.7054 102.256 28.6122C103.483 31.0091 104.105 33.7174 104.968 36.2965C105.296 37.2834 105.373 38.382 105.825 39.3044C108.66 45.0734 109.305 51.2773 109.745 56.5176Z" fill="white"/>
</g>
</mask>
<g mask="url(#mask3_68_466)">
<path id="Vector_9" d="M92.8594 57.0112C94.3267 56.7469 95.6766 56.3474 97.0324 56.3004C99.2979 56.2181 101.569 56.271 103.829 56.4296C105.924 56.5765 107.574 59.4787 106.635 61.341C106.406 61.7933 105.684 62.281 105.202 62.2692C102.467 62.2046 99.7205 62.1341 97.0148 61.7875C94.2034 61.4174 93.2761 60.2835 92.8594 57.0112Z" fill="white"/>
</g>
</g>
<g id="Clip path group_5">
<mask id="mask4_68_466" style="mask-type:luminance" maskUnits="userSpaceOnUse" x="6" y="6" width="104" height="100">
<g id="SVGID_12__5">
<path id="Vector_10" d="M109.745 56.5176C109.552 63.1444 108.395 68.5081 105.971 73.5957C105.255 75.1056 104.792 76.7388 104.228 78.325C103.512 80.3342 102.332 81.9908 100.736 83.4243C99.6736 84.3819 98.9107 85.6626 97.907 86.6966C93.2644 91.4963 88.4458 96.1081 82.6352 99.4978C77.9515 102.235 72.9978 104.245 67.516 104.75C64.5578 105.026 61.6115 105.484 58.6534 105.737C57.3034 105.854 55.9183 105.778 54.5743 105.614C48.1239 104.844 42.0727 102.835 36.3267 99.7798C34.067 98.5813 31.6841 97.5826 29.2836 96.6838C23.8662 94.6511 19.5817 91.1321 15.9369 86.7495C15.0095 85.6391 14.1996 84.4348 13.3192 83.2833C10.5782 79.7173 8.72358 75.6519 7.77276 71.3398C6.25262 64.4428 5.84177 57.4106 7.91949 50.5429C9.47484 45.3966 11.3002 40.3148 13.3427 35.3447C14.8041 31.7846 17.0931 28.6592 19.8399 25.8804C22.8274 22.8549 25.4333 19.4592 28.861 16.8508C33.3921 13.3964 38.5453 11.2462 43.7924 9.19002C48.1533 7.48045 52.6784 7.19258 57.233 6.75197C63.384 6.15862 69.447 6.81071 75.4865 7.76831C77.6757 8.11492 79.7416 9.16652 81.8957 9.77162C84.0027 10.365 86.0746 10.9231 87.495 12.7913C87.7004 13.0615 88.1934 13.1732 88.5808 13.2495C91.3628 13.7959 92.9827 15.8579 94.902 17.6968C98.1829 20.828 100.255 24.7054 102.256 28.6122C103.483 31.0091 104.105 33.7174 104.968 36.2965C105.296 37.2834 105.373 38.382 105.825 39.3044C108.66 45.0734 109.305 51.2773 109.745 56.5176Z" fill="white"/>
</g>
</mask>
<g mask="url(#mask4_68_466)">
<g id="Group_4">
<path id="Vector_11" d="M56.7993 30.6685C58.114 29.8519 59.9746 29.1645 60.808 28.5476C61.6121 27.9543 62.4044 27.2963 63.0559 26.5443C63.5959 25.9157 63.8366 25.0404 63.2203 24.306C62.5277 23.4835 61.6238 22.9959 60.4911 23.2192C60.2093 23.2721 59.9335 23.4189 59.687 23.5658C54.8683 26.3798 49.9088 29 45.7651 32.8245C45.1019 33.4355 44.644 34.3343 44.2743 35.1803C43.8047 36.2495 44.0982 37.1543 45.1899 37.7887C48.8171 39.8919 52.3974 42.0656 56.0422 44.1394C57.5917 45.0206 59.4229 44.5272 60.5204 43.129C61.3715 42.048 61.1954 40.638 59.9746 39.9037C58.3429 38.9167 56.6349 38.0648 54.9622 37.1425C54.7157 37.0074 54.4985 36.8135 54.0231 36.4728C54.5396 36.2848 54.8272 36.1144 55.1324 36.085C62.9796 35.3272 61.2306 35.2332 67.9098 35.2626C70.1812 35.4036 72.4467 35.6973 74.7123 35.9382C76.4378 36.1203 77.9463 35.6797 79.0849 34.3402C80.0768 33.177 79.7246 31.8963 78.2866 31.3617C77.8112 31.1854 77.283 31.1384 76.7724 31.0914C69.2128 30.3571 72.4409 30.1867 64.852 30.4981C62.9386 30.5744 61.0311 30.6919 59.1177 30.7683C58.8536 30.7624 57.6562 30.8447 56.7993 30.6685Z" fill="#394557"/>
</g>
</g>
</g>
<g id="Clip path group_6">
<mask id="mask5_68_466" style="mask-type:luminance" maskUnits="userSpaceOnUse" x="6" y="6" width="104" height="100">
<g id="SVGID_12__6">
<path id="Vector_12" d="M109.745 56.5176C109.552 63.1444 108.395 68.5081 105.971 73.5957C105.255 75.1056 104.792 76.7388 104.228 78.325C103.512 80.3342 102.332 81.9908 100.736 83.4243C99.6736 84.3819 98.9107 85.6626 97.907 86.6966C93.2644 91.4963 88.4458 96.1081 82.6352 99.4978C77.9515 102.235 72.9978 104.245 67.516 104.75C64.5578 105.026 61.6115 105.484 58.6534 105.737C57.3034 105.854 55.9183 105.778 54.5743 105.614C48.1239 104.844 42.0727 102.835 36.3267 99.7798C34.067 98.5813 31.6841 97.5826 29.2836 96.6838C23.8662 94.6511 19.5817 91.1321 15.9369 86.7495C15.0095 85.6391 14.1996 84.4348 13.3192 83.2833C10.5782 79.7173 8.72358 75.6519 7.77276 71.3398C6.25262 64.4428 5.84177 57.4106 7.91949 50.5429C9.47484 45.3966 11.3002 40.3148 13.3427 35.3447C14.8041 31.7846 17.0931 28.6592 19.8399 25.8804C22.8274 22.8549 25.4333 19.4592 28.861 16.8508C33.3921 13.3964 38.5453 11.2462 43.7924 9.19002C48.1533 7.48045 52.6784 7.19258 57.233 6.75197C63.384 6.15862 69.447 6.81071 75.4865 7.76831C77.6757 8.11492 79.7416 9.16652 81.8957 9.77162C84.0027 10.365 86.0746 10.9231 87.495 12.7913C87.7004 13.0615 88.1934 13.1732 88.5808 13.2495C91.3628 13.7959 92.9827 15.8579 94.902 17.6968C98.1829 20.828 100.255 24.7054 102.256 28.6122C103.483 31.0091 104.105 33.7174 104.968 36.2965C105.296 37.2834 105.373 38.382 105.825 39.3044C108.66 45.0734 109.305 51.2773 109.745 56.5176Z" fill="white"/>
</g>
</mask>
<g mask="url(#mask5_68_466)">
<path id="Vector_13" d="M34.9298 92.3188C41.251 92.6948 50.994 93.435 60.7545 93.7992C69.0067 94.1106 77.2179 95.127 85.517 94.892C91.715 94.7157 97.9422 95.4207 104.158 95.7732C108.953 96.0493 113.736 96.4077 118.532 96.6838C119.858 96.7602 121.214 96.5134 122.517 96.6838C124.266 96.907 125.804 99.0279 125.698 100.749C125.651 101.56 125.246 102.124 124.436 102.224C123.421 102.353 122.388 102.488 121.378 102.418C116.113 102.059 110.86 101.613 105.596 101.243C101.352 100.943 97.1088 100.643 92.8653 100.473C83.5039 100.085 74.1307 99.8621 64.775 99.4156C54.7856 98.9397 44.8078 98.1114 34.8124 97.7706C26.079 97.4769 17.3279 97.6003 8.58852 97.6355C4.1807 97.6531 -0.227059 97.9292 -4.62901 97.9645C-5.5857 97.9704 -6.62455 97.5826 -7.48734 97.1185C-8.85488 96.39 -9.52399 95.1446 -9.26574 94.3104C-8.95467 93.3116 -7.05891 92.2013 -5.83224 92.26C-4.18297 92.3364 -2.53374 92.4363 -0.878611 92.4363C2.34949 92.4304 5.57758 92.3247 8.80568 92.3188C16.3653 92.307 23.9249 92.3188 34.9298 92.3188Z" fill="#CE4530"/>
</g>
</g>
<g id="Clip path group_7">
<mask id="mask6_68_466" style="mask-type:luminance" maskUnits="userSpaceOnUse" x="6" y="6" width="104" height="100">
<g id="SVGID_12__7">
<path id="Vector_14" d="M109.745 56.5176C109.552 63.1444 108.395 68.5081 105.971 73.5957C105.255 75.1056 104.792 76.7388 104.228 78.325C103.512 80.3342 102.332 81.9908 100.736 83.4243C99.6736 84.3819 98.9107 85.6626 97.907 86.6966C93.2644 91.4963 88.4458 96.1081 82.6352 99.4978C77.9515 102.235 72.9978 104.245 67.516 104.75C64.5578 105.026 61.6115 105.484 58.6534 105.737C57.3034 105.854 55.9183 105.778 54.5743 105.614C48.1239 104.844 42.0727 102.835 36.3267 99.7798C34.067 98.5813 31.6841 97.5826 29.2836 96.6838C23.8662 94.6511 19.5817 91.1321 15.9369 86.7495C15.0095 85.6391 14.1996 84.4348 13.3192 83.2833C10.5782 79.7173 8.72358 75.6519 7.77276 71.3398C6.25262 64.4428 5.84177 57.4106 7.91949 50.5429C9.47484 45.3966 11.3002 40.3148 13.3427 35.3447C14.8041 31.7846 17.0931 28.6592 19.8399 25.8804C22.8274 22.8549 25.4333 19.4592 28.861 16.8508C33.3921 13.3964 38.5453 11.2462 43.7924 9.19002C48.1533 7.48045 52.6784 7.19258 57.233 6.75197C63.384 6.15862 69.447 6.81071 75.4865 7.76831C77.6757 8.11492 79.7416 9.16652 81.8957 9.77162C84.0027 10.365 86.0746 10.9231 87.495 12.7913C87.7004 13.0615 88.1934 13.1732 88.5808 13.2495C91.3628 13.7959 92.9827 15.8579 94.902 17.6968C98.1829 20.828 100.255 24.7054 102.256 28.6122C103.483 31.0091 104.105 33.7174 104.968 36.2965C105.296 37.2834 105.373 38.382 105.825 39.3044C108.66 45.0734 109.305 51.2773 109.745 56.5176Z" fill="white"/>
</g>
</mask>
<g mask="url(#mask6_68_466)">
<path id="Vector_15" d="M-4.48807 12.2215C-0.291549 11.8749 3.89908 11.3755 8.10735 11.211C13.5188 10.9937 18.9479 10.9643 24.3652 10.9937C29.1838 11.0172 34.0025 11.2463 38.8153 11.352C47.0792 11.54 55.3432 11.6046 63.6013 11.8984C72.5402 12.2215 81.4731 12.6974 90.4003 13.2085C98.2123 13.655 106.036 14.0956 113.825 14.7947C120.662 15.4115 127.576 15.5114 134.326 16.8979C136.597 17.362 137.677 18.5311 137.748 20.6284C137.795 22.0383 137.137 22.6787 135.617 22.6846C135.365 22.6846 135.112 22.6141 134.866 22.5553C127.999 20.8399 120.915 20.7459 113.895 20.1819C104.129 19.4005 94.3562 18.6368 84.578 17.9201C81.4028 17.6851 78.2157 17.6087 75.0346 17.4795C66.3657 17.1329 57.6909 16.704 49.0161 16.4749C41.5328 16.281 34.0378 16.2751 26.5486 16.2634C19.8459 16.2516 13.1432 16.2164 6.44637 16.4455C2.84851 16.5689 -0.731781 17.1916 -4.30616 17.6616C-6.55996 17.9612 -8.12121 17.0036 -9.38897 15.5055C-10.5159 14.172 -10.2341 13.2496 -8.52613 12.5446C-7.9216 12.2979 -7.21729 12.2156 -6.54819 12.151C-5.86736 12.0864 -5.17477 12.1393 -4.4822 12.1393C-4.48807 12.1628 -4.48807 12.1921 -4.48807 12.2215Z" fill="#CE4530"/>
</g>
</g>
<g id="Clip path group_8">
<mask id="mask7_68_466" style="mask-type:luminance" maskUnits="userSpaceOnUse" x="6" y="6" width="104" height="100">
<g id="SVGID_12__8">
<path id="Vector_16" d="M109.745 56.5176C109.552 63.1444 108.395 68.5081 105.971 73.5957C105.255 75.1056 104.792 76.7388 104.228 78.325C103.512 80.3342 102.332 81.9908 100.736 83.4243C99.6736 84.3819 98.9107 85.6626 97.907 86.6966C93.2644 91.4963 88.4458 96.1081 82.6352 99.4978C77.9515 102.235 72.9978 104.245 67.516 104.75C64.5578 105.026 61.6115 105.484 58.6534 105.737C57.3034 105.854 55.9183 105.778 54.5743 105.614C48.1239 104.844 42.0727 102.835 36.3267 99.7798C34.067 98.5813 31.6841 97.5826 29.2836 96.6838C23.8662 94.6511 19.5817 91.1321 15.9369 86.7495C15.0095 85.6391 14.1996 84.4348 13.3192 83.2833C10.5782 79.7173 8.72358 75.6519 7.77276 71.3398C6.25262 64.4428 5.84177 57.4106 7.91949 50.5429C9.47484 45.3966 11.3002 40.3148 13.3427 35.3447C14.8041 31.7846 17.0931 28.6592 19.8399 25.8804C22.8274 22.8549 25.4333 19.4592 28.861 16.8508C33.3921 13.3964 38.5453 11.2462 43.7924 9.19002C48.1533 7.48045 52.6784 7.19258 57.233 6.75197C63.384 6.15862 69.447 6.81071 75.4865 7.76831C77.6757 8.11492 79.7416 9.16652 81.8957 9.77162C84.0027 10.365 86.0746 10.9231 87.495 12.7913C87.7004 13.0615 88.1934 13.1732 88.5808 13.2495C91.3628 13.7959 92.9827 15.8579 94.902 17.6968C98.1829 20.828 100.255 24.7054 102.256 28.6122C103.483 31.0091 104.105 33.7174 104.968 36.2965C105.296 37.2834 105.373 38.382 105.825 39.3044C108.66 45.0734 109.305 51.2773 109.745 56.5176Z" fill="white"/>
</g>
</mask>
<g mask="url(#mask7_68_466)">
<g id="Group_5">
<path id="Vector_17" d="M64.7985 73.5898C63.4838 72.7732 61.6233 72.0859 60.7898 71.469C59.9857 70.8757 59.1934 70.2177 58.5419 69.4657C58.002 68.8371 57.7613 67.9618 58.3776 67.2274C59.0701 66.4049 59.974 65.9173 61.1068 66.1406C61.3885 66.1934 61.6644 66.3403 61.9109 66.4872C66.7295 69.3012 71.6891 71.9214 75.8328 75.7459C76.496 76.3569 76.9538 77.2557 77.3236 78.1017C77.7931 79.1709 77.4996 80.0756 76.4079 80.7101C72.7807 82.8133 69.2005 84.987 65.5557 87.0608C64.0062 87.942 62.175 87.4485 61.0774 86.0503C60.2264 84.9694 60.4025 83.5594 61.6233 82.8251C63.2549 81.8381 64.9629 80.9862 66.6356 80.0639C66.8821 79.9288 67.0993 79.7349 67.5747 79.3942C67.0582 79.2062 66.7706 79.0358 66.4654 79.0064C58.6182 78.2486 60.3673 78.1546 53.688 78.184C51.4166 78.3249 49.151 78.6187 46.8855 78.8596C45.1599 79.0417 43.6516 78.6011 42.5129 77.2616C41.521 76.0984 41.8732 74.8177 43.3111 74.2831C43.7866 74.1068 44.3148 74.0598 44.8255 74.0128C52.3851 73.2785 49.1569 73.1081 56.7459 73.4195C58.6593 73.4958 60.5668 73.6133 62.4802 73.6897C62.7443 73.6838 63.9416 73.7661 64.7985 73.5898Z" fill="#394557"/>
</g>
</g>
</g>
</g>
</g>
</g>
</svg>
