<svg width="128" height="125" viewBox="0 0 128 125" fill="none" xmlns="http://www.w3.org/2000/svg">
<g id="Group">
<path id="Vector" d="M99.9698 34.5124C103.624 39.3451 105.87 43.8314 107.061 48.8483C107.415 50.3378 108.023 51.7632 108.527 53.215C109.168 55.0598 109.274 56.9119 108.958 58.8543C108.746 60.1459 108.941 61.4944 108.817 62.8107C108.256 68.8893 107.463 74.9386 105.265 80.6804C103.493 85.3139 101.113 89.5837 97.5015 93.0856C95.5519 94.9795 93.7134 96.9921 91.7515 98.8678C90.8585 99.7198 89.8293 100.462 88.7742 101.118C83.7347 104.264 78.276 106.302 72.435 107.411C70.1378 107.848 67.8702 108.506 65.6468 109.239C60.6214 110.893 55.5555 110.841 50.4498 109.805C49.1527 109.544 47.8875 109.152 46.599 108.836C42.6047 107.862 38.9568 106.03 35.8115 103.504C30.7774 99.4621 26.4622 94.6821 24.0095 88.5961C22.1744 84.04 20.5656 79.3732 19.1765 74.6552C18.1823 71.2753 18.0171 67.7421 18.3876 64.1848C18.7869 60.3162 18.6992 56.403 19.6496 52.5841C20.9042 47.5252 23.3429 43.0413 25.905 38.5694C28.0319 34.8514 31.094 32.0541 34.0888 29.1337C38.1288 25.1869 42.8262 22.1764 47.6784 19.4049C49.4342 18.3987 51.5104 17.963 53.3913 17.1611C55.234 16.3788 57.0275 15.586 59.1089 16.1021C59.4145 16.1785 59.8272 15.9719 60.1416 15.8067C62.4367 14.5991 64.7736 15.1473 67.1908 15.3541C71.3219 15.7052 75.0136 17.283 78.6816 18.9204C80.9277 19.9216 82.9227 21.4965 85.013 22.8494C85.8126 23.3652 86.4952 24.1052 87.3423 24.5016C92.6447 26.9706 96.6572 31.026 99.9698 34.5124Z" fill="#E4E8EA" stroke="white" stroke-width="11.3386" stroke-miterlimit="10"/>
<path id="Vector_2" d="M62.3348 38.3974C61.7619 39.3659 61.1841 40.3363 60.6113 41.3048C59.2897 43.5385 57.7472 44.3197 55.7237 43.5102C54.3838 42.9747 53.0335 42.3012 51.9721 41.3298C50.7412 40.2041 50.8703 38.3409 51.4288 36.5204C52.1555 34.1791 53.6282 32.2993 55.1528 30.4687C57.1285 28.0999 57.1436 28.0944 59.6507 29.1428C60.6126 29.543 61.5316 30.0438 62.4693 30.4868C63.4685 30.9586 64.0549 31.8867 64.4093 32.9728C64.56 33.4347 64.4687 34.1206 64.2822 34.6537C64.0565 35.2976 63.6032 35.8765 63.2586 36.4897C62.9159 37.108 62.5919 37.7308 62.256 38.3522C62.287 38.375 62.3125 38.3828 62.3348 38.3974ZM56.7089 39.1621C57.8652 38.0669 58.522 36.5798 59.2649 35.1578C59.634 34.4562 59.6424 33.8231 59.0595 33.4046C58.5008 33.0057 57.9692 33.2441 57.3764 33.7203C56.4502 34.4652 56.0887 35.5159 55.673 36.558C54.8748 38.562 54.868 38.5588 56.7089 39.1621Z" fill="black"/>
<path id="Vector_3" d="M100.771 33.9379C102.203 33.1798 103.23 33.6356 104.271 34.0017C106.254 34.7009 107.797 35.9061 108.557 38.1563C108.834 38.9811 108.845 39.715 108.238 40.4178C106.62 42.2879 105.897 44.5599 105.107 46.805C104.29 49.1166 102.972 50.032 101.052 49.2417C99.5646 48.6291 98.1957 47.7012 96.9029 46.7172C95.8509 45.9127 96.1957 44.4877 96.7254 43.2283C98.0304 40.1208 99.4169 37.0348 100.771 33.9379ZM101.013 44.4478C101.133 44.4666 101.253 44.4854 101.372 44.4992C102.377 42.7211 103.578 41.0475 103.972 38.9748C103.998 38.829 103.707 38.6678 103.379 38.3102C102.487 40.2119 101.672 41.9041 100.905 43.6186C100.808 43.8355 100.973 44.167 101.013 44.4478Z" fill="black"/>
<path id="Vector_4" d="M84.4459 88.0664C84.3447 88.2564 84.2467 88.4395 84.1437 88.6245C82.8809 90.9106 80.7881 91.8007 78.7692 90.9101C77.9722 90.5579 77.183 90.1802 76.3796 89.8417C74.4081 89.019 74.4543 88.287 74.9008 86.3142C75.3966 84.1021 76.2582 81.8822 77.2463 79.7922C77.821 78.5789 78.8571 77.4649 79.8677 76.593C80.4381 76.1021 81.4461 75.9577 82.1407 76.0745C83.84 76.366 85.2864 77.2885 86.5997 78.3444C87.2873 78.8952 87.9188 79.7445 87.3854 81.0563C86.4328 83.4002 85.4938 85.7504 84.5461 88.0925C84.5106 88.0883 84.4782 88.0774 84.4459 88.0664ZM82.9326 81.1626C81.6188 80.3396 81.2922 80.424 80.7561 81.7595C80.128 83.3101 79.5714 84.8858 79.0015 86.4095C79.4632 87.2126 80.0544 86.998 80.5475 86.3877C81.0209 85.8015 81.4429 85.1204 81.7464 84.4256C82.1913 83.4013 82.5168 82.3296 82.9326 81.1626Z" fill="black"/>
<path id="Vector_5" d="M69.8129 10.8435C70.934 11.6513 72.3453 12.5865 73.6704 13.6439C74.6836 14.4511 74.7681 15.2152 73.9601 16.5983C72.6458 18.852 71.2837 21.0833 69.8578 23.264C68.832 24.8284 66.3367 25.4843 64.8266 24.5735C63.6302 23.8554 62.5583 22.9333 61.4267 22.1122C60.8197 21.6741 60.7137 20.9916 60.9422 20.1992C61.2527 19.1328 61.4452 17.9447 62.0231 17.0368C63.4522 14.7868 65.0666 12.6569 66.6159 10.4882C67.0534 9.881 67.5704 9.78985 68.1068 10.0492C68.58 10.2748 69.0564 10.4936 69.8129 10.8435ZM66.4367 17.1662C66.3975 17.152 66.3602 17.1429 66.321 17.1287C66.0297 17.9042 65.6774 18.6679 65.4877 19.4576C65.4288 19.7174 65.7384 20.1329 65.9935 20.2731C66.1356 20.3521 66.572 20.0858 66.7565 19.8599C67.5029 18.9476 68.2215 18.0056 68.9246 17.0522C69.522 16.2451 69.4839 15.6402 68.8559 15.1756C68.2521 14.7306 67.7414 14.9954 67.3053 15.7157C67.0077 16.1926 66.7256 16.681 66.4367 17.1662Z" fill="black"/>
<path id="Vector_6" d="M74.2402 97.214C74.5817 97.4363 74.9492 97.6208 75.263 97.8759C76.9501 99.29 77.5248 99.8421 75.9867 102.432C75.0361 104.032 74.5828 105.939 73.8808 107.692C72.9021 110.137 71.007 111.227 68.9835 110.48C68.0075 110.119 67.0516 109.689 66.1216 109.22C64.3469 108.315 63.9174 106.631 64.6861 104.28C65.4752 101.877 66.4015 99.5539 67.8132 97.4124C68.7356 96.0161 69.0782 95.7101 70.4414 95.9817C71.7554 96.2427 73.0124 96.706 74.294 97.081C74.2748 97.122 74.2575 97.168 74.2402 97.214ZM69.8061 106.044C70.41 104.723 71.0818 103.356 71.6411 101.943C71.761 101.633 71.4674 101.183 71.3627 100.801C71.0069 100.993 70.4667 101.098 70.3227 101.389C69.7338 102.579 69.2051 103.81 68.7661 105.053C68.4953 105.838 68.9625 106.094 69.8061 106.044Z" fill="black"/>
<path id="Vector_7" d="M99.3338 25.4001C97.5792 24.3624 95.8081 23.3421 93.9236 22.5559C90.5297 21.1425 87.0447 19.9154 83.6076 18.5859C82.955 18.3346 82.3803 17.9074 81.7149 17.6834C80.973 17.4362 80.2201 17.2213 79.4199 17.0008C78.4156 16.7182 77.2599 17.3307 76.7394 18.4278C76.0083 19.976 75.357 21.3533 74.6529 22.7101C71.6622 28.5012 68.6356 34.2714 65.6126 40.0516C62.4419 46.1124 59.2849 52.1796 56.092 58.2258C54.0534 62.0934 51.9124 65.9129 49.9011 69.7933C46.7528 75.8687 43.6882 81.9875 40.5517 88.0643C38.5811 91.8845 36.532 95.6764 34.5545 99.4934C33.7574 101.032 33.4123 102.127 32.6612 103.683C31.4133 106.276 31.3137 107.158 32.7706 107.844C34.1163 108.536 35.478 109.194 36.8416 109.857C40.6124 111.684 44.3495 113.575 48.1783 115.296C50.3342 116.267 52.8891 116.135 54.9294 112.584C55.134 112.226 55.3659 111.881 55.5656 111.525C60.8917 101.934 66.2384 92.3533 71.5354 82.745C75.5568 75.4502 79.5355 68.1311 83.5022 60.8107C84.915 58.2034 86.2559 55.554 87.6104 52.9111C89.263 49.6831 90.8932 46.4406 92.539 43.2094C94.965 38.4406 97.437 33.6892 99.8151 28.898C100.734 27.0715 100.574 26.1305 99.3338 25.4001ZM82.2249 22.6354C81.4912 22.3171 80.7032 22.1149 79.893 21.8356C80.7032 22.1149 81.493 22.3221 82.2249 22.6354ZM68.2443 43.2401C69.2269 41.3849 70.2145 39.5279 71.1971 37.6727C70.2145 39.5279 69.2251 41.3799 68.2443 43.2401C67.6295 44.4055 67.0097 45.5728 66.3899 46.74C67.0047 45.5746 67.6295 44.4055 68.2443 43.2401ZM53.1415 106.955C55.7278 102.44 58.2625 97.8933 60.7992 93.3511C58.2644 97.8983 55.7296 102.445 53.1415 106.955ZM75.2975 66.9389C77.3565 63.2683 79.441 59.6055 81.4112 55.8933C79.4379 59.6123 77.3565 63.2683 75.2975 66.9389ZM89.8509 39.3658C87.7435 43.4968 85.6807 47.6569 83.5597 51.7815C85.6789 47.6519 87.7435 43.4968 89.8509 39.3658C90.2356 38.6131 90.6221 37.8655 91.0118 37.111C90.6203 37.8605 90.2356 38.6131 89.8509 39.3658Z" fill="#CE4530"/>
<path id="Vector_8" d="M56.7089 39.162C54.8698 38.5636 54.8748 38.5618 55.6748 36.5629C56.0905 35.5208 56.4571 34.4682 57.3783 33.7252C57.966 33.2508 58.5026 33.0106 59.0614 33.4095C59.6424 33.823 59.6359 34.4611 59.2667 35.1627C58.5152 36.5764 57.8584 38.0636 56.7089 39.162Z" fill="white"/>
<path id="Vector_9" d="M101.013 44.448C100.973 44.1672 100.809 43.8406 100.91 43.6169C101.672 41.9042 102.492 40.2103 103.384 38.3085C103.712 38.6662 104.003 38.8273 103.976 38.9732C103.583 41.0458 102.378 42.7262 101.377 44.4975C101.251 44.4806 101.131 44.4618 101.013 44.448Z" fill="white"/>
<path id="Vector_10" d="M82.932 81.1628C82.5144 82.3247 82.1907 83.4015 81.7458 84.4258C81.4423 85.1206 81.0221 85.8067 80.5469 86.3879C80.0538 86.9982 79.4626 87.2128 79.0009 86.4097C79.5708 84.886 80.1292 83.3153 80.7555 81.7597C81.2866 80.426 81.6182 80.3398 82.932 81.1628Z" fill="white"/>
<path id="Vector_11" d="M66.4368 17.1662C66.7257 16.681 67.0096 16.1976 67.2986 15.7125C67.7347 14.9922 68.2454 14.7274 68.8492 15.1724C69.479 15.642 69.5153 16.2419 68.9179 17.049C68.2148 18.0024 67.498 18.9494 66.7498 19.8567C66.5653 20.0826 66.1238 20.3507 65.9867 20.2699C65.7349 20.1229 65.4203 19.7092 65.4809 19.4544C65.6657 18.6665 66.023 17.901 66.3143 17.1255C66.3603 17.1429 66.3976 17.152 66.4368 17.1662Z" fill="white"/>
<path id="Vector_12" d="M69.806 106.044C68.9574 106.096 68.4952 105.838 68.7678 105.058C69.205 103.81 69.7337 102.579 70.3244 101.394C70.4684 101.103 71.0087 100.998 71.3644 100.807C71.4691 101.189 71.7627 101.638 71.6429 101.949C71.0867 103.354 70.4099 104.723 69.806 106.044Z" fill="white"/>
<path id="Vector_13" d="M30.6819 85.8566C31.876 86.5528 33.3679 87.351 34.7874 88.2776C35.8721 88.9851 36.0254 89.7355 35.3558 91.1875C34.2656 93.5586 33.1207 95.9041 31.9057 98.2126C31.0325 99.8691 28.6108 100.759 27.0187 99.9977C25.7631 99.3976 24.6046 98.5806 23.4001 97.8712C22.7525 97.4932 22.5828 96.8225 22.7365 96.0118C22.9468 94.9194 23.0228 93.7225 23.5082 92.763C24.7146 90.3838 26.1196 88.1142 27.4544 85.8076C27.8267 85.1616 28.3373 85.0217 28.8993 85.2264C29.4017 85.4074 29.8936 85.5751 30.6819 85.8566ZM27.9256 92.4652C27.8882 92.4561 27.8459 92.4488 27.8085 92.4396C27.5938 93.2385 27.3148 94.0322 27.1979 94.8353C27.1628 95.0978 27.512 95.4819 27.7766 95.6016C27.9251 95.6669 28.3351 95.3592 28.4973 95.1186C29.1576 94.1411 29.7783 93.1324 30.3853 92.1174C30.9003 91.255 30.8084 90.6583 30.1349 90.2557C29.4905 89.8708 29.0081 90.1822 28.6421 90.9394C28.401 91.4469 28.1667 91.9577 27.9256 92.4652Z" fill="black"/>
<path id="Vector_14" d="M27.9253 92.4653C28.1664 91.9578 28.4057 91.4452 28.6468 90.9377C29.0128 90.1804 29.5002 89.8673 30.1396 90.2539C30.8132 90.6566 30.905 91.2533 30.39 92.1157C29.783 93.1307 29.1573 94.1412 28.502 95.1169C28.3398 95.3574 27.9298 95.6652 27.7813 95.5999C27.5167 95.4802 27.1625 95.0979 27.2026 94.8336C27.3145 94.0323 27.5985 93.2367 27.8133 92.4379C27.8474 92.4539 27.8848 92.463 27.9253 92.4653Z" fill="white"/>
<path id="Vector_15" d="M40.8812 66.7092C42.0024 67.517 43.4136 68.4523 44.7388 69.5096C45.752 70.3169 45.8365 71.0809 45.0285 72.464C43.7142 74.7177 42.352 76.9491 40.9262 79.1298C39.9004 80.6941 37.405 81.35 35.8949 80.4393C34.6986 79.7212 33.6267 78.799 32.495 77.978C31.888 77.5398 31.7821 76.8574 32.0105 76.0649C32.321 74.9986 32.5136 73.8105 33.0915 72.9025C34.5205 70.6526 36.135 68.5226 37.6843 66.3539C38.1217 65.7467 38.6387 65.6556 39.1752 65.915C39.6484 66.1406 40.1248 66.3594 40.8812 66.7092ZM37.5051 73.0319C37.4659 73.0178 37.4285 73.0086 37.3894 72.9944C37.0981 73.77 36.7458 74.5336 36.556 75.3233C36.4972 75.5831 36.8068 75.9986 37.0618 76.1388C37.2039 76.2178 37.6404 75.9516 37.8249 75.7256C38.5713 74.8133 39.2898 73.8713 39.993 72.918C40.5903 72.1108 40.5523 71.5059 39.9243 71.0413C39.3204 70.5963 38.8098 70.8612 38.3737 71.5814C38.0761 72.0584 37.794 72.5467 37.5051 73.0319Z" fill="black"/>
<path id="Vector_16" d="M37.5056 73.0319C37.7946 72.5467 38.0785 72.0634 38.3674 71.5782C38.8035 70.8579 39.3142 70.5931 39.918 71.0381C40.5478 71.5077 40.5841 72.1076 39.9867 72.9148C39.2836 73.8681 38.5668 74.8151 37.8187 75.7224C37.6341 75.9483 37.1927 76.2164 37.0556 76.1356C36.8038 75.9886 36.4891 75.5749 36.5498 75.3201C36.7345 74.5322 37.0918 73.7667 37.3831 72.9912C37.4291 73.0086 37.4665 73.0177 37.5056 73.0319Z" fill="white"/>
<path id="Vector_17" d="M95.9884 66.4167C95.8872 66.6067 95.7892 66.7899 95.6862 66.9748C94.4234 69.2609 92.3306 70.1511 90.3117 69.2604C89.5147 68.9082 88.7255 68.5306 87.9221 68.1921C85.9506 67.3694 85.9968 66.6373 86.4433 64.6645C86.9391 62.4524 87.8007 60.2325 88.7888 58.1426C89.3635 56.9293 90.3996 55.8153 91.4102 54.9433C91.9806 54.4525 92.9886 54.308 93.6832 54.4249C95.3825 54.7163 96.8288 55.6388 98.1421 56.6948C98.8298 57.2456 99.4613 58.0949 98.9279 59.4067C97.9753 61.7506 97.0362 64.1008 96.0886 66.4428C96.0531 66.4387 96.0207 66.4277 95.9884 66.4167ZM94.4751 59.5129C93.1613 58.6899 92.8347 58.7744 92.2986 60.1099C91.6705 61.6605 91.1138 63.2362 90.544 64.7599C91.0056 65.563 91.5969 65.3484 92.0899 64.738C92.5634 64.1518 92.9854 63.4708 93.2889 62.7759C93.7338 61.7517 94.0593 60.6799 94.4751 59.5129Z" fill="black"/>
<path id="Vector_18" d="M94.4755 59.5129C94.0579 60.6748 93.7342 61.7516 93.2893 62.7759C92.9857 63.4707 92.5656 64.1568 92.0903 64.738C91.5973 65.3483 91.006 65.563 90.5444 64.7598C91.1142 63.2361 91.6727 61.6654 92.299 60.1098C92.835 58.7743 93.1616 58.6898 94.4755 59.5129Z" fill="white"/>
<path id="Vector_19" d="M53.7796 56.4482C53.2068 57.4167 52.6289 58.3871 52.0561 59.3556C50.7345 61.5893 49.192 62.3705 47.1685 61.5609C45.8286 61.0255 44.4783 60.3519 43.4169 59.3805C42.1861 58.2549 42.3151 56.3917 42.8736 54.5712C43.6004 52.2299 45.0731 50.3501 46.5977 48.5195C48.5734 46.1507 48.5884 46.1452 51.0955 47.1936C52.0574 47.5937 52.9764 48.0946 53.9141 48.5376C54.9133 49.0094 55.4997 49.9375 55.8542 51.0236C56.0048 51.4855 55.9135 52.1714 55.727 52.7045C55.5014 53.3484 55.048 53.9273 54.7035 54.5405C54.3607 55.1587 54.0367 55.7815 53.7008 56.403C53.735 56.419 53.7573 56.4336 53.7796 56.4482ZM48.1519 57.2079C49.3082 56.1127 49.965 54.6255 50.7079 53.2036C51.0771 52.502 51.0854 51.8689 50.5026 51.4503C49.9438 51.0515 49.4122 51.2898 48.8194 51.7661C47.8932 52.5109 47.5317 53.5617 47.116 54.6038C46.3178 56.6077 46.3178 56.6077 48.1519 57.2079Z" fill="black"/>
<path id="Vector_20" d="M48.1513 57.2079C46.3122 56.6096 46.3172 56.6077 47.1172 54.6088C47.5329 53.5667 47.8994 52.5141 48.8207 51.7711C49.4084 51.2967 49.945 51.0565 50.5038 51.4554C51.0848 51.8689 51.0783 52.507 50.7091 53.2086C49.9644 54.6256 49.3076 56.1127 48.1513 57.2079Z" fill="white"/>
</g>
</svg>
