<svg width="112" height="108" viewBox="0 0 112 108" fill="none" xmlns="http://www.w3.org/2000/svg">
<g id="Frame 58">
<g id="Group 55">
<g id="Group 51">
<g id="Group">
<path id="Vector" d="M106.265 54.436C106.073 60.8303 104.964 66.0077 102.623 70.9204C101.931 72.3795 101.486 73.957 100.94 75.4837C100.248 77.4217 99.1109 79.0217 97.5687 80.4076C96.5443 81.3316 95.807 82.571 94.8389 83.5682C90.3587 88.1991 85.704 92.6498 80.0981 95.923C75.5784 98.5652 70.7943 100.503 65.5035 100.993C62.6443 101.258 59.8076 101.698 56.9483 101.946C55.6482 102.058 54.3086 101.985 53.0084 101.827C46.7834 101.084 40.9411 99.1455 35.3971 96.1991C33.2189 95.0385 30.9169 94.0808 28.598 93.2132C23.3692 91.2526 19.2379 87.8555 15.7145 83.6245C14.8196 82.5485 14.0372 81.3879 13.1873 80.2781C10.542 76.8358 8.75215 72.9147 7.83472 68.7514C6.3657 62.0979 5.97171 55.3036 7.97543 48.6727C9.47822 43.7093 11.2399 38.8023 13.2099 34.0024C14.6226 30.5658 16.8289 27.5461 19.4799 24.8644C22.3673 21.9461 24.8776 18.6673 28.1871 16.149C32.566 12.8138 37.5359 10.7406 42.6015 8.7519C46.8059 7.10121 51.1792 6.82514 55.575 6.39697C61.5074 5.82233 67.3665 6.45331 73.192 7.38288C75.3026 7.72091 77.3007 8.72936 79.3776 9.31527C81.4095 9.88991 83.4132 10.4251 84.7865 12.2279C84.9892 12.4927 85.4619 12.5997 85.8334 12.673C88.5182 13.1969 90.0829 15.1913 91.9346 16.9659C95.0978 19.9912 97.1015 23.7321 99.0321 27.501C100.22 29.8109 100.816 32.4306 101.649 34.9207C101.964 35.8728 102.038 36.9376 102.477 37.8221C105.218 43.3882 105.842 49.3769 106.265 54.436Z" fill="#E4E8EA" stroke="white" stroke-width="11.3386" stroke-miterlimit="10"/>
<g id="Group_2">
<g id="Clip path group">
<mask id="mask0_90_29" style="mask-type:luminance" maskUnits="userSpaceOnUse" x="10" y="10" width="94" height="90">
<g id="SVGID_4_">
<path id="Vector_2" d="M103.361 59.6245C102.623 65.5513 101.132 70.2667 98.5259 74.6272C97.7548 75.923 97.2032 77.3483 96.5615 78.723C95.7454 80.4638 94.5466 81.8497 92.9931 83.0046C91.9575 83.7708 91.1639 84.8581 90.1789 85.7032C85.603 89.613 80.892 93.3369 75.3931 95.889C70.9579 97.9454 66.3425 99.3256 61.3839 99.3143C58.7048 99.3087 56.0257 99.4665 53.3465 99.4439C52.1252 99.4327 50.8925 99.2468 49.6993 98.9876C43.9752 97.7482 38.7182 95.4271 33.8271 92.1989C31.9022 90.9313 29.8478 89.8327 27.771 88.8243C23.0825 86.537 19.5422 83.0159 16.6436 78.7737C15.9062 77.6976 15.2815 76.5483 14.5892 75.4441C12.4335 72.0075 11.1164 68.2104 10.6268 64.2555C9.84441 57.9401 10.0808 51.5908 12.5235 45.6078C14.3528 41.1233 16.424 36.7233 18.681 32.436C20.2964 29.3656 22.6097 26.7572 25.3113 24.4981C28.2494 22.0361 30.8778 19.2136 34.1705 17.1686C38.5325 14.4587 43.3335 12.9658 48.219 11.5686C52.2771 10.4081 56.3577 10.532 60.4834 10.5264C66.0499 10.5151 71.4363 11.6193 76.772 12.9939C78.7026 13.4897 80.4699 14.6108 82.3554 15.3376C84.1959 16.0474 86.0082 16.7291 87.1227 18.5207C87.2859 18.7854 87.7193 18.9263 88.057 19.0221C90.5054 19.7488 91.783 21.7375 93.3533 23.5516C96.0268 26.6445 97.5578 30.2952 99.0268 33.9684C99.9273 36.2219 100.254 38.7064 100.805 41.0951C101.014 42.0078 100.991 42.9993 101.318 43.8669C103.355 49.2584 103.411 54.8809 103.361 59.6245Z" fill="white"/>
</g>
</mask>
<g mask="url(#mask0_90_29)">
<path id="Vector_3" d="M132.87 64.0191C129.707 64.9656 126.51 66.1825 123.217 66.8473C117.24 68.0529 111.206 68.9374 105.189 69.9402C97.7766 71.174 90.3696 72.4304 82.9457 73.5909C76.1297 74.6613 69.2799 75.5177 62.4695 76.6557C57.6291 77.4613 52.8393 78.6331 48.0101 79.5402C44.3178 80.2331 40.6031 80.7852 36.8996 81.3768C31.001 82.3176 25.0968 83.2528 19.1926 84.1598C14.6729 84.8528 10.1477 85.5176 5.61118 86.1316C4.71064 86.2556 3.7707 86.1147 2.59436 86.0866C2.13845 84.0472 1.63189 82.1429 1.29981 80.2049C-0.501287 69.7374 -2.29112 59.2699 -4.00779 48.7855C-4.44118 46.1376 -3.90084 45.1066 -1.62696 44.6221C3.0784 43.6193 7.83441 42.9038 12.5623 42.0306C21.2188 40.4306 29.8472 38.5996 38.5431 37.2419C46.4172 36.0081 54.3702 35.3208 62.2782 34.3011C65.2837 33.9124 68.2499 33.18 71.2611 32.7969C80.4298 31.6251 89.6098 30.5208 98.7897 29.4392C106.135 28.5716 113.474 27.6871 120.831 26.9659C127.562 26.3012 127.81 26.3462 129.144 34.2673C130.714 43.6137 131.823 53.0559 133.106 62.4586C133.157 62.853 132.988 63.2755 132.87 64.0191Z" fill="#CE4530"/>
</g>
</g>
</g>
<path id="Vector_4" d="M101.311 47.8109C101.334 49.0785 100.816 49.6926 99.4764 49.9461C96.3076 50.5489 93.1444 51.1517 89.97 51.7264C89.0413 51.8954 88.2083 51.7489 87.758 50.7517C87.6398 50.4926 87.4203 50.2729 87.2402 50.0419C86.0357 48.532 86.3003 47.4673 88.1351 46.9095C89.0751 46.6222 90.0994 46.6053 91.0844 46.4532C93.6341 46.0532 96.1725 45.6194 98.7278 45.2588C100.326 45.0335 101.283 46.0194 101.311 47.8109Z" fill="white"/>
<path id="Vector_5" d="M33.9958 54.4866C34.0071 55.2415 33.2585 56.0753 32.2004 56.295C29.4368 56.864 26.6732 57.4331 23.9097 58.0246C22.1592 58.4021 20.2512 57.2415 19.9416 55.4838C19.8741 55.1063 20.0599 54.4979 20.3413 54.2782C20.8816 53.8669 21.5514 53.5401 22.2155 53.3824C25.0748 52.6951 27.9509 52.0979 30.8158 51.4275C32.5606 51.0218 33.5962 51.6359 33.9339 53.388C33.9958 53.6753 33.9733 53.9739 33.9958 54.4866Z" fill="white"/>
<path id="Vector_6" d="M54.8486 67.7542C52.8336 66.9486 50.7229 66.312 48.8205 65.2979C46.5072 64.0641 45.2184 61.8951 44.8638 59.3092C44.4585 56.3459 44.7568 53.4107 45.8544 50.6051C47.1939 47.1797 49.0288 44.0248 51.1507 41.0277C51.9499 39.9009 52.9293 39.0221 54.2857 38.5826C54.7022 38.4474 55.0568 38.07 55.3945 37.7545C57.5671 35.732 60.2124 34.8644 63.0942 34.6277C63.4826 34.5939 63.9554 34.9094 64.2931 35.1799C65.2386 35.9235 66.218 36.3517 67.4675 36.5094C71.1429 36.977 73.7319 39.1009 75.3192 42.3854C76.5855 44.9938 76.9064 47.7938 76.6024 50.6783C76.4842 51.7938 76.5856 52.9318 76.4167 54.036C75.8088 57.9177 74.019 61.0557 70.8164 63.4782C67.9234 65.6641 64.749 67.0444 61.2537 67.6923C59.1712 68.0923 57.0268 68.0923 54.8486 67.7542Z" fill="#56C2E4"/>
<path id="Vector_7" d="M55.1134 72.5203C51.6913 71.9344 49.4512 70.4302 47.0535 69.3204C46.3893 69.0105 45.9109 68.7626 45.3368 69.3485C42.8659 71.8668 39.7422 73.4499 36.8154 75.3034C32.8811 77.7935 28.9074 80.216 24.9506 82.678C22.1983 84.3907 19.5023 86.2047 16.6825 87.7878C15.3767 88.5258 13.857 88.9484 12.3824 89.3033C10.6094 89.7314 8.98843 89.1286 7.60384 87.9906C7.22674 87.6808 6.92279 87.1681 6.78771 86.6949C5.84214 83.3991 6.43314 80.4639 8.70702 77.7935C10.5869 75.5851 13.0015 74.1203 15.3148 72.5034C18.7481 70.1035 22.1758 67.6922 25.733 65.4838C28.5303 63.7486 31.5303 62.357 34.4064 60.7402C36.3482 59.6472 38.2506 58.4754 40.1136 57.2472C40.4457 57.0275 40.6314 56.3402 40.6202 55.8726C40.5414 51.6754 41.8303 47.8388 43.7665 44.2051C44.9259 42.0192 46.2542 39.9178 47.6051 37.8446C48.1454 37.0164 48.8489 36.2333 49.6425 35.6587C51.4549 34.3516 53.3123 33.0784 55.2653 31.9855C58.4398 30.2108 61.8956 29.6418 65.5034 30.0981C67.9462 30.408 69.8261 31.8897 71.7792 33.1967C72.8992 33.946 73.9236 34.853 75.083 35.5291C75.9498 36.0361 76.4732 36.7291 76.9967 37.5347C78.021 39.1234 78.8935 40.7572 79.5689 42.5431C80.7283 45.5966 80.9985 48.729 80.8128 51.9289C80.7227 53.5177 80.5201 55.0951 80.3287 56.6726C79.8785 60.3402 78.0267 63.2641 75.5502 65.9232C73.1581 68.4978 70.0906 69.9851 67.0513 71.5119C66.0832 71.9964 64.8787 71.9739 63.8149 72.2893C60.6686 73.2077 57.5223 72.7851 55.1134 72.5203ZM54.8488 67.7542C57.027 68.0866 59.1715 68.0866 61.2484 67.7035C64.7436 67.0556 67.9237 65.6753 70.811 63.4894C74.0192 61.0669 75.8091 57.9289 76.4113 54.0472C76.5858 52.9487 76.4789 51.805 76.5971 50.6895C76.901 47.805 76.5746 45.0051 75.3138 42.3966C73.7209 39.1122 71.1319 36.9826 67.4621 36.5206C66.2126 36.3629 65.2277 35.9404 64.2877 35.1911C63.9444 34.9206 63.4716 34.6051 63.0889 34.6389C60.2071 34.8756 57.5618 35.7432 55.3892 37.7657C55.0515 38.0812 54.6969 38.4586 54.2804 38.5939C52.9239 39.0333 51.9446 39.9122 51.1453 41.0389C49.0234 44.0361 47.1886 47.191 45.849 50.6163C44.7515 53.4219 44.4531 56.3571 44.8584 59.3204C45.213 61.9063 46.5019 64.0697 48.8152 65.3091C50.7232 66.3176 52.8339 66.9542 54.8488 67.7542Z" fill="black"/>
<path id="Vector_8" d="M64.569 46.2388C65.9198 46.4078 67.856 46.6275 69.7809 46.8979C70.7152 47.0275 71.2556 47.6529 71.4582 48.5543C71.9985 50.9655 72.4488 53.388 72.1786 55.8725C72.0998 56.5767 71.7734 57.1007 71.0135 57.2584C70.6927 57.326 70.3719 57.5007 70.068 57.4781C67.8222 57.2922 65.7735 58.1598 63.6403 58.5767C61.2313 59.0443 58.783 59.3373 56.3515 59.6866C55.344 59.833 54.3309 59.9457 53.3178 60.0246C52.5298 60.0865 51.9613 59.788 51.4604 59.0781C50.3347 57.4781 49.5918 55.7598 49.3441 53.8274C49.1753 52.4866 49.0796 51.1401 48.9389 49.7937C48.7813 48.2782 49.3892 47.7993 50.7737 47.5007C52.0908 47.2191 53.4247 46.9768 54.7643 46.8698C57.8318 46.6275 60.8993 46.4698 64.569 46.2388ZM52.5298 51.0275C52.2765 52.4922 52.3609 53.8218 52.7268 54.7176C53.0983 55.6303 53.6949 56.0077 54.6686 55.9514C55.1301 55.9232 55.5917 55.8274 56.0476 55.8669C58.0682 56.019 60.0269 55.6753 61.9743 55.219C63.6459 54.8246 65.3176 54.419 67.0005 54.0979C68.8578 53.7429 69.0267 53.557 68.6778 51.7148C68.6496 51.5796 68.6046 51.4444 68.5933 51.3035C68.537 50.6556 68.2218 50.2894 67.5408 50.2387C65.9705 50.1148 64.3889 49.8106 62.8242 49.8669C60.2745 49.9571 57.7305 50.25 55.192 50.5148C54.2802 50.6049 53.3853 50.8584 52.5298 51.0275Z" fill="black"/>
<path id="Vector_9" d="M52.5294 51.0276C53.3849 50.8585 54.2798 50.605 55.1916 50.5093C57.73 50.2445 60.2741 49.9515 62.8238 49.8614C64.3885 49.805 65.9644 50.1092 67.5404 50.2332C68.2158 50.2895 68.5366 50.6501 68.5929 51.298C68.6041 51.4388 68.6492 51.5684 68.6773 51.7092C69.0263 53.5515 68.8574 53.7374 67 54.0923C65.3115 54.4134 63.6455 54.8191 61.9739 55.2134C60.0208 55.6754 58.0677 56.0191 56.0471 55.8613C55.5912 55.8275 55.1297 55.9233 54.6682 55.9458C53.6945 56.0022 53.1035 55.6191 52.7264 54.712C52.3605 53.8219 52.2761 52.4923 52.5294 51.0276Z" fill="white"/>
</g>
</g>
</g>
</g>
</svg>
