<svg width="116" height="105" viewBox="0 0 116 105" fill="none" xmlns="http://www.w3.org/2000/svg">
<g id="Group">
<path id="Vector" d="M110.258 53.1414C110.078 59.3099 109.001 64.3026 106.745 69.0383C106.078 70.4437 105.647 71.9639 105.122 73.4404C104.456 75.3106 103.358 76.8527 101.872 78.187C100.883 79.0784 100.173 80.2705 99.2384 81.2329C94.9169 85.7007 90.4315 89.9934 85.0229 93.1487C80.6632 95.697 76.0521 97.5672 70.9494 98.0375C68.1959 98.2945 65.4534 98.7211 62.6999 98.9563C61.4433 99.0656 60.1539 98.9945 58.9029 98.8414C52.8987 98.125 47.2661 96.2548 41.923 93.4112C39.8196 92.2957 37.6015 91.366 35.367 90.5293C30.3244 88.6373 26.3362 85.3617 22.9435 81.2822C22.0803 80.2486 21.3263 79.1276 20.5068 78.0558C17.9555 74.7364 16.2291 70.9522 15.3441 66.9384C13.9291 60.5184 13.5466 53.9727 15.4806 47.58C16.9284 42.7896 18.6275 38.0594 20.5287 33.4331C21.8891 30.1192 24.0198 27.21 26.5766 24.6234C29.3574 21.8071 31.7831 18.6464 34.9737 16.2184C39.1913 13.0029 43.9881 11.0015 48.8723 9.08749C52.9315 7.49617 57.1437 7.2282 61.3832 6.81806C67.1087 6.26575 72.7523 6.87277 78.374 7.76413C80.4118 8.08677 82.3349 9.06561 84.34 9.62886C86.3013 10.1812 88.2298 10.7007 89.5519 12.4397C89.7431 12.6912 90.2021 12.7951 90.5627 12.8662C93.1523 13.3748 94.6601 15.2942 96.4466 17.0058C99.5005 19.9205 101.429 23.5297 103.292 27.1662C104.434 29.3974 105.013 31.9183 105.816 34.319C106.122 35.2377 106.193 36.2603 106.614 37.1188C109.247 42.4889 109.848 48.2636 110.258 53.1414Z" fill="#E4E8EA" stroke="white" stroke-width="11.3386" stroke-miterlimit="10"/>
<path id="Vector_2" d="M98.7843 59.6049C95.8287 59.8674 93.1026 59.8838 90.3545 59.7033C88.2293 59.5611 86.0877 59.6049 83.9734 59.4354C81.9028 59.2658 79.8431 58.9924 77.7998 58.6534C76.139 58.38 74.5164 58.1721 72.8282 58.4237C71.6864 58.5932 70.7741 58.276 70.6102 57.7784C70.4518 57.3027 71.222 56.5097 72.0743 56.2418C73.6204 55.7551 75.2212 55.7278 76.8547 55.9902C78.898 56.3184 80.9249 56.6902 82.9791 56.9691C83.9188 57.0949 84.9021 57.0292 85.8636 57.0675C89.9229 57.2152 93.9931 57.6089 98.0086 56.9199C98.7953 56.7831 99.5765 56.6301 100.374 56.5316C101.44 56.4004 102.947 57.0785 103.341 57.8167C103.614 58.3253 103.335 58.7901 102.543 58.9487C101.226 59.2112 99.8879 59.4135 98.7843 59.6049Z" fill="white"/>
<path id="Vector_3" d="M85.0988 34.4721C82.7278 35.5822 80.3458 36.6704 77.9911 37.8079C75.5053 39.0055 73.0468 40.2578 70.5664 41.4608C69.5776 41.942 68.78 42.5709 68.2173 43.331C67.3978 44.4356 66.0538 44.6216 64.8191 44.9716C64.2728 45.1247 63.8029 44.7091 64.0269 44.3208C64.6497 43.2381 64.8573 42.0022 66.0592 41.1272C66.9989 40.4437 68.0206 39.8039 69.0859 39.2789C72.7299 37.4743 76.4122 35.7244 80.089 33.9581C80.9467 33.5479 81.8482 33.1925 82.7004 32.7769C83.5964 32.3339 84.476 31.8582 85.3446 31.377C86.3991 30.7918 88.1309 30.9176 88.7537 31.6394C89.1034 32.0441 89.005 32.4706 88.3331 32.8698C87.3114 33.4768 86.2406 34.0292 85.1917 34.6088C85.1589 34.5651 85.1316 34.5158 85.0988 34.4721Z" fill="white"/>
<path id="Vector_4" d="M28.2093 62.383C26.5267 62.3611 24.8057 62.3502 23.0793 62.3064C21.9484 62.2791 20.8666 62.3283 19.8286 62.7384C18.7086 63.1814 17.545 63.5696 16.3594 63.9032C15.7585 64.0727 15.0701 64.1056 14.42 64.1438C13.8573 64.1766 13.524 63.8814 13.5841 63.4986C13.6879 62.815 13.8791 62.1205 14.8133 61.7596C17.7581 60.6167 20.67 59.5886 24.2156 59.9769C26.4228 60.223 28.6464 59.6925 30.7006 58.9707C31.5255 58.6808 32.3122 58.3254 33.1426 58.052C34.8745 57.4887 36.6938 58.4402 36.6556 59.8347C36.6446 60.2558 36.3988 60.4855 35.929 60.6058C34.4102 60.9995 32.8914 61.3987 31.3562 61.7541C30.34 62.0002 29.2965 62.1697 28.2093 62.383Z" fill="white"/>
<path id="Vector_5" d="M47.7305 73.0851C45.7419 72.2977 43.6604 71.6797 41.781 70.6845C39.4974 69.4759 38.2189 67.3432 37.8583 64.8004C37.4486 61.8802 37.7327 58.9929 38.8036 56.2204C40.1147 52.8409 41.9067 49.7238 43.9882 46.7708C44.7695 45.6553 45.7364 44.7913 47.0694 44.3538C47.4792 44.2225 47.8234 43.8452 48.1567 43.5335C50.2874 41.5321 52.8934 40.668 55.7343 40.4274C56.1167 40.3946 56.581 40.7063 56.9198 40.9688C57.854 41.7016 58.821 42.1172 60.0502 42.2648C63.6724 42.7132 66.2292 44.7968 67.8081 48.0286C69.0647 50.5933 69.3925 53.3494 69.1029 56.193C68.9937 57.2922 69.0974 58.4132 68.9281 59.5014C68.3435 63.3294 66.5953 66.4245 63.443 68.8252C60.6021 70.9852 57.477 72.3633 54.0351 73.0086C51.9864 73.3968 49.8776 73.4078 47.7305 73.0851Z" fill="#56C2E4"/>
<g id="Group_2">
<g id="Clip path group">
<mask id="mask0_68_504" style="mask-type:luminance" maskUnits="userSpaceOnUse" x="37" y="40" width="33" height="34">
<g id="SVGID_14_">
<path id="Vector_6" d="M47.734 73.2921C45.7453 72.5047 43.6638 71.8868 41.7845 70.8915C39.5008 69.683 38.2224 67.5503 37.8618 65.0074C37.452 62.0873 37.7361 59.1999 38.8069 56.4274C40.1181 53.0479 41.9101 49.9308 43.9916 46.9779C44.7729 45.8623 45.7398 44.9983 47.0729 44.5608C47.4826 44.4296 47.8268 44.0523 48.1601 43.7406C50.2907 41.7391 52.8968 40.8805 55.7377 40.6345C56.1201 40.6017 56.5845 40.9134 56.9232 41.1758C57.8574 41.9086 58.8244 42.3242 60.0537 42.4719C63.6758 42.9203 66.2327 45.0038 67.8116 48.2356C69.0681 50.8004 69.3959 53.5565 69.1064 56.4001C68.9971 57.4992 69.1009 58.6203 68.9315 59.7085C68.3469 63.5364 66.5987 66.6315 63.4464 69.0322C60.6055 71.1922 57.4804 72.5703 54.0386 73.2156C51.9898 73.6093 49.8811 73.6148 47.734 73.2921Z" fill="white"/>
</g>
</mask>
<g mask="url(#mask0_68_504)">
<path id="Vector_7" d="M59.5243 52.5941C62.4035 53.0316 64.9329 53.3597 67.4351 53.8135C68.9922 54.0979 70.5 54.694 72.0625 54.9455C76.8702 55.733 81.6889 56.4986 86.5239 57.1001C87.917 57.2751 89.4303 57.0673 90.8016 56.6954C92.6482 56.1978 94.0195 56.9306 95.0903 58.1336C95.6257 58.7352 95.7787 59.8781 95.7241 60.753C95.6585 61.7702 94.697 62.1475 93.7628 62.1694C91.3644 62.235 88.9386 62.4592 86.573 62.2131C80.0335 61.5241 73.5978 60.3101 67.2057 58.6532C64.0152 57.8274 60.535 58.1172 57.186 57.9149C56.9456 57.8985 56.7053 57.9696 56.4649 57.9586C53.1869 57.7782 50.1711 58.5985 47.2319 60.0586C45.6093 60.8624 43.7901 61.5022 42.0036 61.6991C38.7474 62.0545 35.4476 62.1037 32.1696 62.1201C30.4924 62.1311 29.9023 61.5131 29.804 60.3101C29.7057 59.0961 30.2574 58.3688 31.7817 58.0462C33.0328 57.7782 34.3276 57.5321 35.5951 57.5649C40.0203 57.6907 43.8665 56.1158 47.5215 53.8081C52.4056 50.7239 56.9838 47.3444 60.9338 43.0243C65.5175 38.0097 71.1829 34.324 77.3892 31.5186C77.9028 31.289 78.4054 31.0429 78.908 30.7913C81.1698 29.6265 83.224 30.2773 84.4533 32.5521C85.0488 33.6568 84.8685 34.22 83.6557 34.8161C81.7927 35.7348 79.9461 36.6863 78.0449 37.5066C73.6469 39.4096 69.8499 42.2149 66.3971 45.4632C64.0752 47.6506 61.9664 50.0403 59.5243 52.5941Z" fill="black"/>
</g>
</g>
</g>
<path id="Vector_8" d="M48.0089 77.7769C44.638 77.2136 42.4254 75.7372 40.0543 74.649C39.3987 74.3482 38.9289 74.1021 38.3607 74.6818C35.935 77.1699 32.8647 78.7393 29.9855 80.5768C26.1175 83.043 22.2112 85.4492 18.3213 87.8826C15.617 89.5779 12.9673 91.3715 10.1919 92.9464C8.90807 93.6737 7.41113 94.0948 5.9579 94.4502C4.20964 94.8768 2.60896 94.2917 1.24314 93.1761C0.871637 92.8699 0.5711 92.3722 0.434518 91.902C-0.505168 88.6537 0.0630325 85.7663 2.29752 83.1251C4.14411 80.9432 6.51518 79.494 8.78791 77.8918C12.1642 75.5184 15.5351 73.1232 19.0261 70.9413C21.7741 69.2242 24.7298 67.8407 27.5543 66.2385C29.4664 65.1557 31.3349 63.9964 33.1651 62.7769C33.4929 62.5582 33.6732 61.8801 33.6623 61.4207C33.5694 57.2811 34.826 53.5024 36.7217 49.9151C37.8581 47.7605 39.1583 45.6825 40.4805 43.6373C41.0049 42.8225 41.6988 42.0405 42.48 41.4772C44.2611 40.1812 46.0913 38.918 48.0089 37.8407C51.1284 36.0799 54.532 35.5057 58.0886 35.9431C60.4925 36.2384 62.3554 37.6931 64.284 38.9727C65.393 39.7055 66.3983 40.5968 67.5456 41.2585C68.4034 41.7507 68.9223 42.4342 69.4359 43.2271C70.4521 44.7911 71.3153 46.3934 71.9873 48.1542C73.14 51.1619 73.4186 54.2407 73.2438 57.396C73.1564 58.9599 72.9706 60.5184 72.7849 62.0715C72.3533 65.6861 70.5395 68.5735 68.1138 71.1984C65.7645 73.7412 62.7488 75.2231 59.7604 76.7324C58.8098 77.2137 57.6242 77.1918 56.5753 77.509C53.4831 78.4331 50.3745 78.0285 48.0089 77.7769ZM47.7303 73.085C49.8773 73.4076 51.9861 73.3967 54.0348 73.0139C57.4767 72.3631 60.6018 70.9905 63.4427 68.8305C66.595 66.4298 68.3432 63.3347 68.9278 59.5068C69.0917 58.4185 68.9879 57.2975 69.1026 56.1984C69.3922 53.3548 69.0644 50.5986 67.8078 48.0339C66.229 44.802 63.6721 42.7186 60.0499 42.2702C58.8207 42.117 57.8482 41.7014 56.9195 40.9741C56.5808 40.7116 56.1164 40.4 55.734 40.4328C52.8985 40.6734 50.2926 41.5374 48.1564 43.5388C47.8231 43.8505 47.4789 44.2224 47.0691 44.3591C45.7306 44.7966 44.7692 45.6661 43.9879 46.7762C41.9064 49.7346 40.1144 52.8517 38.8033 56.2257C37.7325 58.9927 37.4483 61.8856 37.8581 64.8057C38.2132 67.3486 39.4916 69.4813 41.7807 70.6898C43.6601 71.6796 45.7362 72.2975 47.7303 73.085Z" fill="black"/>
<g id="Group_3">
<g id="Clip path group_2">
<mask id="mask1_68_504" style="mask-type:luminance" maskUnits="userSpaceOnUse" x="12" y="6" width="97" height="93">
<g id="SVGID_16_">
<path id="Vector_9" d="M108.693 52.5345C108.513 58.703 107.436 63.6957 105.18 68.4314C104.513 69.8368 104.082 71.357 103.557 72.8335C102.891 74.7037 101.793 76.2458 100.307 77.5801C99.3178 78.4714 98.6076 79.6636 97.6733 80.626C93.3519 85.0938 88.8666 89.3865 83.4579 92.5418C79.0982 95.0901 74.4872 96.9603 69.3845 97.4306C66.631 97.6876 63.8884 98.1142 61.1349 98.3493C59.8783 98.4587 58.589 98.3876 57.3379 98.2345C51.3337 97.5181 45.7011 95.6479 40.358 92.8043C38.2547 91.6887 36.0366 90.7591 33.8021 89.9224C28.7595 88.0303 24.7713 84.7547 21.3786 80.6752C20.5154 79.6417 19.7614 78.5207 18.9419 77.4488C16.3905 74.1295 14.6642 70.3453 13.7791 66.3315C12.3641 59.9115 11.9817 53.3657 13.9157 46.9731C15.3635 42.1827 17.0625 37.4525 18.9638 32.8261C20.3241 29.5123 22.4548 26.603 25.0116 24.0165C27.7924 21.2002 30.2181 18.0394 33.4087 15.6114C37.6263 12.396 42.4231 10.3945 47.3073 8.48056C51.3665 6.88924 55.5787 6.62127 59.8183 6.21114C65.5438 5.65882 71.1874 6.26581 76.8091 7.15717C78.8469 7.47981 80.77 8.45868 82.775 9.02194C84.7363 9.57425 86.6648 10.0938 87.9869 11.8327C88.1782 12.0843 88.6371 12.1882 88.9976 12.2593C91.5872 12.7678 93.0951 14.6873 94.8816 16.3989C97.9356 19.3136 99.8641 22.9228 101.727 26.5593C102.869 28.7904 103.448 31.3114 104.251 33.7121C104.557 34.6308 104.628 35.6534 105.049 36.5119C107.682 41.882 108.283 47.6567 108.693 52.5345Z" fill="white"/>
</g>
</mask>
<g mask="url(#mask1_68_504)">
<path id="Vector_10" d="M25.625 95.5388C25.9091 94.4888 26.5156 94.0459 27.4498 93.8873C32.9404 92.9741 38.1578 91.0437 43.4845 89.5125C46.1506 88.7469 48.8222 88.0142 51.4883 87.2486C54.5805 86.3627 57.6563 85.4057 60.7595 84.569C64.8678 83.4644 69.009 82.4527 73.1283 81.3918C74.8985 80.9379 76.6631 80.4403 78.4387 79.981C84.1423 78.5045 89.8515 77.0663 95.5497 75.5625C99.8548 74.425 104.149 73.2329 108.438 72.0298C109.361 71.7728 110.169 71.6744 110.863 72.5001C111.606 73.386 111.377 74.4797 110.306 74.6984C108.946 74.9719 107.607 75.3273 106.263 75.6828C101.953 76.8202 97.6531 77.985 93.3425 79.106C90.9988 79.7185 88.6277 80.238 86.2785 80.8341C83.6889 81.4903 81.1102 82.1902 78.5261 82.8683C75.412 83.6831 72.2925 84.476 69.1893 85.3237C63.0322 87.0025 56.8805 88.7086 50.7343 90.4148C48.1611 91.1312 45.5934 91.8585 43.0256 92.6077C40.5071 93.3404 37.9939 94.0787 35.4863 94.8552C32.8857 95.6591 30.2033 96.0692 27.5263 96.5176C26.6576 96.6707 26.1495 96.1567 25.625 95.5388Z" fill="#CE4530"/>
</g>
</g>
<g id="Clip path group_3">
<mask id="mask2_68_504" style="mask-type:luminance" maskUnits="userSpaceOnUse" x="12" y="6" width="97" height="93">
<g id="SVGID_16__2">
<path id="Vector_11" d="M108.693 52.5345C108.513 58.703 107.436 63.6957 105.18 68.4314C104.513 69.8368 104.082 71.357 103.557 72.8335C102.891 74.7037 101.793 76.2458 100.307 77.5801C99.3178 78.4714 98.6076 79.6636 97.6733 80.626C93.3519 85.0938 88.8666 89.3865 83.4579 92.5418C79.0982 95.0901 74.4872 96.9603 69.3845 97.4306C66.631 97.6876 63.8884 98.1142 61.1349 98.3493C59.8783 98.4587 58.589 98.3876 57.3379 98.2345C51.3337 97.5181 45.7011 95.6479 40.358 92.8043C38.2547 91.6887 36.0366 90.7591 33.8021 89.9224C28.7595 88.0303 24.7713 84.7547 21.3786 80.6752C20.5154 79.6417 19.7614 78.5207 18.9419 77.4488C16.3905 74.1295 14.6642 70.3453 13.7791 66.3315C12.3641 59.9115 11.9817 53.3657 13.9157 46.9731C15.3635 42.1827 17.0625 37.4525 18.9638 32.8261C20.3241 29.5123 22.4548 26.603 25.0116 24.0165C27.7924 21.2002 30.2181 18.0394 33.4087 15.6114C37.6263 12.396 42.4231 10.3945 47.3073 8.48056C51.3665 6.88924 55.5787 6.62127 59.8183 6.21114C65.5438 5.65882 71.1874 6.26581 76.8091 7.15717C78.8469 7.47981 80.77 8.45868 82.775 9.02194C84.7363 9.57425 86.6648 10.0938 87.9869 11.8327C88.1782 12.0843 88.6371 12.1882 88.9976 12.2593C91.5872 12.7678 93.0951 14.6873 94.8816 16.3989C97.9356 19.3136 99.8641 22.9228 101.727 26.5593C102.869 28.7904 103.448 31.3114 104.251 33.7121C104.557 34.6308 104.628 35.6534 105.049 36.5119C107.682 41.882 108.283 47.6567 108.693 52.5345Z" fill="white"/>
</g>
</mask>
<g mask="url(#mask2_68_504)">
<path id="Vector_12" d="M13.4409 41.2094C13.725 40.1595 14.3314 39.7165 15.2656 39.5579C20.7562 38.6447 25.9737 36.7143 31.3004 35.1832C33.9665 34.4176 36.638 33.6848 39.3041 32.9192C42.3963 32.0333 45.4722 31.0763 48.5753 30.2397C52.6837 29.135 56.8249 28.1234 60.9442 27.0625C62.7143 26.6086 64.479 26.111 66.2546 25.6516C71.9582 24.1751 77.6674 22.737 83.3656 21.2331C87.6706 20.0957 91.9648 18.9036 96.2534 17.7005C97.1767 17.4435 97.9853 17.345 98.6792 18.1708C99.4222 19.0567 99.1927 20.1504 98.1219 20.3691C96.7616 20.6425 95.423 20.998 94.0791 21.3534C89.7685 22.4909 85.4689 23.6556 81.1584 24.7767C78.8146 25.3892 76.4436 25.9086 74.0944 26.5047C71.5048 27.1609 68.9261 27.8609 66.3419 28.539C63.2279 29.3538 60.1083 30.1467 57.0052 30.9943C50.8481 32.6731 44.6964 34.3793 38.5502 36.0855C35.977 36.8018 33.4092 37.5291 30.8415 38.2783C28.3229 39.0111 25.8098 39.7493 23.3021 40.5259C20.7016 41.3297 18.0191 41.7399 15.3421 42.1883C14.4735 42.3414 13.9654 41.8273 13.4409 41.2094Z" fill="#CE4530"/>
</g>
</g>
</g>
</g>
</svg>
