<svg width="116" height="112" viewBox="0 0 116 112" fill="none" xmlns="http://www.w3.org/2000/svg">
<g id="Group">
<path id="Vector" d="M112.353 56.4663C112.145 63.4181 110.939 69.047 108.394 74.3879C107.641 75.9743 107.158 77.6893 106.564 79.3492C105.812 81.4561 104.576 83.1956 102.899 84.7024C101.785 85.7068 100.984 87.0543 99.9311 88.1385C95.0603 93.1732 89.9997 98.0119 83.905 101.57C78.9913 104.443 73.7901 106.55 68.0381 107.083C64.9296 107.371 61.8455 107.849 58.7369 108.118C57.3234 108.241 55.8671 108.161 54.4535 107.989C47.6857 107.181 41.3341 105.074 35.3068 101.871C32.9386 100.609 30.4359 99.5676 27.9148 98.6244C22.2301 96.4929 17.7386 92.7996 13.908 88.1997C12.9351 87.0299 12.0845 85.7681 11.1605 84.5615C8.28452 80.8191 6.33863 76.5562 5.3412 72.0298C3.7441 64.7963 3.31576 57.4096 5.49418 50.2005C7.128 44.8044 9.04332 39.4696 11.185 34.2511C12.7209 30.5149 15.1196 27.2319 18.0018 24.3165C21.1409 21.1437 23.87 17.579 27.4681 14.8412C32.2288 11.2152 37.632 8.96122 43.1392 6.79911C47.7102 5.0045 52.4648 4.70438 57.2439 4.23888C63.6935 3.61414 70.0636 4.30013 76.3969 5.31075C78.6916 5.67825 80.8639 6.77461 83.1218 7.4116C85.3308 8.03635 87.5093 8.61823 89.0023 10.5782C89.2226 10.8661 89.7366 10.9825 90.1405 11.0621C93.0593 11.6317 94.7604 13.7999 96.7736 15.7293C100.213 19.0184 102.391 23.0854 104.49 27.1829C105.781 29.6942 106.43 32.5423 107.335 35.2495C107.678 36.2846 107.757 37.4422 108.235 38.4039C111.215 44.4553 111.894 50.9661 112.353 56.4663Z" fill="#E4E8EA" stroke="white" stroke-width="7" stroke-miterlimit="10"/>
<g id="Group_2">
<g id="Clip path group">
<mask id="mask0_68_415" style="mask-type:luminance" maskUnits="userSpaceOnUse" x="7" y="6" width="103" height="100">
<g id="SVGID_10_">
<path id="Vector_2" d="M109.954 56.16C109.758 62.7505 108.614 68.0914 106.203 73.1568C105.487 74.6574 105.034 76.2866 104.471 77.8608C103.756 79.8636 102.587 81.5051 100.996 82.9383C99.9372 83.8877 99.1785 85.1678 98.1811 86.1968C93.5611 90.9743 88.7636 95.5619 82.9872 98.9367C78.3305 101.656 73.3923 103.659 67.9402 104.167C64.9969 104.443 62.0658 104.896 59.1163 105.147C57.7762 105.264 56.3994 105.184 55.0593 105.025C48.6403 104.259 42.6191 102.256 36.9038 99.2185C34.6581 98.0241 32.2838 97.0319 29.8974 96.1376C24.5064 94.1164 20.2475 90.6129 16.6188 86.2519C15.701 85.1433 14.8871 83.9489 14.0121 82.8036C11.289 79.2511 9.44105 75.2086 8.49258 70.9212C6.97503 64.0612 6.57115 57.0604 8.63331 50.225C10.1815 45.1045 11.9989 40.0514 14.0304 35.1025C15.4868 31.5561 17.7631 28.4508 20.4922 25.6823C23.4661 22.6688 26.0607 19.294 29.4691 16.697C33.9789 13.2609 39.1067 11.1233 44.3264 9.07144C48.6649 7.3687 53.1685 7.08694 57.7028 6.64595C63.822 6.05183 69.8616 6.7072 75.8644 7.66269C78.0429 8.00569 80.0989 9.05306 82.2468 9.65943C84.3395 10.2474 86.4078 10.8048 87.8213 12.6607C88.0294 12.9302 88.5189 13.0404 88.8983 13.1139C91.6702 13.6529 93.2796 15.7109 95.1888 17.5422C98.4503 20.6598 100.512 24.5186 102.507 28.4018C103.731 30.7844 104.349 33.4855 105.206 36.0518C105.53 37.038 105.61 38.1282 106.056 39.0408C108.871 44.7677 109.514 50.9416 109.954 56.16Z" fill="white"/>
</g>
</mask>
<g mask="url(#mask0_68_415)">
<path id="Vector_3" d="M-4.16797 28.5365C-3.40307 27.2564 -2.43628 26.895 -1.14514 27.0359C6.44873 27.875 14.0487 27.2625 21.6487 27.2196C25.4487 27.2013 29.2548 27.2258 33.0548 27.2074C37.4667 27.1829 41.8848 27.0665 46.2967 27.1155C52.1343 27.1829 57.972 27.3912 63.8097 27.5198C66.3185 27.5749 68.8335 27.581 71.3424 27.6362C79.4197 27.8077 87.497 28.0343 95.5804 28.169C101.687 28.2731 107.8 28.2915 113.907 28.2976C115.223 28.2976 116.33 28.4691 116.942 29.8166C117.597 31.2621 116.887 32.628 115.394 32.5116C113.497 32.3707 111.594 32.3401 109.691 32.3095C103.578 32.2054 97.4712 32.1502 91.3581 32.0216C88.0354 31.9542 84.7127 31.7644 81.39 31.6786C77.7246 31.5867 74.0593 31.55 70.4 31.4826C65.9881 31.403 61.5762 31.2866 57.1582 31.2499C48.4017 31.1764 39.6512 31.1457 30.8947 31.109C27.2294 31.0967 23.564 31.1029 19.8986 31.1396C16.3006 31.1702 12.7025 31.2131 9.11056 31.305C5.37788 31.403 1.68195 30.9436 -2.01401 30.5394C-3.21949 30.4169 -3.70291 29.5471 -4.16797 28.5365Z" fill="#CE4530"/>
</g>
</g>
<g id="Clip path group_2">
<mask id="mask1_68_415" style="mask-type:luminance" maskUnits="userSpaceOnUse" x="7" y="6" width="103" height="100">
<g id="SVGID_10__2">
<path id="Vector_4" d="M109.954 56.16C109.758 62.7505 108.614 68.0914 106.203 73.1568C105.487 74.6574 105.034 76.2866 104.471 77.8608C103.756 79.8636 102.587 81.5051 100.996 82.9383C99.9372 83.8877 99.1785 85.1678 98.1811 86.1968C93.5611 90.9743 88.7636 95.5619 82.9872 98.9367C78.3305 101.656 73.3923 103.659 67.9402 104.167C64.9969 104.443 62.0658 104.896 59.1163 105.147C57.7762 105.264 56.3994 105.184 55.0593 105.025C48.6403 104.259 42.6191 102.256 36.9038 99.2185C34.6581 98.0241 32.2838 97.0319 29.8974 96.1376C24.5064 94.1164 20.2475 90.6129 16.6188 86.2519C15.701 85.1433 14.8871 83.9489 14.0121 82.8036C11.289 79.2511 9.44105 75.2086 8.49258 70.9212C6.97503 64.0612 6.57115 57.0604 8.63331 50.225C10.1815 45.1045 11.9989 40.0514 14.0304 35.1025C15.4868 31.5561 17.7631 28.4508 20.4922 25.6823C23.4661 22.6688 26.0607 19.294 29.4691 16.697C33.9789 13.2609 39.1067 11.1233 44.3264 9.07144C48.6649 7.3687 53.1685 7.08694 57.7028 6.64595C63.822 6.05183 69.8616 6.7072 75.8644 7.66269C78.0429 8.00569 80.0989 9.05306 82.2468 9.65943C84.3395 10.2474 86.4078 10.8048 87.8213 12.6607C88.0294 12.9302 88.5189 13.0404 88.8983 13.1139C91.6702 13.6529 93.2796 15.7109 95.1888 17.5422C98.4503 20.6598 100.512 24.5186 102.507 28.4018C103.731 30.7844 104.349 33.4855 105.206 36.0518C105.53 37.038 105.61 38.1282 106.056 39.0408C108.871 44.7677 109.514 50.9416 109.954 56.16Z" fill="white"/>
</g>
</mask>
<g mask="url(#mask1_68_415)">
<path id="Vector_5" d="M-6.02783 80.2311C-5.26294 78.951 -4.29607 78.5896 -3.00493 78.7305C4.58894 79.5696 12.1889 78.9571 19.7889 78.9142C23.5889 78.8959 27.395 78.9204 31.195 78.902C35.6069 78.8775 40.0249 78.7611 44.4368 78.8101C50.2745 78.8836 56.1122 79.0857 61.9498 79.2144C64.4587 79.2695 66.9737 79.2756 69.4825 79.3307C77.5598 79.5022 85.6371 79.7289 93.7205 79.8636C99.8274 79.9677 105.94 79.9861 112.047 79.9922C113.363 79.9922 114.471 80.1637 115.082 81.5112C115.737 82.9567 115.027 84.3226 113.534 84.2062C111.637 84.0653 109.734 84.0347 107.831 84.0041C101.718 83.8999 95.6113 83.8448 89.4983 83.7162C86.1756 83.6488 82.8529 83.459 79.5302 83.3732C75.8649 83.2813 72.1994 83.2446 68.5402 83.1772C64.1283 83.0976 59.7163 82.9812 55.2983 82.9444C46.5418 82.8709 37.7915 82.8403 29.035 82.8036C25.3696 82.7913 21.7041 82.7975 18.0388 82.8342C14.4407 82.8648 10.8427 82.9077 7.25078 82.9996C3.51809 83.0976 -0.177909 82.6382 -3.87388 82.234C-5.07935 82.1115 -5.56278 81.2417 -6.02783 80.2311Z" fill="#CE4530"/>
</g>
</g>
<g id="Clip path group_3">
<mask id="mask2_68_415" style="mask-type:luminance" maskUnits="userSpaceOnUse" x="7" y="6" width="103" height="100">
<g id="SVGID_10__3">
<path id="Vector_6" d="M109.954 56.16C109.758 62.7505 108.614 68.0914 106.203 73.1568C105.487 74.6574 105.034 76.2866 104.471 77.8608C103.756 79.8636 102.587 81.5051 100.996 82.9383C99.9372 83.8877 99.1785 85.1678 98.1811 86.1968C93.5611 90.9743 88.7636 95.5619 82.9872 98.9367C78.3305 101.656 73.3923 103.659 67.9402 104.167C64.9969 104.443 62.0658 104.896 59.1163 105.147C57.7762 105.264 56.3994 105.184 55.0593 105.025C48.6403 104.259 42.6191 102.256 36.9038 99.2185C34.6581 98.0241 32.2838 97.0319 29.8974 96.1376C24.5064 94.1164 20.2475 90.6129 16.6188 86.2519C15.701 85.1433 14.8871 83.9489 14.0121 82.8036C11.289 79.2511 9.44105 75.2086 8.49258 70.9212C6.97503 64.0612 6.57115 57.0604 8.63331 50.225C10.1815 45.1045 11.9989 40.0514 14.0304 35.1025C15.4868 31.5561 17.7631 28.4508 20.4922 25.6823C23.4661 22.6688 26.0607 19.294 29.4691 16.697C33.9789 13.2609 39.1067 11.1233 44.3264 9.07144C48.6649 7.3687 53.1685 7.08694 57.7028 6.64595C63.822 6.05183 69.8616 6.7072 75.8644 7.66269C78.0429 8.00569 80.0989 9.05306 82.2468 9.65943C84.3395 10.2474 86.4078 10.8048 87.8213 12.6607C88.0294 12.9302 88.5189 13.0404 88.8983 13.1139C91.6702 13.6529 93.2796 15.7109 95.1888 17.5422C98.4503 20.6598 100.512 24.5186 102.507 28.4018C103.731 30.7844 104.349 33.4855 105.206 36.0518C105.53 37.038 105.61 38.1282 106.056 39.0408C108.871 44.7677 109.514 50.9416 109.954 56.16Z" fill="white"/>
</g>
</mask>
<g mask="url(#mask2_68_415)">
<path id="Vector_7" d="M28.1525 56.5766C27.9445 59.8105 26.4269 61.7766 23.7039 62.3646C21.14 62.9159 19.8611 61.9726 19.598 59.3267C19.5796 59.1674 19.5245 59.0143 19.5001 58.8612C18.778 54.5186 19.5185 53.3303 23.6061 52.2768C26.7024 51.4745 28.226 52.6627 28.1954 55.8599C28.1954 56.0927 28.1709 56.3316 28.1525 56.5766Z" fill="#E4E8EA"/>
</g>
</g>
<g id="Clip path group_4">
<mask id="mask3_68_415" style="mask-type:luminance" maskUnits="userSpaceOnUse" x="7" y="6" width="103" height="100">
<g id="SVGID_10__4">
<path id="Vector_8" d="M109.954 56.16C109.758 62.7505 108.614 68.0914 106.203 73.1568C105.487 74.6574 105.034 76.2866 104.471 77.8608C103.756 79.8636 102.587 81.5051 100.996 82.9383C99.9372 83.8877 99.1785 85.1678 98.1811 86.1968C93.5611 90.9743 88.7636 95.5619 82.9872 98.9367C78.3305 101.656 73.3923 103.659 67.9402 104.167C64.9969 104.443 62.0658 104.896 59.1163 105.147C57.7762 105.264 56.3994 105.184 55.0593 105.025C48.6403 104.259 42.6191 102.256 36.9038 99.2185C34.6581 98.0241 32.2838 97.0319 29.8974 96.1376C24.5064 94.1164 20.2475 90.6129 16.6188 86.2519C15.701 85.1433 14.8871 83.9489 14.0121 82.8036C11.289 79.2511 9.44105 75.2086 8.49258 70.9212C6.97503 64.0612 6.57115 57.0604 8.63331 50.225C10.1815 45.1045 11.9989 40.0514 14.0304 35.1025C15.4868 31.5561 17.7631 28.4508 20.4922 25.6823C23.4661 22.6688 26.0607 19.294 29.4691 16.697C33.9789 13.2609 39.1067 11.1233 44.3264 9.07144C48.6649 7.3687 53.1685 7.08694 57.7028 6.64595C63.822 6.05183 69.8616 6.7072 75.8644 7.66269C78.0429 8.00569 80.0989 9.05306 82.2468 9.65943C84.3395 10.2474 86.4078 10.8048 87.8213 12.6607C88.0294 12.9302 88.5189 13.0404 88.8983 13.1139C91.6702 13.6529 93.2796 15.7109 95.1888 17.5422C98.4503 20.6598 100.512 24.5186 102.507 28.4018C103.731 30.7844 104.349 33.4855 105.206 36.0518C105.53 37.038 105.61 38.1282 106.056 39.0408C108.871 44.7677 109.514 50.9416 109.954 56.16Z" fill="white"/>
</g>
</mask>
<g mask="url(#mask3_68_415)">
<path id="Vector_9" d="M45.9046 45.4843C45.4763 45.7415 45.0663 46.158 44.6074 46.2376C41.9272 46.6725 39.247 47.2054 36.5423 47.3524C34.6699 47.4565 32.8525 47.6035 31.2186 48.4978C30.2029 49.0551 29.4502 48.8101 28.5384 48.3385C27.1616 47.628 25.7053 47.0645 24.0776 46.3418C24.1144 45.5884 24.971 45.2209 25.742 44.9392C28.5385 43.9163 31.3594 43.316 34.4251 43.4263C37.9681 43.5549 41.4622 43.7142 44.8828 44.6758C45.1765 44.7554 45.464 44.8534 45.7516 44.9453C45.8006 45.1229 45.8557 45.3066 45.9046 45.4843Z" fill="#56C2E4"/>
</g>
</g>
<g id="Clip path group_5">
<mask id="mask4_68_415" style="mask-type:luminance" maskUnits="userSpaceOnUse" x="7" y="6" width="103" height="100">
<g id="SVGID_10__5">
<path id="Vector_10" d="M109.954 56.16C109.758 62.7505 108.614 68.0914 106.203 73.1568C105.487 74.6574 105.034 76.2866 104.471 77.8608C103.756 79.8636 102.587 81.5051 100.996 82.9383C99.9372 83.8877 99.1785 85.1678 98.1811 86.1968C93.5611 90.9743 88.7636 95.5619 82.9872 98.9367C78.3305 101.656 73.3923 103.659 67.9402 104.167C64.9969 104.443 62.0658 104.896 59.1163 105.147C57.7762 105.264 56.3994 105.184 55.0593 105.025C48.6403 104.259 42.6191 102.256 36.9038 99.2185C34.6581 98.0241 32.2838 97.0319 29.8974 96.1376C24.5064 94.1164 20.2475 90.6129 16.6188 86.2519C15.701 85.1433 14.8871 83.9489 14.0121 82.8036C11.289 79.2511 9.44105 75.2086 8.49258 70.9212C6.97503 64.0612 6.57115 57.0604 8.63331 50.225C10.1815 45.1045 11.9989 40.0514 14.0304 35.1025C15.4868 31.5561 17.7631 28.4508 20.4922 25.6823C23.4661 22.6688 26.0607 19.294 29.4691 16.697C33.9789 13.2609 39.1067 11.1233 44.3264 9.07144C48.6649 7.3687 53.1685 7.08694 57.7028 6.64595C63.822 6.05183 69.8616 6.7072 75.8644 7.66269C78.0429 8.00569 80.0989 9.05306 82.2468 9.65943C84.3395 10.2474 86.4078 10.8048 87.8213 12.6607C88.0294 12.9302 88.5189 13.0404 88.8983 13.1139C91.6702 13.6529 93.2796 15.7109 95.1888 17.5422C98.4503 20.6598 100.512 24.5186 102.507 28.4018C103.731 30.7844 104.349 33.4855 105.206 36.0518C105.53 37.038 105.61 38.1282 106.056 39.0408C108.871 44.7677 109.514 50.9416 109.954 56.16Z" fill="white"/>
</g>
</mask>
<g mask="url(#mask4_68_415)">
<path id="Vector_11" d="M27.3945 66.6766C28.5205 65.6722 29.2854 64.8392 30.1972 64.2328C30.6622 63.9204 31.3904 63.9021 31.9961 63.9266C35.9981 64.0797 40 64.2818 44.0019 64.4717C44.3997 64.49 44.8648 64.441 45.1768 64.6248C45.6174 64.882 46.1804 65.2924 46.2477 65.7089C46.315 66.1315 45.9539 66.8849 45.5806 67.0625C44.4302 67.6015 43.2126 68.1711 41.9765 68.2875C38.2316 68.655 34.456 68.9184 30.7478 67.8833C29.7076 67.5893 28.7101 67.1544 27.3945 66.6766Z" fill="#56C2E4"/>
</g>
</g>
<g id="Clip path group_6">
<mask id="mask5_68_415" style="mask-type:luminance" maskUnits="userSpaceOnUse" x="7" y="6" width="103" height="100">
<g id="SVGID_10__6">
<path id="Vector_12" d="M109.954 56.16C109.758 62.7505 108.614 68.0914 106.203 73.1568C105.487 74.6574 105.034 76.2866 104.471 77.8608C103.756 79.8636 102.587 81.5051 100.996 82.9383C99.9372 83.8877 99.1785 85.1678 98.1811 86.1968C93.5611 90.9743 88.7636 95.5619 82.9872 98.9367C78.3305 101.656 73.3923 103.659 67.9402 104.167C64.9969 104.443 62.0658 104.896 59.1163 105.147C57.7762 105.264 56.3994 105.184 55.0593 105.025C48.6403 104.259 42.6191 102.256 36.9038 99.2185C34.6581 98.0241 32.2838 97.0319 29.8974 96.1376C24.5064 94.1164 20.2475 90.6129 16.6188 86.2519C15.701 85.1433 14.8871 83.9489 14.0121 82.8036C11.289 79.2511 9.44105 75.2086 8.49258 70.9212C6.97503 64.0612 6.57115 57.0604 8.63331 50.225C10.1815 45.1045 11.9989 40.0514 14.0304 35.1025C15.4868 31.5561 17.7631 28.4508 20.4922 25.6823C23.4661 22.6688 26.0607 19.294 29.4691 16.697C33.9789 13.2609 39.1067 11.1233 44.3264 9.07144C48.6649 7.3687 53.1685 7.08694 57.7028 6.64595C63.822 6.05183 69.8616 6.7072 75.8644 7.66269C78.0429 8.00569 80.0989 9.05306 82.2468 9.65943C84.3395 10.2474 86.4078 10.8048 87.8213 12.6607C88.0294 12.9302 88.5189 13.0404 88.8983 13.1139C91.6702 13.6529 93.2796 15.7109 95.1888 17.5422C98.4503 20.6598 100.512 24.5186 102.507 28.4018C103.731 30.7844 104.349 33.4855 105.206 36.0518C105.53 37.038 105.61 38.1282 106.056 39.0408C108.871 44.7677 109.514 50.9416 109.954 56.16Z" fill="white"/>
</g>
</mask>
<g mask="url(#mask5_68_415)">
<path id="Vector_13" d="M54.8394 54.3225C55.5859 51.652 55.7756 51.4131 57.8439 51.3764C60.4017 51.3335 62.9595 51.3825 65.5173 51.4683C66.2149 51.4928 66.937 51.7133 67.5917 51.9889C67.9711 52.1481 68.5463 52.6749 68.4851 52.8648C68.3444 53.318 67.9466 53.8937 67.5305 54.0224C66.3923 54.3776 65.1991 54.69 64.0181 54.7267C61.3807 54.8064 58.7373 54.7206 56.0938 54.6716C55.7205 54.6594 55.3472 54.4695 54.8394 54.3225Z" fill="#394557"/>
</g>
</g>
<g id="Clip path group_7">
<mask id="mask6_68_415" style="mask-type:luminance" maskUnits="userSpaceOnUse" x="7" y="6" width="103" height="100">
<g id="SVGID_10__7">
<path id="Vector_14" d="M109.954 56.16C109.758 62.7505 108.614 68.0914 106.203 73.1568C105.487 74.6574 105.034 76.2866 104.471 77.8608C103.756 79.8636 102.587 81.5051 100.996 82.9383C99.9372 83.8877 99.1785 85.1678 98.1811 86.1968C93.5611 90.9743 88.7636 95.5619 82.9872 98.9367C78.3305 101.656 73.3923 103.659 67.9402 104.167C64.9969 104.443 62.0658 104.896 59.1163 105.147C57.7762 105.264 56.3994 105.184 55.0593 105.025C48.6403 104.259 42.6191 102.256 36.9038 99.2185C34.6581 98.0241 32.2838 97.0319 29.8974 96.1376C24.5064 94.1164 20.2475 90.6129 16.6188 86.2519C15.701 85.1433 14.8871 83.9489 14.0121 82.8036C11.289 79.2511 9.44105 75.2086 8.49258 70.9212C6.97503 64.0612 6.57115 57.0604 8.63331 50.225C10.1815 45.1045 11.9989 40.0514 14.0304 35.1025C15.4868 31.5561 17.7631 28.4508 20.4922 25.6823C23.4661 22.6688 26.0607 19.294 29.4691 16.697C33.9789 13.2609 39.1067 11.1233 44.3264 9.07144C48.6649 7.3687 53.1685 7.08694 57.7028 6.64595C63.822 6.05183 69.8616 6.7072 75.8644 7.66269C78.0429 8.00569 80.0989 9.05306 82.2468 9.65943C84.3395 10.2474 86.4078 10.8048 87.8213 12.6607C88.0294 12.9302 88.5189 13.0404 88.8983 13.1139C91.6702 13.6529 93.2796 15.7109 95.1888 17.5422C98.4503 20.6598 100.512 24.5186 102.507 28.4018C103.731 30.7844 104.349 33.4855 105.206 36.0518C105.53 37.038 105.61 38.1282 106.056 39.0408C108.871 44.7677 109.514 50.9416 109.954 56.16Z" fill="white"/>
</g>
</mask>
<g mask="url(#mask6_68_415)">
<path id="Vector_15" d="M32.3691 52.1482C33.7276 51.7256 34.8413 51.3826 36.1875 50.96C37.5827 54.3409 35.8938 57.5688 36.5546 60.7048C35.0983 61.7889 33.899 61.4275 32.7853 60.7293C32.8893 59.2103 33.1095 57.8015 33.0422 56.4051C32.981 55.0576 32.6323 53.7284 32.3691 52.1482Z" fill="#56C2E4"/>
</g>
</g>
<g id="Clip path group_8">
<mask id="mask7_68_415" style="mask-type:luminance" maskUnits="userSpaceOnUse" x="7" y="6" width="103" height="100">
<g id="SVGID_10__8">
<path id="Vector_16" d="M109.954 56.16C109.758 62.7505 108.614 68.0914 106.203 73.1568C105.487 74.6574 105.034 76.2866 104.471 77.8608C103.756 79.8636 102.587 81.5051 100.996 82.9383C99.9372 83.8877 99.1785 85.1678 98.1811 86.1968C93.5611 90.9743 88.7636 95.5619 82.9872 98.9367C78.3305 101.656 73.3923 103.659 67.9402 104.167C64.9969 104.443 62.0658 104.896 59.1163 105.147C57.7762 105.264 56.3994 105.184 55.0593 105.025C48.6403 104.259 42.6191 102.256 36.9038 99.2185C34.6581 98.0241 32.2838 97.0319 29.8974 96.1376C24.5064 94.1164 20.2475 90.6129 16.6188 86.2519C15.701 85.1433 14.8871 83.9489 14.0121 82.8036C11.289 79.2511 9.44105 75.2086 8.49258 70.9212C6.97503 64.0612 6.57115 57.0604 8.63331 50.225C10.1815 45.1045 11.9989 40.0514 14.0304 35.1025C15.4868 31.5561 17.7631 28.4508 20.4922 25.6823C23.4661 22.6688 26.0607 19.294 29.4691 16.697C33.9789 13.2609 39.1067 11.1233 44.3264 9.07144C48.6649 7.3687 53.1685 7.08694 57.7028 6.64595C63.822 6.05183 69.8616 6.7072 75.8644 7.66269C78.0429 8.00569 80.0989 9.05306 82.2468 9.65943C84.3395 10.2474 86.4078 10.8048 87.8213 12.6607C88.0294 12.9302 88.5189 13.0404 88.8983 13.1139C91.6702 13.6529 93.2796 15.7109 95.1888 17.5422C98.4503 20.6598 100.512 24.5186 102.507 28.4018C103.731 30.7844 104.349 33.4855 105.206 36.0518C105.53 37.038 105.61 38.1282 106.056 39.0408C108.871 44.7677 109.514 50.9416 109.954 56.16Z" fill="white"/>
</g>
</mask>
<g mask="url(#mask7_68_415)">
<path id="Vector_17" d="M71.1596 50.1822C70.1438 49.0919 68.8281 48.8224 67.4513 48.7183C63.7003 48.4488 59.9432 48.1977 55.7699 47.9159C55.6475 46.9788 55.4761 45.8825 55.366 44.78C55.1274 42.4954 53.6404 41.5154 51.3886 41.9809C50.5135 42.1646 49.5162 42.0789 48.6289 41.8706C45.5326 41.1418 42.4914 40.1434 39.3706 39.5676C37.5165 39.2246 35.5278 39.6534 33.6308 39.4574C30.8527 39.1695 28.2154 39.6105 25.5964 40.4496C22.5001 41.4419 19.979 42.918 20.0769 46.7216C20.1136 48.0875 19.4527 48.9021 18.2105 49.4962C17.1703 49.9923 16.1055 50.5313 15.6221 51.8359C15.4324 52.3443 14.5084 52.8098 13.8721 52.8772C9.97416 53.2875 6.05788 53.5448 2.15386 53.9245C0.489454 54.0838 -1.19331 54.2798 -2.81489 54.684C-4.50989 55.1067 -5.94174 56.7543 -5.91114 57.9731C-5.86831 59.829 -4.72407 60.956 -3.13309 61.5195C-2.12343 61.8747 -0.966884 61.9911 0.110087 61.9421C1.86628 61.8686 3.6041 61.4521 5.3603 61.4092C7.9181 61.3541 10.4882 61.5807 13.046 61.5317C14.3188 61.5072 15.102 61.8257 15.7323 63.0078C16.8705 65.1332 18.4798 66.7379 21.1171 66.9094C21.7168 66.9462 22.5123 67.1851 22.855 67.6199C25.009 70.3823 28.2888 70.3823 31.2321 71.2643C34.0897 72.1156 36.9841 71.8155 39.8295 71.6011C42.5036 71.4051 45.2633 71.0989 47.5825 69.3594C48.7879 68.459 50.1341 67.7302 51.4742 67.0258C52.4411 66.5174 53.2672 65.9846 53.4813 64.8208C53.8118 63.014 54.2401 61.2255 54.4849 59.4064C54.595 58.5979 54.7541 57.8751 55.5802 57.7771C57.3854 57.5566 59.319 57.036 61.0018 57.4586C64.0185 58.212 66.7109 57.379 69.4646 56.6256C70.1805 56.4296 70.8352 55.7743 71.3615 55.1924C72.6465 53.7408 72.5058 51.6216 71.1596 50.1822ZM25.7432 44.9392C28.5397 43.9164 31.3606 43.3161 34.4263 43.4264C37.9693 43.555 41.4634 43.7142 44.884 44.6758C45.1777 44.7555 45.4652 44.8535 45.7528 44.9453C45.8018 45.123 45.8569 45.3067 45.9058 45.4843C45.4775 45.7416 45.0675 46.1581 44.6086 46.2377C41.9284 46.6726 39.2482 47.2055 36.5436 47.3525C34.6711 47.4566 32.8537 47.6036 31.2198 48.4978C30.2041 49.0552 29.4514 48.8102 28.5397 48.3386C27.1628 47.6281 25.7065 47.0646 24.0788 46.3418C24.1156 45.5885 24.9722 45.221 25.7432 44.9392ZM36.5496 60.7049C35.0932 61.789 33.8939 61.4276 32.7803 60.7294C32.8843 59.2104 33.1045 57.8016 33.0433 56.4051C32.9822 55.0638 32.6334 53.7285 32.3703 52.1483C33.7287 51.7257 34.8424 51.3827 36.1886 50.9601C37.5838 54.341 35.8887 57.5689 36.5496 60.7049ZM23.7055 62.3647C21.1416 62.916 19.8627 61.9727 19.5996 59.3267C19.5812 59.1675 19.5261 59.0144 19.5016 58.8612C18.7796 54.5186 19.5201 53.3304 23.6077 52.2769C26.7039 51.4745 28.2276 52.6628 28.197 55.86C28.197 56.0989 28.1664 56.3378 28.148 56.5828C27.9461 59.8106 26.4285 61.7767 23.7055 62.3647ZM45.5815 67.0626C44.4311 67.6015 43.2134 68.1712 41.9774 68.2875C38.2324 68.655 34.4569 68.9184 30.7487 67.8833C29.7084 67.5893 28.7049 67.1544 27.3954 66.6767C28.5213 65.6722 29.2862 64.8392 30.198 64.2328C30.6631 63.9205 31.3912 63.9021 31.997 63.9266C35.9989 64.0797 40.0008 64.2818 44.0028 64.4717C44.4005 64.4901 44.8656 64.4411 45.1777 64.6248C45.6183 64.8821 46.1812 65.2924 46.2485 65.7089C46.3158 66.1316 45.9548 66.8849 45.5815 67.0626ZM46.0833 61.5501C44.8105 61.5868 43.862 61.6297 42.9135 61.642C40.6127 61.6665 39.9641 61.1948 39.9703 58.9225C39.9825 56.3868 40.2762 53.8571 40.4659 51.0703C42.6627 50.6416 44.8105 50.2189 47.2765 49.7351C47.6987 53.949 46.4749 57.5934 46.0833 61.5501ZM67.5309 54.0225C66.3927 54.3778 65.1995 54.6901 64.0185 54.7269C61.3811 54.8065 58.7377 54.7208 56.0942 54.6718C55.7148 54.6656 55.3415 54.4696 54.8336 54.3288C55.5802 51.6583 55.7638 51.4194 57.8382 51.3827C60.396 51.3398 62.9599 51.3888 65.5116 51.4745C66.2092 51.499 66.9313 51.7195 67.586 51.9952C67.9654 52.1544 68.5406 52.6812 68.4794 52.871C68.3448 53.3182 67.947 53.8939 67.5309 54.0225Z" fill="black"/>
</g>
</g>
</g>
<path id="Vector_18" d="M90.9111 47.4748C90.4155 49.4409 90.8315 62.1992 91.4679 64.4716C92.0921 63.9265 92.6245 63.4916 93.1324 63.0138C93.8973 62.2911 94.6132 61.5132 95.4026 60.8211C96.1981 60.1167 97.0425 60.1657 97.8441 60.864C98.6641 61.5745 98.9272 62.5973 98.4499 63.5161C98.2112 63.9816 97.8869 64.4287 97.5198 64.7962C95.7085 66.6092 93.8728 68.3915 92.0493 70.18C91.8351 70.3883 91.4985 70.5475 91.4067 70.7925C91.1253 71.5581 90.7765 72.1523 89.8403 72.1523C88.7694 72.1584 87.7169 72.189 86.9214 71.2703C86.4809 70.7558 85.9668 70.3025 85.5079 69.8003C83.8312 67.9628 82.124 66.1559 80.5086 64.2695C79.5968 63.2098 78.838 62.0216 78.0609 60.9497C79.9273 58.806 80.5575 58.7386 82.3076 60.3127C82.8093 60.766 83.2805 61.2621 83.7701 61.7337C84.2473 62.1992 84.7369 62.6586 85.5017 63.3875C86.7133 58.3099 85.4651 53.5875 85.6364 48.3201C84.8654 49.2021 84.4371 49.6676 84.0393 50.1576C83.562 50.7394 83.1704 51.4071 82.638 51.9216C81.402 53.1037 80.3923 53.0669 79.0645 51.9032C77.7121 50.7149 77.7366 50.0228 78.7524 48.4242C80.4902 45.6864 82.2464 42.9424 83.7334 40.0698C84.896 37.828 86.8357 37.2033 88.8 39.641C90.6541 41.9501 92.8386 43.9101 95.4454 45.3801C96.6753 46.0784 97.9971 46.7766 97.9175 48.5651C97.8563 49.9309 97.3852 50.4822 96.1002 50.0841C94.7539 49.6676 93.5117 48.9081 92.2389 48.2711C91.8351 48.0996 91.4802 47.8301 90.9111 47.4748Z" fill="black"/>
</g>
</svg>
