<svg width="112" height="108" viewBox="0 0 112 108" fill="none" xmlns="http://www.w3.org/2000/svg">
<g id="Group">
<path id="Vector" d="M60.3241 4C64.3295 4.38582 68.4074 4.46969 72.3402 5.2581C75.4629 5.88436 78.4069 7.38288 81.4346 8.49561C82.6021 8.92616 83.7418 9.44618 84.9372 9.7649C87.7583 10.5254 89.7973 12.4544 91.8251 14.3388C96.4561 18.6555 99.8805 23.8556 102.026 29.7827C103.897 34.9493 105.534 40.2222 106.942 45.5341C107.874 49.068 108.131 52.7752 107.941 56.4545C107.824 58.6408 107.545 60.8271 107.199 62.9966C107.003 64.21 106.623 65.4177 106.165 66.564C104.64 70.3663 102.998 74.1294 101.489 77.9372C100.836 79.5923 99.4336 80.5597 98.389 81.8569C93.177 88.3152 87.1159 93.8229 79.8034 97.7314C75.9712 99.7835 72.0162 101.768 67.4857 102.143C64.2792 102.406 61.1173 103.172 57.9108 103.496C56.1065 103.681 54.2406 103.541 52.4307 103.323C48.6432 102.87 44.8166 102.423 41.2637 100.98C37.331 99.3809 33.5212 97.463 29.6555 95.7017C28.5885 95.2152 27.4824 94.8238 26.4154 94.3541C20.9856 91.9721 16.5836 88.2872 12.986 83.6071C9.69012 79.3184 7.16512 74.6438 5.67918 69.3989C4.11502 63.8689 3.62901 58.2885 4.28261 52.5963C5.11496 45.3608 7.63996 38.6286 10.6677 32.092C12.5335 28.0717 15.4272 24.7167 18.4215 21.468C22.4324 17.1066 26.8009 13.159 32.1805 10.626C36.5433 8.57389 41.1017 6.91319 45.621 5.20776C46.6824 4.80517 47.9393 4.91143 49.1124 4.82196C52.8329 4.54797 56.5701 4.27958 60.3241 4ZM94.4395 54.0892C94.1099 50.136 93.6183 45.4614 91.4899 41.128C91.1491 40.4346 91.0933 39.6071 90.8475 38.8634C90.1995 36.9175 89.7302 34.8766 88.8085 33.0705C87.3002 30.1294 85.7361 27.2106 83.2669 24.8454C81.8201 23.4642 80.6023 21.9042 78.5018 21.496C78.2113 21.4401 77.8427 21.3562 77.6862 21.1493C76.6137 19.7458 75.0551 19.3209 73.463 18.8735C71.8374 18.415 70.2788 17.6266 68.6309 17.3638C64.0837 16.6425 59.5141 16.1505 54.8775 16.5978C51.4419 16.9277 48.0343 17.1458 44.7496 18.4318C40.7945 19.9807 36.912 21.6022 33.4988 24.2079C30.918 26.1761 28.9572 28.7315 26.7003 31.0128C24.6278 33.1097 22.9072 35.4637 21.8067 38.1477C20.2705 41.894 18.8907 45.7242 17.7232 49.5992C16.159 54.777 16.4663 60.0778 17.617 65.2724C18.3321 68.521 19.7342 71.5796 21.7956 74.2692C22.4603 75.1359 23.0748 76.0417 23.7675 76.8804C26.516 80.1851 29.7393 82.8354 33.8228 84.3675C35.6272 85.0441 37.426 85.7934 39.1298 86.6992C43.4536 88.9974 48.0175 90.5127 52.8776 91.0942C53.8943 91.2172 54.9389 91.2731 55.95 91.1837C58.179 90.9935 60.3967 90.6469 62.6312 90.44C66.7595 90.0542 70.4967 88.5388 74.0216 86.4812C78.3957 83.9258 82.0268 80.4479 85.5294 76.8357C86.2835 76.0529 86.8589 75.0911 87.6577 74.3698C88.8588 73.2851 89.747 72.0381 90.2889 70.5284C90.7134 69.3374 91.0598 68.1017 91.6016 66.9666C93.4228 63.1252 94.2942 59.0825 94.4395 54.0892Z" fill="#CE4530" stroke="white" stroke-width="7" stroke-miterlimit="10"/>
<path id="Vector_2" d="M94.0822 54.0892C93.937 59.0377 93.0767 63.0469 91.2667 66.8492C90.7305 67.9787 90.3897 69.1976 89.9651 70.383C89.4289 71.8816 88.5518 73.1229 87.3564 74.1909C86.5631 74.9066 85.9933 75.8628 85.2447 76.64C81.7757 80.2242 78.1781 83.6686 73.8376 86.2016C70.3406 88.2425 66.6369 89.7466 62.5477 90.1268C60.3356 90.3337 58.1402 90.6748 55.928 90.8649C54.9225 90.9488 53.889 90.8929 52.8779 90.7755C48.0569 90.1995 43.5376 88.701 39.2474 86.4196C37.5603 85.525 35.7783 84.7813 33.9851 84.1103C29.9351 82.5894 26.7397 79.9614 24.0136 76.6903C23.3209 75.8572 22.7176 74.9625 22.0584 74.1014C20.0138 71.4342 18.6284 68.4036 17.9134 65.1829C16.7738 60.033 16.4721 54.777 18.0195 49.6439C19.1815 45.8025 20.5445 42.0058 22.0696 38.293C23.1645 35.6315 24.8683 33.2998 26.9185 31.2197C29.153 28.9607 31.097 26.4221 33.6555 24.4763C37.0408 21.8986 40.8897 20.2882 44.8113 18.7505C48.0681 17.4756 51.4478 17.2576 54.8498 16.9277C59.4417 16.4859 63.9722 16.9724 68.4859 17.6881C70.1171 17.9453 71.6645 18.7337 73.2734 19.1867C74.8487 19.6284 76.3961 20.0478 77.4575 21.4401C77.6139 21.6413 77.9826 21.7252 78.2675 21.7811C80.3456 22.1893 81.5522 23.7326 82.9879 25.1025C85.4403 27.4454 86.9877 30.3418 88.4848 33.255C89.4009 35.0443 89.8646 37.0685 90.507 38.9976C90.7528 39.7357 90.8087 40.5576 91.1439 41.2454C93.2666 45.5397 93.7526 50.1751 94.0822 54.0892Z" fill="white"/>
<g id="Group_2">
<path id="Vector_3" d="M83.3847 40.9995C83.2451 45.8473 82.2339 49.8845 79.5078 53.2394C76.9102 56.4378 73.7819 58.8757 69.3408 58.9819C65.0506 59.0826 61.5256 56.2141 60.1738 52.5405C58.9001 49.0681 58.1068 45.4336 58.6431 41.6145C59.1124 38.282 60.0006 35.1171 61.6206 32.1871C62.0172 31.4714 62.6876 30.8508 63.3579 30.3531C64.4137 29.5759 65.6595 29.0559 66.6706 28.2339C69.4023 26.0085 72.5082 26.0029 75.7148 26.5285C76.4019 26.6403 77.1449 26.9982 77.6644 27.4623C79.4408 29.0615 80.9379 30.8676 82.0217 33.0594C83.3624 35.7993 83.5802 38.6342 83.3847 40.9995ZM78.4632 40.267C78.4856 39.2773 78.5414 38.282 78.5302 37.2922C78.5023 34.9941 77.2342 33.2328 75.6813 31.8125C74.0501 30.3252 71.5083 30.8116 69.6146 32.7184C68.2627 34.0771 67.0393 35.5645 65.693 36.9232C64.3579 38.2708 63.7881 39.9091 63.6149 41.7375C63.5423 42.5315 63.4026 43.32 63.3859 44.114C63.3412 46.714 63.587 49.2917 64.4696 51.7464C65.3578 54.2123 68.2962 55.5208 70.4804 54.19C72.3127 53.0772 74.1227 51.657 75.4019 49.9627C77.508 47.167 78.4297 43.8176 78.4632 40.267Z" fill="black"/>
<path id="Vector_4" d="M47.4427 40.0488C49.8727 41.7933 51.4424 43.7224 52.6211 45.9982C55.1517 50.8796 53.5485 54.4247 49.3588 57.226C47.9399 58.171 46.2584 58.7246 44.6998 59.4627C41.538 60.9612 38.5046 60.3517 35.5048 58.9315C34.287 58.3555 33.1195 57.7517 32.3988 56.5607C32.1419 56.1357 31.991 55.6436 31.8179 55.2466C33.1697 53.7928 34.7116 53.4685 36.0467 54.5365C39.2141 57.0527 42.1357 55.8338 45.0853 54.2681C45.8338 53.8711 46.56 53.3399 47.1522 52.736C49.99 49.8396 49.113 46.9599 46.5545 44.6282C45.2305 43.4205 43.5881 42.8837 41.7503 43.2975C41.2978 43.3981 40.8341 43.5323 40.376 43.5211C39.7224 43.5099 39.0521 43.4652 38.4264 43.2807C37.5494 43.0235 36.4489 41.6256 36.5048 40.9546C36.5941 39.8866 37.4823 39.5903 38.27 39.2715C39.3705 38.8242 40.6163 38.6509 41.6106 38.0414C43.2921 37.0125 44.94 35.8607 46.3813 34.5299C47.7164 33.2941 47.2695 32.1758 45.4819 31.7061C43.1077 31.0855 40.7615 31.2924 38.3985 31.8459C36.393 32.3156 35.097 31.6446 34.1864 30.0846C33.6949 29.2459 33.9351 28.6811 34.5998 28.217C35.0244 27.9207 35.5383 27.6858 36.0411 27.5907C39.8509 26.8638 43.6552 26.4557 47.4092 27.943C51.0235 29.3745 52.0849 31.6391 51.9731 35.0164C51.9229 36.5764 50.8 37.6276 49.6101 38.5223C48.9845 38.9864 48.3421 39.4169 47.4427 40.0488Z" fill="black"/>
</g>
<g id="Group_3">
<path id="Vector_5" d="M48.1584 71.915C48.1472 72.3456 48.0913 72.7817 48.136 73.2067C48.1919 73.7658 48.3427 74.3138 48.4097 74.8729C48.488 75.5272 48.3762 76.1031 47.6333 76.3323C46.9852 76.528 46.3037 76.2876 45.9015 75.7061C45.1865 74.6884 45.1753 71.5236 45.8847 70.5283C46.6165 69.505 48.4656 68.6328 49.4097 69.0018C50.0353 69.2478 50.5716 69.7343 51.2755 70.204C51.4207 70.1313 51.7224 70.0195 51.9794 69.8461C53.4374 68.8564 55.2864 69.1192 56.3255 70.5618C57.169 71.7249 57.6159 73.0725 57.6383 74.5151C57.655 75.611 57.0852 76.1814 56.0182 76.2373C55.1468 76.282 54.8172 76.0528 54.6943 75.1525C54.5379 73.9839 54.3089 72.8432 53.6497 71.7752C53.0072 71.9206 52.6944 72.34 52.5715 72.9215C52.5045 73.2402 52.538 73.5981 52.4207 73.8944C52.2363 74.3529 52.147 74.9512 51.499 75.0239C50.8286 75.0966 50.1527 75.0798 49.7337 74.4256C49.4823 74.0342 49.2868 73.6036 49.0857 73.1843C48.8734 72.7425 48.6779 72.2896 48.4768 71.8423C48.3762 71.8647 48.2645 71.8926 48.1584 71.915Z" fill="black"/>
<path id="Vector_6" d="M69.648 63.5781C70.5195 64.0255 70.81 64.7468 70.9161 65.6414C71.0781 66.9834 71.3127 68.3142 71.525 69.7177C71.8379 69.7289 72.0613 69.74 72.2848 69.74C74.6757 69.7344 76.4856 71.205 76.9269 73.5702C77.0722 74.3475 77.1839 75.1582 77.128 75.9411C77.0443 77.0538 75.4689 77.6353 74.6477 76.8749C74.4243 76.668 74.4131 76.2039 74.3461 75.8516C74.1953 75.0241 74.1506 74.1685 73.9104 73.3745C73.7986 72.9999 73.3685 72.5638 72.9998 72.4743C72.7428 72.4072 72.2568 72.8098 72.039 73.1173C71.6926 73.6038 71.4077 74.1685 71.2457 74.7389C71.0334 75.4882 70.5642 75.695 69.8827 75.6671C68.9777 75.6335 68.4526 75.2533 68.3241 74.532C68.2738 74.258 68.2682 73.9672 68.3017 73.6877C68.5531 71.5741 68.3073 69.4716 68.2124 67.358C68.1565 65.9545 68.2626 64.5343 69.648 63.5781Z" fill="black"/>
<path id="Vector_7" d="M36.432 67.548C38.0967 68.0456 37.7057 69.6728 38.4207 70.8134C39.2028 70.478 40.0016 70.1313 40.7949 69.7902C41.0965 69.6616 41.4094 69.5609 41.711 69.4267C42.3535 69.1416 42.873 69.4435 43.1802 69.9188C43.521 70.4444 43.3646 71.0092 42.8171 71.395C42.5099 71.613 42.1859 71.8031 41.8674 71.9989C41.4373 72.2617 41.0072 72.5245 40.5603 72.7984C40.8843 73.7155 41.6943 73.7378 42.2473 74.1013C42.8339 74.4815 43.4763 74.7834 44.0237 75.2084C44.2807 75.4097 44.5768 75.9018 44.493 76.1143C44.3589 76.4386 43.9455 76.7461 43.588 76.8579C42.7501 77.1151 41.9345 76.9865 41.158 76.5057C40.415 76.0471 39.6329 75.6613 38.6274 75.1078C38.5548 75.857 38.4933 76.3435 38.4654 76.8356C38.3984 77.87 38.1973 78.1272 37.4152 78.1608C36.6052 78.1943 36.108 77.7917 35.9963 76.925C35.8343 75.6669 35.6667 74.4088 35.5941 73.1451C35.527 71.9709 35.5996 70.7911 35.5661 69.6168C35.5438 68.8117 35.8008 68.1575 36.432 67.548Z" fill="black"/>
<path id="Vector_8" d="M61.5702 62.8512C62.6204 63.3041 63.0729 64.1932 63.179 65.2612C63.6427 69.8966 63.6874 74.5376 63.3857 79.1842C63.3187 80.1739 62.9332 80.6827 62.2461 80.6827C61.4417 80.6827 60.5423 79.9446 60.492 79.1618C60.4529 78.5523 60.492 77.9372 60.5423 77.3333C60.8384 73.6709 60.8105 70.0196 60.4585 66.3627C60.3133 64.8698 60.654 63.8745 61.5702 62.8512Z" fill="black"/>
</g>
</g>
</svg>
