<svg width="110" height="106" viewBox="0 0 110 106" fill="none" xmlns="http://www.w3.org/2000/svg">
<g id="Group">
<path id="Vector" d="M105.105 53.4725C104.919 59.8952 103.799 65.0955 101.447 70.0299C100.752 71.4955 100.305 73.08 99.7569 74.6135C99.0615 76.5601 97.9196 78.1672 96.3705 79.5592C95.3416 80.4872 94.6011 81.7322 93.6287 82.7338C89.1287 87.3852 84.4532 91.8556 78.8225 95.1433C74.2829 97.7972 69.4775 99.7438 64.1634 100.236C61.2915 100.502 58.4422 100.943 55.5703 101.192C54.2644 101.306 52.9189 101.232 51.613 101.074C45.3603 100.327 39.4921 98.3801 33.9236 95.4206C31.7357 94.2549 29.4235 93.2929 27.0943 92.4215C21.8423 90.4522 17.6928 87.04 14.1538 82.7903C13.2549 81.7095 12.4691 80.5438 11.6155 79.4291C8.95838 75.9716 7.16061 72.0331 6.23911 67.8513C4.76358 61.1684 4.36785 54.344 6.38044 47.6837C7.88989 42.6984 9.65942 37.7696 11.6381 32.9484C13.0571 29.4966 15.2731 26.4635 17.9359 23.77C20.836 20.8387 23.3574 17.5454 26.6816 15.0159C31.0799 11.666 36.0719 9.58356 41.1599 7.58604C45.383 5.92803 49.7757 5.65076 54.1909 5.2207C60.1496 4.64351 66.0347 5.27729 71.886 6.21097C74.006 6.5505 76.0129 7.5634 78.099 8.15191C80.1399 8.7291 82.1524 9.26668 83.5318 11.0775C83.7353 11.3434 84.2103 11.451 84.5834 11.5245C87.28 12.0508 88.8516 14.054 90.7115 15.8365C93.8887 18.8752 95.9014 22.6326 97.8405 26.4182C99.0333 28.7383 99.6325 31.3696 100.469 33.8708C100.786 34.8271 100.859 35.8966 101.3 36.785C104.053 42.3702 104.681 48.3854 105.105 53.4725Z" fill="#E4E8EA" stroke="white" stroke-width="8.5039" stroke-miterlimit="10"/>
<g id="Group_2">
<path id="Vector_2" d="M100.74 63.4941C101.238 62.5038 101.656 61.4739 101.984 60.4214C102.454 58.9218 102.804 57.3204 102.725 55.7416C101.566 55.2493 100.441 54.6495 99.2367 54.3157C89.7843 51.673 80.1623 49.7943 70.5516 47.8647C65.5314 46.8575 60.743 45.6295 57.4641 41.0403C55.9377 38.907 53.4953 37.4583 51.6976 35.4891C49.5889 33.186 47.0562 31.6468 44.1221 30.9282C37.4116 29.2815 32.0409 32.1052 27.1451 36.3492C23.4026 39.5973 21.8649 44.1809 19.7053 48.391C19.1004 49.568 18.4671 50.7507 18.3314 52.1088C18.1505 52.9519 18.094 53.7951 18.3654 54.6382C18.9364 56.2226 19.9709 57.0715 21.7461 57.0601C25.0363 57.0375 28.3322 57.1224 31.6225 57.1563C31.843 57.3487 32.0974 57.4902 32.3857 57.4732C37.8186 57.2412 43.2232 58.1636 48.6561 57.841C49.5041 57.7901 50.3578 57.8241 51.0645 57.2356C52.8566 57.0658 54.6487 56.913 56.4352 56.7206C58.0294 56.5508 59.8498 56.6244 60.9578 55.3851C62.162 54.0384 63.304 53.9422 64.8021 54.5307C65.424 54.7797 66.1137 54.8645 66.7695 55.0286C72.2759 56.3811 77.8048 57.6486 83.2829 59.1142C88.3766 60.4723 93.3403 62.3284 98.5527 63.2338C99.265 63.4828 100.045 63.1659 100.74 63.4941Z" fill="#565555"/>
<path id="Vector_3" d="M31.6279 57.1563C33.3579 56.6809 35.1557 56.6017 36.8912 56.8054C41.6118 57.36 46.3437 57.0714 51.0699 57.2411C50.2728 61.389 48.2488 64.439 43.8279 65.3388C42.7086 65.5198 41.5892 65.5538 40.4755 65.3161C35.902 64.3541 33.307 61.2532 31.6279 57.1563Z" fill="#EFC346"/>
<path id="Vector_4" d="M45.0879 67.7949C45.9529 67.6308 46.5522 68.174 47.0949 68.8757C48.0899 70.1715 48.593 71.705 49.1979 73.1819C49.6219 74.2231 49.311 75.055 48.1859 75.5643C46.9592 76.1245 46.2186 75.7227 45.6532 74.5966C44.9522 73.1933 44.4265 71.7277 43.4032 70.4601C42.4648 69.317 43.4428 67.8345 45.0879 67.7949Z" fill="#FAE93C"/>
<path id="Vector_5" d="M56.1409 69.6168C56.1804 70.5279 55.6773 70.9862 54.8802 71.3314C54.0831 71.6766 53.4782 71.5182 53.0655 70.8448C52.014 69.1415 50.9567 67.4269 50.0296 65.6557C49.5547 64.7503 50.3971 64.1732 50.9398 63.579C51.5391 62.9169 52.1891 63.1206 52.8223 63.4828C54.0095 64.1675 56.1578 68.1569 56.1409 69.6168Z" fill="#FAE93C"/>
<path id="Vector_6" d="M28.1847 69.0169C26.9806 68.9433 26.1438 67.2401 26.7261 66.0914C27.4837 64.5918 28.5069 63.2733 29.8128 62.1925C30.5026 61.621 31.2488 61.7568 31.9385 62.1868C32.7583 62.6961 33.1258 63.5449 32.7018 64.3654C31.7633 66.1819 30.4969 67.7607 28.6652 68.7962C28.4899 68.8924 28.2978 68.966 28.1847 69.0169Z" fill="#FAE93C"/>
<path id="Vector_7" d="M32.7365 72.4858C32.8044 71.4446 33.2339 70.5335 33.641 69.5829C34.6869 67.11 35.6197 66.8667 37.6153 68.6775C37.7171 69.3735 37.8076 70.0639 37.5475 70.7486C36.773 72.1293 36.3998 73.7137 35.3653 74.9643C34.6925 75.4113 33.9802 75.2246 33.2736 75.0775C33.104 74.9077 32.9343 74.738 32.7647 74.5625C32.5442 73.8778 32.5726 73.1818 32.7365 72.4858Z" fill="#FAE93C"/>
</g>
</g>
</svg>
