<svg width="124" height="120" viewBox="0 0 124 120" fill="none" xmlns="http://www.w3.org/2000/svg">
<g id="Group">
<path id="Vector" d="M118.072 60.2671C117.863 67.4575 116.61 73.2795 113.977 78.8038C113.198 80.4446 112.698 82.2185 112.084 83.9353C111.306 86.1146 110.027 87.9138 108.293 89.4722C107.141 90.5112 106.312 91.905 105.224 93.0263C100.186 98.2338 94.9513 103.239 88.6475 106.919C83.5651 109.89 78.1854 112.07 72.2359 112.621C69.0207 112.919 65.8309 113.413 62.6156 113.692C61.1536 113.818 59.6472 113.736 58.1852 113.559C51.1851 112.722 44.6154 110.543 38.3812 107.23C35.9318 105.925 33.3431 104.848 30.7355 103.872C24.8557 101.667 20.2101 97.8473 16.2481 93.0896C15.2417 91.8796 14.362 90.5746 13.4063 89.3265C10.4316 85.4557 8.41889 81.0465 7.38724 76.3648C5.73532 68.8829 5.29228 61.2427 7.54547 53.7862C9.23536 48.2049 11.2164 42.687 13.4316 37.2894C15.0203 33.425 17.5012 30.0293 20.4823 27.0138C23.7291 23.7322 26.5519 20.0451 30.2735 17.2133C35.1976 13.4628 40.7863 11.1315 46.4826 8.89518C51.2105 7.03898 56.1283 6.72856 61.0713 6.24708C67.7423 5.6009 74.331 6.31043 80.8817 7.35574C83.2551 7.73585 85.502 8.86984 87.8375 9.5287C90.1223 10.1749 92.3754 10.7767 93.9197 12.804C94.1476 13.1017 94.6793 13.2221 95.097 13.3045C98.116 13.8936 99.8754 16.1363 101.958 18.1319C105.515 21.5339 107.768 25.7404 109.939 29.9786C111.274 32.5761 111.945 35.5219 112.882 38.3221C113.236 39.3927 113.319 40.5901 113.812 41.5847C116.895 47.8375 117.597 54.5718 118.072 60.2671Z" fill="#E4E8EA" stroke="white" stroke-width="11.3386" stroke-miterlimit="10"/>
<path id="Vector_2" d="M74.8756 59.3802C66.9452 59.4942 59.2488 60.3368 51.3626 60.6092C51.2044 61.9396 50.9513 63.1813 50.926 64.4293C50.7804 70.4921 50.6538 76.5548 50.6032 82.6239C50.5842 85.0946 50.8247 85.215 53.3248 84.9299C54.6159 84.7842 55.8437 84.9362 56.9133 85.7725C57.8627 86.5137 57.8058 87.5147 56.6666 87.8568C55.7362 88.1355 54.7171 88.2115 53.7361 88.2179C51.9766 88.2305 50.2108 88.1798 48.4513 88.0531C45.3184 87.8314 42.1917 87.5463 39.0651 87.2739C38.736 87.2486 38.4195 87.1282 38.0967 87.0712C37.2803 86.9192 36.8246 86.482 36.8562 85.6014C36.8942 84.5371 37.2423 84.0873 38.2676 83.8846C38.6917 83.8022 39.122 83.7642 39.66 83.6882C39.6094 82.5859 39.5461 81.5533 39.5081 80.5206C39.3499 75.6172 39.1853 70.7138 39.0461 65.804C39.0208 64.9804 39.141 64.1569 39.122 63.3333C39.084 62.0029 38.9639 61.8762 37.6664 61.5405C37.2423 61.4328 36.8119 61.3061 36.3752 61.2427C33.6916 60.8563 32.5713 59.5259 32.065 56.7321C31.5587 53.9319 31.2676 51.0241 31.9891 48.1922C32.2866 47.0329 32.7993 45.9052 33.4069 44.8726C33.698 44.3721 34.4005 43.916 34.9765 43.821C38.1221 43.2762 41.2803 42.8517 44.4386 42.3892C44.5462 42.3702 44.6664 42.3956 44.7677 42.3639C47.5082 41.439 50.4006 41.4073 53.2297 41.0018C56.388 40.552 59.5779 40.3493 62.7488 40.0009C68.4451 39.3737 74.1413 38.7338 79.8313 38.0623C82.3946 37.7582 84.939 37.2894 87.5086 37.0614C88.6289 36.96 89.8061 37.1881 90.9137 37.4478C92.1858 37.7519 92.458 38.9746 92.6352 40.0199C93.1921 43.2762 93.6099 46.5578 93.4073 49.8647C93.3061 51.5055 93.1668 53.2034 92.6415 54.7365C91.9706 56.694 90.3947 58.0371 88.3693 58.5312C86.8123 58.9114 86.2301 59.7603 86.0846 61.268C85.4706 67.5779 84.7934 73.875 84.1351 80.1785C84.0212 81.2745 83.8123 82.3642 83.749 83.4665C83.6541 85.139 84.0149 85.4811 85.7048 85.5761C86.42 85.6141 87.1859 85.5444 87.8314 85.7852C88.5719 86.0576 89.2808 86.539 89.8567 87.0902C90.3631 87.5717 90.1542 88.3826 89.5086 88.56C88.6225 88.807 87.6161 89.1428 86.7807 88.9464C83.787 88.2369 80.7553 88.4269 77.7299 88.2749C75.7046 88.1735 73.6794 87.9074 71.6604 87.6984C70.9325 87.6224 70.4135 87.2929 70.3565 86.4757C70.2995 85.6901 70.5591 84.8919 71.2364 84.6765C72.2364 84.3597 72.2805 83.6565 72.3691 82.9027C72.9388 77.8662 73.4958 72.8234 74.0528 67.7869C74.3123 65.4302 74.5591 63.0736 74.7996 60.7232C74.8312 60.3875 74.8377 60.0644 74.8756 59.3802ZM87.5086 41.3123C85.1415 46.26 81.2871 49.9091 78.7997 54.5147C81.2301 55.1926 83.5149 55.351 85.7871 54.7048C89.0846 53.7735 89.6986 53.2857 90.0593 50.1245C90.2618 48.3316 90.2238 46.5008 90.1352 44.6952C90.0782 43.5739 89.7301 42.4653 89.5023 41.3059C88.6795 41.3123 88.0466 41.3123 87.5086 41.3123ZM77.0465 42.706C74.4452 42.9467 72.2236 43.1114 70.0147 43.3839C69.6666 43.4282 69.2995 43.8717 69.078 44.2138C67.3628 46.8999 65.6666 49.605 63.9893 52.3164C63.3121 53.4124 62.6792 54.5401 61.9957 55.7184C62.3754 55.8388 62.5274 55.9402 62.6793 55.9275C64.4388 55.8325 66.1982 55.7564 67.9514 55.5917C68.3375 55.5537 68.8185 55.294 69.04 54.9835C69.983 53.6405 70.8375 52.2404 71.7362 50.8657C73.0337 48.8891 74.3376 46.9125 75.6351 44.936C76.0465 44.3151 76.4326 43.6753 77.0465 42.706ZM47.0588 56.2759C47.3436 56.4787 47.4258 56.599 47.5081 56.5927C49.3752 56.5293 51.2487 56.4787 53.1095 56.3456C53.4006 56.3266 53.7551 55.9718 53.9387 55.6804C55.8881 52.5572 57.8184 49.4149 59.7298 46.2664C59.9956 45.8229 60.154 45.3161 60.4641 44.6002C58.0906 44.6762 56.0145 44.7966 54.0082 45.3604C53.4955 45.5061 53.0146 46.0573 52.7045 46.5451C51.5779 48.2999 50.5145 50.0928 49.4639 51.8983C48.6221 53.3427 47.8436 54.8315 47.0588 56.2759ZM45.9575 84.6512C46.8626 76.8399 46.6031 69.0983 47.0524 61.3567C45.5967 61.3567 44.3753 61.3567 43.1981 61.3567C42.793 63.1433 43.584 80.7234 44.198 84.4991C44.7043 84.5435 45.236 84.5878 45.9575 84.6512ZM82.0655 59.3548C79.3946 58.8797 79.0149 59.1584 78.7807 61.5721C78.768 61.6798 78.7743 61.7939 78.7617 61.9016C78.3629 66.0131 77.9515 70.1246 77.5717 74.2361C77.2932 77.2517 77.0464 80.2736 76.8186 83.2954C76.7743 83.8656 76.9008 84.4484 76.9515 85.0249C77.7363 85.0249 78.3123 85.0249 78.8946 85.0249C79.673 82.3198 79.825 79.6464 80.0528 76.9539C80.4642 72.0252 81.2048 67.1217 81.7934 62.2056C81.9073 61.287 81.9705 60.3684 82.0655 59.3548ZM44.7487 46.6971C43.9259 46.7542 43.3499 46.7542 42.7929 46.8492C41.1726 47.1216 39.5651 47.47 37.9448 47.7171C35.7802 48.0402 34.97 48.8258 34.8498 51.0114C34.7801 52.2721 34.7993 53.5391 34.8373 54.8062C34.9005 56.8841 35.1727 57.1248 37.1917 57.4289C38.1157 57.5683 38.8055 57.3782 39.2929 56.5483C39.5713 56.0732 39.9005 55.6297 40.1664 55.1546C41.4765 52.8233 42.7803 50.4856 44.0778 48.1416C44.274 47.7678 44.4259 47.375 44.7487 46.6971Z" fill="black"/>
<path id="Vector_3" d="M87.5083 41.3123C88.0462 41.3123 88.6791 41.3123 89.5019 41.3123C89.7297 42.4716 90.0779 43.5802 90.1348 44.7016C90.2234 46.5071 90.2678 48.338 90.0589 50.1308C89.6982 53.2921 89.0843 53.7799 85.7868 54.7111C83.5146 55.351 81.236 55.199 78.7993 54.5211C81.2867 49.9091 85.1412 46.2664 87.5083 41.3123Z" fill="#EEC149"/>
<path id="Vector_4" d="M77.0464 42.7059C76.4325 43.6752 76.0401 44.3151 75.635 44.9359C74.3375 46.9125 73.0336 48.8891 71.7361 50.8656C70.8374 52.2404 69.983 53.6404 69.0399 54.9835C68.8184 55.2939 68.3374 55.5537 67.9513 55.5917C66.1981 55.7564 64.4387 55.8324 62.6792 55.9274C62.5273 55.9338 62.3754 55.8387 61.9956 55.7184C62.6792 54.5464 63.312 53.4124 63.9892 52.3164C65.6665 49.6049 67.3627 46.9062 69.0779 44.2137C69.2994 43.8653 69.6728 43.4218 70.0146 43.3838C72.2235 43.1114 74.4451 42.9467 77.0464 42.7059Z" fill="#EEC149"/>
<path id="Vector_5" d="M47.0586 56.2759C47.8497 54.8379 48.6283 53.3491 49.4637 51.8983C50.508 50.0928 51.5777 48.3 52.7043 46.5451C53.0145 46.0573 53.5017 45.5062 54.008 45.3604C56.0144 44.7966 58.0905 44.6826 60.4639 44.6002C60.1538 45.3161 59.9954 45.8292 59.7296 46.2664C57.8182 49.415 55.8879 52.5572 53.9385 55.6804C53.7549 55.9719 53.4068 56.3266 53.1093 56.3456C51.2422 56.4787 49.375 56.5294 47.5079 56.5927C47.4257 56.599 47.3371 56.4787 47.0586 56.2759Z" fill="#EEC149"/>
<path id="Vector_6" d="M45.9576 84.6511C45.2361 84.5878 44.7044 84.5434 44.1981 84.4991C43.5778 80.7233 42.7868 63.1432 43.1982 61.3567C44.3754 61.3567 45.5968 61.3567 47.0525 61.3567C46.6032 69.0983 46.8627 76.8398 45.9576 84.6511Z" fill="#A4ACBA"/>
<path id="Vector_7" d="M82.0652 59.3548C81.9703 60.3684 81.9071 61.2934 81.7931 62.212C81.1982 67.1281 80.464 72.0315 80.0526 76.9602C79.8248 79.6527 79.6728 82.3198 78.8943 85.0313C78.312 85.0313 77.736 85.0313 76.9512 85.0313C76.9006 84.4548 76.774 83.8719 76.8183 83.3017C77.0462 80.2799 77.293 77.2643 77.5715 74.2424C77.9512 70.1309 78.3627 66.0194 78.7614 61.9079C78.7741 61.8002 78.7678 61.6861 78.7804 61.5784C79.0146 59.1584 79.3943 58.8733 82.0652 59.3548Z" fill="#A4ACBA"/>
<path id="Vector_8" d="M44.7487 46.6971C44.4322 47.375 44.274 47.7678 44.0714 48.1352C42.7739 50.4792 41.4702 52.8169 40.16 55.1483C39.8942 55.6234 39.5587 56.0669 39.2865 56.542C38.8055 57.3719 38.1157 57.5683 37.1854 57.4226C35.1664 57.1185 34.8942 56.8778 34.8309 54.7998C34.7929 53.5391 34.774 52.2658 34.8436 51.0051C34.9638 48.8194 35.7739 48.0402 37.9385 47.7108C39.5651 47.4637 41.1663 47.1153 42.7866 46.8428C43.3436 46.7542 43.9196 46.7542 44.7487 46.6971Z" fill="#EEC149"/>
</g>
</svg>
