<svg width="109" height="105" viewBox="0 0 109 105" fill="none" xmlns="http://www.w3.org/2000/svg">
<g id="Group">
<path id="Vector" d="M104.615 52.7098C104.424 59.1672 103.301 64.3957 100.938 69.3518C100.237 70.8241 99.7914 72.4182 99.2413 73.9601C98.5406 75.9193 97.394 77.5307 95.8362 78.9335C94.7996 79.8668 94.0583 81.1188 93.0796 82.1274C88.5568 86.8053 83.8601 91.2976 78.2022 94.6016C73.6388 97.2681 68.8091 99.2273 63.4697 99.72C60.5858 99.9866 57.7192 100.433 54.8295 100.682C53.5149 100.792 52.1655 100.723 50.8509 100.566C44.5676 99.8186 38.6665 97.8593 33.0724 94.8799C30.8717 93.709 28.5496 92.7409 26.21 91.8656C20.9285 89.8832 16.7588 86.4517 13.2031 82.1854C12.2997 81.1014 11.5122 79.9305 10.6493 78.806C7.97961 75.328 6.17274 71.369 5.24617 67.1665C3.76365 60.4482 3.36406 53.5909 5.38515 46.8959C6.89662 41.8818 8.68035 36.9316 10.6725 32.0856C12.0971 28.6135 14.3266 25.5703 17.0021 22.8633C19.915 19.9128 22.4515 16.6088 25.7929 14.0641C30.2115 10.7021 35.2267 8.60372 40.346 6.59811C44.5909 4.93449 49.0036 4.65048 53.4453 4.22153C59.4391 3.64187 65.3519 4.27949 71.2299 5.21274C73.361 5.54894 75.3762 6.57493 77.4783 7.16618C79.5284 7.74584 81.5496 8.29072 82.9394 10.105C83.1421 10.3717 83.6227 10.4818 83.9933 10.5514C86.7035 11.0789 88.2788 13.0961 90.1551 14.8872C93.3518 17.942 95.3728 21.7214 97.3244 25.5239C98.5231 27.8599 99.1254 30.4974 99.9652 33.0131C100.284 33.9753 100.359 35.0477 100.799 35.9404C103.556 41.5514 104.187 47.5973 104.615 52.7098Z" fill="white" stroke="white" stroke-width="8" stroke-miterlimit="10"/>
<g id="Group_2">
<g id="Clip path group">
<mask id="mask0_68_560" style="mask-type:luminance" maskUnits="userSpaceOnUse" x="6" y="6" width="96" height="92">
<g id="SVGID_18_">
<path id="Vector_2" d="M101.76 52.6865C101.58 58.7729 100.52 63.7057 98.2909 68.3836C97.6307 69.7689 97.208 71.276 96.6926 72.731C96.0324 74.5801 94.9494 76.0988 93.4843 77.4204C92.5056 78.3015 91.8049 79.4782 90.8841 80.4288C86.6161 84.84 82.1859 89.0773 76.8465 92.1959C72.5437 94.7116 67.9862 96.5549 62.9537 97.0244C60.2319 97.2795 57.5274 97.6968 54.8056 97.9287C53.5663 98.033 52.2923 97.9635 51.053 97.8186C45.1229 97.1114 39.5635 95.2623 34.2821 92.4567C32.2089 91.3554 30.0141 90.4395 27.8077 89.6106C22.8273 87.7441 18.8951 84.5038 15.5421 80.4752C14.6908 79.455 13.9438 78.3479 13.133 77.2929C10.6139 74.012 8.91129 70.2791 8.03683 66.3142C6.63539 59.9785 6.26475 53.5096 8.17002 47.1971C9.60041 42.4671 11.2799 37.8009 13.1562 33.2274C14.4997 29.9523 16.6018 27.083 19.1267 24.5267C21.8775 21.7444 24.2692 18.6258 27.4196 16.226C31.5891 13.0553 36.3204 11.0729 41.1444 9.18321C45.1518 7.61234 49.3099 7.34569 53.4968 6.94573C59.1489 6.40085 64.7257 7.00369 70.2736 7.88477C72.2831 8.20358 74.1827 9.16582 76.1632 9.72809C78.0974 10.273 80.0026 10.7888 81.3114 12.5046C81.5025 12.7539 81.9542 12.8582 82.3075 12.9278C84.8671 13.4263 86.3497 15.3276 88.1159 17.0144C91.1331 19.8953 93.0325 23.4601 94.8741 27.0482C96.0034 29.2509 96.5767 31.7434 97.3643 34.1142C97.6654 35.0243 97.735 36.0329 98.1519 36.8792C100.758 42.1657 101.354 47.8695 101.76 52.6865Z" fill="white"/>
</g>
</mask>
<g mask="url(#mask0_68_560)">
<path id="Vector_3" d="M149.485 49.4692C150.4 50.9937 149.914 52.4139 149.091 53.7645C147.887 55.7411 146.52 57.6076 145.194 59.5089C142.733 63.0332 141.586 67.2357 139.605 71.0209C138.789 72.5859 138.14 74.2321 137.671 75.9827C137.162 77.8724 135.511 78.6086 133.6 78.8868C132.245 79.0839 130.78 78.3941 129.529 79.3911C128.597 79.6288 127.664 79.6346 126.732 79.3911C119.377 75.7161 111.345 74.5278 103.423 72.8062C97.232 71.4614 90.9777 70.4934 84.7696 69.3051C77.1428 67.8501 69.4291 66.8937 61.7617 65.6242C55.739 64.6272 49.7626 63.3404 43.7283 62.4593C38.2731 61.6594 32.8352 60.7435 27.38 59.9436C23.2104 59.3292 19.0351 58.6741 14.8655 58.0423C11.4488 57.5264 7.99727 57.167 4.56895 56.6859C0.781586 56.1526 -3.04048 55.8976 -6.81627 55.2252C-10.7774 54.518 -14.7965 54.1412 -18.7749 53.521C-21.9253 53.0283 -25.1683 52.7732 -28.2144 52.1066C-32.8936 51.0749 -33.7738 49.3938 -31.8743 43.7886C-30.6929 40.299 -29.0888 36.908 -26.9693 33.8127C-24.676 30.468 -22.2437 27.2394 -19.5682 24.1962C-19.0239 23.744 -18.4274 23.9005 -17.8541 24.0976C-11.2812 26.3873 -4.41298 27.2568 2.43787 27.9697C20.0891 29.7957 37.6939 31.952 55.2409 34.5836C75.4402 37.6152 95.6628 40.4845 115.833 43.7364C123.385 44.9537 130.716 47.1216 138.152 48.8316C139.918 49.2373 141.708 49.504 143.497 49.7243C144.898 49.8982 146.3 49.846 147.661 49.3359C148.257 49.1214 148.929 48.7388 149.485 49.4692Z" fill="#CF4931"/>
</g>
</g>
<g id="Clip path group_2">
<mask id="mask1_68_560" style="mask-type:luminance" maskUnits="userSpaceOnUse" x="6" y="6" width="96" height="92">
<g id="SVGID_18__2">
<path id="Vector_4" d="M101.76 52.6865C101.58 58.7729 100.52 63.7057 98.2909 68.3836C97.6307 69.7689 97.208 71.276 96.6926 72.731C96.0324 74.5801 94.9494 76.0988 93.4843 77.4204C92.5056 78.3015 91.8049 79.4782 90.8841 80.4288C86.6161 84.84 82.1859 89.0773 76.8465 92.1959C72.5437 94.7116 67.9862 96.5549 62.9537 97.0244C60.2319 97.2795 57.5274 97.6968 54.8056 97.9287C53.5663 98.033 52.2923 97.9635 51.053 97.8186C45.1229 97.1114 39.5635 95.2623 34.2821 92.4567C32.2089 91.3554 30.0141 90.4395 27.8077 89.6106C22.8273 87.7441 18.8951 84.5038 15.5421 80.4752C14.6908 79.455 13.9438 78.3479 13.133 77.2929C10.6139 74.012 8.91129 70.2791 8.03683 66.3142C6.63539 59.9785 6.26475 53.5096 8.17002 47.1971C9.60041 42.4671 11.2799 37.8009 13.1562 33.2274C14.4997 29.9523 16.6018 27.083 19.1267 24.5267C21.8775 21.7444 24.2692 18.6258 27.4196 16.226C31.5891 13.0553 36.3204 11.0729 41.1444 9.18321C45.1518 7.61234 49.3099 7.34569 53.4968 6.94573C59.1489 6.40085 64.7257 7.00369 70.2736 7.88477C72.2831 8.20358 74.1827 9.16582 76.1632 9.72809C78.0974 10.273 80.0026 10.7888 81.3114 12.5046C81.5025 12.7539 81.9542 12.8582 82.3075 12.9278C84.8671 13.4263 86.3497 15.3276 88.1159 17.0144C91.1331 19.8953 93.0325 23.4601 94.8741 27.0482C96.0034 29.2509 96.5767 31.7434 97.3643 34.1142C97.6654 35.0243 97.735 36.0329 98.1519 36.8792C100.758 42.1657 101.354 47.8695 101.76 52.6865Z" fill="white"/>
</g>
</mask>
<g mask="url(#mask1_68_560)">
<path id="Vector_5" d="M-20.3045 21.4484C-21.6364 21.2629 -22.0708 20.4108 -21.984 19.1703C-21.9029 18.0168 -21.1963 17.1067 -20.1771 17.0835C-17.1657 17.014 -14.1487 17.1995 -11.1315 17.2864C-11.1199 17.4661 -11.1951 17.5241 -11.3457 17.4661C-11.0388 17.7965 -10.7376 17.5646 -10.4307 17.4603C-6.1163 18.6718 -1.63412 18.7761 2.7671 19.3964C7.56791 20.0746 12.3746 20.6716 17.187 21.286C21.8662 21.8831 26.5454 22.4569 31.2304 23.025C36.2396 23.6278 41.2605 24.1496 46.2524 24.9263C50.7173 25.6161 55.2112 26.0682 59.6935 26.6537C65.5541 27.4188 71.4031 28.2361 77.2637 28.9897C82.9331 29.7142 88.6141 30.3229 94.272 31.0996C101.771 32.1314 109.283 33.1516 116.747 34.4153C125.26 35.8528 133.732 37.557 142.228 39.1221C145.037 39.638 147.712 40.3394 149.258 43.0811C149.386 45.1911 148.123 46.2693 146.351 46.8953C144.406 47.5851 142.396 47.3996 140.392 47.1619C135.458 46.5765 130.675 45.2665 125.851 44.1593C114.095 41.4639 102.154 39.8698 90.2356 38.1657C74.009 35.847 57.8056 33.3487 41.5674 31.088C29.5103 29.4128 17.4128 28.068 5.30947 26.7812C-2.07996 25.9986 -9.42883 24.9437 -16.6909 23.3322C-18.0402 23.0308 -19.5401 22.9091 -20.3045 21.4484Z" fill="#E6E8E9"/>
</g>
</g>
<g id="Clip path group_3">
<mask id="mask2_68_560" style="mask-type:luminance" maskUnits="userSpaceOnUse" x="6" y="6" width="96" height="92">
<g id="SVGID_18__3">
<path id="Vector_6" d="M101.76 52.6865C101.58 58.7729 100.52 63.7057 98.2909 68.3836C97.6307 69.7689 97.208 71.276 96.6926 72.731C96.0324 74.5801 94.9494 76.0988 93.4843 77.4204C92.5056 78.3015 91.8049 79.4782 90.8841 80.4288C86.6161 84.84 82.1859 89.0773 76.8465 92.1959C72.5437 94.7116 67.9862 96.5549 62.9537 97.0244C60.2319 97.2795 57.5274 97.6968 54.8056 97.9287C53.5663 98.033 52.2923 97.9635 51.053 97.8186C45.1229 97.1114 39.5635 95.2623 34.2821 92.4567C32.2089 91.3554 30.0141 90.4395 27.8077 89.6106C22.8273 87.7441 18.8951 84.5038 15.5421 80.4752C14.6908 79.455 13.9438 78.3479 13.133 77.2929C10.6139 74.012 8.91129 70.2791 8.03683 66.3142C6.63539 59.9785 6.26475 53.5096 8.17002 47.1971C9.60041 42.4671 11.2799 37.8009 13.1562 33.2274C14.4997 29.9523 16.6018 27.083 19.1267 24.5267C21.8775 21.7444 24.2692 18.6258 27.4196 16.226C31.5891 13.0553 36.3204 11.0729 41.1444 9.18321C45.1518 7.61234 49.3099 7.34569 53.4968 6.94573C59.1489 6.40085 64.7257 7.00369 70.2736 7.88477C72.2831 8.20358 74.1827 9.16582 76.1632 9.72809C78.0974 10.273 80.0026 10.7888 81.3114 12.5046C81.5025 12.7539 81.9542 12.8582 82.3075 12.9278C84.8671 13.4263 86.3497 15.3276 88.1159 17.0144C91.1331 19.8953 93.0325 23.4601 94.8741 27.0482C96.0034 29.2509 96.5767 31.7434 97.3643 34.1142C97.6654 35.0243 97.735 36.0329 98.1519 36.8792C100.758 42.1657 101.354 47.8695 101.76 52.6865Z" fill="white"/>
</g>
</mask>
<g mask="url(#mask2_68_560)">
<path id="Vector_7" d="M-20.3045 21.4487C-16.633 23.2167 -12.6139 23.5471 -8.6876 24.2253C2.47762 26.1555 13.7818 26.9265 25.0107 28.3293C37.1604 29.8422 49.2926 31.5348 61.4018 33.4013C73.8989 35.3257 86.4541 36.885 98.9628 38.7747C110.551 40.5194 122.121 42.4091 133.495 45.3016C136.588 46.0899 139.744 46.6406 142.958 46.7855C145.905 46.9188 148.187 46.0841 149.247 43.0815C151.581 45.1277 150.787 47.2956 149.478 49.4751C143.942 51.5851 138.626 49.678 133.408 48.2753C123.436 45.5914 113.307 43.864 103.121 42.3396C88.2435 40.1137 73.3778 37.8008 58.4832 35.6851C46.0381 33.9229 33.622 31.9521 21.1191 30.6015C10.0292 29.4016 -1.11292 28.5437 -12.0812 26.3294C-14.6409 25.8135 -17.0384 24.7875 -19.5691 24.1963C-19.9802 23.3268 -20.5883 22.5095 -20.3045 21.4487Z" fill="#A6AEB8"/>
</g>
</g>
<g id="Clip path group_4">
<mask id="mask3_68_560" style="mask-type:luminance" maskUnits="userSpaceOnUse" x="6" y="6" width="96" height="92">
<g id="SVGID_18__4">
<path id="Vector_8" d="M101.76 52.6865C101.58 58.7729 100.52 63.7057 98.2909 68.3836C97.6307 69.7689 97.208 71.276 96.6926 72.731C96.0324 74.5801 94.9494 76.0988 93.4843 77.4204C92.5056 78.3015 91.8049 79.4782 90.8841 80.4288C86.6161 84.84 82.1859 89.0773 76.8465 92.1959C72.5437 94.7116 67.9862 96.5549 62.9537 97.0244C60.2319 97.2795 57.5274 97.6968 54.8056 97.9287C53.5663 98.033 52.2923 97.9635 51.053 97.8186C45.1229 97.1114 39.5635 95.2623 34.2821 92.4567C32.2089 91.3554 30.0141 90.4395 27.8077 89.6106C22.8273 87.7441 18.8951 84.5038 15.5421 80.4752C14.6908 79.455 13.9438 78.3479 13.133 77.2929C10.6139 74.012 8.91129 70.2791 8.03683 66.3142C6.63539 59.9785 6.26475 53.5096 8.17002 47.1971C9.60041 42.4671 11.2799 37.8009 13.1562 33.2274C14.4997 29.9523 16.6018 27.083 19.1267 24.5267C21.8775 21.7444 24.2692 18.6258 27.4196 16.226C31.5891 13.0553 36.3204 11.0729 41.1444 9.18321C45.1518 7.61234 49.3099 7.34569 53.4968 6.94573C59.1489 6.40085 64.7257 7.00369 70.2736 7.88477C72.2831 8.20358 74.1827 9.16582 76.1632 9.72809C78.0974 10.273 80.0026 10.7888 81.3114 12.5046C81.5025 12.7539 81.9542 12.8582 82.3075 12.9278C84.8671 13.4263 86.3497 15.3276 88.1159 17.0144C91.1331 19.8953 93.0325 23.4601 94.8741 27.0482C96.0034 29.2509 96.5767 31.7434 97.3643 34.1142C97.6654 35.0243 97.735 36.0329 98.1519 36.8792C100.758 42.1657 101.354 47.8695 101.76 52.6865Z" fill="white"/>
</g>
</mask>
<g mask="url(#mask3_68_560)">
<path id="Vector_9" d="M25.0111 63.9665C27.1885 64.5984 29.3891 64.9404 31.6766 64.8998C33.6803 64.865 34.1436 65.6128 33.4892 67.543C33.1707 68.4821 32.6321 69.3457 32.3483 70.2906C31.6187 72.7425 29.945 73.7743 27.5475 73.2526C25.3006 72.7599 22.9957 72.8469 20.7488 72.1687C19.2721 71.7224 19.1794 70.7833 19.5616 69.995C20.5634 67.9198 21.8664 65.9837 23.0478 63.9897C23.7022 63.7984 24.3567 63.8216 25.0111 63.9665Z" fill="#EFC346"/>
</g>
</g>
<g id="Clip path group_5">
<mask id="mask4_68_560" style="mask-type:luminance" maskUnits="userSpaceOnUse" x="6" y="6" width="96" height="92">
<g id="SVGID_18__5">
<path id="Vector_10" d="M101.76 52.6865C101.58 58.7729 100.52 63.7057 98.2909 68.3836C97.6307 69.7689 97.208 71.276 96.6926 72.731C96.0324 74.5801 94.9494 76.0988 93.4843 77.4204C92.5056 78.3015 91.8049 79.4782 90.8841 80.4288C86.6161 84.84 82.1859 89.0773 76.8465 92.1959C72.5437 94.7116 67.9862 96.5549 62.9537 97.0244C60.2319 97.2795 57.5274 97.6968 54.8056 97.9287C53.5663 98.033 52.2923 97.9635 51.053 97.8186C45.1229 97.1114 39.5635 95.2623 34.2821 92.4567C32.2089 91.3554 30.0141 90.4395 27.8077 89.6106C22.8273 87.7441 18.8951 84.5038 15.5421 80.4752C14.6908 79.455 13.9438 78.3479 13.133 77.2929C10.6139 74.012 8.91129 70.2791 8.03683 66.3142C6.63539 59.9785 6.26475 53.5096 8.17002 47.1971C9.60041 42.4671 11.2799 37.8009 13.1562 33.2274C14.4997 29.9523 16.6018 27.083 19.1267 24.5267C21.8775 21.7444 24.2692 18.6258 27.4196 16.226C31.5891 13.0553 36.3204 11.0729 41.1444 9.18321C45.1518 7.61234 49.3099 7.34569 53.4968 6.94573C59.1489 6.40085 64.7257 7.00369 70.2736 7.88477C72.2831 8.20358 74.1827 9.16582 76.1632 9.72809C78.0974 10.273 80.0026 10.7888 81.3114 12.5046C81.5025 12.7539 81.9542 12.8582 82.3075 12.9278C84.8671 13.4263 86.3497 15.3276 88.1159 17.0144C91.1331 19.8953 93.0325 23.4601 94.8741 27.0482C96.0034 29.2509 96.5767 31.7434 97.3643 34.1142C97.6654 35.0243 97.735 36.0329 98.1519 36.8792C100.758 42.1657 101.354 47.8695 101.76 52.6865Z" fill="white"/>
</g>
</mask>
<g mask="url(#mask4_68_560)">
<path id="Vector_11" d="M67.2566 81.0258C66.0637 80.7012 64.8244 80.9505 63.5966 80.4114C62.4558 79.9129 62.2474 79.3158 62.5196 78.3304C63.1103 76.1335 64.8823 74.5627 65.6641 72.4411C65.9131 71.7629 66.9149 72.018 67.4998 72.1455C70.0942 72.7136 72.7176 73.0266 75.3526 73.2816C76.6556 73.4091 76.8235 74.041 76.5514 75.1713C76.1055 76.9972 75.2947 78.6666 74.3623 80.2549C73.4937 81.7272 71.8953 81.2229 70.5459 81.3273C69.4804 80.8867 68.328 81.391 67.2566 81.0258Z" fill="#EFC346"/>
</g>
</g>
<g id="Clip path group_6">
<mask id="mask5_68_560" style="mask-type:luminance" maskUnits="userSpaceOnUse" x="6" y="6" width="96" height="92">
<g id="SVGID_18__6">
<path id="Vector_12" d="M101.76 52.6865C101.58 58.7729 100.52 63.7057 98.2909 68.3836C97.6307 69.7689 97.208 71.276 96.6926 72.731C96.0324 74.5801 94.9494 76.0988 93.4843 77.4204C92.5056 78.3015 91.8049 79.4782 90.8841 80.4288C86.6161 84.84 82.1859 89.0773 76.8465 92.1959C72.5437 94.7116 67.9862 96.5549 62.9537 97.0244C60.2319 97.2795 57.5274 97.6968 54.8056 97.9287C53.5663 98.033 52.2923 97.9635 51.053 97.8186C45.1229 97.1114 39.5635 95.2623 34.2821 92.4567C32.2089 91.3554 30.0141 90.4395 27.8077 89.6106C22.8273 87.7441 18.8951 84.5038 15.5421 80.4752C14.6908 79.455 13.9438 78.3479 13.133 77.2929C10.6139 74.012 8.91129 70.2791 8.03683 66.3142C6.63539 59.9785 6.26475 53.5096 8.17002 47.1971C9.60041 42.4671 11.2799 37.8009 13.1562 33.2274C14.4997 29.9523 16.6018 27.083 19.1267 24.5267C21.8775 21.7444 24.2692 18.6258 27.4196 16.226C31.5891 13.0553 36.3204 11.0729 41.1444 9.18321C45.1518 7.61234 49.3099 7.34569 53.4968 6.94573C59.1489 6.40085 64.7257 7.00369 70.2736 7.88477C72.2831 8.20358 74.1827 9.16582 76.1632 9.72809C78.0974 10.273 80.0026 10.7888 81.3114 12.5046C81.5025 12.7539 81.9542 12.8582 82.3075 12.9278C84.8671 13.4263 86.3497 15.3276 88.1159 17.0144C91.1331 19.8953 93.0325 23.4601 94.8741 27.0482C96.0034 29.2509 96.5767 31.7434 97.3643 34.1142C97.6654 35.0243 97.735 36.0329 98.1519 36.8792C100.758 42.1657 101.354 47.8695 101.76 52.6865Z" fill="white"/>
</g>
</mask>
<g mask="url(#mask5_68_560)">
<path id="Vector_13" d="M61.2629 73.7048C60.9965 74.3077 60.7012 74.8989 60.4753 75.5192C59.1608 79.1652 59.0218 79.3333 55.4371 78.429C53.2713 77.8842 51.1806 77.1596 48.8816 77.2465C47.4859 77.2987 46.8779 76.4814 47.3528 74.9859C47.7929 73.5831 48.4299 72.2789 49.2349 71.0848C50.3005 69.5023 52.0493 70.4066 53.4855 70.1341C54.1399 70.5109 54.8985 70.1341 55.5645 70.424C57.4756 70.8123 59.5313 70.5689 61.2629 71.7282C61.4829 72.3832 61.4829 73.044 61.2629 73.7048Z" fill="#EFC346"/>
</g>
</g>
<g id="Clip path group_7">
<mask id="mask6_68_560" style="mask-type:luminance" maskUnits="userSpaceOnUse" x="6" y="6" width="96" height="92">
<g id="SVGID_18__7">
<path id="Vector_14" d="M101.76 52.6865C101.58 58.7729 100.52 63.7057 98.2909 68.3836C97.6307 69.7689 97.208 71.276 96.6926 72.731C96.0324 74.5801 94.9494 76.0988 93.4843 77.4204C92.5056 78.3015 91.8049 79.4782 90.8841 80.4288C86.6161 84.84 82.1859 89.0773 76.8465 92.1959C72.5437 94.7116 67.9862 96.5549 62.9537 97.0244C60.2319 97.2795 57.5274 97.6968 54.8056 97.9287C53.5663 98.033 52.2923 97.9635 51.053 97.8186C45.1229 97.1114 39.5635 95.2623 34.2821 92.4567C32.2089 91.3554 30.0141 90.4395 27.8077 89.6106C22.8273 87.7441 18.8951 84.5038 15.5421 80.4752C14.6908 79.455 13.9438 78.3479 13.133 77.2929C10.6139 74.012 8.91129 70.2791 8.03683 66.3142C6.63539 59.9785 6.26475 53.5096 8.17002 47.1971C9.60041 42.4671 11.2799 37.8009 13.1562 33.2274C14.4997 29.9523 16.6018 27.083 19.1267 24.5267C21.8775 21.7444 24.2692 18.6258 27.4196 16.226C31.5891 13.0553 36.3204 11.0729 41.1444 9.18321C45.1518 7.61234 49.3099 7.34569 53.4968 6.94573C59.1489 6.40085 64.7257 7.00369 70.2736 7.88477C72.2831 8.20358 74.1827 9.16582 76.1632 9.72809C78.0974 10.273 80.0026 10.7888 81.3114 12.5046C81.5025 12.7539 81.9542 12.8582 82.3075 12.9278C84.8671 13.4263 86.3497 15.3276 88.1159 17.0144C91.1331 19.8953 93.0325 23.4601 94.8741 27.0482C96.0034 29.2509 96.5767 31.7434 97.3643 34.1142C97.6654 35.0243 97.735 36.0329 98.1519 36.8792C100.758 42.1657 101.354 47.8695 101.76 52.6865Z" fill="white"/>
</g>
</mask>
<g mask="url(#mask6_68_560)">
<path id="Vector_15" d="M92.1933 84.6948C90.2939 84.7644 89.6974 83.8601 90.485 82.0922C90.6471 81.7328 90.8382 81.385 91.0061 81.0256C92.5466 77.7969 92.7956 77.5129 96.4324 77.8665C99.079 78.1215 101.87 77.8259 104.285 79.3736C104.465 80.0344 104.499 80.6894 104.262 81.3444C103.978 82.011 103.671 82.6602 103.422 83.3384C102.252 86.5903 101.859 86.9613 98.6098 86.0686C97.1736 85.6745 95.6911 85.4252 94.2722 84.9383C93.6121 84.6021 92.8767 84.9035 92.1933 84.6948Z" fill="#EFC346"/>
</g>
</g>
<g id="Clip path group_8">
<mask id="mask7_68_560" style="mask-type:luminance" maskUnits="userSpaceOnUse" x="6" y="6" width="96" height="92">
<g id="SVGID_18__8">
<path id="Vector_16" d="M101.76 52.6865C101.58 58.7729 100.52 63.7057 98.2909 68.3836C97.6307 69.7689 97.208 71.276 96.6926 72.731C96.0324 74.5801 94.9494 76.0988 93.4843 77.4204C92.5056 78.3015 91.8049 79.4782 90.8841 80.4288C86.6161 84.84 82.1859 89.0773 76.8465 92.1959C72.5437 94.7116 67.9862 96.5549 62.9537 97.0244C60.2319 97.2795 57.5274 97.6968 54.8056 97.9287C53.5663 98.033 52.2923 97.9635 51.053 97.8186C45.1229 97.1114 39.5635 95.2623 34.2821 92.4567C32.2089 91.3554 30.0141 90.4395 27.8077 89.6106C22.8273 87.7441 18.8951 84.5038 15.5421 80.4752C14.6908 79.455 13.9438 78.3479 13.133 77.2929C10.6139 74.012 8.91129 70.2791 8.03683 66.3142C6.63539 59.9785 6.26475 53.5096 8.17002 47.1971C9.60041 42.4671 11.2799 37.8009 13.1562 33.2274C14.4997 29.9523 16.6018 27.083 19.1267 24.5267C21.8775 21.7444 24.2692 18.6258 27.4196 16.226C31.5891 13.0553 36.3204 11.0729 41.1444 9.18321C45.1518 7.61234 49.3099 7.34569 53.4968 6.94573C59.1489 6.40085 64.7257 7.00369 70.2736 7.88477C72.2831 8.20358 74.1827 9.16582 76.1632 9.72809C78.0974 10.273 80.0026 10.7888 81.3114 12.5046C81.5025 12.7539 81.9542 12.8582 82.3075 12.9278C84.8671 13.4263 86.3497 15.3276 88.1159 17.0144C91.1331 19.8953 93.0325 23.4601 94.8741 27.0482C96.0034 29.2509 96.5767 31.7434 97.3643 34.1142C97.6654 35.0243 97.735 36.0329 98.1519 36.8792C100.758 42.1657 101.354 47.8695 101.76 52.6865Z" fill="white"/>
</g>
</mask>
<g mask="url(#mask7_68_560)">
<path id="Vector_17" d="M12.1546 62.3663C14.251 62.6619 16.3415 63.0155 18.4436 63.23C20.2215 63.4155 20.5516 64.4415 20.0536 65.8674C17.9804 71.8263 18.409 71.4379 12.45 69.9134C12.004 69.7975 11.5465 69.7337 11.0948 69.641C10.1508 69.2584 9.13739 69.6584 8.18186 69.3801C5.83647 69.0845 5.67431 68.9802 6.57192 66.6384C7.20894 64.9632 7.41165 62.801 9.78021 62.3721C10.5736 62.1924 11.3612 62.1982 12.1546 62.3663Z" fill="#EFC346"/>
</g>
</g>
<g id="Clip path group_9">
<mask id="mask8_68_560" style="mask-type:luminance" maskUnits="userSpaceOnUse" x="6" y="6" width="96" height="92">
<g id="SVGID_18__9">
<path id="Vector_18" d="M101.76 52.6865C101.58 58.7729 100.52 63.7057 98.2909 68.3836C97.6307 69.7689 97.208 71.276 96.6926 72.731C96.0324 74.5801 94.9494 76.0988 93.4843 77.4204C92.5056 78.3015 91.8049 79.4782 90.8841 80.4288C86.6161 84.84 82.1859 89.0773 76.8465 92.1959C72.5437 94.7116 67.9862 96.5549 62.9537 97.0244C60.2319 97.2795 57.5274 97.6968 54.8056 97.9287C53.5663 98.033 52.2923 97.9635 51.053 97.8186C45.1229 97.1114 39.5635 95.2623 34.2821 92.4567C32.2089 91.3554 30.0141 90.4395 27.8077 89.6106C22.8273 87.7441 18.8951 84.5038 15.5421 80.4752C14.6908 79.455 13.9438 78.3479 13.133 77.2929C10.6139 74.012 8.91129 70.2791 8.03683 66.3142C6.63539 59.9785 6.26475 53.5096 8.17002 47.1971C9.60041 42.4671 11.2799 37.8009 13.1562 33.2274C14.4997 29.9523 16.6018 27.083 19.1267 24.5267C21.8775 21.7444 24.2692 18.6258 27.4196 16.226C31.5891 13.0553 36.3204 11.0729 41.1444 9.18321C45.1518 7.61234 49.3099 7.34569 53.4968 6.94573C59.1489 6.40085 64.7257 7.00369 70.2736 7.88477C72.2831 8.20358 74.1827 9.16582 76.1632 9.72809C78.0974 10.273 80.0026 10.7888 81.3114 12.5046C81.5025 12.7539 81.9542 12.8582 82.3075 12.9278C84.8671 13.4263 86.3497 15.3276 88.1159 17.0144C91.1331 19.8953 93.0325 23.4601 94.8741 27.0482C96.0034 29.2509 96.5767 31.7434 97.3643 34.1142C97.6654 35.0243 97.735 36.0329 98.1519 36.8792C100.758 42.1657 101.354 47.8695 101.76 52.6865Z" fill="white"/>
</g>
</mask>
<g mask="url(#mask8_68_560)">
<path id="Vector_19" d="M81.7224 75.3568C83.5292 75.6988 85.8109 76.0814 88.0694 76.5741C89.1118 76.8002 89.6446 77.3508 89.0828 78.5971C88.4864 79.9129 88.081 81.3273 87.6872 82.7243C87.2992 84.0865 86.3958 84.3473 85.226 83.9879C82.5969 83.188 80.0314 82.1446 77.2285 82.1214C76.5046 82.1156 76.192 81.7272 76.1341 80.9911C75.9545 78.9159 79.2149 75.2873 81.7224 75.3568Z" fill="#EFC346"/>
</g>
</g>
<g id="Clip path group_10">
<mask id="mask9_68_560" style="mask-type:luminance" maskUnits="userSpaceOnUse" x="6" y="6" width="96" height="92">
<g id="SVGID_18__10">
<path id="Vector_20" d="M101.76 52.6865C101.58 58.7729 100.52 63.7057 98.2909 68.3836C97.6307 69.7689 97.208 71.276 96.6926 72.731C96.0324 74.5801 94.9494 76.0988 93.4843 77.4204C92.5056 78.3015 91.8049 79.4782 90.8841 80.4288C86.6161 84.84 82.1859 89.0773 76.8465 92.1959C72.5437 94.7116 67.9862 96.5549 62.9537 97.0244C60.2319 97.2795 57.5274 97.6968 54.8056 97.9287C53.5663 98.033 52.2923 97.9635 51.053 97.8186C45.1229 97.1114 39.5635 95.2623 34.2821 92.4567C32.2089 91.3554 30.0141 90.4395 27.8077 89.6106C22.8273 87.7441 18.8951 84.5038 15.5421 80.4752C14.6908 79.455 13.9438 78.3479 13.133 77.2929C10.6139 74.012 8.91129 70.2791 8.03683 66.3142C6.63539 59.9785 6.26475 53.5096 8.17002 47.1971C9.60041 42.4671 11.2799 37.8009 13.1562 33.2274C14.4997 29.9523 16.6018 27.083 19.1267 24.5267C21.8775 21.7444 24.2692 18.6258 27.4196 16.226C31.5891 13.0553 36.3204 11.0729 41.1444 9.18321C45.1518 7.61234 49.3099 7.34569 53.4968 6.94573C59.1489 6.40085 64.7257 7.00369 70.2736 7.88477C72.2831 8.20358 74.1827 9.16582 76.1632 9.72809C78.0974 10.273 80.0026 10.7888 81.3114 12.5046C81.5025 12.7539 81.9542 12.8582 82.3075 12.9278C84.8671 13.4263 86.3497 15.3276 88.1159 17.0144C91.1331 19.8953 93.0325 23.4601 94.8741 27.0482C96.0034 29.2509 96.5767 31.7434 97.3643 34.1142C97.6654 35.0243 97.735 36.0329 98.1519 36.8792C100.758 42.1657 101.354 47.8695 101.76 52.6865Z" fill="white"/>
</g>
</mask>
<g mask="url(#mask9_68_560)">
<path id="Vector_21" d="M38.458 67.172C40.6123 67.543 42.7781 67.8618 44.9208 68.2965C46.218 68.5574 46.6467 69.2762 46.0444 70.6384C45.4595 71.9542 45.1872 73.4091 44.6718 74.7597C44.2838 75.7799 43.699 76.2668 42.3902 75.7683C39.8884 74.8177 37.2824 74.1801 34.578 73.9888C33.2113 73.8902 32.7365 72.9744 33.2866 71.7513C33.8773 70.4413 34.8154 69.3167 35.5219 68.0473C36.0605 67.0619 37.3751 67.2474 38.458 67.172Z" fill="#EFC346"/>
</g>
</g>
<g id="Clip path group_11">
<mask id="mask10_68_560" style="mask-type:luminance" maskUnits="userSpaceOnUse" x="6" y="6" width="96" height="92">
<g id="SVGID_18__11">
<path id="Vector_22" d="M101.76 52.6865C101.58 58.7729 100.52 63.7057 98.2909 68.3836C97.6307 69.7689 97.208 71.276 96.6926 72.731C96.0324 74.5801 94.9494 76.0988 93.4843 77.4204C92.5056 78.3015 91.8049 79.4782 90.8841 80.4288C86.6161 84.84 82.1859 89.0773 76.8465 92.1959C72.5437 94.7116 67.9862 96.5549 62.9537 97.0244C60.2319 97.2795 57.5274 97.6968 54.8056 97.9287C53.5663 98.033 52.2923 97.9635 51.053 97.8186C45.1229 97.1114 39.5635 95.2623 34.2821 92.4567C32.2089 91.3554 30.0141 90.4395 27.8077 89.6106C22.8273 87.7441 18.8951 84.5038 15.5421 80.4752C14.6908 79.455 13.9438 78.3479 13.133 77.2929C10.6139 74.012 8.91129 70.2791 8.03683 66.3142C6.63539 59.9785 6.26475 53.5096 8.17002 47.1971C9.60041 42.4671 11.2799 37.8009 13.1562 33.2274C14.4997 29.9523 16.6018 27.083 19.1267 24.5267C21.8775 21.7444 24.2692 18.6258 27.4196 16.226C31.5891 13.0553 36.3204 11.0729 41.1444 9.18321C45.1518 7.61234 49.3099 7.34569 53.4968 6.94573C59.1489 6.40085 64.7257 7.00369 70.2736 7.88477C72.2831 8.20358 74.1827 9.16582 76.1632 9.72809C78.0974 10.273 80.0026 10.7888 81.3114 12.5046C81.5025 12.7539 81.9542 12.8582 82.3075 12.9278C84.8671 13.4263 86.3497 15.3276 88.1159 17.0144C91.1331 19.8953 93.0325 23.4601 94.8741 27.0482C96.0034 29.2509 96.5767 31.7434 97.3643 34.1142C97.6654 35.0243 97.735 36.0329 98.1519 36.8792C100.758 42.1657 101.354 47.8695 101.76 52.6865Z" fill="white"/>
</g>
</mask>
<g mask="url(#mask10_68_560)">
<path id="Vector_23" d="M66.5395 50.3156C70.1184 50.8373 74.1837 51.1735 78.0927 52.4024C78.6949 52.5936 79.6389 52.7965 79.552 53.5385C79.4478 54.3906 78.446 54.4427 77.7511 54.4196C73.263 54.2978 68.8212 53.8167 64.5706 52.2748C63.9683 52.0546 62.868 51.9502 63.1112 50.9706C63.2849 50.275 64.2114 50.3504 64.8774 50.3156C65.2712 50.2982 65.6766 50.3156 66.5395 50.3156Z" fill="#FEFDFD"/>
</g>
</g>
<g id="Clip path group_12">
<mask id="mask11_68_560" style="mask-type:luminance" maskUnits="userSpaceOnUse" x="6" y="6" width="96" height="92">
<g id="SVGID_18__12">
<path id="Vector_24" d="M101.76 52.6865C101.58 58.7729 100.52 63.7057 98.2909 68.3836C97.6307 69.7689 97.208 71.276 96.6926 72.731C96.0324 74.5801 94.9494 76.0988 93.4843 77.4204C92.5056 78.3015 91.8049 79.4782 90.8841 80.4288C86.6161 84.84 82.1859 89.0773 76.8465 92.1959C72.5437 94.7116 67.9862 96.5549 62.9537 97.0244C60.2319 97.2795 57.5274 97.6968 54.8056 97.9287C53.5663 98.033 52.2923 97.9635 51.053 97.8186C45.1229 97.1114 39.5635 95.2623 34.2821 92.4567C32.2089 91.3554 30.0141 90.4395 27.8077 89.6106C22.8273 87.7441 18.8951 84.5038 15.5421 80.4752C14.6908 79.455 13.9438 78.3479 13.133 77.2929C10.6139 74.012 8.91129 70.2791 8.03683 66.3142C6.63539 59.9785 6.26475 53.5096 8.17002 47.1971C9.60041 42.4671 11.2799 37.8009 13.1562 33.2274C14.4997 29.9523 16.6018 27.083 19.1267 24.5267C21.8775 21.7444 24.2692 18.6258 27.4196 16.226C31.5891 13.0553 36.3204 11.0729 41.1444 9.18321C45.1518 7.61234 49.3099 7.34569 53.4968 6.94573C59.1489 6.40085 64.7257 7.00369 70.2736 7.88477C72.2831 8.20358 74.1827 9.16582 76.1632 9.72809C78.0974 10.273 80.0026 10.7888 81.3114 12.5046C81.5025 12.7539 81.9542 12.8582 82.3075 12.9278C84.8671 13.4263 86.3497 15.3276 88.1159 17.0144C91.1331 19.8953 93.0325 23.4601 94.8741 27.0482C96.0034 29.2509 96.5767 31.7434 97.3643 34.1142C97.6654 35.0243 97.735 36.0329 98.1519 36.8792C100.758 42.1657 101.354 47.8695 101.76 52.6865Z" fill="white"/>
</g>
</mask>
<g mask="url(#mask11_68_560)">
<path id="Vector_25" d="M97.8689 55.5441C101.425 56.0484 105.484 56.4078 109.381 57.6541C109.949 57.8338 110.905 57.9729 110.725 58.825C110.575 59.5322 109.717 59.6307 109.046 59.6249C104.552 59.5843 100.139 58.9989 95.8767 57.5324C95.2628 57.3237 94.1683 57.2077 94.3247 56.2861C94.4695 55.4166 95.4713 55.5905 96.1836 55.5441C96.589 55.5209 96.9886 55.5441 97.8689 55.5441Z" fill="#FEFDFD"/>
</g>
</g>
<g id="Clip path group_13">
<mask id="mask12_68_560" style="mask-type:luminance" maskUnits="userSpaceOnUse" x="6" y="6" width="96" height="92">
<g id="SVGID_18__13">
<path id="Vector_26" d="M101.76 52.6865C101.58 58.7729 100.52 63.7057 98.2909 68.3836C97.6307 69.7689 97.208 71.276 96.6926 72.731C96.0324 74.5801 94.9494 76.0988 93.4843 77.4204C92.5056 78.3015 91.8049 79.4782 90.8841 80.4288C86.6161 84.84 82.1859 89.0773 76.8465 92.1959C72.5437 94.7116 67.9862 96.5549 62.9537 97.0244C60.2319 97.2795 57.5274 97.6968 54.8056 97.9287C53.5663 98.033 52.2923 97.9635 51.053 97.8186C45.1229 97.1114 39.5635 95.2623 34.2821 92.4567C32.2089 91.3554 30.0141 90.4395 27.8077 89.6106C22.8273 87.7441 18.8951 84.5038 15.5421 80.4752C14.6908 79.455 13.9438 78.3479 13.133 77.2929C10.6139 74.012 8.91129 70.2791 8.03683 66.3142C6.63539 59.9785 6.26475 53.5096 8.17002 47.1971C9.60041 42.4671 11.2799 37.8009 13.1562 33.2274C14.4997 29.9523 16.6018 27.083 19.1267 24.5267C21.8775 21.7444 24.2692 18.6258 27.4196 16.226C31.5891 13.0553 36.3204 11.0729 41.1444 9.18321C45.1518 7.61234 49.3099 7.34569 53.4968 6.94573C59.1489 6.40085 64.7257 7.00369 70.2736 7.88477C72.2831 8.20358 74.1827 9.16582 76.1632 9.72809C78.0974 10.273 80.0026 10.7888 81.3114 12.5046C81.5025 12.7539 81.9542 12.8582 82.3075 12.9278C84.8671 13.4263 86.3497 15.3276 88.1159 17.0144C91.1331 19.8953 93.0325 23.4601 94.8741 27.0482C96.0034 29.2509 96.5767 31.7434 97.3643 34.1142C97.6654 35.0243 97.735 36.0329 98.1519 36.8792C100.758 42.1657 101.354 47.8695 101.76 52.6865Z" fill="white"/>
</g>
</mask>
<g mask="url(#mask12_68_560)">
<path id="Vector_27" d="M48.5807 50.3039C44.4343 49.7127 40.1836 49.6141 36.2457 47.9389C35.7824 47.7418 35.0528 47.6259 35.1107 46.9767C35.1802 46.1768 36.0141 46.2289 36.5468 46.1941C39.8536 45.9913 43.0445 46.8376 46.2701 47.3535C47.6542 47.5737 49.0672 47.6955 50.3355 48.3795C50.8335 48.6461 51.6616 48.733 51.4879 49.5214C51.3373 50.2054 50.5439 50.1706 49.9879 50.2865C49.5304 50.3793 49.044 50.3039 48.5807 50.3039Z" fill="#FEFDFC"/>
</g>
</g>
<g id="Clip path group_14">
<mask id="mask13_68_560" style="mask-type:luminance" maskUnits="userSpaceOnUse" x="6" y="6" width="96" height="92">
<g id="SVGID_18__14">
<path id="Vector_28" d="M101.76 52.6865C101.58 58.7729 100.52 63.7057 98.2909 68.3836C97.6307 69.7689 97.208 71.276 96.6926 72.731C96.0324 74.5801 94.9494 76.0988 93.4843 77.4204C92.5056 78.3015 91.8049 79.4782 90.8841 80.4288C86.6161 84.84 82.1859 89.0773 76.8465 92.1959C72.5437 94.7116 67.9862 96.5549 62.9537 97.0244C60.2319 97.2795 57.5274 97.6968 54.8056 97.9287C53.5663 98.033 52.2923 97.9635 51.053 97.8186C45.1229 97.1114 39.5635 95.2623 34.2821 92.4567C32.2089 91.3554 30.0141 90.4395 27.8077 89.6106C22.8273 87.7441 18.8951 84.5038 15.5421 80.4752C14.6908 79.455 13.9438 78.3479 13.133 77.2929C10.6139 74.012 8.91129 70.2791 8.03683 66.3142C6.63539 59.9785 6.26475 53.5096 8.17002 47.1971C9.60041 42.4671 11.2799 37.8009 13.1562 33.2274C14.4997 29.9523 16.6018 27.083 19.1267 24.5267C21.8775 21.7444 24.2692 18.6258 27.4196 16.226C31.5891 13.0553 36.3204 11.0729 41.1444 9.18321C45.1518 7.61234 49.3099 7.34569 53.4968 6.94573C59.1489 6.40085 64.7257 7.00369 70.2736 7.88477C72.2831 8.20358 74.1827 9.16582 76.1632 9.72809C78.0974 10.273 80.0026 10.7888 81.3114 12.5046C81.5025 12.7539 81.9542 12.8582 82.3075 12.9278C84.8671 13.4263 86.3497 15.3276 88.1159 17.0144C91.1331 19.8953 93.0325 23.4601 94.8741 27.0482C96.0034 29.2509 96.5767 31.7434 97.3643 34.1142C97.6654 35.0243 97.735 36.0329 98.1519 36.8792C100.758 42.1657 101.354 47.8695 101.76 52.6865Z" fill="white"/>
</g>
</mask>
<g mask="url(#mask13_68_560)">
<path id="Vector_29" d="M22.799 46.3043C19.2202 45.6319 15.0448 45.6203 11.1821 43.9973C10.6204 43.7596 9.66494 43.7074 9.83867 42.8322C9.98924 42.067 10.91 42.1772 11.5238 42.0438C12.7284 41.7714 13.9155 42.154 15.0795 42.3453C18.1546 42.8438 21.2297 43.4002 24.27 44.0784C24.9939 44.2407 26.3258 44.4088 26.0999 45.4754C25.9262 46.3159 24.7333 46.3159 23.8647 46.3101C23.662 46.3043 23.465 46.3043 22.799 46.3043Z" fill="#FEFCFC"/>
</g>
</g>
<g id="Clip path group_15">
<mask id="mask14_68_560" style="mask-type:luminance" maskUnits="userSpaceOnUse" x="6" y="6" width="96" height="92">
<g id="SVGID_18__15">
<path id="Vector_30" d="M101.76 52.6865C101.58 58.7729 100.52 63.7057 98.2909 68.3836C97.6307 69.7689 97.208 71.276 96.6926 72.731C96.0324 74.5801 94.9494 76.0988 93.4843 77.4204C92.5056 78.3015 91.8049 79.4782 90.8841 80.4288C86.6161 84.84 82.1859 89.0773 76.8465 92.1959C72.5437 94.7116 67.9862 96.5549 62.9537 97.0244C60.2319 97.2795 57.5274 97.6968 54.8056 97.9287C53.5663 98.033 52.2923 97.9635 51.053 97.8186C45.1229 97.1114 39.5635 95.2623 34.2821 92.4567C32.2089 91.3554 30.0141 90.4395 27.8077 89.6106C22.8273 87.7441 18.8951 84.5038 15.5421 80.4752C14.6908 79.455 13.9438 78.3479 13.133 77.2929C10.6139 74.012 8.91129 70.2791 8.03683 66.3142C6.63539 59.9785 6.26475 53.5096 8.17002 47.1971C9.60041 42.4671 11.2799 37.8009 13.1562 33.2274C14.4997 29.9523 16.6018 27.083 19.1267 24.5267C21.8775 21.7444 24.2692 18.6258 27.4196 16.226C31.5891 13.0553 36.3204 11.0729 41.1444 9.18321C45.1518 7.61234 49.3099 7.34569 53.4968 6.94573C59.1489 6.40085 64.7257 7.00369 70.2736 7.88477C72.2831 8.20358 74.1827 9.16582 76.1632 9.72809C78.0974 10.273 80.0026 10.7888 81.3114 12.5046C81.5025 12.7539 81.9542 12.8582 82.3075 12.9278C84.8671 13.4263 86.3497 15.3276 88.1159 17.0144C91.1331 19.8953 93.0325 23.4601 94.8741 27.0482C96.0034 29.2509 96.5767 31.7434 97.3643 34.1142C97.6654 35.0243 97.735 36.0329 98.1519 36.8792C100.758 42.1657 101.354 47.8695 101.76 52.6865Z" fill="white"/>
</g>
</mask>
<g mask="url(#mask14_68_560)">
<path id="Vector_31" d="M30.4944 67.5081C29.7069 68.5747 29.9905 70.4064 28.5428 70.7948C26.4348 71.3628 24.3386 70.5223 22.2769 70.0122C22.1379 69.9775 21.9874 69.734 21.9642 69.5659C21.7847 68.4703 24.1705 65.8561 25.2071 66.1169C26.9329 66.5517 28.7513 66.6676 30.4944 67.5081Z" fill="#FAE939"/>
</g>
</g>
<g id="Clip path group_16">
<mask id="mask15_68_560" style="mask-type:luminance" maskUnits="userSpaceOnUse" x="6" y="6" width="96" height="92">
<g id="SVGID_18__16">
<path id="Vector_32" d="M101.76 52.6865C101.58 58.7729 100.52 63.7057 98.2909 68.3836C97.6307 69.7689 97.208 71.276 96.6926 72.731C96.0324 74.5801 94.9494 76.0988 93.4843 77.4204C92.5056 78.3015 91.8049 79.4782 90.8841 80.4288C86.6161 84.84 82.1859 89.0773 76.8465 92.1959C72.5437 94.7116 67.9862 96.5549 62.9537 97.0244C60.2319 97.2795 57.5274 97.6968 54.8056 97.9287C53.5663 98.033 52.2923 97.9635 51.053 97.8186C45.1229 97.1114 39.5635 95.2623 34.2821 92.4567C32.2089 91.3554 30.0141 90.4395 27.8077 89.6106C22.8273 87.7441 18.8951 84.5038 15.5421 80.4752C14.6908 79.455 13.9438 78.3479 13.133 77.2929C10.6139 74.012 8.91129 70.2791 8.03683 66.3142C6.63539 59.9785 6.26475 53.5096 8.17002 47.1971C9.60041 42.4671 11.2799 37.8009 13.1562 33.2274C14.4997 29.9523 16.6018 27.083 19.1267 24.5267C21.8775 21.7444 24.2692 18.6258 27.4196 16.226C31.5891 13.0553 36.3204 11.0729 41.1444 9.18321C45.1518 7.61234 49.3099 7.34569 53.4968 6.94573C59.1489 6.40085 64.7257 7.00369 70.2736 7.88477C72.2831 8.20358 74.1827 9.16582 76.1632 9.72809C78.0974 10.273 80.0026 10.7888 81.3114 12.5046C81.5025 12.7539 81.9542 12.8582 82.3075 12.9278C84.8671 13.4263 86.3497 15.3276 88.1159 17.0144C91.1331 19.8953 93.0325 23.4601 94.8741 27.0482C96.0034 29.2509 96.5767 31.7434 97.3643 34.1142C97.6654 35.0243 97.735 36.0329 98.1519 36.8792C100.758 42.1657 101.354 47.8695 101.76 52.6865Z" fill="white"/>
</g>
</mask>
<g mask="url(#mask15_68_560)">
<path id="Vector_33" d="M69.9722 78.939C68.675 78.9738 67.6848 78.968 66.7235 78.5912C66.0517 78.3303 64.9629 78.6318 65.0266 77.4203C65.0845 76.2784 67.0825 74.0988 67.8759 74.2611C69.4337 74.58 70.98 74.9915 72.5378 75.3335C73.3022 75.5016 73.3079 75.9422 73.0531 76.516C72.3987 77.9883 72.167 80.0345 69.9722 78.939Z" fill="#FAE939"/>
</g>
</g>
<g id="Clip path group_17">
<mask id="mask16_68_560" style="mask-type:luminance" maskUnits="userSpaceOnUse" x="6" y="6" width="96" height="92">
<g id="SVGID_18__17">
<path id="Vector_34" d="M101.76 52.6865C101.58 58.7729 100.52 63.7057 98.2909 68.3836C97.6307 69.7689 97.208 71.276 96.6926 72.731C96.0324 74.5801 94.9494 76.0988 93.4843 77.4204C92.5056 78.3015 91.8049 79.4782 90.8841 80.4288C86.6161 84.84 82.1859 89.0773 76.8465 92.1959C72.5437 94.7116 67.9862 96.5549 62.9537 97.0244C60.2319 97.2795 57.5274 97.6968 54.8056 97.9287C53.5663 98.033 52.2923 97.9635 51.053 97.8186C45.1229 97.1114 39.5635 95.2623 34.2821 92.4567C32.2089 91.3554 30.0141 90.4395 27.8077 89.6106C22.8273 87.7441 18.8951 84.5038 15.5421 80.4752C14.6908 79.455 13.9438 78.3479 13.133 77.2929C10.6139 74.012 8.91129 70.2791 8.03683 66.3142C6.63539 59.9785 6.26475 53.5096 8.17002 47.1971C9.60041 42.4671 11.2799 37.8009 13.1562 33.2274C14.4997 29.9523 16.6018 27.083 19.1267 24.5267C21.8775 21.7444 24.2692 18.6258 27.4196 16.226C31.5891 13.0553 36.3204 11.0729 41.1444 9.18321C45.1518 7.61234 49.3099 7.34569 53.4968 6.94573C59.1489 6.40085 64.7257 7.00369 70.2736 7.88477C72.2831 8.20358 74.1827 9.16582 76.1632 9.72809C78.0974 10.273 80.0026 10.7888 81.3114 12.5046C81.5025 12.7539 81.9542 12.8582 82.3075 12.9278C84.8671 13.4263 86.3497 15.3276 88.1159 17.0144C91.1331 19.8953 93.0325 23.4601 94.8741 27.0482C96.0034 29.2509 96.5767 31.7434 97.3643 34.1142C97.6654 35.0243 97.735 36.0329 98.1519 36.8792C100.758 42.1657 101.354 47.8695 101.76 52.6865Z" fill="white"/>
</g>
</mask>
<g mask="url(#mask16_68_560)">
<path id="Vector_35" d="M58.466 73.0032C58.4776 73.2177 58.5123 73.3568 58.4834 73.4786C57.7421 76.6087 57.4235 76.7942 54.3079 75.9015C53.4161 75.6465 52.5532 75.2987 51.5861 75.3045C50.9665 75.3045 49.8605 75.6697 50.1037 74.3944C50.2659 73.5539 50.4047 72.2613 51.7309 72.5627C53.972 73.0728 56.2422 72.754 58.466 73.0032Z" fill="#FAE939"/>
</g>
</g>
<g id="Clip path group_18">
<mask id="mask17_68_560" style="mask-type:luminance" maskUnits="userSpaceOnUse" x="6" y="6" width="96" height="92">
<g id="SVGID_18__18">
<path id="Vector_36" d="M101.76 52.6865C101.58 58.7729 100.52 63.7057 98.2909 68.3836C97.6307 69.7689 97.208 71.276 96.6926 72.731C96.0324 74.5801 94.9494 76.0988 93.4843 77.4204C92.5056 78.3015 91.8049 79.4782 90.8841 80.4288C86.6161 84.84 82.1859 89.0773 76.8465 92.1959C72.5437 94.7116 67.9862 96.5549 62.9537 97.0244C60.2319 97.2795 57.5274 97.6968 54.8056 97.9287C53.5663 98.033 52.2923 97.9635 51.053 97.8186C45.1229 97.1114 39.5635 95.2623 34.2821 92.4567C32.2089 91.3554 30.0141 90.4395 27.8077 89.6106C22.8273 87.7441 18.8951 84.5038 15.5421 80.4752C14.6908 79.455 13.9438 78.3479 13.133 77.2929C10.6139 74.012 8.91129 70.2791 8.03683 66.3142C6.63539 59.9785 6.26475 53.5096 8.17002 47.1971C9.60041 42.4671 11.2799 37.8009 13.1562 33.2274C14.4997 29.9523 16.6018 27.083 19.1267 24.5267C21.8775 21.7444 24.2692 18.6258 27.4196 16.226C31.5891 13.0553 36.3204 11.0729 41.1444 9.18321C45.1518 7.61234 49.3099 7.34569 53.4968 6.94573C59.1489 6.40085 64.7257 7.00369 70.2736 7.88477C72.2831 8.20358 74.1827 9.16582 76.1632 9.72809C78.0974 10.273 80.0026 10.7888 81.3114 12.5046C81.5025 12.7539 81.9542 12.8582 82.3075 12.9278C84.8671 13.4263 86.3497 15.3276 88.1159 17.0144C91.1331 19.8953 93.0325 23.4601 94.8741 27.0482C96.0034 29.2509 96.5767 31.7434 97.3643 34.1142C97.6654 35.0243 97.735 36.0329 98.1519 36.8792C100.758 42.1657 101.354 47.8695 101.76 52.6865Z" fill="white"/>
</g>
</mask>
<g mask="url(#mask17_68_560)">
<path id="Vector_37" d="M101.609 80.5561C101.615 80.5677 101.661 80.6314 101.644 80.6836C100.735 84.2137 100.289 84.4572 96.7734 83.3674C96.0727 83.1472 95.3836 82.9791 94.6366 82.9443C93.9764 82.9153 92.7892 83.3616 93.1424 81.8835C93.3799 80.8981 93.6637 79.7852 95.0767 80.2721C96.1944 80.6546 97.3121 80.5155 98.4356 80.5503C99.4895 80.5851 100.538 80.5561 101.609 80.5561Z" fill="#FAE939"/>
</g>
</g>
<g id="Clip path group_19">
<mask id="mask18_68_560" style="mask-type:luminance" maskUnits="userSpaceOnUse" x="6" y="6" width="96" height="92">
<g id="SVGID_18__19">
<path id="Vector_38" d="M101.76 52.6865C101.58 58.7729 100.52 63.7057 98.2909 68.3836C97.6307 69.7689 97.208 71.276 96.6926 72.731C96.0324 74.5801 94.9494 76.0988 93.4843 77.4204C92.5056 78.3015 91.8049 79.4782 90.8841 80.4288C86.6161 84.84 82.1859 89.0773 76.8465 92.1959C72.5437 94.7116 67.9862 96.5549 62.9537 97.0244C60.2319 97.2795 57.5274 97.6968 54.8056 97.9287C53.5663 98.033 52.2923 97.9635 51.053 97.8186C45.1229 97.1114 39.5635 95.2623 34.2821 92.4567C32.2089 91.3554 30.0141 90.4395 27.8077 89.6106C22.8273 87.7441 18.8951 84.5038 15.5421 80.4752C14.6908 79.455 13.9438 78.3479 13.133 77.2929C10.6139 74.012 8.91129 70.2791 8.03683 66.3142C6.63539 59.9785 6.26475 53.5096 8.17002 47.1971C9.60041 42.4671 11.2799 37.8009 13.1562 33.2274C14.4997 29.9523 16.6018 27.083 19.1267 24.5267C21.8775 21.7444 24.2692 18.6258 27.4196 16.226C31.5891 13.0553 36.3204 11.0729 41.1444 9.18321C45.1518 7.61234 49.3099 7.34569 53.4968 6.94573C59.1489 6.40085 64.7257 7.00369 70.2736 7.88477C72.2831 8.20358 74.1827 9.16582 76.1632 9.72809C78.0974 10.273 80.0026 10.7888 81.3114 12.5046C81.5025 12.7539 81.9542 12.8582 82.3075 12.9278C84.8671 13.4263 86.3497 15.3276 88.1159 17.0144C91.1331 19.8953 93.0325 23.4601 94.8741 27.0482C96.0034 29.2509 96.5767 31.7434 97.3643 34.1142C97.6654 35.0243 97.735 36.0329 98.1519 36.8792C100.758 42.1657 101.354 47.8695 101.76 52.6865Z" fill="white"/>
</g>
</mask>
<g mask="url(#mask18_68_560)">
<path id="Vector_39" d="M17.8476 64.8764C17.6101 65.5083 17.4827 65.7459 17.4306 65.9952C17.0021 68.2268 15.815 68.9514 13.6202 68.1167C12.5836 67.7225 11.4253 67.6588 10.3423 67.3747C9.81534 67.2356 8.83667 67.5139 9.2073 66.3024C9.44473 65.5256 9.49106 64.7547 10.6551 64.8475C12.9368 65.0329 15.2068 65.6879 17.8476 64.8764Z" fill="#FAE939"/>
</g>
</g>
<g id="Clip path group_20">
<mask id="mask19_68_560" style="mask-type:luminance" maskUnits="userSpaceOnUse" x="6" y="6" width="96" height="92">
<g id="SVGID_18__20">
<path id="Vector_40" d="M101.76 52.6865C101.58 58.7729 100.52 63.7057 98.2909 68.3836C97.6307 69.7689 97.208 71.276 96.6926 72.731C96.0324 74.5801 94.9494 76.0988 93.4843 77.4204C92.5056 78.3015 91.8049 79.4782 90.8841 80.4288C86.6161 84.84 82.1859 89.0773 76.8465 92.1959C72.5437 94.7116 67.9862 96.5549 62.9537 97.0244C60.2319 97.2795 57.5274 97.6968 54.8056 97.9287C53.5663 98.033 52.2923 97.9635 51.053 97.8186C45.1229 97.1114 39.5635 95.2623 34.2821 92.4567C32.2089 91.3554 30.0141 90.4395 27.8077 89.6106C22.8273 87.7441 18.8951 84.5038 15.5421 80.4752C14.6908 79.455 13.9438 78.3479 13.133 77.2929C10.6139 74.012 8.91129 70.2791 8.03683 66.3142C6.63539 59.9785 6.26475 53.5096 8.17002 47.1971C9.60041 42.4671 11.2799 37.8009 13.1562 33.2274C14.4997 29.9523 16.6018 27.083 19.1267 24.5267C21.8775 21.7444 24.2692 18.6258 27.4196 16.226C31.5891 13.0553 36.3204 11.0729 41.1444 9.18321C45.1518 7.61234 49.3099 7.34569 53.4968 6.94573C59.1489 6.40085 64.7257 7.00369 70.2736 7.88477C72.2831 8.20358 74.1827 9.16582 76.1632 9.72809C78.0974 10.273 80.0026 10.7888 81.3114 12.5046C81.5025 12.7539 81.9542 12.8582 82.3075 12.9278C84.8671 13.4263 86.3497 15.3276 88.1159 17.0144C91.1331 19.8953 93.0325 23.4601 94.8741 27.0482C96.0034 29.2509 96.5767 31.7434 97.3643 34.1142C97.6654 35.0243 97.735 36.0329 98.1519 36.8792C100.758 42.1657 101.354 47.8695 101.76 52.6865Z" fill="white"/>
</g>
</mask>
<g mask="url(#mask19_68_560)">
<path id="Vector_41" d="M82.2726 77.8665C82.8691 78.1679 83.7089 78.0172 84.4733 78.1969C85.1682 78.3534 86.5176 78.0636 86.2338 79.3794C86.0137 80.3996 85.7821 81.9473 83.9 81.1184C83.1298 80.7764 82.2148 80.7764 81.3751 80.5677C80.825 80.4286 79.8173 80.5445 80.1705 79.5707C80.4601 78.7302 80.599 77.4086 82.2726 77.8665Z" fill="#FAE939"/>
</g>
</g>
<g id="Clip path group_21">
<mask id="mask20_68_560" style="mask-type:luminance" maskUnits="userSpaceOnUse" x="6" y="6" width="96" height="92">
<g id="SVGID_18__21">
<path id="Vector_42" d="M101.76 52.6865C101.58 58.7729 100.52 63.7057 98.2909 68.3836C97.6307 69.7689 97.208 71.276 96.6926 72.731C96.0324 74.5801 94.9494 76.0988 93.4843 77.4204C92.5056 78.3015 91.8049 79.4782 90.8841 80.4288C86.6161 84.84 82.1859 89.0773 76.8465 92.1959C72.5437 94.7116 67.9862 96.5549 62.9537 97.0244C60.2319 97.2795 57.5274 97.6968 54.8056 97.9287C53.5663 98.033 52.2923 97.9635 51.053 97.8186C45.1229 97.1114 39.5635 95.2623 34.2821 92.4567C32.2089 91.3554 30.0141 90.4395 27.8077 89.6106C22.8273 87.7441 18.8951 84.5038 15.5421 80.4752C14.6908 79.455 13.9438 78.3479 13.133 77.2929C10.6139 74.012 8.91129 70.2791 8.03683 66.3142C6.63539 59.9785 6.26475 53.5096 8.17002 47.1971C9.60041 42.4671 11.2799 37.8009 13.1562 33.2274C14.4997 29.9523 16.6018 27.083 19.1267 24.5267C21.8775 21.7444 24.2692 18.6258 27.4196 16.226C31.5891 13.0553 36.3204 11.0729 41.1444 9.18321C45.1518 7.61234 49.3099 7.34569 53.4968 6.94573C59.1489 6.40085 64.7257 7.00369 70.2736 7.88477C72.2831 8.20358 74.1827 9.16582 76.1632 9.72809C78.0974 10.273 80.0026 10.7888 81.3114 12.5046C81.5025 12.7539 81.9542 12.8582 82.3075 12.9278C84.8671 13.4263 86.3497 15.3276 88.1159 17.0144C91.1331 19.8953 93.0325 23.4601 94.8741 27.0482C96.0034 29.2509 96.5767 31.7434 97.3643 34.1142C97.6654 35.0243 97.735 36.0329 98.1519 36.8792C100.758 42.1657 101.354 47.8695 101.76 52.6865Z" fill="white"/>
</g>
</mask>
<g mask="url(#mask20_68_560)">
<path id="Vector_43" d="M36.8652 71.8672C37.5891 71.1252 37.3401 69.6992 38.591 69.7456C40.0909 69.8036 41.6371 69.9659 43.0559 70.418C43.9072 70.6847 43.1601 71.6005 43.0211 72.1744C42.8705 72.8004 42.5926 73.4554 41.6371 73.1714C40.1256 72.7135 38.5852 72.3309 36.8652 71.8672Z" fill="#FAE939"/>
</g>
</g>
</g>
</g>
</svg>
