<svg width="128" height="124" viewBox="0 0 128 124" fill="none" xmlns="http://www.w3.org/2000/svg">
<g id="Group">
<path id="Vector" d="M123.299 62.277C123.073 69.8658 121.751 76.0152 118.979 81.8462C118.153 83.5796 117.633 85.4476 116.984 87.2606C116.164 89.5636 114.812 91.4562 112.982 93.1039C111.764 94.2002 110.889 95.6702 109.745 96.8585C104.428 102.359 98.9021 107.638 92.2506 111.528C86.8841 114.664 81.2055 116.967 74.9272 117.549C71.5372 117.861 68.1655 118.388 64.7694 118.676C63.2273 118.81 61.6364 118.718 60.0944 118.535C52.7025 117.653 45.7695 115.35 39.1914 111.852C36.603 110.474 33.8676 109.341 31.1201 108.306C24.9092 105.978 20.0078 101.942 15.8284 96.9197C14.7698 95.6457 13.8397 94.2676 12.8239 92.9507C9.68481 88.8654 7.56153 84.2104 6.4662 79.2676C4.72224 71.3664 4.25093 63.306 6.63128 55.4354C8.41195 49.5432 10.5048 43.7183 12.8423 38.0221C14.519 33.9429 17.1379 30.3599 20.2831 27.1749C23.7099 23.7082 26.69 19.8188 30.6185 16.8298C35.8136 12.8731 41.7125 10.4109 47.7276 8.05276C52.7208 6.09278 57.9098 5.76815 63.1295 5.25978C70.1726 4.57991 77.1239 5.32718 84.0386 6.42967C86.5413 6.82779 88.9155 8.02828 91.3816 8.72653C93.7925 9.4064 96.1669 10.0495 97.8007 12.1871C98.0393 12.4995 98.6022 12.6281 99.0427 12.7139C102.231 13.3386 104.085 15.7028 106.288 17.8098C110.045 21.399 112.419 25.8396 114.714 30.317C116.121 33.061 116.837 36.1663 117.816 39.1247C118.196 40.2578 118.275 41.5134 118.795 42.5669C122.057 49.1635 122.797 56.2684 123.299 62.277Z" fill="#E4E8EA" stroke="white" stroke-width="9" stroke-miterlimit="10"/>
<g id="Group_2">
<path id="Vector_2" d="M89.7893 66.4848C87.1581 62.5342 81.6569 62.5526 77.655 64.3901C76.5474 64.7209 75.9416 66.1235 74.5526 65.8356C68.672 58.6143 77.7223 54.6331 75.5378 49.4452C75.1829 48.257 74.2222 47.9446 73.1453 47.7915C72.5272 47.3015 71.7929 47.9262 71.1627 47.5833C69.5044 48.0426 67.6074 48.0059 66.0837 48.7531C64.5478 49.6412 64.6702 52.7282 66.1877 53.1569C68.3417 53.9164 71.4258 51.9687 69.8042 55.6314C69.3025 57.7996 67.5401 59.0798 65.3617 58.3264C63.2812 57.5608 60.9558 58.0508 58.9732 57.1137C53.2946 56.5318 65.686 48.1039 50.4738 51.246C47.8915 51.8585 47.5916 53.5918 49.3478 55.4293C52.6338 56.5257 51.667 56.5379 51.5385 59.2758C51.41 60.8254 50.5777 62.2035 50.1188 63.6735C49.5803 65.1373 48.4483 64.3472 47.5243 64.3595C44.7462 64.3227 41.4725 64.0655 39.031 65.5967C35.2432 67.7649 34.2029 72.7752 33.3524 76.7747L33.3708 76.7441C31.6329 82.8568 31.9939 89.7045 36.4181 94.7331C39.0187 98.6715 46.4351 97.2995 48.9562 93.6306C48.9379 93.404 52.1565 88.1427 53.4966 85.9316C54.5491 85.4538 56.3176 86.2256 57.3639 86.0908C63.9849 87.7262 63.1648 84.2839 65.4106 79.5739C66.5059 76.5788 67.8888 73.8225 69.3941 71.0479C69.8164 70.6008 69.6818 69.4064 70.8567 69.9577C72.3987 74.6188 68.2744 79.0288 69.6329 83.8797C70.4712 88.7062 75.2441 96.1541 80.6167 92.3995C85.8853 90.807 89.1346 82.0545 90.132 78.1957C91.0805 74.5453 90.9336 70.0986 89.7893 66.4848ZM48.3749 87.3342C43.6571 96.4603 37.5746 91.5665 36.7057 83.1325C36.8892 80.1864 37.293 76.689 38.4495 73.3693C39.6183 70.0006 40.8789 69.3636 44.4402 69.7066C47.5793 70.0128 47.3591 69.6943 45.8293 72.4505C44.9481 75.5253 41.6254 84.5045 42.9533 84.7617C45.095 85.1782 49.7885 84.3084 48.3749 87.3342ZM50.3024 78.2386C50.3391 80.6274 51.716 82.6608 46.4902 81.4604C45.2541 81.1725 48.2036 76.8605 48.4973 75.8683C49.9659 73.0875 50.3391 77.1055 50.3024 78.2386ZM58.7714 81.491C57.8168 81.8462 56.5806 81.5155 55.4853 81.3623C54.4512 81.2153 54.8184 80.3089 54.7878 79.6964C55.6812 75.758 51.355 66.5093 54.4818 66.0071C55.4058 65.8968 55.4303 67.1402 55.5772 67.8874C56.3421 71.7523 57.2109 75.5865 58.6611 79.2676C58.9548 79.9842 59.4384 81.246 58.7714 81.491ZM66.7874 65.2108C66.0776 68.8246 64.1501 71.8687 62.2286 75.3231C60.6683 71.2623 59.9952 67.3362 59.2058 63.4407C58.8876 61.6706 64.9945 63.8756 66.2306 63.7409C67.1852 63.9062 66.9036 64.6106 66.7874 65.2108ZM83.4866 84.3881C81.1797 88.9695 75.1951 88.9389 74.4853 83.3652C73.8918 82.0055 74.1059 75.0414 76.4618 78.2448C77.4715 79.335 78.0467 82.373 79.8273 82.0545C80.8064 81.6686 81.4918 80.7192 81.5714 79.5432C81.8161 76.1133 76.3517 73.308 78.0161 70.0006C88.5043 63.4285 86.742 79.1451 83.4866 84.3881Z" fill="#020203"/>
<path id="Vector_3" d="M77.919 44.9985C78.6411 42.5853 79.7243 41.5869 81.5539 41.6298C83.9893 41.6849 85.1825 44.2574 86.2962 48.6306C88.6154 46.2725 90.8243 42.8425 93.119 40.6192C94.4408 39.3391 95.8175 38.0589 97.3534 37.0667C99.2259 35.8539 101.894 36.5706 103.197 38.3529C104.611 40.2884 104.531 43.6388 102.61 45.0352C97.1271 49.0103 93.0518 54.3452 88.4563 59.1778C87.6057 59.3738 86.7551 59.5453 85.8739 59.3799C84.5032 59.2145 83.4324 58.4979 82.6797 57.3954C80.6971 54.4922 79.2285 51.3378 78.2311 47.963C77.9251 46.9891 77.8578 45.9969 77.919 44.9985Z" fill="#6FC0AD"/>
<path id="Vector_4" d="M26.0713 30.9661C26.567 30.5252 29.5593 32.9016 30.0794 33.5937C32.7596 37.1523 36.3699 38.8735 40.7757 39.1552C42.3483 39.2593 41.0694 40.4659 40.5921 41.5623C39.4233 44.2573 39.3744 45.6538 40.0536 48.459C40.4024 49.9106 41.1979 51.9686 41.8894 53.31C42.4462 54.3941 43.0888 56.5194 42.3545 56.9482C41.9812 57.0829 41.149 56.6113 40.2801 55.8151C38.8115 54.4615 36.6514 51.7297 34.2772 50.6027C32.5883 49.8004 32.9249 49.194 27.7297 49.4268C21.6167 50.272 24.8047 48.9551 26.4324 43.8836C27.3564 41.011 27.0995 38.2855 26.3529 35.4925C26.1326 34.6595 25.1902 31.401 26.0713 30.9661Z" fill="#EFC345"/>
<path id="Vector_5" d="M51.4726 36.9442C49.1596 36.0377 50.1877 35.609 53.853 34.1329C54.0366 34.0594 54.208 33.9552 54.3549 33.8266C54.9607 33.3121 55.2115 33.0732 55.5113 32.669C56.1416 31.8176 56.5516 30.8193 56.7229 29.7719C56.8392 29.0798 57.5307 26.6114 58.0263 26.6359C58.5832 26.6665 59.0359 28.602 59.1461 29.1717C59.7029 32.0443 60.6208 33.8573 62.7013 36.1051C63.7538 37.2382 64.0169 37.7343 62.377 38.1876C58.8218 38.9409 57.8855 39.823 56.8942 43.2652C56.4904 43.8226 56.5148 45.5069 55.4562 45.3232C54.5811 45.17 54.6301 44.7107 54.5628 43.6449C54.5445 43.3387 54.3854 40.4783 54.2997 40.1782C54.3487 39.4554 53.1187 37.1525 51.4726 36.9442Z" fill="#EFC346"/>
</g>
</g>
</svg>
