<svg width="120" height="115" viewBox="0 0 120 115" fill="none" xmlns="http://www.w3.org/2000/svg">
<g id="Group">
<path id="Vector" d="M64.6655 4C68.9791 4.41784 73.3685 4.50647 77.5999 5.35481C80.9584 6.03222 84.1335 7.64026 87.3908 8.8368C88.6495 9.29895 89.8766 9.85607 91.1605 10.2043C94.1965 11.021 96.3975 13.0975 98.5796 15.1297C103.57 19.7766 107.257 25.3794 109.566 31.761C111.584 37.3258 113.348 43.0046 114.86 48.7214C115.866 52.5263 116.144 56.5211 115.935 60.4779C115.809 62.833 115.505 65.188 115.132 67.5178C114.923 68.8283 114.512 70.1261 114.019 71.3607C112.374 75.4567 110.61 79.5022 108.984 83.6109C108.282 85.3899 106.77 86.4345 105.644 87.8273C100.034 94.785 93.5071 100.711 85.6326 104.921C81.5087 107.13 77.252 109.27 72.3692 109.669C68.9158 109.954 65.5131 110.777 62.0597 111.125C60.1179 111.321 58.1065 111.176 56.1585 110.941C52.0789 110.454 47.9551 109.973 44.1348 108.422C39.8972 106.7 35.7987 104.636 31.6306 102.743C30.4858 102.224 29.2904 101.8 28.1392 101.293C22.2887 98.7228 17.5513 94.7596 13.6742 89.7202C10.1196 85.105 7.40617 80.072 5.80597 74.4185C4.12355 68.4675 3.59859 62.4531 4.30697 56.3248C5.20511 48.5315 7.91849 41.2826 11.1821 34.2427C13.1871 29.9123 16.3117 26.3037 19.531 22.8027C23.8446 18.1116 28.5503 13.8509 34.3502 11.1286C39.0496 8.9191 43.9514 7.12746 48.8216 5.29783C49.9664 4.86733 51.32 4.98129 52.5786 4.87999C56.6013 4.58244 60.6239 4.29755 64.6655 4ZM101.331 57.9328C100.977 53.6848 100.452 48.6518 98.1558 43.9922C97.789 43.2452 97.7321 42.3589 97.4601 41.5548C96.7644 39.4656 96.2584 37.2625 95.2654 35.3252C93.6399 32.1598 91.9637 29.0197 89.301 26.481C87.745 24.9932 86.4295 23.3155 84.1778 22.8787C83.8679 22.8154 83.4694 22.7268 83.2986 22.5052C82.1475 20.9921 80.4651 20.5426 78.7574 20.0615C77.0117 19.5677 75.3356 18.7193 73.5583 18.4344C68.6691 17.6557 63.7484 17.1239 58.7643 17.6114C55.0706 17.9659 51.4022 18.2002 47.8666 19.5867C43.6099 21.258 39.4354 22.999 35.7607 25.7973C32.9841 27.9118 30.8716 30.6594 28.4491 33.1158C26.2228 35.3696 24.3695 37.9019 23.1868 40.7888C21.5297 44.8153 20.0497 48.9367 18.791 53.1087C17.1086 58.6736 17.4374 64.3777 18.6771 69.9679C19.4488 73.4625 20.9542 76.7546 23.1742 79.6478C23.8889 80.5784 24.5467 81.5534 25.2994 82.4587C28.2531 86.0103 31.7254 88.8656 36.1149 90.5116C38.0567 91.2397 39.9921 92.0437 41.8263 93.0186C46.4814 95.494 51.3832 97.1211 56.6139 97.7478C57.7081 97.8808 58.8276 97.9377 59.9218 97.8491C62.319 97.6402 64.7098 97.273 67.1069 97.0514C71.547 96.6399 75.5633 95.0065 79.3582 92.7907C84.064 90.0431 87.9727 86.3016 91.736 82.4144C92.5456 81.5724 93.1655 80.5341 94.0256 79.7618C95.3222 78.5969 96.2774 77.2547 96.8593 75.6277C97.3147 74.3425 97.6878 73.0194 98.2697 71.7975C100.237 67.6571 101.173 63.3078 101.331 57.9328Z" fill="#CE4530" stroke="white" stroke-width="7" stroke-miterlimit="10"/>
<path id="Vector_2" d="M103.228 58.0472C103.059 63.7054 102.08 68.2858 100.015 72.6344C99.4034 73.9252 99.0104 75.3225 98.53 76.6697C97.9187 78.3865 96.9143 79.7964 95.5605 81.0245C94.656 81.8391 94.0072 82.9356 93.1525 83.8191C89.2036 87.9171 85.0987 91.8521 80.1579 94.7533C76.1715 97.0905 71.9544 98.8074 67.2943 99.2397C64.7739 99.4715 62.2723 99.8663 59.752 100.079C58.6041 100.18 57.4251 100.111 56.2834 99.9728C50.7936 99.3149 45.6469 97.598 40.756 94.9914C38.8346 93.9638 36.8071 93.1179 34.7609 92.3471C30.1507 90.6115 26.5075 87.6038 23.407 83.863C22.6209 82.9106 21.9284 81.883 21.1798 80.9055C18.8466 77.8602 17.2684 74.3889 16.4574 70.7107C15.1598 64.827 14.8166 58.8179 16.5821 52.953C17.9046 48.5605 19.458 44.2245 21.1986 39.9761C22.4462 36.9371 24.3864 34.2678 26.7258 31.893C29.2711 29.3114 31.4857 26.4103 34.3991 24.1859C38.2544 21.2409 42.64 19.3987 47.1067 17.6442C50.8124 16.1842 54.6677 15.9398 58.5417 15.5639C63.7758 15.0563 68.935 15.614 74.0754 16.4349C75.9345 16.7294 77.6937 17.6254 79.5278 18.1455C81.3182 18.653 83.0837 19.1292 84.294 20.7208C84.4687 20.9526 84.8929 21.0466 85.2173 21.1093C87.5879 21.573 88.9603 23.34 90.5948 24.9065C93.3833 27.582 95.1488 30.8905 96.8519 34.224C97.9 36.2667 98.424 38.5851 99.1539 40.7907C99.4346 41.6366 99.497 42.5702 99.8838 43.3597C102.304 48.2723 102.853 53.5733 103.228 58.0472Z" fill="white"/>
<path id="Vector_3" d="M50.7819 66.8088C49.7889 68.1953 48.9224 69.4108 48.0559 70.6327C46.4367 72.9118 44.3748 74.6211 41.7942 75.729C39.1441 76.8623 34.9381 76.1026 33.3758 73.8171C30.9787 70.3225 29.3532 66.4669 30.0552 62.0923C30.7763 57.5657 32.0286 53.1784 34.1917 49.0886C36.1587 45.3724 39.0239 43.2389 43.8815 44.0809C44.7353 44.2329 45.6524 44.0303 46.5062 44.1822C47.3538 44.3278 48.1633 44.714 49.1121 45.0369C50.4972 42.4665 51.9646 40.0481 52.224 37.1169C52.2935 36.3066 52.0342 35.8254 51.193 35.6418C50.687 35.5342 50.0862 35.4203 49.732 35.091C48.6125 34.0465 48.8781 32.2421 50.3391 31.7483C51.6041 31.3178 53.0019 31.1976 54.3491 31.1532C55.4243 31.1153 56.5186 31.3622 57.5938 31.5458C58.8398 31.761 59.2319 32.4068 58.7702 33.578C58.5235 34.1984 58.0745 34.7365 57.7329 35.3253C57.404 35.8824 57.1004 36.4522 56.7083 37.1486C57.3914 37.4778 57.8405 37.7627 58.3402 37.921C60.7436 38.6743 63.1597 39.3771 65.5631 40.1304C67.9982 40.8965 68.8775 40.6053 70.0602 38.3958C70.5978 37.3892 70.9899 36.3129 71.6034 34.9264C70.4333 34.9138 69.5985 34.9138 68.7572 34.8948C67.0558 34.8631 66.2336 34.1984 66.0692 32.5144C66.0249 32.0839 66.3411 31.4508 66.6953 31.1722C68.5928 29.6781 70.8191 29.6085 73.0835 29.9504C73.8108 30.058 74.5192 30.3302 75.2149 30.5835C76.1447 30.919 76.7772 32.546 76.4167 33.7489C76.2016 34.4643 75.9297 35.1797 75.5818 35.8381C74.5319 37.8197 73.4187 39.7632 72.3687 41.7385C72.1221 42.2006 71.7615 42.8211 71.888 43.2326C72.4826 45.1445 72.4826 47.316 74.1966 48.8734C74.6078 48.7151 75.1138 48.6328 75.4679 48.3543C77.3464 46.8792 79.5918 46.474 81.8308 46.4487C85.2147 46.4107 88.8072 48.905 89.2436 52.5073C89.6041 55.5018 89.4966 58.528 88.4972 61.4149C87.675 63.7953 86.8401 66.201 85.7269 68.4548C83.6903 72.5636 80.2939 74.9693 75.7526 75.729C73.2227 76.1532 71.3062 75.0516 70.0032 73.0574C67.0052 68.4612 66.3791 63.6307 68.8331 58.5217C69.706 56.7047 70.6863 54.8308 70.3068 52.6783C70.2056 52.0895 69.8641 51.5387 69.3771 50.9563C67.701 53.7862 65.5189 56.1159 64.2159 59.0851C63.1281 61.5668 61.6923 63.9156 60.2692 66.2264C59.2952 67.8028 57.9163 68.5118 55.9113 67.8471C54.2542 67.29 52.4706 67.1317 50.7819 66.8088ZM46.0319 49.7154C44.2103 49.3672 42.8884 49.1203 41.5728 48.8607C40.4091 48.6328 39.5299 48.924 38.6634 49.8484C37.5566 51.0259 36.7217 52.2984 36.2789 53.8368C35.716 55.8057 35.1657 57.7746 34.6155 59.7499C33.5402 63.6054 34.6913 67.0114 36.7975 70.1895C37.8601 71.7975 39.8398 72.2281 41.4463 71.1898C42.3508 70.6073 43.2236 69.8983 43.9384 69.0943C44.7606 68.1636 45.9054 67.3659 45.937 65.8528C43.8498 64.8969 41.7436 64.2068 39.4666 64.0422C39.0681 64.0106 38.5812 63.7383 38.3218 63.4218C37.468 62.3709 37.5628 61.5162 38.4673 60.288C40.3268 57.762 42.1674 55.2296 44.0016 52.6909C44.5898 51.8742 45.1337 51.0386 46.0319 49.7154ZM76.2839 53.4063C76.6444 55.9893 78.0485 58.0532 79.1174 60.2437C80.199 62.4532 79.6234 64.2511 77.2326 65.359C75.3035 63.9599 75.4237 61.0667 73.406 59.6422C71.4074 62.776 71.4959 66.8025 73.5452 69.5248C74.2535 70.4744 75.1771 70.9049 76.3851 70.7023C78.3774 70.3668 80.0092 69.3791 81.0655 67.7141C83.3424 64.1308 84.5948 60.1867 84.7213 55.926C84.7972 53.4 83.0705 51.678 80.5342 51.7476C79.0036 51.7793 77.5678 52.1528 76.2839 53.4063ZM60.6171 56.6794C62.9636 52.9442 65.6897 49.8863 66.4866 45.5307C63.9503 44.8596 61.433 44.1949 58.6564 43.4542C59.194 47.8984 59.3585 52.1401 60.6171 56.6794ZM56.7653 62.6684C57.0499 60.4526 56.1201 58.7116 55.7975 56.8693C55.4813 55.065 55.2599 53.2417 54.931 51.4374C54.6021 49.6521 55.1461 47.6642 53.8242 46.0245C52.1607 47.8541 51.9583 48.3416 52.4137 50.2725C53.1727 53.5013 53.198 56.7427 52.711 60.0031C52.6224 60.5855 52.6351 61.1806 52.5971 61.8644C54.0012 62.1429 55.2473 62.3772 56.7653 62.6684ZM48.0559 54.5269C46.0635 56.0779 45.3109 58.1481 43.8119 60.0601C45.3425 60.3513 46.5505 60.5855 47.8029 60.8261C48.448 58.8066 48.6314 56.8883 48.0559 54.5269Z" fill="black"/>
<path id="Vector_4" d="M46.033 49.7153C45.1285 51.0385 44.5846 51.8742 44.0027 52.6845C42.1685 55.2232 40.3216 57.7556 38.4684 60.2816C37.5639 61.5098 37.4754 62.3644 38.3229 63.4154C38.5759 63.7319 39.0692 64.0041 39.4677 64.0358C41.7447 64.2004 43.8509 64.8905 45.9381 65.8464C45.9002 67.3595 44.7617 68.1572 43.9395 69.0879C43.2247 69.8919 42.3582 70.6009 41.4474 71.1834C39.8409 72.2216 37.8612 71.7911 36.7986 70.1831C34.6924 67.005 33.5413 63.599 34.6166 59.7435C35.1668 57.7745 35.7171 55.7993 36.28 53.8304C36.7228 52.292 37.5577 51.0195 38.6645 49.8419C39.531 48.924 40.4102 48.6264 41.5739 48.8543C42.8895 49.1202 44.2114 49.3671 46.033 49.7153Z" fill="white"/>
<path id="Vector_5" d="M76.2835 53.4063C77.5675 52.1528 79.0032 51.7793 80.5338 51.7349C83.0701 51.6653 84.7968 53.3936 84.7209 55.9133C84.5944 60.1804 83.3358 64.1182 81.0651 67.7014C80.0025 69.3728 78.3771 70.3604 76.3848 70.6896C75.1767 70.8922 74.2532 70.4617 73.5448 69.5121C71.4955 66.7835 71.4133 62.757 73.4057 59.6296C75.4233 61.054 75.3032 63.9472 77.2323 65.3464C79.6231 64.2384 80.1986 62.4405 79.1171 60.231C78.0482 58.0532 76.6377 55.9893 76.2835 53.4063Z" fill="white"/>
<path id="Vector_6" d="M60.6179 56.6795C59.3593 52.1402 59.1948 47.8985 58.6572 43.4542C61.4339 44.1886 63.9512 44.8533 66.4875 45.5308C65.6905 49.8927 62.9581 52.9442 60.6179 56.6795Z" fill="white"/>
<path id="Vector_7" d="M56.7653 62.6683C55.2473 62.3771 54.0013 62.1365 52.5908 61.8706C52.6288 61.1869 52.6162 60.5918 52.7047 60.0094C53.198 56.7426 53.1664 53.5075 52.4075 50.2788C51.9521 48.3479 52.1544 47.8604 53.8179 46.0308C55.1398 47.6705 54.5959 49.6584 54.9248 51.4437C55.2536 53.248 55.475 55.0649 55.7913 56.8756C56.1202 58.7115 57.0499 60.4589 56.7653 62.6683Z" fill="white"/>
<path id="Vector_8" d="M48.056 54.5267C48.6379 56.8945 48.4481 58.8064 47.803 60.826C46.5507 60.5854 45.3426 60.3512 43.812 60.0599C45.3047 58.148 46.0573 56.0778 48.056 54.5267Z" fill="white"/>
</g>
</svg>
