<svg width="110" height="106" viewBox="0 0 110 106" fill="none" xmlns="http://www.w3.org/2000/svg">
<g id="Group">
<path id="Vector" d="M105.931 53.3538C105.74 59.8955 104.598 65.19 102.204 70.2189C101.495 71.7085 101.045 73.3251 100.485 74.8898C99.7758 76.876 98.6164 78.5099 97.0359 79.9245C95.9861 80.8714 95.2362 82.1358 94.2441 83.1578C89.6583 87.898 84.9053 92.4477 79.1659 95.7964C74.5455 98.4985 69.6483 100.479 64.2377 100.987C61.3131 101.258 58.4117 101.709 55.4872 101.963C54.1548 102.078 52.7877 102.003 51.461 101.841C45.0928 101.079 39.1169 99.099 33.4467 96.0793C31.2144 94.8957 28.861 93.9142 26.496 93.025C21.143 91.0158 16.9207 87.54 13.3213 83.2155C12.4099 82.1185 11.6024 80.9291 10.7371 79.7917C8.0318 76.2697 6.20326 72.257 5.26303 68.0018C3.75752 61.1945 3.35951 54.2488 5.40724 47.4647C6.94159 42.3838 8.74706 37.3664 10.7602 32.4588C12.2022 28.9426 14.4634 25.8594 17.1745 23.1111C20.1278 20.1261 22.6947 16.7716 26.0807 14.1965C30.5568 10.79 35.6386 8.66528 40.8243 6.63293C45.1274 4.94701 49.5978 4.66409 54.0971 4.22529C60.1653 3.63637 66.1585 4.28303 72.1171 5.22992C74.2744 5.57057 76.3164 6.60984 78.4449 7.2103C80.5214 7.79345 82.5691 8.34772 83.9766 10.1895C84.1842 10.4609 84.6688 10.5706 85.0495 10.6399C87.7952 11.1768 89.393 13.215 91.2907 15.0337C94.5267 18.1284 96.5745 21.9564 98.553 25.8074C99.7643 28.1747 100.382 30.8479 101.229 33.3941C101.552 34.3699 101.627 35.4553 102.072 36.3618C104.858 42.0547 105.498 48.1806 105.931 53.3538Z" fill="#E4E8EA"/>
<g id="Group_2">
<g id="Clip path group">
<mask id="mask0_68_708" style="mask-type:luminance" maskUnits="userSpaceOnUse" x="4" y="4" width="102" height="99">
<g id="SVGID_20_">
<path id="Vector_2" d="M105.93 53.3538C105.739 59.8955 104.597 65.19 102.203 70.2189C101.494 71.7085 101.044 73.3251 100.484 74.8898C99.7749 76.876 98.6154 78.5099 97.0349 79.9245C95.9851 80.8714 95.2352 82.1358 94.2431 83.1578C89.6573 87.898 84.9043 92.4477 79.1649 95.7964C74.5445 98.4985 69.6473 100.479 64.2367 100.987C61.3122 101.258 58.4108 101.709 55.4862 101.963C54.1538 102.078 52.7867 102.003 51.46 101.841C45.0918 101.079 39.1159 99.099 33.4457 96.0793C31.2134 94.8957 28.86 93.9142 26.495 93.025C21.1421 91.0158 16.9197 87.54 13.3203 83.2155C12.4089 82.1185 11.6014 80.9291 10.7361 79.7917C8.03083 76.2697 6.20228 72.257 5.26206 68.0018C3.75654 61.1945 3.35853 54.2488 5.40626 47.4647C6.94062 42.3838 8.74608 37.3664 10.7592 32.4588C12.2013 28.9426 14.4624 25.8594 17.1735 23.1111C20.1268 20.1261 22.6937 16.7716 26.0797 14.1965C30.5558 10.79 35.6377 8.66528 40.8233 6.63293C45.1264 4.94701 49.5968 4.66409 54.0961 4.22529C60.1643 3.63637 66.1575 4.28303 72.1161 5.22992C74.2734 5.57057 76.3154 6.60984 78.4439 7.2103C80.5204 7.79345 82.5682 8.34772 83.9756 10.1895C84.1833 10.4609 84.6678 10.5706 85.0485 10.6399C87.7942 11.1768 89.392 13.215 91.2898 15.0337C94.5257 18.1284 96.5735 21.9564 98.552 25.8074C99.7633 28.1747 100.381 30.8479 101.228 33.3941C101.551 34.3699 101.626 35.4553 102.071 36.3618C104.857 42.0547 105.497 48.1806 105.93 53.3538Z" fill="white"/>
</g>
</mask>
<g mask="url(#mask0_68_708)">
<path id="Vector_3" d="M179.134 50.2822C174.479 52.1702 169.807 54.4797 164.91 55.9635C156.021 58.6541 147.005 60.8654 138.036 63.2442C126.978 66.1772 115.932 69.1449 104.851 71.9798C94.6699 74.5779 84.414 76.8643 74.2619 79.5665C67.04 81.4891 59.9508 83.9487 52.7636 86.0157C47.2722 87.5977 41.7231 88.9661 36.1856 90.3922C27.3775 92.667 18.5694 94.9361 9.75548 97.159C3.00085 98.8564 -3.75953 100.513 -10.5372 102.101C-11.887 102.419 -13.3233 102.338 -15.1172 102.471C-16.0978 99.4396 -17.1419 96.6336 -17.9264 93.7409C-22.1603 78.1346 -26.3769 62.5282 -30.4781 46.8872C-31.5164 42.9322 -30.8473 41.2983 -27.4728 40.2359C-20.4875 38.0419 -13.3867 36.2694 -6.34371 34.2659C6.54833 30.5938 19.3596 26.5811 32.3382 23.2727C44.0997 20.2704 56.0457 18.0821 67.8822 15.4031C72.3872 14.387 76.7768 12.8454 81.2818 11.8292C95.0102 8.7345 108.762 5.74371 122.513 2.7818C133.519 0.408798 144.513 -1.98152 155.56 -4.13512C165.666 -6.10973 166.052 -6.08086 169.207 5.73794C172.934 19.6757 175.962 33.8271 179.267 47.8918C179.406 48.475 179.209 49.139 179.134 50.2822Z" fill="#CE4530"/>
</g>
</g>
<g id="Clip path group_2">
<mask id="mask1_68_708" style="mask-type:luminance" maskUnits="userSpaceOnUse" x="4" y="4" width="102" height="99">
<g id="SVGID_20__2">
<path id="Vector_4" d="M105.93 53.3538C105.739 59.8955 104.597 65.19 102.203 70.2189C101.494 71.7085 101.044 73.3251 100.484 74.8898C99.7749 76.876 98.6154 78.5099 97.0349 79.9245C95.9851 80.8714 95.2352 82.1358 94.2431 83.1578C89.6573 87.898 84.9043 92.4477 79.1649 95.7964C74.5445 98.4985 69.6473 100.479 64.2367 100.987C61.3122 101.258 58.4108 101.709 55.4862 101.963C54.1538 102.078 52.7867 102.003 51.46 101.841C45.0918 101.079 39.1159 99.099 33.4457 96.0793C31.2134 94.8957 28.86 93.9142 26.495 93.025C21.1421 91.0158 16.9197 87.54 13.3203 83.2155C12.4089 82.1185 11.6014 80.9291 10.7361 79.7917C8.03083 76.2697 6.20228 72.257 5.26206 68.0018C3.75654 61.1945 3.35853 54.2488 5.40626 47.4647C6.94062 42.3838 8.74608 37.3664 10.7592 32.4588C12.2013 28.9426 14.4624 25.8594 17.1735 23.1111C20.1268 20.1261 22.6937 16.7716 26.0797 14.1965C30.5558 10.79 35.6377 8.66528 40.8233 6.63293C45.1264 4.94701 49.5968 4.66409 54.0961 4.22529C60.1643 3.63637 66.1575 4.28303 72.1161 5.22992C74.2734 5.57057 76.3154 6.60984 78.4439 7.2103C80.5204 7.79345 82.5682 8.34772 83.9756 10.1895C84.1833 10.4609 84.6678 10.5706 85.0485 10.6399C87.7942 11.1768 89.392 13.215 91.2898 15.0337C94.5257 18.1284 96.5735 21.9564 98.552 25.8074C99.7633 28.1747 100.381 30.8479 101.228 33.3941C101.551 34.3699 101.626 35.4553 102.071 36.3618C104.857 42.0547 105.497 48.1806 105.93 53.3538Z" fill="white"/>
</g>
</mask>
<g mask="url(#mask1_68_708)">
<path id="Vector_5" d="M52.4694 46.2982C51.2581 46.125 50.1967 45.9691 49.1354 45.819C47.1511 45.5419 45.3802 44.7913 43.8228 43.5095C42.225 42.1931 41.3194 39.2601 42.2538 37.5049C43.6901 34.8201 45.6052 32.5106 48.622 31.5117C51.7426 30.4782 54.9497 29.8258 58.2723 29.8547C61.289 29.8835 63.5964 31.0036 64.6635 34.3813C64.8538 34.976 65.2807 35.4956 65.4653 36.0903C65.6499 36.6792 65.6729 37.3259 65.7825 38.036C67.8764 38.0707 69.9011 38.2092 71.8507 37.4067C72.3872 37.1873 72.6121 36.8582 72.4506 36.2635C72.3526 35.9055 72.2256 35.4841 72.3237 35.1492C72.6179 34.0868 73.8581 33.6653 74.6541 34.4332C75.3463 35.0972 75.8827 35.9517 76.3615 36.7947C76.7422 37.4702 76.9441 38.2497 77.1806 38.9945C77.4575 39.8605 77.1748 40.3224 76.275 40.4148C75.7962 40.4668 75.3059 40.3571 74.8214 40.3282C74.3599 40.3051 73.8927 40.2993 73.3216 40.2762C73.3389 40.819 73.3043 41.2058 73.3678 41.5696C73.6793 43.3536 74.0369 45.1262 74.3484 46.9102C74.6656 48.7174 75.1444 49.1793 76.9383 49.2024C77.7574 49.214 78.5707 49.11 79.6609 49.0407C79.2802 48.2902 79.0091 47.7532 78.7438 47.2162C78.2016 46.1192 78.3516 45.3744 79.3725 44.7162C79.6321 44.5488 80.1397 44.5372 80.4339 44.67C82.0144 45.386 82.7931 46.7832 83.3238 48.3421C83.4968 48.8444 83.5545 49.3814 83.6237 49.9126C83.716 50.617 82.8912 51.5581 82.0086 51.7255C81.4837 51.8237 80.9415 51.8872 80.405 51.8814C78.7957 51.8641 77.1921 51.8006 75.5828 51.7833C75.2078 51.7775 74.6945 51.7544 74.4753 51.9738C73.4543 52.9842 72.0699 53.7059 71.6488 55.311C71.8853 55.5188 72.1045 55.8191 72.3987 55.9519C73.9619 56.662 74.9598 57.9611 75.7154 59.3815C76.8576 61.5293 76.4595 64.6471 74.308 66.1078C72.5198 67.3261 70.5587 68.2614 68.3898 68.579C66.6016 68.8388 64.7961 69.1044 62.9907 69.139C59.7028 69.1968 57.0436 67.8226 55.0651 65.1783C53.9576 63.706 54.0268 62.1182 54.869 60.6286C56.8071 57.199 59.674 55.2013 63.7348 55.08C65.1826 55.0339 66.6997 55.0396 67.9398 54.087C68.2802 53.8272 68.5167 53.4288 68.7301 52.9264C66.3767 52.7937 64.1674 52.1701 61.8486 52.3202C59.9104 52.4472 57.9435 52.3087 55.9938 52.1585C54.6671 52.0604 53.7615 51.4137 53.525 49.9126C53.3058 48.6712 52.8213 47.4761 52.4694 46.2982ZM61.7794 37.6203C61.3987 36.3443 61.1218 35.4205 60.8507 34.491C60.6142 33.6711 60.1354 33.2092 59.2644 32.9609C58.1454 32.6434 57.0609 32.5337 55.9361 32.7589C54.4941 33.0475 53.0578 33.3478 51.6215 33.648C48.8123 34.2369 47.0242 36.0961 45.6917 38.4922C45.0168 39.7046 45.3975 41.1019 46.5915 41.7889C47.2607 42.1758 47.999 42.4991 48.7489 42.6839C49.6141 42.9033 50.4967 43.3652 51.4715 42.8917C51.3907 41.2462 51.1312 39.67 50.4851 38.1688C50.3698 37.9032 50.3871 37.5049 50.5024 37.2335C50.8947 36.3443 51.4657 36.1192 52.5444 36.2866C54.7652 36.6388 56.9859 36.9737 59.2125 37.3085C59.9277 37.4125 60.643 37.4818 61.7794 37.6203ZM69.4281 58.1343C67.8995 59.214 67.0516 60.796 66.0133 62.199C64.9635 63.6194 63.631 63.8445 62.137 62.684C62.3908 60.9923 64.2712 60.109 64.5135 58.3537C61.8601 58.117 59.3278 59.5027 58.2665 61.7083C57.8973 62.4762 57.9262 63.2037 58.4568 63.9081C59.3278 65.0686 60.493 65.7845 61.9062 65.9058C64.9403 66.1714 67.8649 65.669 70.6221 64.3411C72.2545 63.5559 72.7852 61.8815 71.9026 60.2879C71.3604 59.3353 70.6509 58.5443 69.4281 58.1343ZM62.1601 49.2255C65.3153 49.4853 68.1591 50.2186 71.1989 49.2832C70.7894 47.4414 70.3798 45.6169 69.9299 43.6019C67.2823 45.4148 64.6404 46.9218 62.1601 49.2255ZM57.0782 48.7463C58.5837 48.1978 59.3855 47.0257 60.4527 46.2116C61.4967 45.4148 62.5869 44.67 63.6252 43.8617C64.652 43.0649 66.0998 42.7532 66.7054 41.3675C64.9923 40.9113 64.6116 40.946 63.5329 41.8698C61.7274 43.4229 59.6739 44.5084 57.4359 45.2763C57.0378 45.4148 56.6629 45.6169 56.213 45.819C56.5014 46.8063 56.761 47.6839 57.0782 48.7463ZM59.3855 40.4956C57.7358 39.7393 56.1726 39.9414 54.4594 39.618C54.7767 40.6919 55.0305 41.5349 55.2901 42.4183C56.7898 42.1642 58.0704 41.6504 59.3855 40.4956Z" fill="white"/>
</g>
</g>
<g id="Clip path group_3">
<mask id="mask2_68_708" style="mask-type:luminance" maskUnits="userSpaceOnUse" x="4" y="4" width="102" height="99">
<g id="SVGID_20__3">
<path id="Vector_6" d="M105.93 53.3538C105.739 59.8955 104.597 65.19 102.203 70.2189C101.494 71.7085 101.044 73.3251 100.484 74.8898C99.7749 76.876 98.6154 78.5099 97.0349 79.9245C95.9851 80.8714 95.2352 82.1358 94.2431 83.1578C89.6573 87.898 84.9043 92.4477 79.1649 95.7964C74.5445 98.4985 69.6473 100.479 64.2367 100.987C61.3122 101.258 58.4108 101.709 55.4862 101.963C54.1538 102.078 52.7867 102.003 51.46 101.841C45.0918 101.079 39.1159 99.099 33.4457 96.0793C31.2134 94.8957 28.86 93.9142 26.495 93.025C21.1421 91.0158 16.9197 87.54 13.3203 83.2155C12.4089 82.1185 11.6014 80.9291 10.7361 79.7917C8.03083 76.2697 6.20228 72.257 5.26206 68.0018C3.75654 61.1945 3.35853 54.2488 5.40626 47.4647C6.94062 42.3838 8.74608 37.3664 10.7592 32.4588C12.2013 28.9426 14.4624 25.8594 17.1735 23.1111C20.1268 20.1261 22.6937 16.7716 26.0797 14.1965C30.5558 10.79 35.6377 8.66528 40.8233 6.63293C45.1264 4.94701 49.5968 4.66409 54.0961 4.22529C60.1643 3.63637 66.1575 4.28303 72.1161 5.22992C74.2734 5.57057 76.3154 6.60984 78.4439 7.2103C80.5204 7.79345 82.5682 8.34772 83.9756 10.1895C84.1833 10.4609 84.6678 10.5706 85.0485 10.6399C87.7942 11.1768 89.392 13.215 91.2898 15.0337C94.5257 18.1284 96.5735 21.9564 98.552 25.8074C99.7633 28.1747 100.381 30.8479 101.228 33.3941C101.551 34.3699 101.626 35.4553 102.071 36.3618C104.857 42.0547 105.497 48.1806 105.93 53.3538Z" fill="white"/>
</g>
</mask>
<g mask="url(#mask2_68_708)">
<path id="Vector_7" d="M34.4785 64.6819C34.2535 63.4637 34.1728 62.1992 33.7748 61.0445C33.0249 58.8736 32.0962 56.7662 31.231 54.6357C30.7464 53.4347 30.2043 52.2511 29.7774 51.0271C29.2294 49.4682 30.9137 47.5975 32.5634 47.9324C33.3075 48.0825 34.0459 48.3365 34.7554 48.6195C37.7722 49.8088 40.7832 51.0098 43.7827 52.2396C44.3711 52.4821 44.9767 52.7823 45.4497 53.198C46.7995 54.3932 46.6899 54.78 45.4613 56.1311C44.5211 57.1646 43.8462 58.4348 43.0271 59.578C41.5562 61.6507 40.1545 63.7408 39.4969 66.2582C39.1277 67.6843 38.1644 67.9499 36.7627 67.3609C35.5168 66.8471 34.7323 65.9983 34.4785 64.6819ZM37.9279 59.9879C39.1912 58.2673 40.2064 56.8816 41.2966 55.3978C39.3296 53.9775 37.2184 53.5444 35.0899 52.6553C35.3611 53.6772 35.4937 54.4913 35.7937 55.2361C36.3878 56.7027 37.08 58.123 37.9279 59.9879Z" fill="white"/>
</g>
</g>
</g>
<path id="Vector_8" d="M105.931 53.3538C105.74 59.8955 104.598 65.19 102.204 70.2189C101.495 71.7085 101.045 73.3251 100.485 74.8898C99.7758 76.876 98.6164 78.5099 97.0359 79.9245C95.9861 80.8714 95.2362 82.1358 94.2441 83.1578C89.6583 87.898 84.9053 92.4477 79.1659 95.7964C74.5455 98.4985 69.6483 100.479 64.2377 100.987C61.3131 101.258 58.4117 101.709 55.4872 101.963C54.1548 102.078 52.7877 102.003 51.461 101.842C45.0928 101.079 39.1169 99.099 33.4467 96.0793C31.2144 94.8957 28.861 93.9142 26.496 93.025C21.143 91.0158 16.9207 87.54 13.3213 83.2155C12.4099 82.1185 11.6024 80.9291 10.7371 79.7917C8.0318 76.2697 6.20326 72.257 5.26303 68.0018C3.75752 61.1945 3.35951 54.2488 5.40724 47.4647C6.94159 42.3838 8.74705 37.3664 10.7602 32.4588C12.2022 28.9426 14.4634 25.8594 17.1745 23.1111C20.1278 20.1261 22.6947 16.7716 26.0807 14.1965C30.5568 10.79 35.6386 8.66528 40.8243 6.63293C45.1274 4.94701 49.5978 4.66409 54.0971 4.22529C60.1653 3.63637 66.1585 4.28303 72.1171 5.22992C74.2744 5.57057 76.3164 6.60984 78.4449 7.2103C80.5214 7.79345 82.5691 8.34772 83.9766 10.1895C84.1842 10.4609 84.6688 10.5706 85.0495 10.6399C87.7952 11.1768 89.393 13.215 91.2907 15.0337C94.5267 18.1284 96.5745 21.9564 98.553 25.8074C99.7643 28.1747 100.382 30.8479 101.229 33.3941C101.552 34.3699 101.627 35.4553 102.072 36.3618C104.858 42.0547 105.498 48.1806 105.931 53.3538Z" stroke="white" stroke-width="7" stroke-miterlimit="10"/>
</g>
</svg>
