<svg width="118" height="114" viewBox="0 0 118 114" fill="none" xmlns="http://www.w3.org/2000/svg">
<g id="Group">
<path id="Vector" d="M113.353 57.4663C113.145 64.4181 111.939 70.047 109.394 75.3879C108.641 76.9743 108.158 78.6893 107.564 80.3492C106.812 82.4561 105.575 84.1956 103.899 85.7024C102.785 86.7069 101.984 88.0543 100.931 89.1385C96.0602 94.1732 90.9997 99.0119 84.905 102.57C79.9913 105.443 74.79 107.55 69.038 108.083C65.9295 108.371 62.8455 108.849 59.7369 109.118C58.3234 109.241 56.8671 109.161 55.4535 108.989C48.6857 108.181 42.334 106.074 36.3067 102.871C33.9386 101.609 31.4359 100.568 28.9148 99.6244C23.2301 97.4929 18.7386 93.7995 14.908 89.1997C13.9351 88.0298 13.0845 86.7681 12.1605 85.5615C9.28452 81.8191 7.33863 77.5562 6.3412 73.0298C4.7441 65.7963 4.31576 58.4096 6.49418 51.2005C8.128 45.8044 10.0432 40.4696 12.185 35.2511C13.7209 31.5149 16.1196 28.2319 19.0017 25.3165C22.1408 22.1437 24.87 18.579 28.4681 15.8412C33.2288 12.2152 38.632 9.96122 44.1392 7.79911C48.7102 6.0045 53.4648 5.70438 58.2438 5.23888C64.6934 4.61414 71.0635 5.30013 77.3968 6.31075C79.6915 6.67825 81.8638 7.77461 84.1218 8.4116C86.3308 9.03635 88.5092 9.61821 90.0023 11.5782C90.2225 11.8661 90.7365 11.9824 91.1404 12.0621C94.0592 12.6317 95.7604 14.7999 97.7736 16.7293C101.213 20.0184 103.391 24.0853 105.49 28.1829C106.781 30.6942 107.43 33.5423 108.335 36.2495C108.678 37.2846 108.757 38.4422 109.235 39.4038C112.215 45.4492 112.894 51.96 113.353 57.4663Z" fill="#E4E8EA" stroke="white" stroke-width="8.5039" stroke-miterlimit="10"/>
<g id="Group_2">
<path id="Vector_2" d="M7.14218 58.4343C7.17277 58.3731 7.22785 58.3057 7.22785 58.2444C7.31964 54.0978 10.8137 52.242 13.1329 49.645C14.8217 47.7585 16.9022 46.2334 18.7624 44.5C21.7058 41.7561 24.6124 38.9753 27.5312 36.2069C29.9422 33.9223 32.3103 31.5887 34.7702 29.3592C39.0046 25.5066 43.2268 21.6356 47.5959 17.9423C49.86 16.0252 52.4362 14.4755 54.8594 12.7544C55.3795 12.3869 55.8874 12.001 56.3586 11.5723C57.2764 10.7393 58.3106 10.7454 59.3202 11.2354C60.1402 11.6336 60.9112 12.1664 61.6271 12.7361C63.7321 14.402 65.7943 16.1231 67.887 17.8136C73.2841 22.1807 78.6873 26.5478 84.0967 30.8965C88.0129 34.0447 91.9781 37.144 95.8638 40.3289C97.724 41.8541 99.4986 43.4956 101.243 45.1554C103.855 47.6421 106.621 50.0125 108.616 53.0688C109.577 54.545 110.452 56.1007 111.174 57.7116C111.902 59.3224 111.578 60.0881 110.201 61.2028C101.389 68.3322 92.6451 75.5413 84.4271 83.369C82.0162 85.6658 79.4584 87.8096 77.0168 90.0819C75.0526 91.9072 73.1495 93.8059 71.2403 95.6924C69.374 97.5299 67.5505 99.4102 65.6719 101.242C65.0539 101.848 61.9943 105.792 56.4136 100.905C53.6172 99.1775 51.2674 96.9235 48.8381 94.7553C47.1982 93.2975 45.4848 91.9072 43.7225 90.6026C38.8884 87.0072 34.0237 83.4547 29.1467 79.9206C26.2768 77.8443 23.2662 75.9578 20.4942 73.7712C17.3796 71.3151 14.4607 68.614 11.4501 66.0293C10.4282 65.1534 9.33288 64.351 8.33546 63.4506C6.80567 62.0358 6.44459 60.3882 7.14218 58.4343ZM11.6887 59.8676C14.3812 62.3359 17.0675 65.0431 20.0108 67.4319C23.5782 70.329 27.3722 72.9566 31.062 75.7005C35.0945 78.6956 39.1515 81.6724 43.1535 84.7042C45.5766 86.5417 47.9447 88.4588 50.3128 90.3698C52.8462 92.4155 55.2877 94.5899 57.9006 96.5315C60.6481 98.5711 61.3212 98.4118 63.7199 95.9006C63.9157 95.6985 64.0748 95.4535 64.2706 95.2514C66.7488 92.6238 69.1048 89.8614 71.7421 87.4053C77.6961 81.8622 83.7723 76.4417 89.8364 71.0272C94.3218 67.0215 98.85 63.0587 103.415 59.1448C106.168 56.7806 106.468 57.142 103.831 54.0121C100.086 49.5715 95.6496 45.7802 91.0786 42.1848C87.5724 39.4286 84.0845 36.6479 80.621 33.8365C76.2764 30.3085 71.9991 26.7009 67.6239 23.2097C65.2987 21.3538 62.8203 19.6879 60.4461 17.8933C59.0387 16.8275 58.641 16.6683 57.2519 17.6728C53.9292 20.0921 50.5086 22.3706 47.5531 25.2677C45.0748 27.6993 42.5415 30.0696 39.9959 32.4339C34.9538 37.1072 29.8871 41.7561 24.8327 46.411C23.9026 47.2685 22.9419 48.1015 22.0362 48.9835C19.558 51.4029 17.0613 53.8161 14.6443 56.2967C13.6162 57.3318 12.7718 58.5384 11.6887 59.8676Z" fill="black"/>
<path id="Vector_3" d="M12.2949 63.0219C10.4836 61.313 10.349 58.4404 12.044 56.6152C12.1296 56.5233 12.2153 56.4315 12.301 56.3457C14.8527 53.7304 17.4778 51.1885 20.0968 48.6344C21.0514 47.7034 22.0671 46.8275 23.0462 45.921C28.376 41.0149 33.718 36.115 39.0355 31.1844C41.7218 28.6977 44.3959 26.1926 47.0027 23.6323C50.1173 20.576 53.7277 18.175 57.2278 15.627C58.6903 14.5613 59.1125 14.7328 60.5934 15.8536C63.0961 17.7462 65.709 19.5041 68.1628 21.458C72.7705 25.1391 77.2864 28.9427 81.8635 32.6605C86.3182 36.2742 90.8036 39.839 95.3196 43.3731C99.6642 46.7724 103.642 50.6311 107.136 54.9002C109.014 57.1848 108.476 57.1297 105.893 59.3469C101.078 63.4751 96.3047 67.6524 91.5807 71.8724C85.1801 77.587 78.7795 83.2955 72.5012 89.1387C69.717 91.7295 67.2388 94.645 64.6259 97.4135C64.4178 97.6279 64.2526 97.8851 64.0445 98.0995C61.5173 100.745 60.8075 100.917 57.9132 98.761C55.1596 96.7153 52.5895 94.4184 49.9154 92.2624C47.4188 90.2473 44.9283 88.2261 42.3705 86.2906C38.1483 83.0933 33.8771 79.9574 29.6243 76.7969C25.7325 73.9059 21.7367 71.1375 17.9735 68.0811C15.9847 66.4886 14.1184 64.7491 12.2949 63.0219Z" fill="#EEC149"/>
<path id="Vector_4" d="M72.7033 55.4392C73.8965 55.3902 74.9919 55.3412 76.0872 55.2922C76.2891 55.2861 76.4911 55.2922 76.6869 55.2493C78.1249 54.9615 79.3182 55.4637 80.3278 56.4254C81.0988 57.1665 81.8453 57.9443 82.5184 58.7712C83.7668 60.3086 84.0054 62.1338 83.7484 64.0264C83.2222 67.8851 81.3191 70.9599 78.2228 73.2873C77.7027 73.6793 77.0602 73.9856 76.4299 74.151C74.3127 74.6961 72.1342 74.8308 70.0415 74.1999C68.371 73.6977 66.8289 72.7851 65.6846 71.407C64.9932 70.574 64.883 69.496 64.8402 68.4425C64.7729 66.6847 64.9443 64.9451 65.4154 63.2424C65.5439 62.7769 65.6051 62.2869 65.703 61.8092C65.6235 61.7724 65.5439 61.7296 65.4644 61.6928C65.0054 62.2073 64.5343 62.7157 64.0937 63.2424C63.6409 63.7814 63.2553 64.3694 62.7719 64.8717C62.3681 65.2943 62.0621 65.7292 61.8724 66.2927C61.4441 67.5666 60.9668 68.8284 60.4222 70.0472C60.1835 70.5801 59.7797 71.0824 59.3452 71.4866C57.7114 72.9872 54.9088 71.848 54.6029 69.9798C54.505 69.3919 54.5355 68.7794 54.5172 68.173C54.5049 67.6401 54.5172 67.1072 54.5172 66.3845C54.303 66.654 54.1746 66.7765 54.095 66.9235C53.7829 67.5176 53.4953 68.1301 53.1893 68.7242C52.1735 70.6965 50.503 72.0869 48.8202 73.416C48.1104 73.9733 47.1375 74.3102 46.2318 74.5001C43.0682 75.1554 40.2779 74.2796 38.0016 72.0256C37.3346 71.3641 36.894 70.4147 36.5269 69.5205C36.1291 68.5344 35.9088 67.4686 35.6702 66.4274C35.4744 65.5883 35.6579 64.7675 35.8354 63.9345C36.2148 62.1767 37.1143 60.7006 38.0934 59.2428C38.8522 58.1097 39.9658 57.4176 41.1224 56.799C42.3095 56.162 43.5516 55.6659 44.9346 55.6536C45.369 55.6536 45.626 55.4086 45.7851 55.0473C46.2624 53.9815 46.9234 53.0321 47.3639 51.9235C48.4225 49.2469 49.1323 46.4172 50.6621 43.9366C50.8701 43.5997 50.9191 43.1709 51.0966 42.8096C52.0695 40.7883 53.3791 39.0305 55.5452 38.2404C57.075 37.683 58.7088 37.5789 60.2386 38.3629C62.0621 39.3 63.8856 40.2371 65.654 41.2783C67.7774 42.5217 69.6927 44.0652 71.3694 45.8598C72.4892 47.0603 73.0337 48.5241 72.6299 50.2269C72.532 50.6434 72.5136 51.0905 72.5198 51.5193C72.532 52.5299 72.5748 53.5405 72.6176 54.5511C72.6299 54.8819 72.6788 55.2065 72.7033 55.4392ZM57.0689 69.643C57.1668 69.6736 57.2708 69.7104 57.3687 69.741C57.6319 69.4531 57.9684 69.202 58.1519 68.8712C58.4885 68.2587 58.7883 67.6095 59.0025 66.948C59.749 64.645 60.4528 62.3359 61.4747 60.1248C62.1049 58.7651 62.7352 57.3869 62.9555 55.8557C63.0779 55.0105 62.8637 54.3123 62.4232 53.663C62.1233 53.222 61.75 52.8178 61.3401 52.4748C60.0306 51.36 59.8776 49.4858 60.667 47.9607C60.7894 47.7218 61.1993 47.5319 61.493 47.5135C61.8785 47.4829 62.313 47.5687 62.6679 47.7341C64.0018 48.3588 65.342 48.9897 66.627 49.7185C67.3368 50.1228 68.0344 50.1902 68.7626 50.0248C70.3719 49.6573 70.6718 48.8365 69.6988 47.489C68.7443 46.1661 67.606 45.0329 66.1925 44.1938C64.5159 43.2016 62.8637 42.1603 61.1748 41.1926C60.4834 40.7945 59.7185 40.5188 58.972 40.2371C58.7027 40.1391 58.3722 40.1636 58.0785 40.1942C56.4692 40.3719 55.2699 41.2538 54.3153 42.4972C53.991 42.9137 53.6911 43.3976 53.5565 43.8998C53.0915 45.6393 51.99 47.0725 51.3414 48.714C51.0232 49.5225 50.5336 50.2698 50.2277 51.0783C49.5851 52.7871 49.8789 53.6079 51.3903 54.5695C52.0695 54.9982 52.7732 55.4147 53.4953 55.7639C54.2785 56.1436 55.123 56.4008 55.9062 56.7806C56.9649 57.3012 57.638 58.1771 57.8338 59.3408C57.9501 60.0268 57.9807 60.7496 57.9072 61.4356C57.7053 63.3772 57.4115 65.3065 57.1913 67.242C57.0995 68.0444 57.1056 68.8467 57.0689 69.643ZM69.5764 60.2167C69.0685 61.0191 68.5423 61.5581 68.3587 62.2012C67.8141 64.0754 67.5142 65.9925 67.4163 67.9648C67.2817 70.5434 69.5581 72.3135 71.6447 72.5769C74.0618 72.8831 76.1606 72.0011 77.7516 70.133C78.8224 68.8774 79.7709 67.5421 80.4318 65.9986C81.5394 63.4016 81.3068 61.0558 79.5139 58.8325C78.6328 57.7361 77.5497 57.3441 76.1913 57.2767C75.0225 57.2216 74.0373 57.7361 72.9726 58.0056C72.6544 58.0852 72.4953 58.3486 72.5075 58.7038C72.532 59.2428 72.5014 59.788 72.5564 60.3208C72.6849 61.5826 73.1683 62.6299 74.3004 63.3466C74.8205 63.6712 75.2244 64.1795 75.665 64.5899C75.1265 65.429 74.5451 65.6985 73.7558 65.4597C72.1587 64.9819 71.2531 63.7079 70.4454 62.3911C70.0843 61.8031 69.9191 61.0926 69.5764 60.2167ZM51.1027 66.6173C50.8396 66.5744 50.6499 66.5009 50.4663 66.5193C49.0283 66.6479 47.5903 66.8255 46.1523 66.9296C45.1181 67.0031 44.0718 67.0582 43.0376 66.997C41.8689 66.9235 41.4284 66.262 41.7771 65.1595C42.2055 63.8181 42.7256 62.5013 43.2029 61.1722C43.4966 60.3637 43.7842 59.5491 44.0534 58.8079C43.619 58.2996 43.2151 58.3241 42.7746 58.5078C41.7404 58.9488 40.7919 59.5123 40.1861 60.4984C39.923 60.9272 39.7272 61.3927 39.4641 61.8214C38.7787 62.9423 38.4667 64.1612 38.3932 65.4597C38.2953 67.1685 38.9317 68.6814 39.666 70.1698C40.8164 72.485 43.6679 73.2077 45.6995 72.289C46.8805 71.7561 47.7555 70.9109 48.6734 70.0901C49.7197 69.1469 50.5704 68.0382 51.1027 66.6173ZM51.8982 64.0876C51.9532 61.2702 50.7172 59.4878 47.5291 58.0668C46.8866 58.7773 45.6016 61.9991 44.8856 64.7553C47.2538 64.6083 49.5423 64.1979 51.8982 64.0876ZM48.7529 55.9415C50.1787 57.0072 51.5678 57.9076 52.7794 58.9917C54.046 60.131 54.4438 61.7785 54.8354 63.4078C54.9639 63.2608 55.0557 63.1199 55.0741 62.9729C55.172 62.0052 55.2331 61.0313 55.3555 60.0636C55.484 59.0652 55.0618 58.4772 54.1501 58.122C52.3877 57.436 50.7967 56.4376 49.2792 55.3106C49.2118 55.2616 49.0956 55.2616 48.9488 55.231C48.8753 55.5066 48.808 55.7577 48.7529 55.9415ZM69.2032 55.1759C69.1603 55.084 69.1236 54.986 69.0808 54.8941C67.9426 54.9615 66.7983 55.0288 65.7458 55.0901C65.4766 56.3886 65.2196 57.6197 64.9687 58.8447C65.0176 58.8753 65.0666 58.9121 65.1217 58.9427C66.4801 57.6871 67.8447 56.4315 69.2032 55.1759ZM67.1043 52.4564C67.1226 52.3951 67.1349 52.3277 67.1533 52.2665C66.4679 51.8929 65.7887 51.5009 65.0972 51.1518C64.3813 50.7904 63.7816 50.1412 62.8025 50.2085C62.876 50.4596 62.8821 50.6863 62.9983 50.8272C63.4817 51.4151 63.9774 51.9909 64.5159 52.5299C64.6444 52.6585 64.9504 52.6462 65.1768 52.6462C65.6724 52.6401 66.1742 52.6095 66.6698 52.5727C66.8167 52.5605 66.9574 52.4931 67.1043 52.4564Z" fill="black"/>
<path id="Vector_5" d="M59.6632 37.1012C58.7759 36.9297 57.8703 36.8194 57.0136 36.5622C56.4935 36.4029 56.0284 36.0232 55.5633 35.717C55.3737 35.5884 55.2574 35.325 55.0555 35.2392C54.2355 34.9024 54.1559 34.2225 54.1927 33.4875C54.315 31.2335 55.2574 29.4205 57.1544 28.1526C57.9866 27.5953 58.7943 26.9828 59.8651 26.9215C62.0986 26.7929 64.7482 28.4589 65.5376 30.5598C66.0271 31.8705 65.6967 33.12 64.9746 34.2102C64.3627 35.129 63.5427 35.9007 62.5208 36.4091C61.6213 36.8562 60.679 37.0522 59.6632 37.1012ZM58.7086 34.7921C60.422 34.7799 61.7192 33.9591 62.7411 32.6729C63.3347 31.9256 63.2674 31.062 62.6677 30.1433C62.1537 29.3531 61.6336 29.1449 60.5872 29.3715C59.5041 29.6043 58.5617 30.1861 57.8642 30.9885C57.1176 31.8399 56.7933 32.9056 57.2094 34.0755C57.3379 34.4368 57.546 34.6512 57.907 34.7064C58.1702 34.7492 58.4394 34.7615 58.7086 34.7921Z" fill="black"/>
</g>
</g>
</svg>
