<svg width="102" height="99" viewBox="0 0 102 99" fill="none" xmlns="http://www.w3.org/2000/svg">
<g id="Group">
<path id="Vector" d="M97.8106 50.238C97.6305 56.2556 96.587 61.128 94.3835 65.7513C93.732 67.1245 93.3136 68.609 92.7998 70.0458C92.1482 71.8697 91.0783 73.3754 89.6269 74.6797C88.6629 75.5492 87.969 76.7156 87.058 77.654C82.8417 82.0122 78.4664 86.2006 73.1908 89.281C68.9374 91.7623 64.435 93.5915 59.4613 94.0527C56.7758 94.3019 54.1008 94.7155 51.41 94.9488C50.1865 95.0548 48.9311 94.9859 47.7075 94.8374C41.8492 94.1376 36.3511 92.3137 31.1389 89.5408C29.0891 88.4486 26.9226 87.5473 24.7456 86.7308C19.8248 84.8858 15.9369 81.6887 12.6264 77.707C11.7842 76.6997 11.0479 75.6022 10.2481 74.5577C7.75857 71.3183 6.07417 67.6282 5.21078 63.7154C3.8283 57.4538 3.45752 51.0651 5.3432 44.83C6.75217 40.1591 8.41538 35.5464 10.2693 31.0292C11.5988 27.7951 13.6752 24.9586 16.17 22.4296C18.8873 19.6832 21.2497 16.6028 24.359 14.2329C28.4746 11.0995 33.1517 9.14306 37.9189 7.2768C41.8757 5.72335 45.9861 5.46355 50.1229 5.06591C55.7058 4.52512 61.2145 5.11893 66.6968 5.99374C68.6831 6.31186 70.5582 7.26089 72.5181 7.81229C74.4302 8.35308 76.3106 8.85676 77.6031 10.5534C77.7937 10.8026 78.2387 10.9033 78.5883 10.9722C81.1149 11.4653 82.5821 13.3422 84.3301 15.0123C87.3069 17.8594 89.1926 21.3798 91.0094 24.9215C92.1271 27.0952 92.6885 29.5606 93.4672 31.9041C93.7638 32.8001 93.8326 33.7968 94.2458 34.6345C96.8254 39.841 97.4133 45.4769 97.8106 50.238Z" fill="#E4E8EA"/>
<g id="Group_2">
<g id="Clip path group">
<mask id="mask0_68_46" style="mask-type:luminance" maskUnits="userSpaceOnUse" x="4" y="4" width="94" height="91">
<g id="SVGID_2_">
<path id="Vector_2" d="M97.6187 50.0203C97.4439 56.0114 96.4004 60.8627 94.2075 65.47C93.556 66.8379 93.1428 68.3171 92.6343 69.7486C91.9881 71.5672 90.9182 73.0623 89.4774 74.3613C88.5134 75.2255 87.8248 76.3866 86.919 77.325C82.7186 81.6672 78.3646 85.8345 73.1101 88.9043C68.8779 91.375 64.3914 93.1935 59.4389 93.6548C56.764 93.904 54.0996 94.3176 51.4194 94.5455C50.2011 94.6516 48.9458 94.5826 47.7275 94.4342C41.8957 93.7396 36.4187 91.9211 31.2278 89.1588C29.1832 88.0719 27.0274 87.1759 24.8609 86.3594C19.9613 84.5197 16.0893 81.3385 12.7894 77.3727C11.9525 76.3654 11.2162 75.2785 10.4217 74.2393C7.94274 71.0105 6.26893 67.3416 5.40554 63.4394C4.02836 57.2043 3.65758 50.8421 5.53796 44.6283C6.94163 39.9732 8.59426 35.3818 10.4429 30.8858C11.7671 27.6676 13.8329 24.8363 16.3171 22.3233C19.0185 19.5875 21.3756 16.5177 24.4743 14.1584C28.574 11.0355 33.23 9.08975 37.9813 7.22879C41.9221 5.68064 46.0166 5.42085 50.1376 5.02321C55.6993 4.48772 61.1868 5.07623 66.6426 5.94574C68.6183 6.25855 70.4881 7.20759 72.4427 7.75898C74.3496 8.29447 76.2193 8.80345 77.5065 10.4894C77.6972 10.7386 78.1421 10.8341 78.4864 10.903C81.0024 11.3961 82.4643 13.2623 84.2017 14.9271C87.168 17.7583 89.0431 21.2682 90.8546 24.7992C91.9669 26.9677 92.5284 29.4172 93.3017 31.75C93.5984 32.646 93.6672 33.6375 94.0751 34.4699C96.6335 39.671 97.2214 45.2804 97.6187 50.0203Z" fill="white"/>
</g>
</mask>
<g mask="url(#mask0_68_46)">
<path id="Vector_3" d="M19.3423 82.5318C20.0891 78.6455 21.9854 76.5459 24.3531 74.8228C26.0746 73.5716 26.6996 73.72 28.8343 75.4803C28.866 76.5724 27.9921 77.0549 27.2823 77.5851C26.4507 78.2107 25.529 78.7038 24.6656 79.2817C23.8976 79.8013 23.1878 80.4004 22.4039 80.8935C21.6464 81.3707 20.8254 81.7471 19.3423 82.5318Z" fill="#EEC149"/>
</g>
</g>
<g id="Clip path group_2">
<mask id="mask1_68_46" style="mask-type:luminance" maskUnits="userSpaceOnUse" x="4" y="4" width="94" height="91">
<g id="SVGID_2__2">
<path id="Vector_4" d="M97.6187 50.0203C97.4439 56.0114 96.4004 60.8627 94.2075 65.47C93.556 66.8379 93.1428 68.3171 92.6343 69.7486C91.9881 71.5672 90.9182 73.0623 89.4774 74.3613C88.5134 75.2255 87.8248 76.3866 86.919 77.325C82.7186 81.6672 78.3646 85.8345 73.1101 88.9043C68.8779 91.375 64.3914 93.1935 59.4389 93.6548C56.764 93.904 54.0996 94.3176 51.4194 94.5455C50.2011 94.6516 48.9458 94.5826 47.7275 94.4342C41.8957 93.7396 36.4187 91.9211 31.2278 89.1588C29.1832 88.0719 27.0274 87.1759 24.8609 86.3594C19.9613 84.5197 16.0893 81.3385 12.7894 77.3727C11.9525 76.3654 11.2162 75.2785 10.4217 74.2393C7.94274 71.0105 6.26893 67.3416 5.40554 63.4394C4.02836 57.2043 3.65758 50.8421 5.53796 44.6283C6.94163 39.9732 8.59426 35.3818 10.4429 30.8858C11.7671 27.6676 13.8329 24.8363 16.3171 22.3233C19.0185 19.5875 21.3756 16.5177 24.4743 14.1584C28.574 11.0355 33.23 9.08975 37.9813 7.22879C41.9221 5.68064 46.0166 5.42085 50.1376 5.02321C55.6993 4.48772 61.1868 5.07623 66.6426 5.94574C68.6183 6.25855 70.4881 7.20759 72.4427 7.75898C74.3496 8.29447 76.2193 8.80345 77.5065 10.4894C77.6972 10.7386 78.1421 10.8341 78.4864 10.903C81.0024 11.3961 82.4643 13.2623 84.2017 14.9271C87.168 17.7583 89.0431 21.2682 90.8546 24.7992C91.9669 26.9677 92.5284 29.4172 93.3017 31.75C93.5984 32.646 93.6672 33.6375 94.0751 34.4699C96.6335 39.671 97.2214 45.2804 97.6187 50.0203Z" fill="white"/>
</g>
</mask>
<g mask="url(#mask1_68_46)">
<path id="Vector_5" d="M63.275 -4.33447C64.1542 -4.06408 65.1818 -3.82549 66.1511 -3.44376C69.0009 -2.31445 71.6016 -0.692078 73.8634 1.33854C77.4229 4.53558 80.8605 7.88637 84.2346 11.2849C86.4858 13.5541 86.6288 15.9399 84.9391 18.6015C83.991 20.0913 82.8151 21.3213 81.3002 22.3181C76.9144 25.2076 72.4544 28.0176 68.3229 31.2465C63.99 34.6344 59.4983 37.7837 55.0436 40.9966C51.7278 43.3825 48.502 45.9062 45.2656 48.4034C40.8268 51.8284 36.5258 55.4496 31.9599 58.689C26.5147 62.5541 21.382 66.7797 16.3076 71.0954C13.9082 73.1367 11.3233 74.9658 8.9397 77.0229C7.89621 77.9243 6.96926 78.0409 5.75628 77.5796C-2.26847 74.5311 -4.9275 72.9405 -11.5168 67.1773C-12.9258 65.9473 -14.3612 64.7544 -15.7437 63.4978C-16.6071 62.7132 -17.4387 61.8861 -18.2014 61.0006C-19.3085 59.7176 -19.4992 58.2702 -18.5881 56.7856C-17.7936 55.492 -17.0838 54.1029 -16.0774 52.9842C-13.5826 50.2007 -11.0454 47.4437 -8.33339 44.8776C-5.53664 42.232 -2.54921 39.7719 0.422333 37.3224C3.39917 34.873 6.46076 32.5242 9.49057 30.1437C13.8075 26.7505 18.1615 23.3997 22.4573 19.98C28.5063 15.1659 35.0215 11.041 41.526 6.89492C46.2561 3.88345 51.071 1.00983 55.8382 -1.93802C57.6603 -3.06202 59.6625 -3.66644 61.7389 -4.06408C62.1944 -4.1436 62.6552 -4.22313 63.275 -4.33447ZM81.4697 14.2486C81.5385 13.0822 80.8129 12.2816 80.1455 11.4757C77.1527 7.84926 73.5721 4.84309 69.9914 1.84222C69.1968 1.17949 68.1957 0.755337 67.2741 0.251657C65.5208 -0.702681 63.6934 -0.792813 61.866 -0.0399456C60.5735 0.490243 59.2864 1.06815 58.084 1.7733C52.1462 5.26724 46.1449 8.66045 40.3554 12.3824C33.8773 16.539 27.3569 20.6745 21.6945 25.9711C20.7623 26.8459 19.7188 27.6147 18.6859 28.3782C14.9357 31.151 11.0902 33.8126 7.41949 36.6915C3.65872 39.6447 -0.022604 42.7197 -3.5821 45.9168C-6.35236 48.4087 -8.94253 51.1126 -11.4903 53.8431C-12.5073 54.9353 -13.2065 56.335 -14.0116 57.6233C-14.7373 58.7845 -14.4513 59.866 -13.5773 60.8204C-13.1059 61.3347 -12.5868 61.8118 -12.0518 62.2625C-8.85778 64.993 -5.62669 67.6757 -2.45916 70.4433C-0.843618 71.8589 1.03677 72.7125 2.98072 73.5396C4.65453 74.2501 6.11117 74.197 7.55191 73.0518C10.2003 70.947 12.8912 68.9005 15.5396 66.7956C17.9126 64.9081 20.2061 62.9199 22.6162 61.0749C25.8579 58.5883 29.2161 56.2502 32.4525 53.7583C41.4201 46.8552 50.091 39.581 59.4983 33.2347C65.3778 29.2689 70.7329 24.5131 76.3158 20.1072C77.4123 19.243 78.4929 18.3576 79.5681 17.4669C80.5851 16.6292 81.3743 15.6377 81.4697 14.2486Z" fill="#CE4530"/>
</g>
</g>
<g id="Clip path group_3">
<mask id="mask2_68_46" style="mask-type:luminance" maskUnits="userSpaceOnUse" x="4" y="4" width="94" height="91">
<g id="SVGID_2__3">
<path id="Vector_6" d="M97.6187 50.0203C97.4439 56.0114 96.4004 60.8627 94.2075 65.47C93.556 66.8379 93.1428 68.3171 92.6343 69.7486C91.9881 71.5672 90.9182 73.0623 89.4774 74.3613C88.5134 75.2255 87.8248 76.3866 86.919 77.325C82.7186 81.6672 78.3646 85.8345 73.1101 88.9043C68.8779 91.375 64.3914 93.1935 59.4389 93.6548C56.764 93.904 54.0996 94.3176 51.4194 94.5455C50.2011 94.6516 48.9458 94.5826 47.7275 94.4342C41.8957 93.7396 36.4187 91.9211 31.2278 89.1588C29.1832 88.0719 27.0274 87.1759 24.8609 86.3594C19.9613 84.5197 16.0893 81.3385 12.7894 77.3727C11.9525 76.3654 11.2162 75.2785 10.4217 74.2393C7.94274 71.0105 6.26893 67.3416 5.40554 63.4394C4.02836 57.2043 3.65758 50.8421 5.53796 44.6283C6.94163 39.9732 8.59426 35.3818 10.4429 30.8858C11.7671 27.6676 13.8329 24.8363 16.3171 22.3233C19.0185 19.5875 21.3756 16.5177 24.4743 14.1584C28.574 11.0355 33.23 9.08975 37.9813 7.22879C41.9221 5.68064 46.0166 5.42085 50.1376 5.02321C55.6993 4.48772 61.1868 5.07623 66.6426 5.94574C68.6183 6.25855 70.4881 7.20759 72.4427 7.75898C74.3496 8.29447 76.2193 8.80345 77.5065 10.4894C77.6972 10.7386 78.1421 10.8341 78.4864 10.903C81.0024 11.3961 82.4643 13.2623 84.2017 14.9271C87.168 17.7583 89.0431 21.2682 90.8546 24.7992C91.9669 26.9677 92.5284 29.4172 93.3017 31.75C93.5984 32.646 93.6672 33.6375 94.0751 34.4699C96.6335 39.671 97.2214 45.2804 97.6187 50.0203Z" fill="white"/>
</g>
</mask>
<g mask="url(#mask2_68_46)">
<path id="Vector_7" d="M23.8716 94.2964C25.2647 92.5945 26.7796 91.2001 28.3898 89.933C31.3455 87.6001 34.3382 85.3097 37.3892 83.0988C41.9657 79.7851 46.6057 76.5616 51.2087 73.2903C55.4462 70.2842 59.6731 67.2621 63.9106 64.2559C68.3706 61.0907 72.8199 57.9043 77.317 54.7921C81.671 51.7806 85.9456 48.6631 90.0665 45.3388C90.9034 44.6655 91.7509 43.9974 92.6408 43.393C93.0699 43.1014 93.5889 42.8999 94.0921 42.7727C95.7924 42.3432 97.1908 42.7462 98.4303 44.1088C99.5267 45.3123 100.687 46.378 100.967 48.1117C101.206 49.5591 100.978 50.7944 99.8604 51.7753C98.7163 52.7773 97.5987 53.8324 96.3751 54.7284C91.6715 58.1747 86.9626 61.605 82.2007 64.9664C79.1232 67.1349 75.9451 69.1602 72.8146 71.2597C67.2264 75.0028 61.6859 78.8149 56.0553 82.4838C50.2712 86.2535 44.3811 89.8693 38.5704 93.6019C36.5364 94.9114 34.6083 96.3907 32.6008 97.7426C30.1643 99.3862 27.8919 99.1847 25.7943 97.1647C25.0157 96.4172 24.3589 95.5689 23.8716 94.2964ZM27.4258 95.1182C27.9396 95.9506 28.5911 96.1945 29.3327 95.8127C30.3655 95.2826 31.3772 94.694 32.3466 94.0419C33.835 93.0399 35.2651 91.9583 36.7377 90.935C39.3172 89.1483 41.9975 87.5259 44.6724 85.8876C48.8781 83.3109 52.9408 80.5062 57.0512 77.7757C62.3586 74.2553 67.6449 70.703 72.947 67.1826C75.5637 65.4436 78.2333 63.7947 80.8182 62.0079C84.4307 59.5107 87.9901 56.9287 91.5655 54.3679C92.5878 53.6363 93.5995 52.8887 94.5636 52.0881C95.5276 51.2875 96.4651 50.4445 97.3391 49.5432C98.0224 48.8434 98.0701 47.6716 97.5881 46.7862C97.1855 46.0387 96.4492 45.8213 95.2204 46.0758C93.8591 46.3621 92.7997 47.1786 91.7139 47.9951C87.916 50.8528 84.134 53.7264 80.2832 56.5099C75.3465 60.0833 70.341 63.572 65.3778 67.1189C62.7506 68.9958 60.1816 70.9575 57.5385 72.8132C52.766 76.164 47.9511 79.4564 43.1734 82.7966C40.7474 84.4932 38.3532 86.2322 35.9696 87.9819C33.8721 89.5194 31.7745 91.0517 29.7458 92.674C28.9195 93.3315 28.2733 94.2116 27.4258 95.1182Z" fill="black"/>
</g>
</g>
<g id="Clip path group_4">
<mask id="mask3_68_46" style="mask-type:luminance" maskUnits="userSpaceOnUse" x="4" y="4" width="94" height="91">
<g id="SVGID_2__4">
<path id="Vector_8" d="M97.6187 50.0203C97.4439 56.0114 96.4004 60.8627 94.2075 65.47C93.556 66.8379 93.1428 68.3171 92.6343 69.7486C91.9881 71.5672 90.9182 73.0623 89.4774 74.3613C88.5134 75.2255 87.8248 76.3866 86.919 77.325C82.7186 81.6672 78.3646 85.8345 73.1101 88.9043C68.8779 91.375 64.3914 93.1935 59.4389 93.6548C56.764 93.904 54.0996 94.3176 51.4194 94.5455C50.2011 94.6516 48.9458 94.5826 47.7275 94.4342C41.8957 93.7396 36.4187 91.9211 31.2278 89.1588C29.1832 88.0719 27.0274 87.1759 24.8609 86.3594C19.9613 84.5197 16.0893 81.3385 12.7894 77.3727C11.9525 76.3654 11.2162 75.2785 10.4217 74.2393C7.94274 71.0105 6.26893 67.3416 5.40554 63.4394C4.02836 57.2043 3.65758 50.8421 5.53796 44.6283C6.94163 39.9732 8.59426 35.3818 10.4429 30.8858C11.7671 27.6676 13.8329 24.8363 16.3171 22.3233C19.0185 19.5875 21.3756 16.5177 24.4743 14.1584C28.574 11.0355 33.23 9.08975 37.9813 7.22879C41.9221 5.68064 46.0166 5.42085 50.1376 5.02321C55.6993 4.48772 61.1868 5.07623 66.6426 5.94574C68.6183 6.25855 70.4881 7.20759 72.4427 7.75898C74.3496 8.29447 76.2193 8.80345 77.5065 10.4894C77.6972 10.7386 78.1421 10.8341 78.4864 10.903C81.0024 11.3961 82.4643 13.2623 84.2017 14.9271C87.168 17.7583 89.0431 21.2682 90.8546 24.7992C91.9669 26.9677 92.5284 29.4172 93.3017 31.75C93.5984 32.646 93.6672 33.6375 94.0751 34.4699C96.6335 39.671 97.2214 45.2804 97.6187 50.0203Z" fill="white"/>
</g>
</mask>
<g mask="url(#mask3_68_46)">
<path id="Vector_9" d="M33.9507 75.9892C32.7218 78.6083 30.7991 80.5011 28.2619 81.8849C25.6187 83.3323 23.0233 84.8752 20.4755 86.4869C18.2402 87.9025 17.1649 87.8601 15.3216 85.962C14.9191 85.5485 14.5536 85.0925 14.2093 84.7002C14.1616 84.4086 14.0504 84.1647 14.0981 83.9579C15.0462 79.4884 17.3821 75.7877 20.6344 72.6755C22.8909 70.5124 25.5605 70.2154 28.3996 71.4508C30.6402 72.421 32.8966 73.3966 33.9507 75.9892ZM19.342 82.5317C20.8251 81.747 21.6461 81.3706 22.4035 80.8934C23.1875 80.4057 23.8973 79.8013 24.6653 79.2817C25.5287 78.6985 26.4556 78.2054 27.282 77.5851C27.9917 77.0496 28.8657 76.5724 28.8339 75.4802C26.6993 73.72 26.069 73.5715 24.3528 74.8228C21.9851 76.5459 20.0888 78.6454 19.342 82.5317Z" fill="#EEC149"/>
</g>
</g>
<g id="Clip path group_5">
<mask id="mask4_68_46" style="mask-type:luminance" maskUnits="userSpaceOnUse" x="4" y="4" width="94" height="91">
<g id="SVGID_2__5">
<path id="Vector_10" d="M97.6187 50.0203C97.4439 56.0114 96.4004 60.8627 94.2075 65.47C93.556 66.8379 93.1428 68.3171 92.6343 69.7486C91.9881 71.5672 90.9182 73.0623 89.4774 74.3613C88.5134 75.2255 87.8248 76.3866 86.919 77.325C82.7186 81.6672 78.3646 85.8345 73.1101 88.9043C68.8779 91.375 64.3914 93.1935 59.4389 93.6548C56.764 93.904 54.0996 94.3176 51.4194 94.5455C50.2011 94.6516 48.9458 94.5826 47.7275 94.4342C41.8957 93.7396 36.4187 91.9211 31.2278 89.1588C29.1832 88.0719 27.0274 87.1759 24.8609 86.3594C19.9613 84.5197 16.0893 81.3385 12.7894 77.3727C11.9525 76.3654 11.2162 75.2785 10.4217 74.2393C7.94274 71.0105 6.26893 67.3416 5.40554 63.4394C4.02836 57.2043 3.65758 50.8421 5.53796 44.6283C6.94163 39.9732 8.59426 35.3818 10.4429 30.8858C11.7671 27.6676 13.8329 24.8363 16.3171 22.3233C19.0185 19.5875 21.3756 16.5177 24.4743 14.1584C28.574 11.0355 33.23 9.08975 37.9813 7.22879C41.9221 5.68064 46.0166 5.42085 50.1376 5.02321C55.6993 4.48772 61.1868 5.07623 66.6426 5.94574C68.6183 6.25855 70.4881 7.20759 72.4427 7.75898C74.3496 8.29447 76.2193 8.80345 77.5065 10.4894C77.6972 10.7386 78.1421 10.8341 78.4864 10.903C81.0024 11.3961 82.4643 13.2623 84.2017 14.9271C87.168 17.7583 89.0431 21.2682 90.8546 24.7992C91.9669 26.9677 92.5284 29.4172 93.3017 31.75C93.5984 32.646 93.6672 33.6375 94.0751 34.4699C96.6335 39.671 97.2214 45.2804 97.6187 50.0203Z" fill="white"/>
</g>
</mask>
<g mask="url(#mask4_68_46)">
<path id="Vector_11" d="M88.1751 22.249C91.5121 23.0178 94.6425 24.391 96.846 27.3653C97.381 28.0864 97.2433 28.9029 96.507 29.5232C95.9773 29.9686 95.4053 30.3874 94.812 30.7479C92.3225 32.2484 89.8277 33.7435 87.3117 35.1962C85.1029 36.4687 82.6822 35.9597 81.1196 33.9397C80.9131 33.6746 80.7277 33.3565 80.6429 33.0331C79.5465 28.7226 82.3909 23.7123 86.6231 22.4982C87.068 22.371 87.5394 22.3498 88.1751 22.249ZM91.7504 27.2434C91.3903 26.8458 91.2102 26.4481 90.9347 26.3633C88.477 25.6051 85.6379 27.5668 85.3889 30.1541C85.3465 30.6101 85.8815 31.0714 86.3053 30.9017C88.371 30.0852 90.1243 28.8234 91.7504 27.2434Z" fill="#EEC149"/>
</g>
</g>
<g id="Clip path group_6">
<mask id="mask5_68_46" style="mask-type:luminance" maskUnits="userSpaceOnUse" x="4" y="4" width="94" height="91">
<g id="SVGID_2__6">
<path id="Vector_12" d="M97.6187 50.0203C97.4439 56.0114 96.4004 60.8627 94.2075 65.47C93.556 66.8379 93.1428 68.3171 92.6343 69.7486C91.9881 71.5672 90.9182 73.0623 89.4774 74.3613C88.5134 75.2255 87.8248 76.3866 86.919 77.325C82.7186 81.6672 78.3646 85.8345 73.1101 88.9043C68.8779 91.375 64.3914 93.1935 59.4389 93.6548C56.764 93.904 54.0996 94.3176 51.4194 94.5455C50.2011 94.6516 48.9458 94.5826 47.7275 94.4342C41.8957 93.7396 36.4187 91.9211 31.2278 89.1588C29.1832 88.0719 27.0274 87.1759 24.8609 86.3594C19.9613 84.5197 16.0893 81.3385 12.7894 77.3727C11.9525 76.3654 11.2162 75.2785 10.4217 74.2393C7.94274 71.0105 6.26893 67.3416 5.40554 63.4394C4.02836 57.2043 3.65758 50.8421 5.53796 44.6283C6.94163 39.9732 8.59426 35.3818 10.4429 30.8858C11.7671 27.6676 13.8329 24.8363 16.3171 22.3233C19.0185 19.5875 21.3756 16.5177 24.4743 14.1584C28.574 11.0355 33.23 9.08975 37.9813 7.22879C41.9221 5.68064 46.0166 5.42085 50.1376 5.02321C55.6993 4.48772 61.1868 5.07623 66.6426 5.94574C68.6183 6.25855 70.4881 7.20759 72.4427 7.75898C74.3496 8.29447 76.2193 8.80345 77.5065 10.4894C77.6972 10.7386 78.1421 10.8341 78.4864 10.903C81.0024 11.3961 82.4643 13.2623 84.2017 14.9271C87.168 17.7583 89.0431 21.2682 90.8546 24.7992C91.9669 26.9677 92.5284 29.4172 93.3017 31.75C93.5984 32.646 93.6672 33.6375 94.0751 34.4699C96.6335 39.671 97.2214 45.2804 97.6187 50.0203Z" fill="white"/>
</g>
</mask>
<g mask="url(#mask5_68_46)">
<path id="Vector_13" d="M67.7292 38.5046C70.7061 38.6213 73.095 40.0104 75.2826 41.8077C76.2254 42.5818 76.4214 43.8595 75.1766 44.7556C72.0727 46.993 69.064 49.3735 65.8382 51.4147C63.4706 52.9099 61.0022 51.8071 59.9481 49.1773C58.9258 46.6271 59.3867 44.1193 60.4566 41.7494C61.0976 40.3285 62.4588 39.4802 63.9685 39.0984C65.192 38.7909 66.4739 38.6955 67.7292 38.5046ZM64.4081 47.1944C66.2461 46.5635 68.3225 45.1956 69.6626 43.7217C69.9433 43.4142 70.277 42.99 69.9168 42.4917C65.8488 41.4048 63.9049 42.9741 64.4081 47.1944Z" fill="#EEC149"/>
</g>
</g>
<g id="Clip path group_7">
<mask id="mask6_68_46" style="mask-type:luminance" maskUnits="userSpaceOnUse" x="4" y="4" width="94" height="91">
<g id="SVGID_2__7">
<path id="Vector_14" d="M97.6187 50.0203C97.4439 56.0114 96.4004 60.8627 94.2075 65.47C93.556 66.8379 93.1428 68.3171 92.6343 69.7486C91.9881 71.5672 90.9182 73.0623 89.4774 74.3613C88.5134 75.2255 87.8248 76.3866 86.919 77.325C82.7186 81.6672 78.3646 85.8345 73.1101 88.9043C68.8779 91.375 64.3914 93.1935 59.4389 93.6548C56.764 93.904 54.0996 94.3176 51.4194 94.5455C50.2011 94.6516 48.9458 94.5826 47.7275 94.4342C41.8957 93.7396 36.4187 91.9211 31.2278 89.1588C29.1832 88.0719 27.0274 87.1759 24.8609 86.3594C19.9613 84.5197 16.0893 81.3385 12.7894 77.3727C11.9525 76.3654 11.2162 75.2785 10.4217 74.2393C7.94274 71.0105 6.26893 67.3416 5.40554 63.4394C4.02836 57.2043 3.65758 50.8421 5.53796 44.6283C6.94163 39.9732 8.59426 35.3818 10.4429 30.8858C11.7671 27.6676 13.8329 24.8363 16.3171 22.3233C19.0185 19.5875 21.3756 16.5177 24.4743 14.1584C28.574 11.0355 33.23 9.08975 37.9813 7.22879C41.9221 5.68064 46.0166 5.42085 50.1376 5.02321C55.6993 4.48772 61.1868 5.07623 66.6426 5.94574C68.6183 6.25855 70.4881 7.20759 72.4427 7.75898C74.3496 8.29447 76.2193 8.80345 77.5065 10.4894C77.6972 10.7386 78.1421 10.8341 78.4864 10.903C81.0024 11.3961 82.4643 13.2623 84.2017 14.9271C87.168 17.7583 89.0431 21.2682 90.8546 24.7992C91.9669 26.9677 92.5284 29.4172 93.3017 31.75C93.5984 32.646 93.6672 33.6375 94.0751 34.4699C96.6335 39.671 97.2214 45.2804 97.6187 50.0203Z" fill="white"/>
</g>
</mask>
<g mask="url(#mask6_68_46)">
<path id="Vector_15" d="M54.5132 60.5606C54.3966 60.7886 54.2695 61.2658 53.9676 61.5892C53.3373 62.2732 52.6699 62.9412 51.9283 63.4979C50.1539 64.8287 48.2999 66.0428 46.5414 67.3895C45.5932 68.1105 44.6716 68.2696 43.6122 67.7818C40.5559 66.3715 38.9881 63.9008 38.8186 60.6137C38.7444 59.1716 39.576 57.8832 40.6354 56.9501C43.0772 54.8028 45.8846 53.8591 49.0521 55.1315C50.4452 55.6882 51.7747 56.4623 53.0248 57.2947C54.0418 57.9733 54.5079 59.0814 54.5132 60.5606ZM44.4385 63.3706C46.4672 62.5542 48.1305 61.2764 49.6824 59.4685C49.1898 59.0125 48.8561 58.4717 48.3953 58.318C47.0923 57.8885 45.9111 58.4664 44.8252 59.1185C43.4004 59.9721 43.3209 60.9424 44.4385 63.3706Z" fill="#EEC149"/>
</g>
</g>
<g id="Clip path group_8">
<mask id="mask7_68_46" style="mask-type:luminance" maskUnits="userSpaceOnUse" x="4" y="4" width="94" height="91">
<g id="SVGID_2__8">
<path id="Vector_16" d="M97.6187 50.0203C97.4439 56.0114 96.4004 60.8627 94.2075 65.47C93.556 66.8379 93.1428 68.3171 92.6343 69.7486C91.9881 71.5672 90.9182 73.0623 89.4774 74.3613C88.5134 75.2255 87.8248 76.3866 86.919 77.325C82.7186 81.6672 78.3646 85.8345 73.1101 88.9043C68.8779 91.375 64.3914 93.1935 59.4389 93.6548C56.764 93.904 54.0996 94.3176 51.4194 94.5455C50.2011 94.6516 48.9458 94.5826 47.7275 94.4342C41.8957 93.7396 36.4187 91.9211 31.2278 89.1588C29.1832 88.0719 27.0274 87.1759 24.8609 86.3594C19.9613 84.5197 16.0893 81.3385 12.7894 77.3727C11.9525 76.3654 11.2162 75.2785 10.4217 74.2393C7.94274 71.0105 6.26893 67.3416 5.40554 63.4394C4.02836 57.2043 3.65758 50.8421 5.53796 44.6283C6.94163 39.9732 8.59426 35.3818 10.4429 30.8858C11.7671 27.6676 13.8329 24.8363 16.3171 22.3233C19.0185 19.5875 21.3756 16.5177 24.4743 14.1584C28.574 11.0355 33.23 9.08975 37.9813 7.22879C41.9221 5.68064 46.0166 5.42085 50.1376 5.02321C55.6993 4.48772 61.1868 5.07623 66.6426 5.94574C68.6183 6.25855 70.4881 7.20759 72.4427 7.75898C74.3496 8.29447 76.2193 8.80345 77.5065 10.4894C77.6972 10.7386 78.1421 10.8341 78.4864 10.903C81.0024 11.3961 82.4643 13.2623 84.2017 14.9271C87.168 17.7583 89.0431 21.2682 90.8546 24.7992C91.9669 26.9677 92.5284 29.4172 93.3017 31.75C93.5984 32.646 93.6672 33.6375 94.0751 34.4699C96.6335 39.671 97.2214 45.2804 97.6187 50.0203Z" fill="white"/>
</g>
</mask>
<g mask="url(#mask7_68_46)">
<path id="Vector_17" d="M94.8707 4.72627C94.6747 6.65086 93.6153 7.98163 92.2805 9.10563C90.8663 10.2933 89.4414 11.465 88.0007 12.6102C80.6592 18.4422 73.5932 24.7727 65.9021 29.9792C53.5922 38.3137 42.1722 47.9684 30.392 57.0983C26.1386 60.3961 21.7422 63.4712 17.4835 66.7583C14.3213 69.1972 11.2967 71.8428 8.1769 74.3453C4.69685 77.1341 1.16385 79.8381 -2.3162 82.6216C-4.21247 84.1379 -6.06638 84.1379 -8.14804 83.0616C-10.5687 81.8104 -12.9099 80.522 -14.8857 78.4755C-18.7471 74.4726 -22.6985 70.5704 -26.6076 66.6152C-27.2591 65.9577 -27.8895 65.2685 -28.4615 64.5315C-29.5209 63.1637 -29.8228 61.6473 -28.8323 60.0673C-27.7412 58.323 -26.7718 56.4144 -25.4158 54.9457C-22.0311 51.2821 -18.5882 47.6556 -14.928 44.3367C-10.2297 40.0792 -5.38308 35.9968 -0.435808 32.0893C4.38434 28.2772 9.41636 24.778 14.3372 21.1197C15.6879 20.1123 17.0544 19.0997 18.2939 17.9333C25.7837 10.8659 34.301 5.46324 42.7601 0.0182018C50.3241 -4.84893 58.1422 -9.25479 65.8757 -13.8038C67.4382 -14.7263 69.112 -15.4527 70.7806 -16.126C73.143 -17.0804 75.463 -16.8577 77.6294 -15.4421C78.7735 -14.6945 80.0183 -14.0583 80.9876 -13.0934C85.3681 -8.74581 89.7486 -4.37706 93.3452 0.813484C94.1503 1.95869 95.0243 3.1039 94.8707 4.72627Z" fill="#CE4530"/>
</g>
</g>
<g id="Clip path group_9">
<mask id="mask8_68_46" style="mask-type:luminance" maskUnits="userSpaceOnUse" x="4" y="4" width="94" height="91">
<g id="SVGID_2__9">
<path id="Vector_18" d="M97.6187 50.0203C97.4439 56.0114 96.4004 60.8627 94.2075 65.47C93.556 66.8379 93.1428 68.3171 92.6343 69.7486C91.9881 71.5672 90.9182 73.0623 89.4774 74.3613C88.5134 75.2255 87.8248 76.3866 86.919 77.325C82.7186 81.6672 78.3646 85.8345 73.1101 88.9043C68.8779 91.375 64.3914 93.1935 59.4389 93.6548C56.764 93.904 54.0996 94.3176 51.4194 94.5455C50.2011 94.6516 48.9458 94.5826 47.7275 94.4342C41.8957 93.7396 36.4187 91.9211 31.2278 89.1588C29.1832 88.0719 27.0274 87.1759 24.8609 86.3594C19.9613 84.5197 16.0893 81.3385 12.7894 77.3727C11.9525 76.3654 11.2162 75.2785 10.4217 74.2393C7.94274 71.0105 6.26893 67.3416 5.40554 63.4394C4.02836 57.2043 3.65758 50.8421 5.53796 44.6283C6.94163 39.9732 8.59426 35.3818 10.4429 30.8858C11.7671 27.6676 13.8329 24.8363 16.3171 22.3233C19.0185 19.5875 21.3756 16.5177 24.4743 14.1584C28.574 11.0355 33.23 9.08975 37.9813 7.22879C41.9221 5.68064 46.0166 5.42085 50.1376 5.02321C55.6993 4.48772 61.1868 5.07623 66.6426 5.94574C68.6183 6.25855 70.4881 7.20759 72.4427 7.75898C74.3496 8.29447 76.2193 8.80345 77.5065 10.4894C77.6972 10.7386 78.1421 10.8341 78.4864 10.903C81.0024 11.3961 82.4643 13.2623 84.2017 14.9271C87.168 17.7583 89.0431 21.2682 90.8546 24.7992C91.9669 26.9677 92.5284 29.4172 93.3017 31.75C93.5984 32.646 93.6672 33.6375 94.0751 34.4699C96.6335 39.671 97.2214 45.2804 97.6187 50.0203Z" fill="white"/>
</g>
</mask>
<g mask="url(#mask8_68_46)">
<path id="Vector_19" d="M27.4253 95.1181C28.2728 94.2115 28.919 93.3314 29.7453 92.674C31.774 91.0569 33.8769 89.5193 35.9691 87.9818C38.358 86.2322 40.7522 84.4931 43.1729 82.7965C47.9507 79.4511 52.7655 76.1639 57.538 72.8131C60.1811 70.9574 62.7501 68.9957 65.3773 67.1189C70.3405 63.5719 75.3408 60.0833 80.2827 56.5098C84.1335 53.721 87.9155 50.8527 91.7134 47.995C92.7939 47.1785 93.8533 46.362 95.2199 46.0757C96.4488 45.8212 97.185 46.0386 97.5876 46.7862C98.0643 47.6716 98.0219 48.8433 97.3386 49.5431C96.4647 50.4392 95.5271 51.2822 94.5631 52.088C93.599 52.8939 92.5873 53.6415 91.565 54.3678C87.995 56.9287 84.4355 59.5054 80.8177 62.0079C78.2381 63.7946 75.5632 65.4435 72.9466 67.1825C67.6444 70.7083 62.3528 74.2552 57.0507 77.7757C52.9403 80.5061 48.8776 83.3108 44.6719 85.8875C41.997 87.5258 39.3168 89.1482 36.7372 90.9349C35.2647 91.9582 33.8345 93.0451 32.3461 94.0418C31.3821 94.6887 30.3704 95.2772 29.3322 95.8127C28.5906 96.1944 27.9391 95.9505 27.4253 95.1181Z" fill="#A4ACBA"/>
</g>
</g>
<g id="Clip path group_10">
<mask id="mask9_68_46" style="mask-type:luminance" maskUnits="userSpaceOnUse" x="4" y="4" width="94" height="91">
<g id="SVGID_2__10">
<path id="Vector_20" d="M97.6187 50.0203C97.4439 56.0114 96.4004 60.8627 94.2075 65.47C93.556 66.8379 93.1428 68.3171 92.6343 69.7486C91.9881 71.5672 90.9182 73.0623 89.4774 74.3613C88.5134 75.2255 87.8248 76.3866 86.919 77.325C82.7186 81.6672 78.3646 85.8345 73.1101 88.9043C68.8779 91.375 64.3914 93.1935 59.4389 93.6548C56.764 93.904 54.0996 94.3176 51.4194 94.5455C50.2011 94.6516 48.9458 94.5826 47.7275 94.4342C41.8957 93.7396 36.4187 91.9211 31.2278 89.1588C29.1832 88.0719 27.0274 87.1759 24.8609 86.3594C19.9613 84.5197 16.0893 81.3385 12.7894 77.3727C11.9525 76.3654 11.2162 75.2785 10.4217 74.2393C7.94274 71.0105 6.26893 67.3416 5.40554 63.4394C4.02836 57.2043 3.65758 50.8421 5.53796 44.6283C6.94163 39.9732 8.59426 35.3818 10.4429 30.8858C11.7671 27.6676 13.8329 24.8363 16.3171 22.3233C19.0185 19.5875 21.3756 16.5177 24.4743 14.1584C28.574 11.0355 33.23 9.08975 37.9813 7.22879C41.9221 5.68064 46.0166 5.42085 50.1376 5.02321C55.6993 4.48772 61.1868 5.07623 66.6426 5.94574C68.6183 6.25855 70.4881 7.20759 72.4427 7.75898C74.3496 8.29447 76.2193 8.80345 77.5065 10.4894C77.6972 10.7386 78.1421 10.8341 78.4864 10.903C81.0024 11.3961 82.4643 13.2623 84.2017 14.9271C87.168 17.7583 89.0431 21.2682 90.8546 24.7992C91.9669 26.9677 92.5284 29.4172 93.3017 31.75C93.5984 32.646 93.6672 33.6375 94.0751 34.4699C96.6335 39.671 97.2214 45.2804 97.6187 50.0203Z" fill="white"/>
</g>
</mask>
<g mask="url(#mask9_68_46)">
<path id="Vector_21" d="M91.7511 27.2434C90.125 28.8233 88.3717 30.0852 86.3059 30.907C85.8822 31.0766 85.3472 30.6154 85.3896 30.1594C85.6438 27.5721 88.4829 25.6104 90.9354 26.3685C91.2108 26.4481 91.3909 26.8457 91.7511 27.2434Z" fill="#EEC149"/>
</g>
</g>
<g id="Clip path group_11">
<mask id="mask10_68_46" style="mask-type:luminance" maskUnits="userSpaceOnUse" x="4" y="4" width="94" height="91">
<g id="SVGID_2__11">
<path id="Vector_22" d="M97.6187 50.0203C97.4439 56.0114 96.4004 60.8627 94.2075 65.47C93.556 66.8379 93.1428 68.3171 92.6343 69.7486C91.9881 71.5672 90.9182 73.0623 89.4774 74.3613C88.5134 75.2255 87.8248 76.3866 86.919 77.325C82.7186 81.6672 78.3646 85.8345 73.1101 88.9043C68.8779 91.375 64.3914 93.1935 59.4389 93.6548C56.764 93.904 54.0996 94.3176 51.4194 94.5455C50.2011 94.6516 48.9458 94.5826 47.7275 94.4342C41.8957 93.7396 36.4187 91.9211 31.2278 89.1588C29.1832 88.0719 27.0274 87.1759 24.8609 86.3594C19.9613 84.5197 16.0893 81.3385 12.7894 77.3727C11.9525 76.3654 11.2162 75.2785 10.4217 74.2393C7.94274 71.0105 6.26893 67.3416 5.40554 63.4394C4.02836 57.2043 3.65758 50.8421 5.53796 44.6283C6.94163 39.9732 8.59426 35.3818 10.4429 30.8858C11.7671 27.6676 13.8329 24.8363 16.3171 22.3233C19.0185 19.5875 21.3756 16.5177 24.4743 14.1584C28.574 11.0355 33.23 9.08975 37.9813 7.22879C41.9221 5.68064 46.0166 5.42085 50.1376 5.02321C55.6993 4.48772 61.1868 5.07623 66.6426 5.94574C68.6183 6.25855 70.4881 7.20759 72.4427 7.75898C74.3496 8.29447 76.2193 8.80345 77.5065 10.4894C77.6972 10.7386 78.1421 10.8341 78.4864 10.903C81.0024 11.3961 82.4643 13.2623 84.2017 14.9271C87.168 17.7583 89.0431 21.2682 90.8546 24.7992C91.9669 26.9677 92.5284 29.4172 93.3017 31.75C93.5984 32.646 93.6672 33.6375 94.0751 34.4699C96.6335 39.671 97.2214 45.2804 97.6187 50.0203Z" fill="white"/>
</g>
</mask>
<g mask="url(#mask10_68_46)">
<path id="Vector_23" d="M64.4085 47.1944C63.9053 42.9688 65.8493 41.4047 69.9173 42.4916C70.2774 42.99 69.9437 43.4141 69.663 43.7216C68.3229 45.1956 66.2465 46.5634 64.4085 47.1944Z" fill="#EEC149"/>
</g>
</g>
<g id="Clip path group_12">
<mask id="mask11_68_46" style="mask-type:luminance" maskUnits="userSpaceOnUse" x="4" y="4" width="94" height="91">
<g id="SVGID_2__12">
<path id="Vector_24" d="M97.6187 50.0203C97.4439 56.0114 96.4004 60.8627 94.2075 65.47C93.556 66.8379 93.1428 68.3171 92.6343 69.7486C91.9881 71.5672 90.9182 73.0623 89.4774 74.3613C88.5134 75.2255 87.8248 76.3866 86.919 77.325C82.7186 81.6672 78.3646 85.8345 73.1101 88.9043C68.8779 91.375 64.3914 93.1935 59.4389 93.6548C56.764 93.904 54.0996 94.3176 51.4194 94.5455C50.2011 94.6516 48.9458 94.5826 47.7275 94.4342C41.8957 93.7396 36.4187 91.9211 31.2278 89.1588C29.1832 88.0719 27.0274 87.1759 24.8609 86.3594C19.9613 84.5197 16.0893 81.3385 12.7894 77.3727C11.9525 76.3654 11.2162 75.2785 10.4217 74.2393C7.94274 71.0105 6.26893 67.3416 5.40554 63.4394C4.02836 57.2043 3.65758 50.8421 5.53796 44.6283C6.94163 39.9732 8.59426 35.3818 10.4429 30.8858C11.7671 27.6676 13.8329 24.8363 16.3171 22.3233C19.0185 19.5875 21.3756 16.5177 24.4743 14.1584C28.574 11.0355 33.23 9.08975 37.9813 7.22879C41.9221 5.68064 46.0166 5.42085 50.1376 5.02321C55.6993 4.48772 61.1868 5.07623 66.6426 5.94574C68.6183 6.25855 70.4881 7.20759 72.4427 7.75898C74.3496 8.29447 76.2193 8.80345 77.5065 10.4894C77.6972 10.7386 78.1421 10.8341 78.4864 10.903C81.0024 11.3961 82.4643 13.2623 84.2017 14.9271C87.168 17.7583 89.0431 21.2682 90.8546 24.7992C91.9669 26.9677 92.5284 29.4172 93.3017 31.75C93.5984 32.646 93.6672 33.6375 94.0751 34.4699C96.6335 39.671 97.2214 45.2804 97.6187 50.0203Z" fill="white"/>
</g>
</mask>
<g mask="url(#mask11_68_46)">
<path id="Vector_25" d="M44.4387 63.3705C43.3211 60.9422 43.4058 59.972 44.8254 59.1237C45.9165 58.4715 47.0924 57.8936 48.3955 58.3231C48.8563 58.4768 49.19 59.0176 49.6826 59.4736C48.1306 61.2762 46.4674 62.554 44.4387 63.3705Z" fill="#EEC149"/>
</g>
</g>
<path id="Vector_26" d="M97.6197 50.0203C97.4449 56.0114 96.4014 60.8627 94.2085 65.47C93.557 66.8379 93.1438 68.3171 92.6353 69.7486C91.9891 71.5672 90.9191 73.0623 89.4784 74.3613C88.5144 75.2255 87.8258 76.3866 86.92 77.325C82.7196 81.6672 78.3656 85.8345 73.1111 88.9043C68.8789 91.375 64.3924 93.1935 59.4399 93.6548C56.7649 93.904 54.1006 94.3175 51.4204 94.5455C50.2021 94.6516 48.9468 94.5826 47.7285 94.4342C41.8966 93.7396 36.4197 91.9211 31.2287 89.1588C29.1842 88.0719 27.0283 87.1759 24.8619 86.3594C19.9623 84.5197 16.0903 81.3385 12.7904 77.3727C11.9534 76.3654 11.2172 75.2785 10.4227 74.2393C7.94372 71.0105 6.26991 67.3416 5.40652 63.4394C4.02933 57.2044 3.65855 50.8421 5.53894 44.6283C6.94261 39.9732 8.59523 35.3818 10.4438 30.8858C11.7681 27.6676 13.8338 24.8363 16.3181 22.3233C19.0195 19.5875 21.3766 16.5177 24.4752 14.1584C28.575 11.0355 33.231 9.08975 37.9822 7.22879C41.9231 5.68064 46.0176 5.42085 50.1386 5.02321C55.7003 4.48772 61.1878 5.07623 66.6436 5.94574C68.6193 6.25855 70.4891 7.20759 72.4437 7.75898C74.3505 8.29447 76.2203 8.80345 77.5075 10.4895C77.6981 10.7386 78.1431 10.8341 78.4874 10.903C81.0034 11.3961 82.4653 13.2623 84.2027 14.9271C87.1689 17.7583 89.044 21.2682 90.8556 24.7992C91.9679 26.9677 92.5294 29.4172 93.3027 31.75C93.5993 32.646 93.6682 33.6375 94.0761 34.4699C96.6344 39.671 97.2224 45.2804 97.6197 50.0203Z" stroke="white" stroke-width="8.5039" stroke-miterlimit="10"/>
</g>
</g>
</svg>
