<svg width="103" height="103" viewBox="0 0 103 103" fill="none" xmlns="http://www.w3.org/2000/svg">
<g id="Group">
<path id="Vector" d="M96.8642 53.0354C96.694 58.8658 95.6788 63.5891 93.5462 68.0684C92.911 69.3968 92.5083 70.8388 92.0148 72.2297C91.3853 73.9953 90.3474 75.4543 88.9408 76.7203C88.005 77.5605 87.3357 78.6902 86.4509 79.6042C82.3673 83.828 78.1248 87.8871 73.0145 90.8676C68.8969 93.2747 64.5297 95.0459 59.7087 95.4944C57.1054 95.7385 54.5134 96.136 51.9101 96.363C50.7247 96.4652 49.5053 96.3971 48.3199 96.2552C42.6425 95.5796 37.3167 93.8084 32.2632 91.1231C30.2781 90.0671 28.1739 89.1929 26.064 88.3981C21.2941 86.6098 17.5281 83.5101 14.3179 79.6553C13.5011 78.6789 12.7865 77.6173 12.0095 76.6067C9.59898 73.4673 7.9655 69.8907 7.12608 66.0984C5.78756 60.0296 5.42458 53.8416 7.25088 47.7954C8.61777 43.2708 10.2285 38.7972 12.0208 34.4202C13.3083 31.2864 15.3217 28.5387 17.7379 26.0919C20.3696 23.4293 22.661 20.4432 25.6726 18.1496C29.6599 15.1124 34.1916 13.2162 38.8141 11.4052C42.6481 9.90079 46.6354 9.651 50.6396 9.25928C56.0504 8.73699 61.3875 9.31037 66.7019 10.1563C68.6246 10.4628 70.4453 11.3825 72.3453 11.9218C74.2 12.4441 76.0206 12.938 77.274 14.5787C77.4555 14.8172 77.8923 14.9137 78.2269 14.9818C80.6771 15.4587 82.1006 17.281 83.7908 18.8933C86.6777 21.6524 88.4984 25.0643 90.2623 28.499C91.3456 30.6052 91.89 32.9896 92.6444 35.2661C92.9336 36.1347 93.0017 37.0998 93.3988 37.9116C95.9057 42.9642 96.4785 48.4256 96.8642 53.0354Z" fill="#E4E8EA" stroke="white" stroke-width="11.3386" stroke-miterlimit="10"/>
<g id="Group_2">
<g id="Clip path group">
<mask id="mask0_68_169" style="mask-type:luminance" maskUnits="userSpaceOnUse" x="9" y="11" width="86" height="83">
<g id="SVGID_6_">
<path id="Vector_2" d="M94.0688 53.1601C93.91 58.6158 92.9571 63.0383 90.9607 67.228C90.3708 68.4712 89.9908 69.8167 89.5257 71.1225C88.9359 72.7802 87.966 74.1427 86.6502 75.3235C85.7767 76.1126 85.1472 77.1686 84.3191 78.0201C80.4964 81.9714 76.5261 85.7694 71.7392 88.5625C67.8824 90.8163 63.7988 92.474 59.2841 92.8885C56.8453 93.1156 54.4234 93.4902 51.9846 93.7003C50.8729 93.7968 49.7329 93.7344 48.6212 93.5981C43.3068 92.9623 38.3214 91.3102 33.5912 88.7953C31.7309 87.8074 29.7684 86.99 27.789 86.2463C23.3254 84.5715 19.7975 81.6705 16.7972 78.0599C16.0372 77.1459 15.3679 76.1524 14.6363 75.2043C12.3789 72.2636 10.8532 68.9197 10.0649 65.3659C8.81141 59.6888 8.47675 53.8925 10.1839 48.2324C11.4658 43.9973 12.9688 39.8076 14.6533 35.7144C15.8613 32.7793 17.7387 30.2076 20.0017 27.914C22.4632 25.4218 24.6072 22.6287 27.4317 20.477C31.1637 17.6328 35.4061 15.8616 39.7337 14.1641C43.3239 12.7562 47.0502 12.5177 50.8049 12.1544C55.8697 11.6662 60.8665 12.2055 65.8406 12.9946C67.6443 13.2785 69.3457 14.1471 71.121 14.6467C72.8565 15.1349 74.5637 15.5947 75.7321 17.1332C75.9023 17.3603 76.3106 17.4511 76.6225 17.5136C78.9139 17.9621 80.2468 19.6652 81.8292 21.1753C84.529 23.7584 86.2362 26.9489 87.8867 30.1678C88.9019 32.1378 89.4123 34.3746 90.1156 36.4978C90.3878 37.3096 90.4502 38.218 90.8189 38.973C93.1727 43.7304 93.7058 48.8398 94.0688 53.1601Z" fill="white"/>
</g>
</mask>
<g mask="url(#mask0_68_169)">
<path id="Vector_3" d="M9.97412 74.773C10.3088 73.7739 10.978 73.3424 11.9763 73.1834C17.8805 72.2467 23.5182 70.3506 29.2637 68.8291C32.1392 68.0684 35.0205 67.336 37.896 66.581C41.231 65.701 44.549 64.7529 47.8953 63.9241C52.3249 62.8227 56.7829 61.8122 61.2239 60.7563C63.1353 60.3021 65.0353 59.8082 66.9466 59.354C73.0948 57.8837 79.2486 56.4417 85.3854 54.9486C90.0249 53.8188 94.653 52.6323 99.2755 51.4345C100.268 51.179 101.142 51.0711 101.856 51.8489C102.622 52.6778 102.344 53.7223 101.193 53.9437C99.7292 54.2219 98.2829 54.5739 96.8423 54.9259C92.1971 56.0556 87.5634 57.2194 82.9182 58.3378C80.3886 58.9453 77.842 59.4733 75.3124 60.0693C72.5219 60.7279 69.7428 61.4205 66.958 62.0961C63.606 62.9136 60.2427 63.697 56.8963 64.5429C50.2604 66.212 43.6302 67.9094 36.9942 69.6069C34.2208 70.3165 31.4473 71.0432 28.6795 71.7869C25.9627 72.5135 23.2516 73.2459 20.5462 74.018C17.7387 74.8128 14.8575 75.2329 11.9819 75.6984C11.0461 75.8347 10.5186 75.3521 9.97412 74.773Z" fill="#CE4530"/>
</g>
</g>
<g id="Clip path group_2">
<mask id="mask1_68_169" style="mask-type:luminance" maskUnits="userSpaceOnUse" x="9" y="11" width="86" height="83">
<g id="SVGID_6__2">
<path id="Vector_4" d="M94.0688 53.1601C93.91 58.6158 92.9571 63.0383 90.9607 67.228C90.3708 68.4712 89.9908 69.8167 89.5257 71.1225C88.9359 72.7802 87.966 74.1427 86.6502 75.3235C85.7767 76.1126 85.1472 77.1686 84.3191 78.0201C80.4964 81.9714 76.5261 85.7694 71.7392 88.5625C67.8824 90.8163 63.7988 92.474 59.2841 92.8885C56.8453 93.1156 54.4234 93.4902 51.9846 93.7003C50.8729 93.7968 49.7329 93.7344 48.6212 93.5981C43.3068 92.9623 38.3214 91.3102 33.5912 88.7953C31.7309 87.8074 29.7684 86.99 27.789 86.2463C23.3254 84.5715 19.7975 81.6705 16.7972 78.0599C16.0372 77.1459 15.3679 76.1524 14.6363 75.2043C12.3789 72.2636 10.8532 68.9197 10.0649 65.3659C8.81141 59.6888 8.47675 53.8925 10.1839 48.2324C11.4658 43.9973 12.9688 39.8076 14.6533 35.7144C15.8613 32.7793 17.7387 30.2076 20.0017 27.914C22.4632 25.4218 24.6072 22.6287 27.4317 20.477C31.1637 17.6328 35.4061 15.8616 39.7337 14.1641C43.3239 12.7562 47.0502 12.5177 50.8049 12.1544C55.8697 11.6662 60.8665 12.2055 65.8406 12.9946C67.6443 13.2785 69.3457 14.1471 71.121 14.6467C72.8565 15.1349 74.5637 15.5947 75.7321 17.1332C75.9023 17.3603 76.3106 17.4511 76.6225 17.5136C78.9139 17.9621 80.2468 19.6652 81.8292 21.1753C84.529 23.7584 86.2362 26.9489 87.8867 30.1678C88.9019 32.1378 89.4123 34.3746 90.1156 36.4978C90.3878 37.3096 90.4502 38.218 90.8189 38.973C93.1727 43.7304 93.7058 48.8398 94.0688 53.1601Z" fill="white"/>
</g>
</mask>
<g mask="url(#mask1_68_169)">
<path id="Vector_5" d="M23.3198 97.4135C23.6715 96.403 24.3691 95.9601 25.4183 95.7842C31.6005 94.7339 37.5105 92.7242 43.5282 91.0892C46.5399 90.2717 49.5572 89.4883 52.5689 88.6708C56.0627 87.7227 59.5395 86.7121 63.0503 85.8152C67.6954 84.6286 72.3632 83.533 77.0197 82.3862C79.0219 81.8923 81.0126 81.3643 83.0147 80.8704C89.4521 79.2808 95.9009 77.7196 102.338 76.1017C107.199 74.8811 112.048 73.6037 116.892 72.315C117.936 72.0368 118.843 71.9176 119.597 72.6784C120.403 73.4959 120.108 74.5461 118.905 74.7902C117.374 75.0968 115.86 75.4772 114.345 75.8575C109.479 77.0781 104.624 78.3327 99.7577 79.542C97.109 80.2005 94.4376 80.7739 91.7833 81.4211C88.8623 82.1307 85.947 82.8801 83.0317 83.6125C79.5153 84.4924 75.9932 85.344 72.488 86.2523C65.5345 88.052 58.5866 89.88 51.6388 91.708C48.7292 92.4744 45.8252 93.2522 42.927 94.047C40.0798 94.8247 37.2382 95.6139 34.408 96.437C31.4644 97.2886 28.4471 97.7655 25.4354 98.2821C24.4428 98.4524 23.887 97.9812 23.3198 97.4135Z" fill="#CE4530"/>
</g>
</g>
</g>
<g id="Group_3">
<path id="Vector_6" d="M48.4621 47.6536C48.4621 46.9326 48.4507 46.2627 48.4621 45.5928C48.5301 42.5442 48.6095 39.4899 48.6663 36.4413C48.6833 35.4138 48.6265 34.3805 48.6208 33.353C48.6152 32.7966 48.3316 32.5298 47.8268 32.3254C46.1083 31.6271 44.3614 30.9743 42.7223 30.1227C40.7939 29.1292 39.6936 27.568 39.7843 25.2461C39.8751 22.9923 40.4422 20.8633 41.2193 18.7912C41.9906 16.719 42.9321 14.7094 43.7659 12.6599C44.1799 11.6381 44.5316 10.5878 44.9116 9.54887C45.4447 8.08418 46.3068 6.80116 47.1519 5.51246C48.0594 4.12725 49.2221 2.90667 49.863 1.34547C49.931 1.17516 50.0842 0.959427 50.2373 0.919688C50.8726 0.749375 51.5304 0.658544 51.8878 0C52.4606 0.0908336 53.0448 0.136244 53.595 0.295203C53.8729 0.374682 54.1508 0.624469 54.3323 0.874261C55.7105 2.74203 57.2532 4.51329 58.1437 6.69897C58.9718 8.7257 60.1231 10.5651 61.3426 12.3704C61.87 13.1482 62.3124 13.9997 62.6754 14.8683C63.6793 17.2697 64.7399 19.6541 65.5453 22.118C66.1409 23.946 66.5946 25.8876 66.6853 27.7951C66.7421 29.01 66.2656 30.4122 65.5963 31.4511C64.876 32.5638 63.5886 33.2054 62.1366 33.2621C61.3936 33.2905 60.6563 33.387 59.7942 33.4665C59.8225 33.9888 59.7772 34.4259 59.8736 34.829C60.3103 36.6684 60.1175 38.5191 60.0267 40.3642C59.9417 42.1865 59.8679 44.0032 59.7942 45.8256C59.7885 45.9732 59.8565 46.1264 59.8906 46.2684C60.0267 46.3365 60.1288 46.4217 60.2366 46.4273C61.9324 46.5352 63.6339 46.6033 65.3298 46.7509C66.345 46.8417 67.3603 47.0177 68.3642 47.2221C69.5269 47.4549 70.7122 47.6422 71.8125 48.051C73.3609 48.6244 74.8923 49.2886 76.1344 50.4354C77.3198 51.531 78.4769 52.6551 79.6509 53.7678C80.7342 54.8011 81.3865 58.1392 80.6605 59.7004C79.6339 61.9088 78.2443 63.7709 76.2932 65.2072C75.1872 66.0247 74.2457 67.092 72.8731 67.5007C71.7048 67.847 70.5478 68.2501 69.3624 68.5113C67.8253 68.8462 66.26 69.0733 64.7059 69.3401C64.394 69.3912 64.0763 69.4253 63.7644 69.465C62.5109 69.6183 61.2632 69.8056 60.004 69.9078C58.0756 70.0554 56.1359 70.1633 54.2019 70.2484C52.2281 70.3336 50.2486 70.3109 48.2805 70.4471C46.0742 70.5947 43.9474 70.2485 41.8431 69.6524C40.6294 69.3061 39.4213 68.937 38.2132 68.568C35.9502 67.8754 33.9935 66.6378 32.1615 65.1618C31.3391 64.5032 30.7039 63.6233 29.6943 63.1748C29.5072 63.0896 29.3257 62.573 29.4107 62.3686C29.9325 61.1083 29.5468 59.7742 29.7851 58.4912C30.0686 56.9413 30.7436 55.6867 31.8779 54.6024C33.9084 52.6721 36.4096 51.673 38.9619 50.6681C40.6975 49.9812 42.433 49.3567 44.2253 48.8514C45.2122 48.5733 46.165 48.1986 47.1462 47.8977C47.4978 47.7728 47.8949 47.7501 48.4621 47.6536ZM52.5741 3.12807C52.1147 3.66172 51.7233 4.04209 51.417 4.48491C50.5663 5.71684 49.7949 7.00554 48.9101 8.21477C48.2635 9.10039 47.9459 10.0996 47.5886 11.1044C47.1008 12.4783 46.6698 13.8919 46.0402 15.2033C44.5542 18.2916 43.4709 21.4935 42.9094 24.8714C42.6372 26.495 43.3291 27.8235 44.7527 28.6466C47.3617 30.1624 50.2089 30.6734 53.1809 30.7131C53.9693 30.7245 54.7634 30.7585 55.5517 30.7585C57.0944 30.7699 58.6372 30.838 60.1685 30.7528C62.3408 30.628 63.5205 29.3676 63.4071 27.1876C63.339 25.8989 63.1122 24.5762 62.7151 23.3499C61.9211 20.9144 61.0136 18.5187 60.0437 16.1457C59.5559 14.9478 58.864 13.8351 58.2231 12.7053C57.2703 11.0192 56.1529 9.41263 55.3532 7.66409C54.6442 6.09153 53.7595 4.6836 52.5741 3.12807ZM51.5191 44.0657C51.4794 44.4574 51.4284 44.7299 51.4284 44.9967C51.4511 48.6414 51.4794 52.2861 51.5135 55.9365C51.5305 57.5034 51.7006 57.685 53.249 57.8667C53.8162 57.9348 54.3947 57.9064 54.7747 57.4239C55.478 56.5269 56.255 55.6583 56.3117 54.415C56.3571 53.5464 56.4592 52.6778 56.5046 51.8092C56.5953 50.0323 56.6747 48.2497 56.7485 46.4727C56.7655 46.0243 56.7314 45.5758 56.7144 45.1159C55.0129 45.3033 54.8258 45.7461 51.5191 44.0657Z" fill="black"/>
<path id="Vector_7" d="M52.5736 3.12817C53.7533 4.6837 54.638 6.0973 55.3526 7.65851C56.1524 9.41273 57.2697 11.0137 58.2226 12.6998C58.8635 13.8295 59.5554 14.9479 60.0432 16.1401C61.0074 18.5131 61.9206 20.9089 62.7146 23.3443C63.1116 24.5706 63.3385 25.8933 63.4065 27.182C63.52 29.3564 62.3459 30.6224 60.168 30.7473C58.631 30.8381 57.0883 30.7643 55.5512 30.7529C54.7628 30.7473 53.9688 30.7132 53.1804 30.7075C50.2084 30.6735 47.3612 30.1625 44.7522 28.6411C43.3286 27.8122 42.6367 26.4838 42.9089 24.8658C43.4761 21.4879 44.5537 18.286 46.0397 15.1977C46.6693 13.8863 47.1003 12.4784 47.5881 11.0988C47.9454 10.094 48.263 9.09481 48.9096 8.20919C49.7944 6.99996 50.5657 5.71126 51.4165 4.47933C51.7228 4.04219 52.1141 3.66182 52.5736 3.12817Z" fill="#69BFAF"/>
<path id="Vector_8" d="M51.5196 44.0657C54.8262 45.7461 55.0133 45.309 56.7205 45.1159C56.7319 45.5758 56.7716 46.0243 56.7546 46.4728C56.6865 48.2497 56.6071 50.0323 56.5107 51.8092C56.4653 52.6778 56.3632 53.5464 56.3179 54.415C56.2555 55.6526 55.4785 56.5212 54.7808 57.4239C54.4008 57.9064 53.8223 57.9348 53.2551 57.8667C51.7067 57.6794 51.5309 57.4977 51.5196 55.9365C51.4856 52.2918 51.4572 48.6471 51.4345 44.9967C51.4288 44.7242 51.4799 44.4574 51.5196 44.0657Z" fill="white"/>
</g>
</g>
</svg>
