<svg width="121" height="116" viewBox="0 0 121 116" fill="none" xmlns="http://www.w3.org/2000/svg">
<g id="Group">
<path id="Vector" d="M114.353 58.4663C114.145 65.4182 112.939 71.047 110.394 76.3879C109.641 77.9743 109.158 79.6893 108.564 81.3492C107.812 83.4561 106.576 85.1956 104.899 86.7024C103.785 87.7069 102.984 89.0543 101.931 90.1385C97.0603 95.1732 91.9997 100.012 85.905 103.57C80.9913 106.443 75.7901 108.55 70.0381 109.083C66.9296 109.371 63.8455 109.849 60.7369 110.118C59.3234 110.241 57.8671 110.161 56.4535 109.989C49.6857 109.181 43.334 107.074 37.3067 103.871C34.9386 102.609 32.4359 101.568 29.9148 100.624C24.2301 98.4929 19.7386 94.7996 15.908 90.1997C14.9351 89.0299 14.0845 87.7681 13.1605 86.5615C10.2845 82.8191 8.33863 78.5562 7.3412 74.0298C5.7441 66.7963 5.31576 59.4096 7.49418 52.2005C9.128 46.8044 11.0433 41.4696 13.185 36.2511C14.7209 32.5149 17.1196 29.2319 20.0018 26.3165C23.1409 23.1437 25.87 19.579 29.4681 16.8412C34.2288 13.2152 39.632 10.9612 45.1392 8.79911C49.7102 7.0045 54.4648 6.70438 59.2439 6.23888C65.6935 5.61414 72.0635 6.30013 78.3968 7.31075C80.6915 7.67825 82.8638 8.77461 85.1218 9.41161C87.3308 10.0364 89.5092 10.6182 91.0023 12.5782C91.2225 12.8661 91.7366 12.9825 92.1405 13.0621C95.0593 13.6317 96.7604 15.7999 98.7736 17.7293C102.213 21.0184 104.391 25.0854 106.49 29.1829C107.781 31.6942 108.43 34.5423 109.335 37.2495C109.678 38.2846 109.757 39.4422 110.235 40.4039C113.215 46.4492 113.894 52.96 114.353 58.4663Z" fill="#E4E8EA" stroke="white" stroke-width="11.3386" stroke-miterlimit="10"/>
<g id="Group_2">
<path id="Vector_2" d="M65.4492 54.0809C67.799 53.9523 68.5394 52.8253 68.9555 50.8592C70.0508 45.6897 72.3332 41.0286 75.8395 37.0229C77.4488 35.1854 79.2846 33.9666 81.8852 34.5423C84.9387 35.2222 87.3068 37.8682 87.5516 41.0348C87.8269 44.6301 88.0717 48.2316 88.2552 51.8392C88.3042 52.7702 88.6101 53.3949 89.3995 53.8665C90.4887 54.5219 91.3577 55.4039 91.7921 56.6289C91.9267 57.0148 92.1654 57.4557 92.0919 57.8171C91.6452 60.0405 92.3551 62.1536 92.5999 64.3157C92.6794 65.0201 92.7651 65.7306 92.8018 66.441C92.9058 68.6277 92.9609 70.8143 93.0894 73.0009C93.2668 76.1797 92.5081 79.1993 91.6391 82.2067C91.4739 82.7702 91.2965 83.3337 91.0945 83.891C90.5805 85.3304 89.785 86.4696 88.2675 87.1005C86.8845 87.6762 85.3976 87.7681 84.0208 88.203C81.2856 89.0605 78.4524 89.0911 75.6865 89.5995C72.1313 90.2549 68.5883 89.722 65.2044 88.5338C63.2096 87.8294 61.6614 86.5309 60.8965 84.3688C59.8012 81.2757 59.1219 78.1152 58.816 74.8506C58.6385 72.9702 58.2959 71.096 57.996 69.2279C57.531 66.3675 58.0817 63.5807 58.6018 60.7938C58.6569 60.506 58.7426 60.2181 58.7548 59.9241C58.7732 59.6362 58.7181 59.3422 58.6814 58.938C57.2434 58.7114 55.8605 58.9196 54.4959 59.2259C54.2144 59.2871 53.8901 59.6179 53.7738 59.8996C53.0456 61.7065 52.3787 63.5378 51.6627 65.3508C50.8183 67.4884 50.0717 69.6873 49.0437 71.733C47.5262 74.7404 45.8984 77.6987 44.1116 80.5529C43.3529 81.7657 42.1841 82.8008 41.0093 83.6522C39.6324 84.6567 36.3342 84.087 35.245 82.7763C34.0028 81.2818 33.3481 79.5668 33.4154 77.5517C33.5072 74.6852 34.0763 71.9045 34.8228 69.1728C35.4102 67.0107 36.2975 64.9221 37.0991 62.8273C37.7539 61.1246 38.4759 59.4525 39.1919 57.7742C39.4183 57.2352 39.6876 56.7085 39.9752 56.2063C40.7462 54.8649 40.7278 53.5787 39.712 52.4455C36.579 48.9604 36.7809 45.016 38.1455 40.9551C38.4147 40.1405 39.1613 39.4974 39.5713 38.7134C39.9201 38.058 40.073 37.3047 40.3728 36.6187C40.5503 36.2144 40.844 35.8653 41.0827 35.4855C41.4804 34.8424 42.0924 34.2422 42.2392 33.5439C42.9368 30.1323 44.6318 27.125 45.9168 23.9523C46.5777 22.3169 47.2508 20.6754 47.8321 19.0094C48.3155 17.6252 49.062 17.2393 50.396 17.8579C52.348 18.7583 52.7335 19.53 51.9197 21.49C50.7632 24.2769 49.4415 26.9902 48.2849 29.7771C47.722 31.1307 47.3731 32.5701 46.9448 33.9788C46.7551 34.6036 46.6389 35.2405 46.4614 35.8653C46.0637 37.2434 46.1616 37.519 47.4221 38.0764C47.7831 38.2356 48.1931 38.2908 48.7806 38.45C49.1599 36.9249 50.0473 35.6815 50.0595 34.0952C50.0656 33.4704 50.3532 32.8334 50.5612 32.2209C51.7422 28.8155 52.9416 25.4161 54.1226 22.0045C54.4225 21.1409 54.6917 20.3018 55.7809 20.1793C56.503 20.0935 58.4427 21 58.6141 21.7044C58.7732 22.3536 58.6997 23.1315 58.4916 23.7746C57.6411 26.4206 56.6498 29.0237 55.8054 31.6697C54.9977 34.2054 54.3062 36.7718 53.578 39.332C53.4801 39.6689 53.3332 40.1283 53.474 40.3671C53.7187 40.7653 54.1349 41.145 54.5693 41.3104C54.7529 41.3839 55.3098 40.9796 55.426 40.6795C55.7503 39.8588 55.9033 38.9706 56.1848 38.1315C57.7146 33.5317 59.2382 28.9257 60.817 24.3443C61.4166 22.6048 62.4998 22.372 63.9133 23.5725C65.3023 24.7485 65.4431 25.2446 64.825 26.9596C63.7848 29.8567 62.6343 32.7109 61.7042 35.6448C60.9577 37.9968 60.4743 40.4345 59.8868 42.7865C61.3799 43.5521 61.5757 43.4847 61.9674 42.321C63.4237 38.0029 64.8985 33.6971 66.3548 29.379C66.6608 28.4786 66.8811 27.5537 67.1993 26.6656C67.9091 24.6566 69.1573 24.3871 70.5831 25.9122C70.9441 26.2981 71.299 26.6962 71.8008 27.2475C71.3847 28.6133 70.9687 30.0833 70.4853 31.5288C69.91 33.2683 69.2614 34.9833 68.6862 36.7228C68.0437 38.6828 67.4746 40.6734 66.826 42.6334C66.5139 43.5766 66.5812 44.3055 67.3951 45.0098C68.6066 46.0633 68.8147 47.711 68.062 49.1319C67.2115 50.7244 66.3671 52.3292 65.4492 54.0809ZM63.0198 63.3173C62.2794 66.2818 62.6221 68.8175 63.0443 71.4145C63.6501 75.1446 63.846 78.9359 65.1432 82.5497C66.0428 85.067 66.93 85.9 69.5857 86.1328C74.432 86.5615 79.101 85.5631 83.7822 84.4423C85.8504 83.9462 86.805 82.6783 87.2517 80.8776C87.7229 78.985 88.0839 77.0556 88.292 75.1201C88.4388 73.7849 88.2369 72.4067 88.194 71.047C88.1757 70.459 88.1757 69.871 88.1879 69.283C88.2308 66.8024 88.0472 64.3524 87.3496 61.9331C85.9606 61.9331 84.6694 61.8596 83.3905 61.9515C80.8511 62.1291 78.3238 62.3925 75.7905 62.6191C75.1419 62.6742 74.4872 62.6803 73.8447 62.7845C73.0247 62.9192 72.8105 63.3051 73.2082 64.0156C73.606 64.7383 74.1261 65.3937 74.5606 66.098C75.9802 68.3949 75.9191 70.6918 74.475 72.9396C74.1996 73.3745 73.8079 73.8829 73.3612 74.036C71.5806 74.6546 69.757 75.1446 67.8295 74.8322C65.0392 74.379 63.4053 72.3455 63.4788 69.5219C63.5216 67.9539 64.36 66.735 65.0392 65.4366C65.3757 64.7996 65.6388 64.1258 66.0672 63.1642C64.7699 63.2377 63.8582 63.2806 63.0198 63.3173ZM38.4454 79.7383C39.0206 79.3647 39.5101 79.1993 39.7426 78.8624C40.5136 77.7477 41.2418 76.6023 41.8965 75.4141C44.4482 70.7898 46.5043 65.9449 48.2788 60.9776C48.7745 59.5872 49.3558 58.2214 49.8698 56.8371C50.2125 55.9123 50.7571 55.3916 51.8341 55.3733C53.009 55.3488 54.1776 55.0915 55.3586 54.9996C59.5319 54.675 61.4411 51.8392 62.769 48.3541C62.7996 48.2683 62.7078 48.1397 62.6711 48.0233C59.587 46.8657 56.4479 45.8245 53.425 44.526C50.3593 43.203 47.3976 41.6166 44.4298 40.165C42.588 41.8922 41.7925 43.9747 41.7987 46.29C41.8048 48.8992 43.0041 51.0368 44.8521 52.8437C45.8006 53.7747 45.8985 54.6383 45.3172 55.8633C44.9867 56.5554 44.644 57.2414 44.3564 57.9519C43.5426 59.9731 42.8634 62.0617 41.9333 64.0278C39.8038 68.5235 38.5799 73.2336 38.2434 78.1826C38.2067 78.6174 38.3475 79.0646 38.4454 79.7383ZM73.2755 52.8314C74.4259 52.8314 75.4111 52.8927 76.3902 52.8192C78.2076 52.6722 80.0189 52.4088 81.8424 52.2618C83.3844 52.1332 83.5068 52.127 83.4578 50.6264C83.3599 47.6803 83.207 44.7281 83.0111 41.7881C82.9622 41.096 82.6868 40.4161 82.4727 39.7424C81.9036 37.9845 81.2121 37.7579 79.9271 39.1176C78.3544 40.7836 76.7757 42.4986 75.8884 44.6668C75.1541 46.4615 74.4872 48.2928 73.863 50.1303C73.5816 50.9449 73.4836 51.8269 73.2755 52.8314ZM83.2865 55.9C80.282 56.2001 77.4856 56.4696 74.683 56.7636C74.2179 56.8126 73.7529 56.9412 73.3123 57.1066C72.4617 57.4251 72.1374 57.9947 72.5963 59.0237C76.176 58.9012 79.7496 58.9196 83.2803 57.8967C83.2865 57.2781 83.2865 56.7636 83.2865 55.9ZM67.291 57.7191C66.6791 58.2336 66.2936 58.5521 65.6878 59.0544C66.8565 59.3484 67.4746 59.379 67.291 57.7191Z" fill="black"/>
<path id="Vector_3" d="M63.0197 63.3173C63.8581 63.2745 64.7698 63.2316 66.0671 63.1703C65.6326 64.1319 65.3695 64.8057 65.0391 65.4427C64.3538 66.7473 63.5215 67.96 63.4787 69.528C63.4053 72.3516 65.0391 74.3851 67.8294 74.8384C69.7569 75.1507 71.5805 74.6607 73.3611 74.0421C73.8078 73.889 74.1934 73.3806 74.4749 72.9457C75.919 70.6979 75.9801 68.3949 74.5605 66.1042C74.126 65.3998 73.6059 64.7444 73.2082 64.0217C72.8165 63.3112 73.0246 62.9253 73.8446 62.7906C74.4871 62.6865 75.1418 62.6803 75.7904 62.6252C78.3238 62.3986 80.8571 62.1291 83.3904 61.9576C84.6693 61.8657 85.9666 61.9392 87.3495 61.9392C88.0471 64.3586 88.2307 66.8085 88.1878 69.2892C88.1756 69.8771 88.1817 70.4651 88.194 71.0531C88.2307 72.4129 88.4326 73.7849 88.2919 75.1262C88.0838 77.0617 87.7228 78.9972 87.2516 80.8837C86.8049 82.6844 85.8503 83.9523 83.7821 84.4484C79.1009 85.5693 74.4381 86.5676 69.5856 86.1389C66.9299 85.9061 66.0427 85.0732 65.1432 82.5558C63.852 78.9421 63.6562 75.1507 63.0442 71.4206C62.622 68.8237 62.2732 66.2818 63.0197 63.3173Z" fill="#56C2E4"/>
<path id="Vector_4" d="M38.4453 79.7384C38.3535 79.0585 38.2127 78.6175 38.2372 78.1826C38.5676 73.2337 39.7915 68.5236 41.9271 64.0279C42.8572 62.0617 43.5364 59.9731 44.3502 57.9519C44.6378 57.2414 44.9805 56.5554 45.311 55.8633C45.8923 54.6383 45.7944 53.7747 44.8459 52.8437C42.9979 51.0368 41.7986 48.8992 41.7925 46.29C41.7863 43.9748 42.5818 41.8923 44.4236 40.165C47.3976 41.6167 50.3531 43.203 53.4188 44.526C56.4417 45.8306 59.5808 46.8719 62.6649 48.0234C62.7016 48.1397 62.7934 48.2684 62.7628 48.3541C61.4411 51.8453 59.5258 54.6812 55.3525 54.9997C54.1776 55.0915 53.0028 55.3488 51.8279 55.3733C50.757 55.3978 50.2124 55.9184 49.8636 56.8372C49.3435 58.2214 48.7683 59.5811 48.2726 60.9776C46.4981 65.9511 44.4421 70.7959 41.8904 75.4141C41.2356 76.6024 40.5074 77.7477 39.7364 78.8625C39.51 79.2055 39.0205 79.3647 38.4453 79.7384Z" fill="#69BFAF"/>
<path id="Vector_5" d="M83.2865 55.8999C83.2865 56.7635 83.2865 57.278 83.2865 57.8966C79.7496 58.9195 76.1822 58.895 72.6025 59.0236C72.1374 57.9885 72.4679 57.425 73.3184 57.1065C73.759 56.9411 74.2241 56.8125 74.6891 56.7635C77.4856 56.4695 80.2881 56.2 83.2865 55.8999Z" fill="#CE4530"/>
<path id="Vector_6" d="M67.2917 57.7191C67.4814 59.379 66.8634 59.3484 65.6885 59.0544C66.2943 58.5521 66.6737 58.2336 67.2917 57.7191Z" fill="#CE4530"/>
</g>
</g>
</svg>
