<svg width="112" height="108" viewBox="0 0 112 108" fill="none" xmlns="http://www.w3.org/2000/svg">
<g id="Group">
<path id="Vector" d="M106.072 54.4565C105.88 60.877 104.766 66.0756 102.415 71.0084C101.72 72.4735 101.274 74.0574 100.726 75.5904C100.03 77.5364 98.8888 79.1429 97.3403 80.5345C96.3118 81.4622 95.5714 82.7067 94.5994 83.708C90.1008 88.3579 85.4271 92.8268 79.7982 96.1135C75.26 98.7665 70.4562 100.712 65.1438 101.205C62.2729 101.47 59.4246 101.912 56.5536 102.161C55.2481 102.274 53.903 102.2 52.5975 102.042C46.347 101.295 40.4808 99.3492 34.914 96.3906C32.7269 95.2253 30.4155 94.2637 28.087 93.3925C22.8368 91.4239 18.6886 88.0129 15.1508 83.7646C14.2522 82.6841 13.4666 81.5188 12.6133 80.4044C9.95707 76.9481 8.15989 73.0109 7.2387 68.8305C5.76366 62.1498 5.36806 55.3276 7.37999 48.6695C8.88893 43.6859 10.6579 38.7588 12.6359 33.9391C14.0544 30.4885 16.2698 27.4564 18.9316 24.7637C21.8308 21.8335 24.3514 18.5412 27.6745 16.0126C32.0714 12.6638 37.0616 10.582 42.1479 8.58518C46.3696 6.92773 50.7608 6.65055 55.1746 6.22063C61.1313 5.64363 67.0145 6.2772 72.8638 7.21057C74.9831 7.54998 76.9894 8.56256 79.0748 9.15087C81.115 9.72787 83.1269 10.2653 84.5058 12.0755C84.7093 12.3413 85.184 12.4488 85.557 12.5223C88.2528 13.0484 89.8239 15.051 91.6832 16.8329C94.8593 19.8706 96.8713 23.6267 98.8097 27.4111C100.002 29.7304 100.601 32.3609 101.438 34.8612C101.754 35.8172 101.828 36.8864 102.268 37.7745C105.015 43.3634 105.642 49.3767 106.072 54.4565Z" fill="#E4E8EA" stroke="white" stroke-width="11.3386" stroke-miterlimit="10"/>
<path id="Vector_2" d="M16.8626 77.6891C15.6871 75.5735 15.8397 73.4239 16.0883 71.3365C16.2918 69.6338 16.7496 67.9368 17.2978 66.3019C19.1458 60.7469 21.7228 55.6388 25.9954 51.4584C28.5442 48.9637 31.0534 46.4521 33.9527 44.3647C38.6151 41.0159 43.8484 39.76 49.5112 40.2013C50.5115 40.2805 51.4949 40.6086 52.4669 40.8914C54.2245 41.3949 55.9765 41.9266 57.7172 42.4753C61.385 43.635 64.7532 42.8713 67.8842 40.8518C70.6195 39.0925 73.3605 37.3163 75.5533 34.8669C76.5027 33.8147 77.5199 32.7625 78.1925 31.535C79.7014 28.7858 81.7868 26.6418 84.3413 24.9052C85.8559 23.8756 87.3705 22.8517 88.9134 21.8675C89.5972 21.4319 90.3206 21.0472 91.0609 20.7191C92.6716 20.0007 93.8641 20.606 94.271 22.2917C94.4631 23.0837 94.2314 23.6437 93.4798 24.0793C93.0389 24.3338 92.5698 24.5318 92.1064 24.7355C88.3651 26.3364 85.3699 28.848 82.9906 32.129C79.6788 36.6997 75.7454 40.6199 70.8965 43.5671C67.0647 45.892 63.0296 47.4364 58.4632 46.5143C56.4795 46.1127 54.5128 45.5413 52.6026 44.8738C50.2685 44.0592 47.9118 43.601 45.4421 43.7481C43.5941 43.8556 41.8817 44.3308 40.1806 45.1001C34.953 47.4703 30.9235 51.3 27.1935 55.5087C24.4469 58.603 22.8588 62.3478 21.412 66.1718C20.2817 69.1586 19.7166 72.2246 19.6827 75.4094C19.6657 77.5307 19.6375 77.5251 16.8626 77.6891Z" fill="#CE4530" stroke="#CE4530" stroke-miterlimit="10"/>
<path id="Vector_3" d="M30.3698 80.8401C31.2062 82.588 31.7092 85.1902 30.285 87.7754C29.5843 89.0538 28.6574 90.2304 27.6797 91.3222C26.8433 92.2612 25.5886 92.5158 24.3736 92.6459C22.2373 92.8778 20.1011 93.2851 17.9874 92.4253C14.3761 90.9545 12.3303 88.358 12.0364 84.4209C11.929 82.9557 11.7821 81.5246 12.2059 80.0481C12.6411 78.5377 13.3928 77.231 14.2574 75.9752C14.5457 75.5566 14.9639 75.1493 15.416 74.9287C17.6314 73.8426 19.9202 73.2769 22.4125 73.8878C25.9391 74.7477 28.3353 76.9255 30.3698 80.8401ZM26.1425 81.2983C25.9051 80.8853 25.713 80.4441 25.4247 80.0707C24.4301 78.7866 23.2716 77.7232 21.5252 77.6949C20.7906 77.6836 20.0615 77.7967 19.3268 77.825C18.1739 77.8702 17.411 78.5208 16.6989 79.3523C15.2182 81.0946 14.913 83.0689 15.2351 85.2637C15.5573 87.4586 18.027 89.5912 20.2367 89.4158C21.2822 89.3367 22.3221 89.1839 23.3676 89.0538C24.6166 88.9011 25.4248 88.1883 26.0917 87.1305C27.3293 85.1676 27.0919 83.2612 26.1425 81.2983Z" fill="#394557"/>
<g id="Group_2">
<path id="Vector_4" d="M78.4581 44.8288C78.2546 45.8696 77.6725 46.407 76.757 46.8822C75.0785 47.759 73.4678 48.8055 71.9475 49.9312C71.2468 50.446 70.5686 50.825 69.7378 50.9834C68.7714 51.1644 68.1328 50.8759 67.7824 50.1236C67.449 49.4108 67.6241 48.5397 68.3419 48.0362C70.1052 46.803 71.908 45.6264 73.6938 44.4328C74.016 44.2178 74.372 44.0425 74.6998 43.8332C75.9036 43.0808 76.4574 43.1204 77.5934 44.0594C77.8872 44.314 78.1698 44.5742 78.4581 44.8288Z" fill="#56C2E4"/>
<path id="Vector_5" d="M31.9746 74.6913C32.2402 74.4254 32.4437 74.1312 32.7263 73.9559C34.5856 72.7962 36.4562 71.6592 38.3269 70.5165C38.6208 70.3355 38.909 70.1545 39.2142 70.0017C40.5649 69.3286 41.0339 69.453 41.9099 70.6806C42.4016 71.365 42.3733 72.1004 41.6556 72.5869C39.7171 73.8993 37.7278 75.1325 35.7498 76.3883C35.5463 76.5184 35.2977 76.5806 35.0603 76.6372C33.0541 77.1407 32.3024 76.9879 31.9746 74.6913Z" fill="#56C2E4"/>
<path id="Vector_6" d="M47.5894 67.4504C47.1768 67.456 46.6851 67.5183 46.2104 67.456C45.5718 67.3712 45.1988 66.9752 45.0462 66.3134C44.888 65.6176 44.984 64.9897 45.5831 64.6446C47.6515 63.4567 49.7369 62.2857 51.8619 61.1939C53.1052 60.5547 54.0094 60.9563 54.5859 62.2065C54.8684 62.8231 54.5802 63.649 53.8399 64.0789C52.1105 65.0802 50.3642 66.0475 48.6179 67.0205C48.3128 67.1789 47.985 67.2807 47.5894 67.4504Z" fill="#56C2E4"/>
<path id="Vector_7" d="M59.3391 59.4008C58.8361 59.4517 58.5423 59.4913 58.2484 59.5026C57.4968 59.5309 56.9316 59.265 56.6095 58.5353C56.2817 57.783 56.4851 57.155 57.1011 56.7195C58.3388 55.8483 59.5991 55.0111 60.8933 54.2248C61.5997 53.7949 62.3683 53.4555 63.1312 53.1443C64.0185 52.7823 65.3523 53.4385 65.7479 54.3775C66.0078 54.9828 65.6123 55.7917 64.6628 56.2104C63.2613 56.8269 62.0123 57.6359 60.8255 58.5975C60.3451 58.9879 59.7178 59.2028 59.3391 59.4008Z" fill="#56C2E4"/>
<path id="Vector_8" d="M82.103 41.3272C81.747 41.3894 81.6 41.4177 81.4587 41.446C80.7353 41.5874 80.0402 41.4912 79.6559 40.8181C79.3112 40.2184 79.4638 39.5566 79.9215 39.0475C80.4697 38.4365 81.0462 37.8369 81.6678 37.2939C82.3234 36.7169 83.0299 36.1908 83.7363 35.6703C85.0757 34.686 86.5112 35.0651 87.2515 36.5698C87.551 37.1807 87.4267 37.7747 86.7881 38.2499C85.5391 39.1776 84.2619 40.0657 82.9734 40.9425C82.6569 41.1575 82.2669 41.2593 82.103 41.3272Z" fill="#56C2E4"/>
</g>
<path id="Vector_9" d="M26.1431 81.2981C27.0925 83.2611 27.3299 85.1674 26.0922 87.136C25.4253 88.1938 24.6172 88.9009 23.3682 89.0593C22.3283 89.1894 21.2828 89.3422 20.2372 89.4213C18.0219 89.5967 15.5578 87.4641 15.2357 85.2692C14.9136 83.0744 15.2188 81.0945 16.6994 79.3578C17.4115 78.5263 18.1745 77.8757 19.3274 77.8305C20.0621 77.8022 20.7968 77.6891 21.5258 77.7004C23.2778 77.7287 24.4306 78.7921 25.4253 80.0762C25.7135 80.4439 25.9057 80.8908 26.1431 81.2981ZM24.6624 83.7815C23.6847 81.8638 22.1983 80.823 19.983 80.987C18.2253 81.1114 18.0614 81.2359 17.7506 82.9726C17.4737 84.4942 18.0953 86.1234 19.3895 86.7796C20.7911 87.4924 22.2887 87.7639 23.7299 86.8022C24.668 86.1687 25.1258 84.647 24.6624 83.7815Z" fill="white"/>
<path id="Vector_10" d="M24.662 83.7814C25.1254 84.6469 24.6677 86.1686 23.7239 86.8022C22.2828 87.7639 20.7851 87.4923 19.3836 86.7796C18.0894 86.1234 17.4733 84.4942 17.7446 82.9725C18.0611 81.2359 18.2193 81.1114 19.977 80.9869C22.198 80.8229 23.6843 81.8638 24.662 83.7814Z" fill="#394557"/>
<path id="Vector_11" d="M102.014 23.7567C102.85 25.5047 103.353 28.1068 101.929 30.692C101.228 31.9704 100.301 33.1471 99.3237 34.2388C98.4873 35.1779 97.2327 35.4324 96.0176 35.5625C93.8814 35.7945 91.7451 36.2018 89.6314 35.3419C86.0201 33.8711 83.9743 31.2746 83.6805 27.3375C83.5731 25.8724 83.4261 24.4412 83.85 22.9647C84.2851 21.4544 85.0368 20.1476 85.9015 18.8918C86.1897 18.4732 86.6079 18.0659 87.06 17.8453C89.2754 16.7592 91.5643 16.1935 94.0566 16.8045C97.5831 17.6643 99.9793 19.8422 102.014 23.7567ZM97.7866 24.2149C97.5492 23.802 97.357 23.3607 97.0688 22.9874C96.0741 21.7033 94.9156 20.6398 93.1693 20.6115C92.4346 20.6002 91.7055 20.7133 90.9708 20.7416C89.8179 20.7869 89.055 21.4374 88.3429 22.269C86.8623 24.0113 86.557 25.9855 86.8792 28.1804C87.2013 30.3752 89.6711 32.5078 91.8808 32.3325C92.9263 32.2533 93.9661 32.1005 95.0117 31.9704C96.2606 31.8177 97.0688 31.1049 97.7357 30.0471C98.9734 28.0842 98.736 26.1722 97.7866 24.2149Z" fill="#394557"/>
<path id="Vector_12" d="M97.7871 24.2151C98.7366 26.178 98.974 28.0844 97.7363 30.053C97.0694 31.1108 96.2612 31.8179 95.0122 31.9763C93.9724 32.1064 92.9269 32.2591 91.8814 32.3383C89.666 32.5137 87.2019 30.3811 86.8797 28.1862C86.5576 25.9914 86.8628 24.0115 88.3435 22.2748C89.0556 21.4433 89.8185 20.7927 90.9714 20.7475C91.7061 20.7192 92.4408 20.6061 93.1698 20.6174C94.9218 20.6457 96.0747 21.7091 97.0694 22.9932C97.3576 23.3553 97.5498 23.8022 97.7871 24.2151ZM96.3064 26.6928C95.3287 24.7751 93.8424 23.7343 91.627 23.8983C89.8694 24.0228 89.7055 24.1472 89.3947 25.8839C89.1178 27.4056 89.7394 29.0347 91.0336 29.6909C92.4352 30.4037 93.9272 30.6752 95.3739 29.7136C96.3177 29.0857 96.7755 27.5583 96.3064 26.6928Z" fill="white"/>
<path id="Vector_13" d="M96.3066 26.6927C96.77 27.5582 96.3122 29.0798 95.3684 29.7134C93.9273 30.6751 92.4297 30.4035 91.0281 29.6908C89.7339 29.0346 89.1179 27.4054 89.3891 25.8837C89.7056 24.1471 89.8638 24.0226 91.6214 23.8982C93.8481 23.7398 95.3288 24.775 96.3066 26.6927Z" fill="#394557"/>
</g>
</svg>
