<svg id="counting_x5F_board" enable-background="new 0 0 300 300" height="512" viewBox="0 0 300 300" width="512" xmlns="http://www.w3.org/2000/svg"><g><path d="m250 222h-3.886v-155.943c0-6.648-5.408-12.057-12.057-12.057s-12.057 5.409-12.057 12.057v3.829h-143.886v-3.829c0-6.648-5.408-12.057-12.056-12.057s-12.058 5.409-12.058 12.057v155.943h-4c-6.617 0-12 5.383-12 12s5.383 12 12 12h200c6.617 0 12-5.383 12-12s-5.383-12-12-12zm-20-155.943c0-2.237 1.82-4.057 4.058-4.057s4.057 1.82 4.057 4.057v155.943h-8.115zm-56 115.943c-6.617 0-12 5.383-12 12h-4c0-6.617-5.383-12-12-12s-12 5.383-12 12h-4c0-6.617-5.383-12-12-12s-12 5.383-12 12h-27.886v-32h11.886c0 6.617 5.383 12 12 12s12-5.383 12-12h48c0 6.617 5.383 12 12 12s12-5.383 12-12h4c0 6.617 5.383 12 12 12s12-5.383 12-12h8v32h-36c0-6.617-5.383-12-12-12zm4 12v8c0 2.206-1.794 4-4 4s-4-1.794-4-4v-8c0-2.206 1.794-4 4-4s4 1.794 4 4zm-28 0v8c0 2.206-1.794 4-4 4s-4-1.794-4-4v-8c0-2.206 1.794-4 4-4s4 1.794 4 4zm-28 0v8c0 2.206-1.794 4-4 4s-4-1.794-4-4v-8c0-2.206 1.794-4 4-4s4 1.794 4 4zm-4-60c6.617 0 12-5.383 12-12h4c0 6.617 5.383 12 12 12s12-5.383 12-12h4c0 6.617 5.383 12 12 12s12-5.383 12-12h36v32h-8c0-6.617-5.383-12-12-12s-12 5.383-12 12h-4c0-6.617-5.383-12-12-12s-12 5.383-12 12h-48c0-6.617-5.383-12-12-12s-12 5.383-12 12h-11.886v-32h27.886c0 6.617 5.383 12 12 12zm-4-12v-8c0-2.206 1.794-4 4-4s4 1.794 4 4v8c0 2.206-1.794 4-4 4s-4-1.794-4-4zm28 0v-8c0-2.206 1.794-4 4-4s4 1.794 4 4v8c0 2.206-1.794 4-4 4s-4-1.794-4-4zm28 0v-8c0-2.206 1.794-4 4-4s4 1.794 4 4v8c0 2.206-1.794 4-4 4s-4-1.794-4-4zm36 32v8c0 2.206-1.794 4-4 4s-4-1.794-4-4v-8c0-2.206 1.794-4 4-4s4 1.794 4 4zm-28 0v8c0 2.206-1.794 4-4 4s-4-1.794-4-4v-8c0-2.206 1.794-4 4-4s4 1.794 4 4zm-72 0v8c0 2.206-1.794 4-4 4s-4-1.794-4-4v-8c0-2.206 1.794-4 4-4s4 1.794 4 4zm116-40h-36c0-6.617-5.383-12-12-12s-12 5.383-12 12h-4c0-6.617-5.383-12-12-12s-12 5.383-12 12h-4c0-6.617-5.383-12-12-12s-12 5.383-12 12h-27.886v-24h143.886zm-143.886 88h27.886c0 6.617 5.383 12 12 12s12-5.383 12-12h4c0 6.617 5.383 12 12 12s12-5.383 12-12h4c0 6.617 5.383 12 12 12s12-5.383 12-12h36v20h-143.886zm143.886-124.114v4.114h-143.886v-4.114zm-160-11.829c0-2.237 1.82-4.057 4.058-4.057s4.057 1.82 4.057 4.057v155.943h-8.115zm188 171.943h-200c-2.206 0-4-1.794-4-4s1.794-4 4-4h200c2.206 0 4 1.794 4 4s-1.794 4-4 4z"/></g></svg>