<?xml version="1.0" standalone="no"?>
<!DOCTYPE svg PUBLIC "-//W3C//DTD SVG 20010904//EN"
 "http://www.w3.org/TR/2001/REC-SVG-20010904/DTD/svg10.dtd">
<svg version="1.0" xmlns="http://www.w3.org/2000/svg"
 width="474.000000pt" height="474.000000pt" viewBox="0 0 474.000000 474.000000"
 preserveAspectRatio="xMidYMid meet">

<g transform="translate(0.000000,474.000000) scale(0.100000,-0.100000)"
fill="#000000" stroke="none">
<path d="M2240 4649 c-450 -40 -839 -269 -1091 -643 -77 -114 -119 -197 -163
-325 -59 -168 -79 -284 -80 -451 0 -132 3 -155 32 -262 107 -395 349 -911 947
-2018 105 -195 243 -451 306 -569 63 -117 124 -220 135 -228 31 -20 70 -7 93
31 20 32 260 473 554 1016 436 806 711 1403 809 1755 31 113 33 130 33 275 -1
111 -6 179 -19 240 -100 469 -369 822 -786 1033 -226 114 -513 168 -770 146z
m-79 -797 c13 -16 16 -29 10 -45 -8 -21 -16 -22 -139 -27 -72 -3 -133 -8 -137
-12 -4 -4 7 -28 25 -53 28 -41 31 -52 25 -91 l-6 -44 362 2 361 3 19 47 18 46
-27 11 c-15 5 -47 15 -72 21 -52 14 -80 35 -80 62 0 17 12 18 200 18 161 0
200 -3 200 -14 0 -27 -46 -80 -80 -91 -28 -9 -39 -21 -54 -57 l-19 -45 74
-132 c69 -123 76 -131 99 -125 169 43 333 2 439 -111 113 -119 145 -273 90
-432 -39 -115 -124 -196 -251 -240 -60 -21 -85 -24 -157 -21 -115 6 -184 34
-261 105 -171 158 -179 415 -17 590 l42 45 -47 86 c-25 48 -50 88 -55 89 -8 3
-68 -139 -144 -338 -18 -46 -18 -47 6 -79 46 -63 45 -137 -4 -193 -28 -31 -28
-33 -14 -70 12 -28 21 -37 39 -37 17 0 24 -6 24 -20 0 -16 -7 -20 -32 -21 -18
-1 -37 0 -43 1 -5 2 -25 5 -42 8 -37 5 -45 31 -13 39 43 11 16 39 -44 45 -84
10 -141 69 -141 148 0 31 -6 55 -15 64 -27 26 -411 297 -428 302 -9 3 -3 -5
13 -17 93 -70 153 -162 176 -269 33 -153 -54 -344 -193 -427 -215 -129 -490
-48 -601 177 -30 61 -32 71 -32 175 0 103 2 114 32 177 41 88 113 160 201 201
64 30 73 32 185 32 l117 0 10 35 c5 19 22 88 37 153 l27 117 -27 28 c-71 74
-48 179 45 203 18 4 89 7 157 6 114 -3 125 -5 142 -25z"/>
<path d="M1922 3472 c-11 -7 -36 -72 -29 -78 1 -1 39 -28 83 -60 45 -33 152
-110 237 -171 86 -62 158 -113 161 -113 12 0 5 32 -14 70 -17 33 -26 40 -50
40 -23 0 -30 5 -30 19 0 13 10 20 36 24 52 9 132 -3 138 -20 8 -20 -2 -33 -25
-33 -23 0 -23 -3 -4 -40 28 -53 27 -54 115 180 32 85 61 163 65 173 7 16 -13
17 -331 17 -187 0 -345 -4 -352 -8z"/>
<path d="M2410 3008 c-58 -39 -65 -114 -15 -164 40 -40 138 -25 165 25 19 37
12 89 -17 121 -39 42 -87 49 -133 18z"/>
<path d="M1589 2981 c-34 -34 -37 -68 -9 -104 26 -33 63 -41 101 -22 53 28 60
85 16 133 -29 31 -72 29 -108 -7z"/>
<path d="M3015 2975 c-27 -26 -31 -54 -15 -86 8 -14 21 -19 55 -19 53 0 85 26
85 68 0 61 -79 84 -125 37z"/>
</g>
</svg>
