<svg id="Capa_1" enable-background="new 0 0 512 512" height="512" viewBox="0 0 512 512" width="512" xmlns="http://www.w3.org/2000/svg"><g><path d="m498.5 467h-30.669c26.54-16.982 44.169-46.721 44.169-80.5 0-52.659-42.841-95.5-95.5-95.5-25.82 0-49.275 10.305-66.482 27.011l-36.823-32.809 39.477-76.312h28.456c10.363 0 18.794-8.431 18.794-18.794v-3.706c0-12.406-10.094-22.5-22.5-22.5h-55c-12.406 0-22.5 10.094-22.5 22.5s10.094 22.5 22.5 22.5h13.362l-35.657 68.927-163.173-53.35 16.472-78.778c.074-.355.392-.613.754-.613h25.587c4.142 0 7.5-3.357 7.5-7.5s-3.358-7.5-7.5-7.5h-25.587c-7.424 0-13.917 5.275-15.437 12.543l-16.764 80.175h-10.846v-30.08c0-7.623-6.201-13.824-13.824-13.824h-10.883c-4.142 0-7.5 3.357-7.5 7.5s3.358 7.5 7.5 7.5h9.708v58.747c0 1.242-1.011 2.253-2.253 2.253h-26.439c-14.506 0-26.308-11.802-26.308-26.308v-34.692h9.85c4.142 0 7.5-3.357 7.5-7.5s-3.358-7.5-7.5-7.5h-11.026c-7.623 0-13.824 6.201-13.824 13.824v35.868c0 22.777 18.531 41.308 41.308 41.308h26.439c9.514 0 17.253-7.739 17.253-17.253v-14.843h7.709l-11.284 53.964c-3.951-.5-7.976-.759-12.06-.759-52.658.001-95.499 42.842-95.499 95.501 0 33.779 17.629 63.518 44.17 80.5h-30.67c-7.444 0-13.5 6.056-13.5 13.5 0 17.369 14.131 31.5 31.5 31.5h449c17.369 0 31.5-14.131 31.5-31.5 0-7.444-6.056-13.5-13.5-13.5zm-183.577-280.609c0-4.136 3.364-7.5 7.5-7.5h55c4.136 0 7.5 3.364 7.5 7.5v3.706c0 2.092-1.702 3.794-3.794 3.794h-58.706c-4.136 0-7.5-3.365-7.5-7.5zm101.353 172.608-21.923-1.488-10.707-9.54c8.854-7.561 20.326-12.142 32.855-12.142 10.277 0 20.179 3.074 28.633 8.89 3.415 2.349 8.082 1.484 10.43-1.928 2.348-3.413 1.484-8.082-1.928-10.43-10.967-7.545-23.808-11.532-37.135-11.532-16.977 0-32.47 6.476-44.139 17.087l-11.102-9.892c14.427-13.635 33.867-22.024 55.24-22.024 44.388 0 80.5 36.112 80.5 80.5s-36.112 80.5-80.5 80.5c-33.177 0-61.724-20.178-74.031-48.903l16.008-.89c11.04 20.776 32.901 34.962 58.023 34.962 36.21 0 65.669-29.459 65.669-65.669 0-8.086-1.461-15.989-4.343-23.488-1.485-3.867-5.826-5.8-9.69-4.312-3.867 1.485-5.797 5.824-4.312 9.69 2.22 5.777 3.345 11.87 3.345 18.109 0 27.939-22.729 50.669-50.669 50.669-16.825 0-31.752-8.25-40.972-20.909l40.697-2.261c38.657-4.057 34.613-52.939.051-54.999zm-162.458 4.005 3.442.234c10.867 1.584 19.241 10.962 19.241 22.261 0 5.498-1.985 10.539-5.272 14.451l-11.784-18.85c-2.193-3.512-6.822-4.582-10.334-2.384-3.513 2.195-4.58 6.822-2.385 10.335l11.583 18.531c-16.633 2.889-26.633-9.943-26.633-22.082 0-10.985 6.246-21.12 22.142-22.496zm108.669-13.793c-1.313 1.896-2.537 3.857-3.648 5.891l-15.969-1.084c2.313-5.223 5.163-10.154 8.485-14.725zm27.034 44.695c.635 2.266 1.552 4.413 2.712 6.403l-24.088 1.338c-.786-2.502-1.378-5.089-1.768-7.741zm13.979-7.406c0-6.893 5.607-12.5 12.5-12.5s12.5 5.607 12.5 12.5-5.607 12.5-12.5 12.5-12.5-5.607-12.5-12.5zm-12.355-11.755c-.632 1.332-1.156 2.723-1.57 4.161h-23.173c.421-2.791 1.08-5.502 1.938-8.125l19.87 1.349zm-38.138-5.005c-.787 2.978-1.361 6.04-1.723 9.167h-14.915c.326-3.465.882-6.861 1.634-10.186zm-31.705 9.166h-30.394c-.89-4.994-2.769-9.647-5.432-13.752l37.388 2.539c-.735 3.667-1.261 7.409-1.562 11.213zm-30.764 15h30.747c.268 3.479.729 6.903 1.361 10.269l-37.432 2.08c2.472-3.707 4.296-7.877 5.324-12.349zm45.816 0h14.906c.33 2.926.848 5.795 1.551 8.593l-15.027.835c-.658-3.082-1.136-6.228-1.43-9.428zm3.746-64.642c-5.392 7.18-9.794 15.143-13.009 23.682l-47.279-3.21 26.27-50.782zm-46.955-37.948-29.648 57.312s-8.717-.628-9.497-.628c-6.589 0-12.782 1.714-18.169 4.71l-84.121-107.636zm-160.493-46.269 91.778 117.433c-4.962 6.36-7.929 14.348-7.929 23.021 0 20.678 16.822 37.5 37.5 37.5.687 0 1.368-.021 2.046-.058.168-.009.33-.026.496-.038.465-.031.929-.063 1.389-.111l9.554-.531 6.149 9.838c-3.75.414-6.668 3.59-6.668 7.451 0 4.143 3.357 7.5 7.5 7.5h12.661c.005 0 .01.001.016.001.005 0 .01-.001.014-.001h12.649c4.143 0 7.5-3.357 7.5-7.5s-3.357-7.5-7.5-7.5h-8.513l-6.713-10.739 42.108-2.339c7.224 19.919 20.895 36.774 38.481 48.027h-218.34c26.54-16.982 44.17-46.721 44.17-80.5 0-43.378-29.073-80.088-68.755-91.683zm-117.652 141.453c0-44.388 36.112-80.5 80.5-80.5 3.035 0 6.026.184 8.975.513l-3.052 14.598c-1.952-.175-3.925-.28-5.922-.28-36.209 0-65.668 29.459-65.668 65.669s29.459 65.669 65.668 65.669c36.21 0 65.669-29.459 65.669-65.669 0-29.012-18.918-53.672-45.06-62.338l3.054-14.607c32.874 10.131 56.836 40.79 56.836 76.945 0 44.388-36.112 80.5-80.5 80.5s-80.5-36.112-80.5-80.5zm78.965 6.92c.518.108 1.034.161 1.543.161 3.476 0 6.594-2.43 7.333-5.967l2.183-10.442c2.154 2.322 3.482 5.419 3.482 8.828 0 7.172-5.835 13.007-13.007 13.007s-13.006-5.835-13.006-13.007c0-5.343 3.24-9.94 7.857-11.939l-2.192 10.483c-.847 4.055 1.753 8.028 5.807 8.876zm-.268-35.362c-14.605.933-26.204 13.105-26.204 27.942 0 15.443 12.564 28.007 28.007 28.007s28.007-12.563 28.007-28.007c0-10.802-6.151-20.188-15.13-24.858l4.639-22.187c19.333 7.145 33.153 25.76 33.153 47.545 0 27.939-22.73 50.669-50.669 50.669-27.938 0-50.668-22.729-50.668-50.669s22.73-50.669 50.668-50.669c.949 0 1.891.031 2.827.083zm386.803 138.942h-449c-8.593 0-15.672-6.602-16.433-15h481.865c-.759 8.398-7.839 15-16.432 15z"/><path d="m237.682 183.984c12.39 11.459 16.394 11.459 18.318 11.459s5.928 0 18.318-11.459c7.881-7.288 16.2-16.627 23.425-26.295 14.671-19.632 32.16-50.104 32.16-83.786 0-9.974-1.955-19.653-5.812-28.77-1.613-3.816-6.016-5.599-9.829-3.985-3.814 1.613-5.6 6.014-3.985 9.829 3.069 7.257 4.626 14.971 4.626 22.926 0 28.398-14.774 54.867-27.168 72.07-12.988 18.029-26.408 30.113-31.735 33.735-5.327-3.622-18.747-15.706-31.735-33.735-12.394-17.203-27.167-43.672-27.167-72.07-.001-32.479 26.423-58.903 58.902-58.903 12.931 0 25.2 4.108 35.483 11.882 3.306 2.5 8.008 1.846 10.505-1.46 2.498-3.304 1.845-8.007-1.46-10.505-12.908-9.759-28.305-14.917-44.528-14.917-40.75 0-73.903 33.153-73.903 73.903 0 33.682 17.489 64.154 32.16 83.786 7.225 9.668 15.544 19.007 23.425 26.295z"/><path d="m256 33.924c-22.045 0-39.98 17.935-39.98 39.979s17.935 39.979 39.98 39.979 39.979-17.935 39.979-39.979-17.934-39.979-39.979-39.979zm0 64.959c-13.774 0-24.98-11.206-24.98-24.979s11.206-24.98 24.98-24.98c13.773 0 24.979 11.206 24.979 24.979s-11.206 24.98-24.979 24.98z"/></g></svg>