<?xml version="1.0" encoding="UTF-8" standalone="no"?>
<svg
   xmlns:dc="http://purl.org/dc/elements/1.1/"
   xmlns:cc="http://creativecommons.org/ns#"
   xmlns:rdf="http://www.w3.org/1999/02/22-rdf-syntax-ns#"
   xmlns:svg="http://www.w3.org/2000/svg"
   xmlns="http://www.w3.org/2000/svg"
   viewBox="0 0 244.88933 136"
   height="136"
   width="244.88933"
   xml:space="preserve"
   id="svg2"
   version="1.1"><metadata
     id="metadata8"><rdf:RDF><cc:Work
         rdf:about=""><dc:format>image/svg+xml</dc:format><dc:type
           rdf:resource="http://purl.org/dc/dcmitype/StillImage" /></cc:Work></rdf:RDF></metadata><defs
     id="defs6"><clipPath
       id="clipPath30"
       clipPathUnits="userSpaceOnUse"><path
         id="path28"
         d="M 0,102 H 183.667 V 0 H 0 Z" /></clipPath></defs><g
     transform="matrix(1.3333333,0,0,-1.3333333,0,136)"
     id="g10"><g
       transform="translate(43.5369,77.5393)"
       id="g12"><path
         id="path14"
         style="fill:none;stroke:#1c7c7e;stroke-width:5.66900015;stroke-linecap:butt;stroke-linejoin:round;stroke-miterlimit:10;stroke-dasharray:none;stroke-opacity:1"
         d="M 0,0 25.219,-50.157" /></g><g
       transform="translate(119.1926,27.3824)"
       id="g16"><path
         id="path18"
         style="fill:none;stroke:#1c7c7e;stroke-width:5.66900015;stroke-linecap:butt;stroke-linejoin:round;stroke-miterlimit:10;stroke-dasharray:none;stroke-opacity:1"
         d="m 0,0 h -90.787 l 27.741,25.078" /></g><g
       transform="translate(34.6819,78.6586)"
       id="g20"><path
         id="path22"
         style="fill:none;stroke:#1c7c7e;stroke-width:5.66900015;stroke-linecap:round;stroke-linejoin:round;stroke-miterlimit:10;stroke-dasharray:none;stroke-opacity:1"
         d="M 0,0 H 19.076" /></g><g
       id="g24"><g
         clip-path="url(#clipPath30)"
         id="g26"><g
           transform="translate(95.7382,30.1109)"
           id="g32"><path
             id="path34"
             style="fill:none;stroke:#1c7c7e;stroke-width:5.66900015;stroke-linecap:butt;stroke-linejoin:round;stroke-miterlimit:10;stroke-dasharray:none;stroke-opacity:1"
             d="m 0,0 v 48.765 c 0,1.421 1.193,2.551 2.612,2.474 l 79.342,-4.323 c 1.314,-0.071 2.342,-1.158 2.342,-2.473 V 1.838 c 0,-1.346 -1.074,-2.445 -2.42,-2.476 L 2.535,-2.477 C 1.144,-2.509 0,-1.391 0,0 Z" /></g><g
           transform="translate(53.0241,27.5755)"
           id="g36"><path
             id="path38"
             style="fill:none;stroke:#1c7c7e;stroke-width:5.66900015;stroke-linecap:butt;stroke-linejoin:round;stroke-miterlimit:10;stroke-dasharray:none;stroke-opacity:1"
             d="m 0,0 c 0,-13.524 -10.963,-24.487 -24.487,-24.487 -13.524,0 -24.487,10.963 -24.487,24.487 0,13.524 10.963,24.487 24.487,24.487 C -10.963,24.487 0,13.524 0,0 Z" /></g><g
           transform="translate(164.5356,27.5755)"
           id="g40"><path
             id="path42"
             style="fill:#ffffff;fill-opacity:1;fill-rule:nonzero;stroke:none"
             d="m 0,0 c 0,-13.524 -10.963,-24.487 -24.487,-24.487 -13.524,0 -24.487,10.963 -24.487,24.487 0,13.524 10.963,24.487 24.487,24.487 C -10.963,24.487 0,13.524 0,0" /></g><g
           transform="translate(164.5356,27.5755)"
           id="g44"><path
             id="path46"
             style="fill:none;stroke:#1c7c7e;stroke-width:5.66900015;stroke-linecap:butt;stroke-linejoin:round;stroke-miterlimit:10;stroke-dasharray:none;stroke-opacity:1"
             d="m 0,0 c 0,-13.524 -10.963,-24.487 -24.487,-24.487 -13.524,0 -24.487,10.963 -24.487,24.487 0,13.524 10.963,24.487 24.487,24.487 C -10.963,24.487 0,13.524 0,0 Z" /></g><g
           transform="translate(143.9969,27.5755)"
           id="g48"><path
             id="path50"
             style="fill:#1c7c7e;fill-opacity:1;fill-rule:nonzero;stroke:none"
             d="m 0,0 c 0,-2.181 -1.768,-3.948 -3.948,-3.948 -2.181,0 -3.948,1.767 -3.948,3.948 0,2.181 1.767,3.948 3.948,3.948 C -1.768,3.948 0,2.181 0,0" /></g><g
           transform="translate(86.0394,95.9266)"
           id="g52"><path
             id="path54"
             style="fill:#1c7c7e;fill-opacity:1;fill-rule:nonzero;stroke:none"
             d="m 0,0 c 0,-2.181 -1.768,-3.948 -3.948,-3.948 -2.181,0 -3.948,1.767 -3.948,3.948 0,2.181 1.767,3.948 3.948,3.948 C -1.768,3.948 0,2.181 0,0" /></g><g
           transform="translate(59.6273,13.9105)"
           id="g56"><path
             id="path58"
             style="fill:none;stroke:#1c7c7e;stroke-width:5.66900015;stroke-linecap:butt;stroke-linejoin:round;stroke-miterlimit:10;stroke-dasharray:none;stroke-opacity:1"
             d="M 0,0 16.875,26.011" /></g><g
           transform="translate(55.211,13.9105)"
           id="g60"><path
             id="path62"
             style="fill:none;stroke:#1c7c7e;stroke-width:5.66900015;stroke-linecap:round;stroke-linejoin:round;stroke-miterlimit:10;stroke-dasharray:none;stroke-opacity:1"
             d="M 0,0 H 11.903" /></g><g
           transform="translate(69.5505,39.2542)"
           id="g64"><path
             id="path66"
             style="fill:none;stroke:#1c7c7e;stroke-width:5.66900015;stroke-linecap:round;stroke-linejoin:round;stroke-miterlimit:10;stroke-dasharray:none;stroke-opacity:1"
             d="M 0,0 H 11.903" /></g><g
           transform="translate(97.5753,81.2569)"
           id="g68"><path
             id="path70"
             style="fill:none;stroke:#1c7c7e;stroke-width:5.66900015;stroke-linecap:round;stroke-linejoin:round;stroke-miterlimit:10;stroke-dasharray:none;stroke-opacity:1"
             d="M 0,0 -3.937,6.665 -15.484,14.67" /></g></g></g></g></svg>