<?xml version="1.0" encoding="UTF-8" standalone="no"?>
<svg
   xmlns:dc="http://purl.org/dc/elements/1.1/"
   xmlns:cc="http://creativecommons.org/ns#"
   xmlns:rdf="http://www.w3.org/1999/02/22-rdf-syntax-ns#"
   xmlns:svg="http://www.w3.org/2000/svg"
   xmlns="http://www.w3.org/2000/svg"
   viewBox="0 0 138.66667 150.22267"
   height="150.22267"
   width="138.66667"
   xml:space="preserve"
   id="svg2"
   version="1.1"><metadata
     id="metadata8"><rdf:RDF><cc:Work
         rdf:about=""><dc:format>image/svg+xml</dc:format><dc:type
           rdf:resource="http://purl.org/dc/dcmitype/StillImage" /></cc:Work></rdf:RDF></metadata><defs
     id="defs6"><clipPath
       id="clipPath18"
       clipPathUnits="userSpaceOnUse"><path
         id="path16"
         d="M 0,112.667 H 104 V 0 H 0 Z" /></clipPath></defs><g
     transform="matrix(1.3333333,0,0,-1.3333333,0,150.22267)"
     id="g10"><g
       id="g12"><g
         clip-path="url(#clipPath18)"
         id="g14"><g
           transform="translate(31.699,17.4277)"
           id="g20"><path
             id="path22"
             style="fill:none;stroke:#1c7c7e;stroke-width:5.66900015;stroke-linecap:butt;stroke-linejoin:round;stroke-miterlimit:10;stroke-dasharray:none;stroke-opacity:1"
             d="m 0,0 c 0,-7.835 -6.352,-14.187 -14.187,-14.187 -7.835,0 -14.187,6.352 -14.187,14.187 0,7.835 6.352,14.187 14.187,14.187 C -6.352,14.187 0,7.835 0,0 Z" /></g><g
           transform="translate(100.5642,17.4277)"
           id="g24"><path
             id="path26"
             style="fill:none;stroke:#1c7c7e;stroke-width:5.66900015;stroke-linecap:butt;stroke-linejoin:round;stroke-miterlimit:10;stroke-dasharray:none;stroke-opacity:1"
             d="m 0,0 c 0,-7.835 -6.352,-14.187 -14.187,-14.187 -7.835,0 -14.187,6.352 -14.187,14.187 0,7.835 6.352,14.187 14.187,14.187 C -6.352,14.187 0,7.835 0,0 Z" /></g><g
           transform="translate(57.9367,94.072)"
           id="g28"><path
             id="path30"
             style="fill:#ffffff;fill-opacity:1;fill-rule:nonzero;stroke:none"
             d="m 0,0 c 0,-5.534 -4.486,-10.021 -10.021,-10.021 -5.534,0 -10.02,4.487 -10.02,10.021 0,5.534 4.486,10.021 10.02,10.021 C -4.486,10.021 0,5.534 0,0" /></g><g
           transform="translate(57.9367,94.072)"
           id="g32"><path
             id="path34"
             style="fill:none;stroke:#1c7c7e;stroke-width:5.66900015;stroke-linecap:butt;stroke-linejoin:round;stroke-miterlimit:10;stroke-dasharray:none;stroke-opacity:1"
             d="m 0,0 c 0,-5.534 -4.486,-10.021 -10.021,-10.021 -5.534,0 -10.02,4.487 -10.02,10.021 0,5.534 4.486,10.021 10.02,10.021 C -4.486,10.021 0,5.534 0,0 Z" /></g><g
           transform="translate(21.4973,17.4277)"
           id="g36"><path
             id="path38"
             style="fill:#1c7c7e;fill-opacity:1;fill-rule:nonzero;stroke:none"
             d="m 0,0 c 0,-2.201 -1.784,-3.985 -3.985,-3.985 -2.201,0 -3.985,1.784 -3.985,3.985 0,2.201 1.784,3.985 3.985,3.985 C -1.784,3.985 0,2.201 0,0" /></g><g
           transform="translate(90.3626,17.4277)"
           id="g40"><path
             id="path42"
             style="fill:#1c7c7e;fill-opacity:1;fill-rule:nonzero;stroke:none"
             d="m 0,0 c 0,-2.201 -1.784,-3.985 -3.985,-3.985 -2.201,0 -3.985,1.784 -3.985,3.985 0,2.201 1.784,3.985 3.985,3.985 C -1.784,3.985 0,2.201 0,0" /></g><g
           transform="translate(80.359,46.2051)"
           id="g44"><path
             id="path46"
             style="fill:none;stroke:#1c7c7e;stroke-width:5.66900015;stroke-linecap:butt;stroke-linejoin:round;stroke-miterlimit:10;stroke-dasharray:none;stroke-opacity:1"
             d="m 0,0 -38.846,-4.423 -24.001,-24.354 25.539,3.985 38.462,18.254" /></g><g
           transform="translate(73.8205,61.7821)"
           id="g48"><path
             id="path50"
             style="fill:none;stroke:#1c7c7e;stroke-width:5.66900015;stroke-linecap:butt;stroke-linejoin:round;stroke-miterlimit:10;stroke-dasharray:none;stroke-opacity:1"
             d="m 0,0 3.846,-1.538 8.711,-42.816" /></g><g
           transform="translate(60,70)"
           id="g52"><path
             id="path54"
             style="fill:#ffffff;fill-opacity:1;fill-rule:nonzero;stroke:none"
             d="m 0,0 11.112,-2.291 c 2.752,-0.568 4.472,-3.32 3.775,-6.042 v 0 c -0.611,-2.387 -2.892,-3.954 -5.339,-3.669 l -12.881,1.502 -10.334,5.667 -2.5,-8.667 16.122,-9.154 c 2.131,-1.21 3.285,-3.618 2.892,-6.037 l -3.535,-21.803 c -0.452,-2.787 -3.04,-4.709 -5.839,-4.336 v 0 c -2.777,0.371 -4.766,2.869 -4.505,5.658 l 1.203,12.825 c 0.19,2.036 -1.033,3.94 -2.969,4.601 -5.876,2.007 -17.786,6.407 -20.369,9.913 -4.734,6.427 0.5,32.666 12.834,32.5 C -8,10.5 -7.333,3.833 0,0" /></g><g
           transform="translate(60,70)"
           id="g56"><path
             id="path58"
             style="fill:none;stroke:#1c7c7e;stroke-width:5.66900015;stroke-linecap:butt;stroke-linejoin:round;stroke-miterlimit:10;stroke-dasharray:none;stroke-opacity:1"
             d="m 0,0 11.112,-2.291 c 2.752,-0.568 4.472,-3.32 3.775,-6.042 v 0 c -0.611,-2.387 -2.892,-3.954 -5.339,-3.669 l -12.881,1.502 -10.334,5.667 -2.5,-8.667 16.122,-9.154 c 2.131,-1.21 3.285,-3.618 2.892,-6.037 l -3.535,-21.803 c -0.452,-2.787 -3.04,-4.709 -5.839,-4.336 v 0 c -2.777,0.371 -4.766,2.869 -4.505,5.658 l 1.203,12.825 c 0.19,2.036 -1.033,3.94 -2.969,4.601 -5.876,2.007 -17.786,6.407 -20.369,9.913 -4.734,6.427 0.5,32.666 12.834,32.5 C -8,10.5 -7.333,3.833 0,0 Z" /></g><g
           transform="translate(36.801,101.2189)"
           id="g60"><path
             id="path62"
             style="fill:#ffffff;fill-opacity:1;fill-rule:nonzero;stroke:none"
             d="m 0,0 c 0,0 5.375,-6.845 27.111,-4.822 1.129,0.105 1.751,1.398 1.273,2.426 C 25.935,2.872 7.25,15.75 0,0" /></g><g
           transform="translate(36.801,101.2189)"
           id="g64"><path
             id="path66"
             style="fill:none;stroke:#1c7c7e;stroke-width:5.66900015;stroke-linecap:butt;stroke-linejoin:round;stroke-miterlimit:10;stroke-dasharray:none;stroke-opacity:1"
             d="m 0,0 c 0,0 5.375,-6.845 27.111,-4.822 1.129,0.105 1.751,1.398 1.273,2.426 C 25.935,2.872 7.25,15.75 0,0 Z" /></g><g
           transform="translate(49.4516,84.9482)"
           id="g68"><path
             id="path70"
             style="fill:#ffffff;fill-opacity:1;fill-rule:nonzero;stroke:#1c7c7e;stroke-width:5.66900015;stroke-linecap:butt;stroke-linejoin:round;stroke-miterlimit:10;stroke-dasharray:none;stroke-opacity:1"
             d="M 0,0 -3.071,10.886" /></g></g></g></g></svg>