<?xml version="1.0" encoding="UTF-8" standalone="no"?>
<svg
   xmlns:dc="http://purl.org/dc/elements/1.1/"
   xmlns:cc="http://creativecommons.org/ns#"
   xmlns:rdf="http://www.w3.org/1999/02/22-rdf-syntax-ns#"
   xmlns:svg="http://www.w3.org/2000/svg"
   xmlns="http://www.w3.org/2000/svg"
   viewBox="0 0 180.14532 178.85333"
   height="178.85333"
   width="180.14532"
   xml:space="preserve"
   id="svg2"
   version="1.1"><metadata
     id="metadata8"><rdf:RDF><cc:Work
         rdf:about=""><dc:format>image/svg+xml</dc:format><dc:type
           rdf:resource="http://purl.org/dc/dcmitype/StillImage" /></cc:Work></rdf:RDF></metadata><defs
     id="defs6"><clipPath
       id="clipPath18"
       clipPathUnits="userSpaceOnUse"><path
         id="path16"
         d="M 0,134.14 H 135.109 V 0 H 0 Z" /></clipPath></defs><g
     transform="matrix(1.3333333,0,0,-1.3333333,0,178.85333)"
     id="g10"><g
       id="g12"><g
         clip-path="url(#clipPath18)"
         id="g14"><g
           transform="translate(95.9867,33.7648)"
           id="g20"><path
             id="path22"
             style="fill:none;stroke:#1c7c7e;stroke-width:5.66900015;stroke-linecap:butt;stroke-linejoin:round;stroke-miterlimit:10;stroke-dasharray:none;stroke-opacity:1"
             d="m 0,0 v -30.307 h -44 v 15.154 h -7.877 c -8.352,0 -15.123,6.77 -15.123,15.122 v 10.399 h -7.035 c -1.436,0 -2.431,1.433 -1.93,2.779 l 7.632,20.491" /></g><g
           transform="translate(61.0288,39.0755)"
           id="g24"><path
             id="path26"
             style="fill:#ffffff;fill-opacity:1;fill-rule:nonzero;stroke:#1c7c7e;stroke-width:5.66900015;stroke-linecap:butt;stroke-linejoin:round;stroke-miterlimit:10;stroke-dasharray:none;stroke-opacity:1"
             d="m 0,0 -14.374,-17.952 c -1.089,-1.36 -0.803,-3.358 0.626,-4.357 l 2.285,-1.599 c 1.345,-0.941 3.196,-0.634 4.165,0.692 L 7.007,-3.645" /></g><g
           transform="translate(113.9805,33.7648)"
           id="g28"><path
             id="path30"
             style="fill:none;stroke:#1c7c7e;stroke-width:5.66900015;stroke-linecap:butt;stroke-linejoin:round;stroke-miterlimit:10;stroke-dasharray:none;stroke-opacity:1"
             d="m 0,0 c 10.811,10.284 17.497,24.492 17.497,40.185 0,31.386 -26.746,56.83 -59.739,56.83 -28.642,0 -44.096,-19.174 -49.912,-44.765 l -17.468,-15.163 c -1.373,-1.192 -0.531,-3.449 1.288,-3.449 h 46.064 c 0,0 -5.477,-33.638 27.73,-33.638 z" /></g><g
           transform="translate(76.1354,48.2392)"
           id="g32"><path
             id="path34"
             style="fill:none;stroke:#1c7c7e;stroke-width:5.66900015;stroke-linecap:butt;stroke-linejoin:round;stroke-miterlimit:10;stroke-dasharray:none;stroke-opacity:1"
             d="m 0,0 c 0,-3.099 -2.512,-5.611 -5.611,-5.611 -3.099,0 -5.611,2.512 -5.611,5.611 0,3.099 2.512,5.611 5.611,5.611 C -2.512,5.611 0,3.099 0,0 Z" /></g></g></g></g></svg>