<?xml version="1.0" encoding="UTF-8" standalone="no"?>
<svg
   xmlns:dc="http://purl.org/dc/elements/1.1/"
   xmlns:cc="http://creativecommons.org/ns#"
   xmlns:rdf="http://www.w3.org/1999/02/22-rdf-syntax-ns#"
   xmlns:svg="http://www.w3.org/2000/svg"
   xmlns="http://www.w3.org/2000/svg"
   viewBox="0 0 195.10268 194.96133"
   height="194.96133"
   width="195.10268"
   xml:space="preserve"
   id="svg2"
   version="1.1"><metadata
     id="metadata8"><rdf:RDF><cc:Work
         rdf:about=""><dc:format>image/svg+xml</dc:format><dc:type
           rdf:resource="http://purl.org/dc/dcmitype/StillImage" /></cc:Work></rdf:RDF></metadata><defs
     id="defs6"><clipPath
       id="clipPath18"
       clipPathUnits="userSpaceOnUse"><path
         id="path16"
         d="M 0,146.221 H 146.327 V 0 H 0 Z" /></clipPath></defs><g
     transform="matrix(1.3333333,0,0,-1.3333333,0,194.96133)"
     id="g10"><g
       id="g12"><g
         clip-path="url(#clipPath18)"
         id="g14"><g
           transform="translate(93.6169,27.6295)"
           id="g20"><path
             id="path22"
             style="fill:none;stroke:#1c7c7e;stroke-width:5.66900015;stroke-linecap:butt;stroke-linejoin:round;stroke-miterlimit:10;stroke-dasharray:none;stroke-opacity:1"
             d="m 0,0 c 0,-13.524 10.963,-24.487 24.487,-24.487 13.524,0 24.487,10.963 24.487,24.487 0,13.524 -10.963,24.487 -24.487,24.487 C 10.963,24.487 0,13.524 0,0 Z" /></g><g
           transform="translate(3.7363,27.6295)"
           id="g24"><path
             id="path26"
             style="fill:none;stroke:#1c7c7e;stroke-width:5.66900015;stroke-linecap:butt;stroke-linejoin:round;stroke-miterlimit:10;stroke-dasharray:none;stroke-opacity:1"
             d="m 0,0 c 0,-13.524 10.963,-24.487 24.487,-24.487 13.524,0 24.487,10.963 24.487,24.487 0,13.524 -10.963,24.487 -24.487,24.487 C 10.963,24.487 0,13.524 0,0 Z" /></g><g
           transform="translate(55.9257,26.0676)"
           id="g28"><path
             id="path30"
             style="fill:none;stroke:#1c7c7e;stroke-width:5.66900015;stroke-linecap:butt;stroke-linejoin:round;stroke-miterlimit:10;stroke-dasharray:none;stroke-opacity:1"
             d="m 0,0 c 0,-6.037 4.894,-10.931 10.931,-10.931 6.037,0 10.931,4.894 10.931,10.931 0,6.037 -4.894,10.931 -10.931,10.931 C 4.894,10.931 0,6.037 0,0 Z" /></g><g
           transform="translate(98.6777,56.9223)"
           id="g32"><path
             id="path34"
             style="fill:none;stroke:#1c7c7e;stroke-width:5.66900015;stroke-linecap:round;stroke-linejoin:round;stroke-miterlimit:10;stroke-dasharray:none;stroke-opacity:1"
             d="M 0,0 -29.351,-29.293 H -71.73 L -42.752,13.025 -2.444,8.67" /></g><g
           transform="translate(95.4137,74.8483)"
           id="g36"><path
             id="path38"
             style="fill:none;stroke:#1c7c7e;stroke-width:5.66900015;stroke-linecap:round;stroke-linejoin:round;stroke-miterlimit:10;stroke-dasharray:none;stroke-opacity:1"
             d="m 0,0 11.367,-39.042 c 0,0 2.965,-8.177 11.323,-8.177" /></g><g
           transform="translate(55.9257,69.9476)"
           id="g40"><path
             id="path42"
             style="fill:none;stroke:#1c7c7e;stroke-width:5.66900015;stroke-linecap:round;stroke-linejoin:round;stroke-miterlimit:10;stroke-dasharray:none;stroke-opacity:1"
             d="M 0,0 7.526,-32.949" /></g><g
           transform="translate(114.3581,72.8715)"
           id="g44"><path
             id="path46"
             style="fill:none;stroke:#1c7c7e;stroke-width:5.66900015;stroke-linecap:round;stroke-linejoin:round;stroke-miterlimit:10;stroke-dasharray:none;stroke-opacity:1"
             d="M 0,0 C 0,0 -1.69,-5.603 -7.599,-7.414" /></g><g
           transform="translate(94.8647,90.212)"
           id="g48"><path
             id="path50"
             style="fill:#ffffff;fill-opacity:1;fill-rule:nonzero;stroke:none"
             d="m 0,0 -14.558,28.415 c -2.105,4.109 -7.837,4.477 -10.45,0.671 L -46.839,-2.713 c -1.582,-2.304 -1.394,-5.389 0.455,-7.484 l 16.85,-19.088 c 0.984,-1.114 1.526,-2.548 1.526,-4.034 v -28.499 c 0,-3.367 2.729,-6.096 6.096,-6.096 h 1.84 c 3.313,0 6.019,2.646 6.094,5.959 l 0.801,35.644 c 0.034,1.531 -0.509,3.019 -1.522,4.168 l -8.745,9.918 c -1.869,2.119 -2.036,5.244 -0.404,7.551 l 6.598,9.328 c 0.08,0.113 0.251,0.104 0.318,-0.017 l 8.814,-15.951 c 0.897,-1.623 2.482,-2.749 4.309,-3.061 l 22.368,-3.819 c 3.266,-0.558 6.38,1.596 7.01,4.849 v 0 c 0.646,3.332 -1.555,6.549 -4.894,7.156 L 4.335,-3.218 C 2.468,-2.878 0.865,-1.689 0,0" /></g><g
           transform="translate(94.8647,90.212)"
           id="g52"><path
             id="path54"
             style="fill:none;stroke:#1c7c7e;stroke-width:5.66900015;stroke-linecap:round;stroke-linejoin:round;stroke-miterlimit:10;stroke-dasharray:none;stroke-opacity:1"
             d="m 0,0 -14.558,28.415 c -2.105,4.109 -7.837,4.477 -10.45,0.671 L -46.839,-2.713 c -1.582,-2.304 -1.394,-5.389 0.455,-7.484 l 16.85,-19.088 c 0.984,-1.114 1.526,-2.548 1.526,-4.034 v -28.499 c 0,-3.367 2.729,-6.096 6.096,-6.096 h 1.84 c 3.313,0 6.019,2.646 6.094,5.959 l 0.801,35.644 c 0.034,1.531 -0.509,3.019 -1.522,4.168 l -8.745,9.918 c -1.869,2.119 -2.036,5.244 -0.404,7.551 l 6.598,9.328 c 0.08,0.113 0.251,0.104 0.318,-0.017 l 8.814,-15.951 c 0.897,-1.623 2.482,-2.749 4.309,-3.061 l 22.368,-3.819 c 3.266,-0.558 6.38,1.596 7.01,4.849 v 0 c 0.646,3.332 -1.555,6.549 -4.894,7.156 L 4.335,-3.218 C 2.468,-2.878 0.865,-1.689 0,0 Z" /></g><g
           transform="translate(75.6444,98.9302)"
           id="g56"><path
             id="path58"
             style="fill:#ffffff;fill-opacity:1;fill-rule:nonzero;stroke:#1c7c7e;stroke-width:5.66900015;stroke-linecap:round;stroke-linejoin:round;stroke-miterlimit:10;stroke-dasharray:none;stroke-opacity:1"
             d="M 0,0 8.963,-16.161" /></g><g
           transform="translate(74.227,127.7637)"
           id="g60"><path
             id="path62"
             style="fill:#ffffff;fill-opacity:1;fill-rule:nonzero;stroke:none"
             d="m 0,0 c 0,-6.75 5.472,-12.221 12.221,-12.221 6.75,0 12.222,5.471 12.222,12.221 0,6.75 -5.472,12.221 -12.222,12.221 C 5.472,12.221 0,6.75 0,0" /></g><g
           transform="translate(74.227,127.7637)"
           id="g64"><path
             id="path66"
             style="fill:none;stroke:#1c7c7e;stroke-width:5.66900015;stroke-linecap:round;stroke-linejoin:round;stroke-miterlimit:10;stroke-dasharray:none;stroke-opacity:1"
             d="m 0,0 c 0,-6.75 5.472,-12.221 12.221,-12.221 6.75,0 12.222,5.471 12.222,12.221 0,6.75 -5.472,12.221 -12.222,12.221 C 5.472,12.221 0,6.75 0,0 Z" /></g><g
           transform="translate(14.5346,109.88)"
           id="g68"><path
             id="path70"
             style="fill:#ffffff;fill-opacity:1;fill-rule:nonzero;stroke:none"
             d="M 0,0 32.595,-22.918 55.514,9.677 22.918,32.595 Z" /></g><g
           transform="translate(14.5346,109.88)"
           id="g72"><path
             id="path74"
             style="fill:none;stroke:#1c7c7e;stroke-width:5.66900015;stroke-linecap:round;stroke-linejoin:round;stroke-miterlimit:10;stroke-dasharray:none;stroke-opacity:1"
             d="M 0,0 32.595,-22.918 55.514,9.677 22.918,32.595 Z" /></g><g
           transform="translate(77.9327,94.8486)"
           id="g76"><path
             id="path78"
             style="fill:#ffffff;fill-opacity:1;fill-rule:nonzero;stroke:#1c7c7e;stroke-width:5.66900015;stroke-linecap:round;stroke-linejoin:round;stroke-miterlimit:10;stroke-dasharray:none;stroke-opacity:1"
             d="M 0,0 -27.355,-2.984" /></g><g
           transform="translate(79.2351,117.9139)"
           id="g80"><path
             id="path82"
             style="fill:#ffffff;fill-opacity:1;fill-rule:nonzero;stroke:#1c7c7e;stroke-width:5.66900015;stroke-linecap:round;stroke-linejoin:round;stroke-miterlimit:10;stroke-dasharray:none;stroke-opacity:1"
             d="M 0,0 -12.589,-3.195" /></g><g
           transform="translate(44.0571,137.0722)"
           id="g84"><path
             id="path86"
             style="fill:#ffffff;fill-opacity:1;fill-rule:nonzero;stroke:#1c7c7e;stroke-width:5.66900015;stroke-linecap:round;stroke-linejoin:round;stroke-miterlimit:10;stroke-dasharray:none;stroke-opacity:1"
             d="M 0,0 -21.95,-31.218" /></g></g></g></g></svg>