<?xml version="1.0" encoding="UTF-8" standalone="no"?>
<svg
   xmlns:dc="http://purl.org/dc/elements/1.1/"
   xmlns:cc="http://creativecommons.org/ns#"
   xmlns:rdf="http://www.w3.org/1999/02/22-rdf-syntax-ns#"
   xmlns:svg="http://www.w3.org/2000/svg"
   xmlns="http://www.w3.org/2000/svg"
   viewBox="0 0 241.33333 240.444"
   height="240.444"
   width="241.33333"
   xml:space="preserve"
   id="svg2"
   version="1.1"><metadata
     id="metadata8"><rdf:RDF><cc:Work
         rdf:about=""><dc:format>image/svg+xml</dc:format><dc:type
           rdf:resource="http://purl.org/dc/dcmitype/StillImage" /></cc:Work></rdf:RDF></metadata><defs
     id="defs6"><clipPath
       id="clipPath18"
       clipPathUnits="userSpaceOnUse"><path
         id="path16"
         d="M 0,180.333 H 181 V 0 H 0 Z" /></clipPath></defs><g
     transform="matrix(1.3333333,0,0,-1.3333333,0,240.444)"
     id="g10"><g
       id="g12"><g
         clip-path="url(#clipPath18)"
         id="g14"><g
           transform="translate(173.6708,80.8867)"
           id="g20"><path
             id="path22"
             style="fill:#1c7c7e;fill-opacity:1;fill-rule:nonzero;stroke:none"
             d="m 0,0 -73.96,-73.96 c -5.033,-5.033 -13.194,-5.033 -18.227,0 L -166.147,0 c -5.033,5.033 -5.033,13.193 0,18.227 l 73.96,73.96 c 5.033,5.033 13.194,5.033 18.227,0 L 0,18.227 C 5.033,13.194 5.033,5.033 0,0" /></g><g
           transform="translate(173.6708,80.8867)"
           id="g24"><path
             id="path26"
             style="fill:none;stroke:#1c7c7e;stroke-width:5.40299988;stroke-linecap:round;stroke-linejoin:round;stroke-miterlimit:10;stroke-dasharray:none;stroke-opacity:1"
             d="m 0,0 -73.96,-73.96 c -5.033,-5.033 -13.194,-5.033 -18.227,0 L -166.147,0 c -5.033,5.033 -5.033,13.193 0,18.227 l 73.96,73.96 c 5.033,5.033 13.194,5.033 18.227,0 L 0,18.227 C 5.033,13.194 5.033,5.033 0,0 Z" /></g><g
           transform="translate(162.102,80.8867)"
           id="g28"><path
             id="path30"
             style="fill:#1c7c7e;fill-opacity:1;fill-rule:nonzero;stroke:none"
             d="m 0,0 -62.391,-62.391 c -5.033,-5.033 -13.194,-5.033 -18.227,0 L -143.009,0 c -5.033,5.033 -5.033,13.194 0,18.227 l 62.391,62.391 c 5.033,5.033 13.194,5.033 18.227,0 L 0,18.227 C 5.033,13.194 5.033,5.033 0,0" /></g><g
           transform="translate(162.102,80.8867)"
           id="g32"><path
             id="path34"
             style="fill:none;stroke:#ffffff;stroke-width:4.7249999;stroke-linecap:round;stroke-linejoin:round;stroke-miterlimit:10;stroke-dasharray:none;stroke-opacity:1"
             d="m 0,0 -62.391,-62.391 c -5.033,-5.033 -13.194,-5.033 -18.227,0 L -143.009,0 c -5.033,5.033 -5.033,13.194 0,18.227 l 62.391,62.391 c 5.033,5.033 13.194,5.033 18.227,0 L 0,18.227 C 5.033,13.194 5.033,5.033 0,0 Z" /></g><g
           transform="translate(103.3826,126.7352)"
           id="g36"><path
             id="path38"
             style="fill:#ffffff;fill-opacity:1;fill-rule:nonzero;stroke:none"
             d="m 0,0 c 0,-4.175 -3.384,-7.559 -7.559,-7.559 -4.175,0 -7.559,3.384 -7.559,7.559 0,4.175 3.384,7.559 7.559,7.559 C -3.384,7.559 0,4.175 0,0" /></g><g
           transform="translate(82.6171,86.3164)"
           id="g40"><path
             id="path42"
             style="fill:#ffffff;fill-opacity:1;fill-rule:nonzero;stroke:none"
             d="m 0,0 -5.418,-15.546 c -0.159,-0.569 -0.412,-1.108 -0.746,-1.595 l -8.938,-13.011 c -1.169,-1.702 -0.819,-4.021 0.803,-5.301 v 0 c 1.708,-1.349 4.188,-1.05 5.526,0.666 l 11.042,14.159 c 0.447,0.573 0.773,1.23 0.958,1.932 l 3.91,11.293" /></g><g
           transform="translate(85.9035,108.2229)"
           id="g44"><path
             id="path46"
             style="fill:#ffffff;fill-opacity:1;fill-rule:nonzero;stroke:none"
             d="m 0,0 -7.69,-4.62 c -1.101,-0.662 -1.836,-1.792 -1.995,-3.066 l -1.529,-12.266 c -0.18,-1.449 -1.412,-2.537 -2.873,-2.537 v 0 c -1.716,0 -3.055,1.485 -2.88,3.192 l 1.596,15.518 c 0.111,1.075 0.634,2.066 1.459,2.764 L 1.31,11.853 c 0,0 5.114,-4.366 10.943,-4.051 l 7.021,-14.035 c 0.352,-0.702 0.893,-1.291 1.564,-1.699 l 12.359,-7.529 c 1.199,-0.731 1.615,-2.273 0.945,-3.507 v 0 c -0.671,-1.237 -2.196,-1.729 -3.463,-1.116 l -12.951,6.264 c -0.792,0.384 -1.444,1.007 -1.861,1.783 l -3.614,6.719 -2.95,-13.294 10.878,-13.615 c 0.515,-0.645 0.875,-1.4 1.051,-2.206 l 4.512,-20.6 c 0.543,-2.026 -0.662,-4.108 -2.69,-4.646 v 0 c -1.851,-0.491 -3.777,0.476 -4.49,2.254 l -5.912,18.511 c -0.262,0.822 -0.719,1.569 -1.331,2.178 l -13.61,13.53 c -1.511,1.502 -2.146,3.675 -1.682,5.755 l 1.613,7.225 -0.314,10.407" /></g></g></g></g></svg>