<?xml version="1.0" encoding="UTF-8" standalone="no"?>
<svg
   xmlns:dc="http://purl.org/dc/elements/1.1/"
   xmlns:cc="http://creativecommons.org/ns#"
   xmlns:rdf="http://www.w3.org/1999/02/22-rdf-syntax-ns#"
   xmlns:svg="http://www.w3.org/2000/svg"
   xmlns="http://www.w3.org/2000/svg"
   viewBox="0 0 195.10268 193.08533"
   height="193.08533"
   width="195.10268"
   xml:space="preserve"
   id="svg2"
   version="1.1"><metadata
     id="metadata8"><rdf:RDF><cc:Work
         rdf:about=""><dc:format>image/svg+xml</dc:format><dc:type
           rdf:resource="http://purl.org/dc/dcmitype/StillImage" /></cc:Work></rdf:RDF></metadata><defs
     id="defs6"><clipPath
       id="clipPath22"
       clipPathUnits="userSpaceOnUse"><path
         id="path20"
         d="M 0,144.814 H 146.327 V 0 H 0 Z" /></clipPath></defs><g
     transform="matrix(1.3333333,0,0,-1.3333333,0,193.08533)"
     id="g10"><g
       transform="translate(86.4114,51.5442)"
       id="g12"><path
         id="path14"
         style="fill:none;stroke:#1c7c7e;stroke-width:5.66900015;stroke-linecap:round;stroke-linejoin:round;stroke-miterlimit:10;stroke-dasharray:none;stroke-opacity:1"
         d="M 0,0 -36.035,14.353" /></g><g
       id="g16"><g
         clip-path="url(#clipPath22)"
         id="g18"><g
           transform="translate(52.9934,27.9348)"
           id="g24"><path
             id="path26"
             style="fill:none;stroke:#1c7c7e;stroke-width:5.66900015;stroke-linecap:butt;stroke-linejoin:round;stroke-miterlimit:10;stroke-dasharray:none;stroke-opacity:1"
             d="m 0,0 c 0,-13.524 -10.963,-24.487 -24.487,-24.487 -13.524,0 -24.487,10.963 -24.487,24.487 0,13.524 10.963,24.487 24.487,24.487 C -10.963,24.487 0,13.524 0,0 Z" /></g><g
           transform="translate(142.874,27.9348)"
           id="g28"><path
             id="path30"
             style="fill:none;stroke:#1c7c7e;stroke-width:5.66900015;stroke-linecap:butt;stroke-linejoin:round;stroke-miterlimit:10;stroke-dasharray:none;stroke-opacity:1"
             d="m 0,0 c 0,-13.524 -10.963,-24.487 -24.487,-24.487 -13.524,0 -24.487,10.963 -24.487,24.487 0,13.524 10.963,24.487 24.487,24.487 C -10.963,24.487 0,13.524 0,0 Z" /></g><g
           transform="translate(90.6846,26.373)"
           id="g32"><path
             id="path34"
             style="fill:none;stroke:#1c7c7e;stroke-width:5.66900015;stroke-linecap:butt;stroke-linejoin:round;stroke-miterlimit:10;stroke-dasharray:none;stroke-opacity:1"
             d="m 0,0 c 0,-6.037 -4.894,-10.931 -10.931,-10.931 -6.037,0 -10.931,4.894 -10.931,10.931 0,6.037 4.894,10.931 10.931,10.931 C -4.894,10.931 0,6.037 0,0 Z" /></g><g
           transform="translate(47.9326,57.2277)"
           id="g36"><path
             id="path38"
             style="fill:none;stroke:#1c7c7e;stroke-width:5.66900015;stroke-linecap:round;stroke-linejoin:round;stroke-miterlimit:10;stroke-dasharray:none;stroke-opacity:1"
             d="M 0,0 29.351,-29.293 H 71.73 L 42.752,13.025" /></g><g
           transform="translate(51.1966,75.1536)"
           id="g40"><path
             id="path42"
             style="fill:none;stroke:#1c7c7e;stroke-width:5.66900015;stroke-linecap:round;stroke-linejoin:round;stroke-miterlimit:10;stroke-dasharray:none;stroke-opacity:1"
             d="m 0,0 -11.367,-39.042 c 0,0 -2.965,-8.177 -11.323,-8.177" /></g><g
           transform="translate(90.6846,70.2529)"
           id="g44"><path
             id="path46"
             style="fill:none;stroke:#1c7c7e;stroke-width:5.66900015;stroke-linecap:round;stroke-linejoin:round;stroke-miterlimit:10;stroke-dasharray:none;stroke-opacity:1"
             d="M 0,0 -7.526,-32.949" /></g><g
           transform="translate(32.2522,73.1768)"
           id="g48"><path
             id="path50"
             style="fill:none;stroke:#1c7c7e;stroke-width:5.66900015;stroke-linecap:round;stroke-linejoin:round;stroke-miterlimit:10;stroke-dasharray:none;stroke-opacity:1"
             d="M 0,0 C 0,0 1.69,-5.603 7.599,-7.414" /></g><g
           transform="translate(51.7456,90.5173)"
           id="g52"><path
             id="path54"
             style="fill:#ffffff;fill-opacity:1;fill-rule:nonzero;stroke:none"
             d="m 0,0 14.558,28.415 c 2.105,4.109 7.837,4.477 10.45,0.671 L 46.839,-2.713 c 1.582,-2.304 1.394,-5.389 -0.455,-7.484 l -16.85,-19.088 c -0.984,-1.114 -1.526,-2.548 -1.526,-4.034 v -28.499 c 0,-3.367 -2.729,-6.096 -6.096,-6.096 h -1.84 c -3.313,0 -6.019,2.646 -6.094,5.959 l -0.801,35.644 c -0.034,1.531 0.509,3.019 1.522,4.168 l 8.745,9.918 c 1.869,2.119 2.036,5.244 0.404,7.551 L 17.25,4.654 C 17.17,4.767 16.999,4.758 16.932,4.637 L 8.118,-11.314 c -0.897,-1.623 -2.482,-2.749 -4.309,-3.061 l -22.368,-3.819 c -3.266,-0.558 -6.38,1.596 -7.01,4.849 v 0 c -0.646,3.332 1.555,6.549 4.894,7.156 l 16.34,2.971 C -2.468,-2.878 -0.865,-1.689 0,0" /></g><g
           transform="translate(51.7456,90.5173)"
           id="g56"><path
             id="path58"
             style="fill:none;stroke:#1c7c7e;stroke-width:5.66900015;stroke-linecap:round;stroke-linejoin:round;stroke-miterlimit:10;stroke-dasharray:none;stroke-opacity:1"
             d="m 0,0 14.558,28.415 c 2.105,4.109 7.837,4.477 10.45,0.671 L 46.839,-2.713 c 1.582,-2.304 1.394,-5.389 -0.455,-7.484 l -16.85,-19.088 c -0.984,-1.114 -1.526,-2.548 -1.526,-4.034 v -28.499 c 0,-3.367 -2.729,-6.096 -6.096,-6.096 h -1.84 c -3.313,0 -6.019,2.646 -6.094,5.959 l -0.801,35.644 c -0.034,1.531 0.509,3.019 1.522,4.168 l 8.745,9.918 c 1.869,2.119 2.036,5.244 0.404,7.551 L 17.25,4.654 C 17.17,4.767 16.999,4.758 16.932,4.637 L 8.118,-11.314 c -0.897,-1.623 -2.482,-2.749 -4.309,-3.061 l -22.368,-3.819 c -3.266,-0.558 -6.38,1.596 -7.01,4.849 v 0 c -0.646,3.332 1.555,6.549 4.894,7.156 l 16.34,2.971 C -2.468,-2.878 -0.865,-1.689 0,0 Z" /></g><g
           transform="translate(70.9659,99.2355)"
           id="g60"><path
             id="path62"
             style="fill:#ffffff;fill-opacity:1;fill-rule:nonzero;stroke:#1c7c7e;stroke-width:5.66900015;stroke-linecap:round;stroke-linejoin:round;stroke-miterlimit:10;stroke-dasharray:none;stroke-opacity:1"
             d="M 0,0 -8.963,-16.161" /></g><g
           transform="translate(72.3833,128.069)"
           id="g64"><path
             id="path66"
             style="fill:#ffffff;fill-opacity:1;fill-rule:nonzero;stroke:none"
             d="m 0,0 c 0,-6.75 -5.472,-12.221 -12.221,-12.221 -6.75,0 -12.222,5.471 -12.222,12.221 0,6.75 5.472,12.221 12.222,12.221 C -5.472,12.221 0,6.75 0,0" /></g><g
           transform="translate(72.3833,128.069)"
           id="g68"><path
             id="path70"
             style="fill:none;stroke:#1c7c7e;stroke-width:5.66900015;stroke-linecap:round;stroke-linejoin:round;stroke-miterlimit:10;stroke-dasharray:none;stroke-opacity:1"
             d="m 0,0 c 0,-6.75 -5.472,-12.221 -12.221,-12.221 -6.75,0 -12.222,5.471 -12.222,12.221 0,6.75 5.472,12.221 12.222,12.221 C -5.472,12.221 0,6.75 0,0 Z" /></g><g
           transform="translate(70.9658,134.3738)"
           id="g72"><path
             id="path74"
             style="fill:#ffffff;fill-opacity:1;fill-rule:nonzero;stroke:#1c7c7e;stroke-width:5.66900015;stroke-linecap:round;stroke-linejoin:round;stroke-miterlimit:10;stroke-dasharray:none;stroke-opacity:1"
             d="m 0,0 c 0,0 3.856,6.203 12.193,0 8.337,-6.203 11.632,1.378 11.632,1.378 0,0 -4.96,-10.205 -13.884,-7.092 -8.925,3.113 -8.524,0 -8.524,0" /></g></g></g></g></svg>