<?xml version="1.0" encoding="UTF-8" standalone="no"?>
<!-- Created with Inkscape (http://www.inkscape.org/) -->

<svg
   xmlns:dc="http://purl.org/dc/elements/1.1/"
   xmlns:cc="http://creativecommons.org/ns#"
   xmlns:rdf="http://www.w3.org/1999/02/22-rdf-syntax-ns#"
   xmlns:svg="http://www.w3.org/2000/svg"
   xmlns="http://www.w3.org/2000/svg"
   xmlns:sodipodi="http://sodipodi.sourceforge.net/DTD/sodipodi-0.dtd"
   xmlns:inkscape="http://www.inkscape.org/namespaces/inkscape"
   width="63.791134mm"
   height="46.116001mm"
   viewBox="0 0 63.791134 46.116001"
   version="1.1"
   id="svg8"
   inkscape:version="0.92.5 (2060ec1f9f, 2020-04-08)"
   sodipodi:docname="shared_bike.svg">
  <defs
     id="defs2">
    <clipPath
       clipPathUnits="userSpaceOnUse"
       id="clipPath18">
      <path
         d="M 0,146.221 H 146.327 V 0 H 0 Z"
         id="path16"
         inkscape:connector-curvature="0" />
    </clipPath>
  </defs>
  <sodipodi:namedview
     id="base"
     pagecolor="#ffffff"
     bordercolor="#666666"
     borderopacity="1.0"
     inkscape:pageopacity="0.0"
     inkscape:pageshadow="2"
     inkscape:zoom="0.51184889"
     inkscape:cx="-128.87823"
     inkscape:cy="-148.8431"
     inkscape:document-units="mm"
     inkscape:current-layer="layer1"
     showgrid="false"
     inkscape:window-width="1318"
     inkscape:window-height="704"
     inkscape:window-x="0"
     inkscape:window-y="27"
     inkscape:window-maximized="1"
     fit-margin-top="0"
     fit-margin-left="0"
     fit-margin-right="0"
     fit-margin-bottom="0" />
  <metadata
     id="metadata5">
    <rdf:RDF>
      <cc:Work
         rdf:about="">
        <dc:format>image/svg+xml</dc:format>
        <dc:type
           rdf:resource="http://purl.org/dc/dcmitype/StillImage" />
        <dc:title></dc:title>
      </cc:Work>
    </rdf:RDF>
  </metadata>
  <g
     inkscape:label="Camada 1"
     inkscape:groupmode="layer"
     id="layer1"
     transform="translate(-118.01032,-60.972183)">
    <path
       style="fill:#008080;stroke-width:0.05540119"
       d="m 148.73925,60.972613 c -3.36748,0.0022 -3.26853,-0.01185 -3.77215,0.534101 -0.25496,0.276398 -0.54817,0.808949 -2.0387,3.702253 -0.95754,1.85871 -2.51422,4.87684 -3.45922,6.706903 l -1.71819,3.327311 -0.60617,-0.209051 c -1.46492,-0.505219 -2.66626,-0.712504 -4.35656,-0.751702 -1.78659,-0.04142 -3.03068,0.113989 -4.58684,0.572947 -3.20415,0.945019 -6.04434,3.049041 -7.91826,5.865926 -1.11479,1.675765 -1.88856,3.777668 -2.20274,5.98333 -0.10533,0.739492 -0.089,2.727335 0.0291,3.545681 0.4596,3.183969 1.85682,5.919515 4.17901,8.181517 2.36186,2.300651 5.43277,3.707071 8.79375,4.027401 v -9e-5 c 3.61273,0.34434 7.48758,-0.79703 10.30462,-3.035274 3.47597,-2.7618 5.40161,-6.703568 5.40161,-11.057192 0,-3.31638 -1.14374,-6.436147 -3.30048,-9.002697 -0.7698,-0.916069 -2.04974,-2.061445 -3.0014,-2.685766 -0.1295,-0.08496 -0.23546,-0.177422 -0.23546,-0.205484 0,-0.05445 1.81691,-3.593624 1.87618,-3.654636 0.0193,-0.01988 0.82048,1.075364 1.7803,2.433859 0.95983,1.358507 2.92934,4.143073 4.3767,6.18795 1.28566,1.816442 2.72531,3.854032 3.5553,5.031009 -0.13124,0.210583 -0.25174,0.431748 -0.35945,0.663951 -0.65274,1.407228 -0.65274,3.369613 0,4.77684 1.20993,2.608468 4.01185,3.936984 6.8006,3.224522 0.62214,-0.158936 1.42359,-0.482047 1.78096,-0.717945 l 0.64977,-0.428812 4.75065,2.914081 4.75077,2.914189 -0.1,0.715345 c -0.15548,1.11142 0.20395,2.77657 0.82182,3.8071 0.64483,1.07549 1.97215,2.14924 3.08981,2.49955 v -1.9e-4 c 1.05591,0.3311 2.70872,0.33162 3.82106,0.001 1.3482,-0.40037 2.617,-1.51686 3.3469,-2.94492 0.5226,-1.02247 0.60597,-1.35644 0.60887,-2.44101 0.005,-1.882257 -0.42947,-2.952825 -1.72371,-4.247058 -1.29178,-1.29178 -2.37123,-1.731677 -4.21558,-1.717984 -1.24853,0.0093 -2.80572,0.513066 -3.25352,1.052628 -0.11106,0.133827 -0.31544,0.243354 -0.45425,0.243354 -0.1388,0 -2.36364,-1.306537 -4.94401,-2.903371 l -4.69157,-2.903366 0.1504,-0.669142 c 0.0827,-0.368067 0.0853,-1.017518 0.006,-1.44314 l -0.14456,-0.773883 4.74167,-2.90543 4.74167,-2.905419 1.23008,0.6106 c 1.66205,0.825012 2.79855,0.933412 4.46802,0.426331 1.10574,-0.335861 1.41614,-0.529355 2.3526,-1.466401 1.3135,-1.314326 1.74768,-2.381254 1.72685,-4.2436 -0.0452,-4.040989 -4.1524,-6.758842 -8.02463,-5.310052 -1.10955,0.415139 -2.4901,1.652696 -3.02694,2.713458 -0.48821,0.964698 -0.76495,2.426474 -0.63938,3.377206 l 0.1068,0.808618 -4.73345,2.938431 -4.73334,2.938422 -0.68905,-0.434876 c -0.8344,-0.52673 -1.73582,-0.824427 -2.63675,-0.913685 l 1.28678,-4.516064 c 1.20915,-4.243698 2.20953,-7.726841 2.22308,-7.740367 0.0135,-0.01353 0.69648,-0.046 1.51769,-0.07206 1.36611,-0.04336 1.51668,-0.05792 1.77013,-0.170966 0.32945,-0.146945 0.59339,-0.388045 0.79066,-0.722163 0.20989,-0.355516 0.24203,-1.028668 0.0684,-1.432318 -0.13774,-0.320152 -0.54728,-0.738059 -0.84522,-0.862549 -0.35684,-0.149096 -0.64991,-0.158079 -3.02045,-0.09262 l -2.36733,0.06535 -1.65121,0.354913 c -0.90817,0.195224 -1.77522,0.408294 -1.92682,0.473509 -0.56094,0.241311 -0.93716,0.860162 -0.93716,1.541493 0,0.588472 0.41468,1.203212 0.98055,1.453529 0.42279,0.187013 0.68665,0.181892 1.67503,-0.03267 0.50073,-0.108704 0.92014,-0.187875 0.93208,-0.175943 0.0171,0.01713 -2.72963,9.719753 -3.51235,12.42556 -0.18887,0.08565 -0.37335,0.181498 -0.55282,0.287178 -0.0211,-0.02947 -0.0405,-0.05597 -0.0624,-0.087 -0.57276,-0.810911 -5.67436,-8.02011 -6.57944,-9.297554 -0.43177,-0.609412 -1.42555,-2.01252 -2.20848,-3.118046 l -1.42354,-2.009995 1.61454,-3.128435 1.61442,-3.128436 h 2.36612 c 1.92197,0 2.41742,-0.01526 2.63935,-0.08148 1.23052,-0.367116 1.2947,-2.128619 0.0939,-2.577887 -0.28192,-0.105455 -0.43023,-0.110499 -3.1608,-0.108822 z m 27.25923,13.16504 a 3.5206289,3.5206289 0 0 1 3.52068,3.520675 3.5206289,3.5206289 0 0 1 -3.52068,3.520575 3.5206289,3.5206289 0 0 1 -3.52068,-3.520575 3.5206289,3.5206289 0 0 1 3.52068,-3.520675 z m -43.529,3.432273 c 1.00985,0.0071 2.01409,0.145042 2.99069,0.413238 0.76659,0.210519 0.78259,0.219753 0.67639,0.390508 -0.045,0.0724 -0.79982,1.527693 -1.6774,3.234048 -2.14354,4.167916 -2.04382,3.98609 -2.19646,4.003385 -1.208,0.136881 -2.07406,0.759865 -2.48461,1.787233 -0.15058,0.376808 -0.20387,1.119906 -0.112,1.562157 0.21696,1.044334 1.09147,1.899036 2.17775,2.128514 1.37924,0.291365 2.80186,-0.541856 3.20796,-1.878883 0.1706,-0.561657 0.1315,-1.428784 -0.0859,-1.906256 l -0.15592,-0.342467 1.92379,-3.729521 c 1.05811,-2.051187 1.93303,-3.739407 1.94423,-3.751695 0.0448,-0.04911 1.11012,0.814481 1.59084,1.28959 1.70148,1.681621 2.75626,3.755176 3.11036,6.114583 0.11252,0.749035 0.11147,2.233043 -0.002,2.996858 -0.29808,2.007458 -1.107,3.796041 -2.42737,5.367097 -1.81504,2.159654 -4.33706,3.508854 -7.23397,3.870082 h -1e-4 c -0.56734,0.07074 -1.90886,0.09682 -2.2735,0.04415 -0.0762,-0.01103 -0.36288,-0.04795 -0.63712,-0.08213 -1.16338,-0.145012 -2.41384,-0.540685 -3.54564,-1.121874 -5.77777,-2.966903 -7.70426,-10.038953 -4.19761,-15.409002 0.81311,-1.245198 1.9243,-2.350567 3.20028,-3.183619 0.92952,-0.606863 2.46423,-1.265487 3.49417,-1.499516 0.83141,-0.188909 1.67267,-0.287573 2.51102,-0.296155 0.0674,-7.67e-4 0.1347,-7.67e-4 0.20202,-3.44e-4 z m 24.39514,8.507221 a 3.5206289,3.5206289 0 0 1 3.52068,3.520684 3.5206289,3.5206289 0 0 1 -3.52068,3.520567 3.5206289,3.5206289 0 0 1 -3.52058,-3.520567 3.5206289,3.5206289 0 0 1 3.52058,-3.520684 z m 19.13386,11.786498 a 3.5206289,3.5206289 0 0 1 3.52068,3.520565 3.5206289,3.5206289 0 0 1 -3.52068,3.52069 3.5206289,3.5206289 0 0 1 -3.52068,-3.52069 3.5206289,3.5206289 0 0 1 3.52068,-3.520565 z"
       id="path21-9"
       inkscape:connector-curvature="0" />
  </g>
</svg>
