<?xml version="1.0" encoding="UTF-8" standalone="no"?>
<svg
   xmlns:dc="http://purl.org/dc/elements/1.1/"
   xmlns:cc="http://creativecommons.org/ns#"
   xmlns:rdf="http://www.w3.org/1999/02/22-rdf-syntax-ns#"
   xmlns:svg="http://www.w3.org/2000/svg"
   xmlns="http://www.w3.org/2000/svg"
   viewBox="0 0 201.14932 200.38268"
   height="200.38268"
   width="201.14932"
   xml:space="preserve"
   id="svg2"
   version="1.1"><metadata
     id="metadata8"><rdf:RDF><cc:Work
         rdf:about=""><dc:format>image/svg+xml</dc:format><dc:type
           rdf:resource="http://purl.org/dc/dcmitype/StillImage" /></cc:Work></rdf:RDF></metadata><defs
     id="defs6"><clipPath
       id="clipPath18"
       clipPathUnits="userSpaceOnUse"><path
         id="path16"
         d="M 0,150.287 H 150.862 V 0 H 0 Z" /></clipPath></defs><g
     transform="matrix(1.3333333,0,0,-1.3333333,0,200.38267)"
     id="g10"><g
       id="g12"><g
         clip-path="url(#clipPath18)"
         id="g14"><g
           transform="translate(145.8572,75.4023)"
           id="g20"><path
             id="path22"
             style="fill:none;stroke:#1c7c7e;stroke-width:8.33399963;stroke-linecap:butt;stroke-linejoin:round;stroke-miterlimit:10;stroke-dasharray:none;stroke-opacity:1"
             d="m 0,0 c 0,-38.697 -31.37,-70.067 -70.067,-70.067 -38.697,0 -70.067,31.37 -70.067,70.067 0,38.697 31.37,70.067 70.067,70.067 C -31.37,70.067 0,38.697 0,0 Z" /></g><g
           transform="translate(95.0846,108.953)"
           id="g24"><path
             id="path26"
             style="fill:#1c7c7e;fill-opacity:1;fill-rule:nonzero;stroke:none"
             d="M 0,0 -19.462,13.666 -38.589,0 v -17.482 l 12.631,8.946 v -66.288 h 11.71 V -7.391 L 0,-17.482 Z" /></g><g
           transform="translate(71.7111,23.3112)"
           id="g28"><path
             id="path30"
             style="fill:#ffffff;fill-opacity:1;fill-rule:nonzero;stroke:none"
             d="M 0,0 C -11.462,0.893 -21.768,5.411 -29.904,12.329 L 48.89,79.734 C 54.465,70.625 57.333,59.744 56.44,48.282 54.187,19.364 28.918,-2.253 0,0 M 8.158,104.722 C 19.94,103.804 30.509,99.064 38.746,91.815 L -40.267,24.222 c -5.887,9.261 -8.933,20.436 -8.015,32.218 2.252,28.918 27.522,50.535 56.44,48.282 M 9.2,118.107 C -27.11,120.935 -58.838,93.793 -61.667,57.483 -64.495,21.172 -37.353,-10.556 -1.043,-13.385 35.268,-16.213 66.996,10.929 69.825,47.24 72.653,83.55 45.511,115.278 9.2,118.107" /></g><g
           transform="translate(71.7111,23.3112)"
           id="g32"><path
             id="path34"
             style="fill:none;stroke:#1c7c7e;stroke-width:5.66900015;stroke-linecap:butt;stroke-linejoin:round;stroke-miterlimit:10;stroke-dasharray:none;stroke-opacity:1"
             d="M 0,0 C -11.462,0.893 -21.768,5.411 -29.904,12.329 L 48.89,79.734 C 54.465,70.625 57.333,59.744 56.44,48.282 54.187,19.364 28.918,-2.253 0,0 Z M 8.158,104.722 C 19.94,103.804 30.509,99.064 38.746,91.815 L -40.267,24.222 c -5.887,9.261 -8.933,20.436 -8.015,32.218 2.252,28.918 27.522,50.535 56.44,48.282 z M 9.2,118.107 C -27.11,120.935 -58.838,93.793 -61.667,57.483 -64.495,21.172 -37.353,-10.556 -1.043,-13.385 35.268,-16.213 66.996,10.929 69.825,47.24 72.653,83.55 45.511,115.278 9.2,118.107 Z" /></g></g></g></g></svg>